  0
SECTION
  2
HEADER
  9
$ANGBASE
  50
0.0
  9
$ANGDIR
  70
1
  9
$MEASUREMENT
  70
0
  0
ENDSEC
  0
SECTION
  2
TABLES
  0
TABLE
  2
LTYPE
  70
4
  0
LTYPE
  5
40F
  2
CONTINUOUS
  70
0
  3
Solid line
  72
65
  73
0
  40
0.0
  0
LTYPE
  5
410
  2
DASHDOT
 70
0
  3
Dash Dot ____ _ ____ _
 72
65
 73
4
 40
2.0
 49
1.25
 49
-0.25
 49
0.25
 49
-0.25
  0
LTYPE
  5
411
  2
DASHED
 70
0
  3
Dashed __ __ __ __ __
 72
65
 73
2
 40
0.75
 49
0.5
 49
-0.25
  0
LTYPE
  5
43B
  2
DOTTED
 70
0
  3
Dotted .  .  .  .
 72
65
 73
2
 40
0.2
 49
0.0
 49
-0.2
  0
ENDTAB
  0
TABLE
  2
STYLE
  70
4
  0
STYLE
  2
KICAD
  70
0
  40
0
  41
1
  42
1
  50
0
  71
0
  3
isocp.shx
  0
STYLE
  2
KICADB
  70
0
  40
0
  41
1
  42
1
  50
0
  71
0
  3
isocp.shx
  0
STYLE
  2
KICADI
  70
0
  40
0
  41
1
  42
1
  50
15
  71
0
  3
isocp.shx
  0
STYLE
  2
KICADBI
  70
0
  40
0
  41
1
  42
1
  50
15
  71
0
  3
isocp.shx
  0
ENDTAB
  0
TABLE
  2
LAYER
  70
1
  0
LAYER
  2
BLACK
  70
0
  62
7
  6
CONTINUOUS
  0
ENDTAB
  0
ENDSEC
  0
SECTION
  2
ENTITIES
0
LINE
8
BLACK
6
CONTINUOUS
10
2.75629
20
0.00288512
11
2.75642
21
0.00290791
0
LINE
8
BLACK
6
CONTINUOUS
10
2.75642
20
0.00290791
11
2.75653
21
0.00284232
0
LINE
8
BLACK
6
CONTINUOUS
10
2.75653
20
0.00284232
11
2.75692
21
0.00277469
0
LINE
8
BLACK
6
CONTINUOUS
10
2.75692
20
0.00277469
11
2.7575
21
0.00228154
0
LINE
8
BLACK
6
CONTINUOUS
10
2.7575
20
0.00228154
11
2.75817
21
0.00189799
0
LINE
8
BLACK
6
CONTINUOUS
10
2.75817
20
0.00189799
11
2.75826
21
0.00164764
0
LINE
8
BLACK
6
CONTINUOUS
10
2.75826
20
0.00164764
11
2.75846
21
0.00147638
0
LINE
8
BLACK
6
CONTINUOUS
10
2.75846
20
0.00147638
11
2.7586
21
0.000720827
0
LINE
8
BLACK
6
CONTINUOUS
10
2.7586
20
0.000720827
11
2.75886
21
0
0
LINE
8
BLACK
6
CONTINUOUS
10
2.75886
20
0
11
2.75886
21
-3.93701
0
LINE
8
BLACK
6
CONTINUOUS
10
2.75886
20
-3.93701
11
2.75879
21
-3.93739
0
LINE
8
BLACK
6
CONTINUOUS
10
2.75879
20
-3.93739
11
2.75881
21
-3.93752
0
LINE
8
BLACK
6
CONTINUOUS
10
2.75881
20
-3.93752
11
2.75875
21
-3.93763
0
LINE
8
BLACK
6
CONTINUOUS
10
2.75875
20
-3.93763
11
2.75868
21
-3.93802
0
LINE
8
BLACK
6
CONTINUOUS
10
2.75868
20
-3.93802
11
2.75819
21
-3.93861
0
LINE
8
BLACK
6
CONTINUOUS
10
2.75819
20
-3.93861
11
2.7578
21
-3.93927
0
LINE
8
BLACK
6
CONTINUOUS
10
2.7578
20
-3.93927
11
2.75755
21
-3.93936
0
LINE
8
BLACK
6
CONTINUOUS
10
2.75755
20
-3.93936
11
2.75738
21
-3.93957
0
LINE
8
BLACK
6
CONTINUOUS
10
2.75738
20
-3.93957
11
2.75663
21
-3.9397
0
LINE
8
BLACK
6
CONTINUOUS
10
2.75663
20
-3.9397
11
2.75591
21
-3.93996
0
LINE
8
BLACK
6
CONTINUOUS
10
2.75591
20
-3.93996
11
0
21
-3.93996
0
LINE
8
BLACK
6
CONTINUOUS
10
0
20
-3.93996
11
-0.000383543
21
-3.93989
0
LINE
8
BLACK
6
CONTINUOUS
10
-0.000383543
20
-3.93989
11
-0.000512756
21
-3.93992
0
LINE
8
BLACK
6
CONTINUOUS
10
-0.000512756
20
-3.93992
11
-0.000626378
21
-3.93985
0
LINE
8
BLACK
6
CONTINUOUS
10
-0.000626378
20
-3.93985
11
-0.00100992
21
-3.93978
0
LINE
8
BLACK
6
CONTINUOUS
10
-0.00100992
20
-3.93978
11
-0.0015976
21
-3.93929
0
LINE
8
BLACK
6
CONTINUOUS
10
-0.0015976
20
-3.93929
11
-0.00226193
21
-3.93891
0
LINE
8
BLACK
6
CONTINUOUS
10
-0.00226193
20
-3.93891
11
-0.00235303
21
-3.93866
0
LINE
8
BLACK
6
CONTINUOUS
10
-0.00235303
20
-3.93866
11
-0.00255717
21
-3.93848
0
LINE
8
BLACK
6
CONTINUOUS
10
-0.00255717
20
-3.93848
11
-0.00269039
21
-3.93773
0
LINE
8
BLACK
6
CONTINUOUS
10
-0.00269039
20
-3.93773
11
-0.00295276
21
-3.93701
0
LINE
8
BLACK
6
CONTINUOUS
10
-0.00295276
20
-3.93701
11
-0.00295276
21
0
0
LINE
8
BLACK
6
CONTINUOUS
10
-0.00295276
20
0
11
-0.00288512
21
0.000383543
0
LINE
8
BLACK
6
CONTINUOUS
10
-0.00288512
20
0.000383543
11
-0.00290791
21
0.000512756
0
LINE
8
BLACK
6
CONTINUOUS
10
-0.00290791
20
0.000512756
11
-0.00284232
21
0.000626378
0
LINE
8
BLACK
6
CONTINUOUS
10
-0.00284232
20
0.000626378
11
-0.00277469
21
0.00100992
0
LINE
8
BLACK
6
CONTINUOUS
10
-0.00277469
20
0.00100992
11
-0.00228154
21
0.0015976
0
LINE
8
BLACK
6
CONTINUOUS
10
-0.00228154
20
0.0015976
11
-0.00189799
21
0.00226193
0
LINE
8
BLACK
6
CONTINUOUS
10
-0.00189799
20
0.00226193
11
-0.00164764
21
0.00235303
0
LINE
8
BLACK
6
CONTINUOUS
10
-0.00164764
20
0.00235303
11
-0.00147638
21
0.00255717
0
LINE
8
BLACK
6
CONTINUOUS
10
-0.00147638
20
0.00255717
11
-0.000720827
21
0.00269039
0
LINE
8
BLACK
6
CONTINUOUS
10
-0.000720827
20
0.00269039
11
0
21
0.00295276
0
LINE
8
BLACK
6
CONTINUOUS
10
0
20
0.00295276
11
2.75591
21
0.00295276
0
LINE
8
BLACK
6
CONTINUOUS
10
2.75591
20
0.00295276
11
2.75629
21
0.00288512
0
LINE
8
BLACK
6
CONTINUOUS
10
0.00295276
20
-0.00295276
11
0.00295276
21
-3.93406
0
LINE
8
BLACK
6
CONTINUOUS
10
0.00295276
20
-3.93406
11
2.75295
21
-3.93406
0
LINE
8
BLACK
6
CONTINUOUS
10
2.75295
20
-3.93406
11
2.75295
21
-0.00295276
0
LINE
8
BLACK
6
CONTINUOUS
10
2.75295
20
-0.00295276
11
0.00295276
21
-0.00295276
0
LINE
8
BLACK
6
CONTINUOUS
10
0.724618
20
-3.5526
11
0.728538
21
-3.53797
0
LINE
8
BLACK
6
CONTINUOUS
10
0.728538
20
-3.53797
11
0.733965
21
-3.52383
0
LINE
8
BLACK
6
CONTINUOUS
10
0.733965
20
-3.52383
11
0.740841
21
-3.51033
0
LINE
8
BLACK
6
CONTINUOUS
10
0.740841
20
-3.51033
11
0.749089
21
-3.49763
0
LINE
8
BLACK
6
CONTINUOUS
10
0.749089
20
-3.49763
11
0.75862
21
-3.48586
0
LINE
8
BLACK
6
CONTINUOUS
10
0.75862
20
-3.48586
11
0.769329
21
-3.47516
0
LINE
8
BLACK
6
CONTINUOUS
10
0.769329
20
-3.47516
11
0.781098
21
-3.46562
0
LINE
8
BLACK
6
CONTINUOUS
10
0.781098
20
-3.46562
11
0.793799
21
-3.45738
0
LINE
8
BLACK
6
CONTINUOUS
10
0.793799
20
-3.45738
11
0.807293
21
-3.4505
0
LINE
8
BLACK
6
CONTINUOUS
10
0.807293
20
-3.4505
11
0.821432
21
-3.44507
0
LINE
8
BLACK
6
CONTINUOUS
10
0.821432
20
-3.44507
11
0.83606
21
-3.44115
0
LINE
8
BLACK
6
CONTINUOUS
10
0.83606
20
-3.44115
11
0.851018
21
-3.43878
0
LINE
8
BLACK
6
CONTINUOUS
10
0.851018
20
-3.43878
11
0.866142
21
-3.43799
0
LINE
8
BLACK
6
CONTINUOUS
10
0.866142
20
-3.43799
11
0.881265
21
-3.43878
0
LINE
8
BLACK
6
CONTINUOUS
10
0.881265
20
-3.43878
11
0.896223
21
-3.44115
0
LINE
8
BLACK
6
CONTINUOUS
10
0.896223
20
-3.44115
11
0.910852
21
-3.44507
0
LINE
8
BLACK
6
CONTINUOUS
10
0.910852
20
-3.44507
11
0.92499
21
-3.4505
0
LINE
8
BLACK
6
CONTINUOUS
10
0.92499
20
-3.4505
11
0.938484
21
-3.45738
0
LINE
8
BLACK
6
CONTINUOUS
10
0.938484
20
-3.45738
11
0.951185
21
-3.46562
0
LINE
8
BLACK
6
CONTINUOUS
10
0.951185
20
-3.46562
11
0.962955
21
-3.47516
0
LINE
8
BLACK
6
CONTINUOUS
10
0.962955
20
-3.47516
11
0.973664
21
-3.48586
0
LINE
8
BLACK
6
CONTINUOUS
10
0.973664
20
-3.48586
11
0.983194
21
-3.49763
0
LINE
8
BLACK
6
CONTINUOUS
10
0.983194
20
-3.49763
11
0.991443
21
-3.51033
0
LINE
8
BLACK
6
CONTINUOUS
10
0.991443
20
-3.51033
11
0.998318
21
-3.52383
0
LINE
8
BLACK
6
CONTINUOUS
10
0.998318
20
-3.52383
11
1.00375
21
-3.53797
0
LINE
8
BLACK
6
CONTINUOUS
10
1.00375
20
-3.53797
11
1.00767
21
-3.5526
0
LINE
8
BLACK
6
CONTINUOUS
10
1.00767
20
-3.5526
11
1.01003
21
-3.56755
0
LINE
8
BLACK
6
CONTINUOUS
10
1.01003
20
-3.56755
11
1.01083
21
-3.58268
0
LINE
8
BLACK
6
CONTINUOUS
10
1.01083
20
-3.58268
11
1.01003
21
-3.5978
0
LINE
8
BLACK
6
CONTINUOUS
10
1.01003
20
-3.5978
11
1.00767
21
-3.61276
0
LINE
8
BLACK
6
CONTINUOUS
10
1.00767
20
-3.61276
11
1.00375
21
-3.62739
0
LINE
8
BLACK
6
CONTINUOUS
10
1.00375
20
-3.62739
11
0.998318
21
-3.64153
0
LINE
8
BLACK
6
CONTINUOUS
10
0.998318
20
-3.64153
11
0.991443
21
-3.65502
0
LINE
8
BLACK
6
CONTINUOUS
10
0.991443
20
-3.65502
11
0.983194
21
-3.66772
0
LINE
8
BLACK
6
CONTINUOUS
10
0.983194
20
-3.66772
11
0.973664
21
-3.67949
0
LINE
8
BLACK
6
CONTINUOUS
10
0.973664
20
-3.67949
11
0.962955
21
-3.6902
0
LINE
8
BLACK
6
CONTINUOUS
10
0.962955
20
-3.6902
11
0.951185
21
-3.69973
0
LINE
8
BLACK
6
CONTINUOUS
10
0.951185
20
-3.69973
11
0.938484
21
-3.70798
0
LINE
8
BLACK
6
CONTINUOUS
10
0.938484
20
-3.70798
11
0.92499
21
-3.71485
0
LINE
8
BLACK
6
CONTINUOUS
10
0.92499
20
-3.71485
11
0.910852
21
-3.72028
0
LINE
8
BLACK
6
CONTINUOUS
10
0.910852
20
-3.72028
11
0.896223
21
-3.7242
0
LINE
8
BLACK
6
CONTINUOUS
10
0.896223
20
-3.7242
11
0.881265
21
-3.72657
0
LINE
8
BLACK
6
CONTINUOUS
10
0.881265
20
-3.72657
11
0.866142
21
-3.72736
0
LINE
8
BLACK
6
CONTINUOUS
10
0.866142
20
-3.72736
11
0.851018
21
-3.72657
0
LINE
8
BLACK
6
CONTINUOUS
10
0.851018
20
-3.72657
11
0.83606
21
-3.7242
0
LINE
8
BLACK
6
CONTINUOUS
10
0.83606
20
-3.7242
11
0.821432
21
-3.72028
0
LINE
8
BLACK
6
CONTINUOUS
10
0.821432
20
-3.72028
11
0.807293
21
-3.71485
0
LINE
8
BLACK
6
CONTINUOUS
10
0.807293
20
-3.71485
11
0.793799
21
-3.70798
0
LINE
8
BLACK
6
CONTINUOUS
10
0.793799
20
-3.70798
11
0.781098
21
-3.69973
0
LINE
8
BLACK
6
CONTINUOUS
10
0.781098
20
-3.69973
11
0.769329
21
-3.6902
0
LINE
8
BLACK
6
CONTINUOUS
10
0.769329
20
-3.6902
11
0.75862
21
-3.67949
0
LINE
8
BLACK
6
CONTINUOUS
10
0.75862
20
-3.67949
11
0.749089
21
-3.66772
0
LINE
8
BLACK
6
CONTINUOUS
10
0.749089
20
-3.66772
11
0.740841
21
-3.65502
0
LINE
8
BLACK
6
CONTINUOUS
10
0.740841
20
-3.65502
11
0.733965
21
-3.64153
0
LINE
8
BLACK
6
CONTINUOUS
10
0.733965
20
-3.64153
11
0.728538
21
-3.62739
0
LINE
8
BLACK
6
CONTINUOUS
10
0.728538
20
-3.62739
11
0.724618
21
-3.61276
0
LINE
8
BLACK
6
CONTINUOUS
10
0.724618
20
-3.61276
11
0.722249
21
-3.5978
0
LINE
8
BLACK
6
CONTINUOUS
10
0.722249
20
-3.5978
11
0.721457
21
-3.58268
0
LINE
8
BLACK
6
CONTINUOUS
10
0.721457
20
-3.58268
11
0.722249
21
-3.56755
0
LINE
8
BLACK
6
CONTINUOUS
10
0.722249
20
-3.56755
11
0.724618
21
-3.5526
0
LINE
8
BLACK
6
CONTINUOUS
10
0.730209
20
-3.61157
11
0.733973
21
-3.62562
0
LINE
8
BLACK
6
CONTINUOUS
10
0.733973
20
-3.62562
11
0.739186
21
-3.6392
0
LINE
8
BLACK
6
CONTINUOUS
10
0.739186
20
-3.6392
11
0.74579
21
-3.65216
0
LINE
8
BLACK
6
CONTINUOUS
10
0.74579
20
-3.65216
11
0.753713
21
-3.66436
0
LINE
8
BLACK
6
CONTINUOUS
10
0.753713
20
-3.66436
11
0.762867
21
-3.67567
0
LINE
8
BLACK
6
CONTINUOUS
10
0.762867
20
-3.67567
11
0.773153
21
-3.68595
0
LINE
8
BLACK
6
CONTINUOUS
10
0.773153
20
-3.68595
11
0.784457
21
-3.69511
0
LINE
8
BLACK
6
CONTINUOUS
10
0.784457
20
-3.69511
11
0.796657
21
-3.70303
0
LINE
8
BLACK
6
CONTINUOUS
10
0.796657
20
-3.70303
11
0.809618
21
-3.70963
0
LINE
8
BLACK
6
CONTINUOUS
10
0.809618
20
-3.70963
11
0.823198
21
-3.71485
0
LINE
8
BLACK
6
CONTINUOUS
10
0.823198
20
-3.71485
11
0.837248
21
-3.71861
0
LINE
8
BLACK
6
CONTINUOUS
10
0.837248
20
-3.71861
11
0.851615
21
-3.72089
0
LINE
8
BLACK
6
CONTINUOUS
10
0.851615
20
-3.72089
11
0.866142
21
-3.72165
0
LINE
8
BLACK
6
CONTINUOUS
10
0.866142
20
-3.72165
11
0.880668
21
-3.72089
0
LINE
8
BLACK
6
CONTINUOUS
10
0.880668
20
-3.72089
11
0.895035
21
-3.71861
0
LINE
8
BLACK
6
CONTINUOUS
10
0.895035
20
-3.71861
11
0.909086
21
-3.71485
0
LINE
8
BLACK
6
CONTINUOUS
10
0.909086
20
-3.71485
11
0.922666
21
-3.70963
0
LINE
8
BLACK
6
CONTINUOUS
10
0.922666
20
-3.70963
11
0.935627
21
-3.70303
0
LINE
8
BLACK
6
CONTINUOUS
10
0.935627
20
-3.70303
11
0.947826
21
-3.69511
0
LINE
8
BLACK
6
CONTINUOUS
10
0.947826
20
-3.69511
11
0.959131
21
-3.68595
0
LINE
8
BLACK
6
CONTINUOUS
10
0.959131
20
-3.68595
11
0.969417
21
-3.67567
0
LINE
8
BLACK
6
CONTINUOUS
10
0.969417
20
-3.67567
11
0.978571
21
-3.66436
0
LINE
8
BLACK
6
CONTINUOUS
10
0.978571
20
-3.66436
11
0.986493
21
-3.65216
0
LINE
8
BLACK
6
CONTINUOUS
10
0.986493
20
-3.65216
11
0.993097
21
-3.6392
0
LINE
8
BLACK
6
CONTINUOUS
10
0.993097
20
-3.6392
11
0.99831
21
-3.62562
0
LINE
8
BLACK
6
CONTINUOUS
10
0.99831
20
-3.62562
11
1.00207
21
-3.61157
0
LINE
8
BLACK
6
CONTINUOUS
10
1.00207
20
-3.61157
11
1.00435
21
-3.5972
0
LINE
8
BLACK
6
CONTINUOUS
10
1.00435
20
-3.5972
11
1.00511
21
-3.58268
0
LINE
8
BLACK
6
CONTINUOUS
10
1.00511
20
-3.58268
11
1.00435
21
-3.56815
0
LINE
8
BLACK
6
CONTINUOUS
10
1.00435
20
-3.56815
11
1.00207
21
-3.55378
0
LINE
8
BLACK
6
CONTINUOUS
10
1.00207
20
-3.55378
11
0.99831
21
-3.53973
0
LINE
8
BLACK
6
CONTINUOUS
10
0.99831
20
-3.53973
11
0.993097
21
-3.52615
0
LINE
8
BLACK
6
CONTINUOUS
10
0.993097
20
-3.52615
11
0.986493
21
-3.51319
0
LINE
8
BLACK
6
CONTINUOUS
10
0.986493
20
-3.51319
11
0.978571
21
-3.50099
0
LINE
8
BLACK
6
CONTINUOUS
10
0.978571
20
-3.50099
11
0.969417
21
-3.48969
0
LINE
8
BLACK
6
CONTINUOUS
10
0.969417
20
-3.48969
11
0.959131
21
-3.4794
0
LINE
8
BLACK
6
CONTINUOUS
10
0.959131
20
-3.4794
11
0.947826
21
-3.47025
0
LINE
8
BLACK
6
CONTINUOUS
10
0.947826
20
-3.47025
11
0.935627
21
-3.46233
0
LINE
8
BLACK
6
CONTINUOUS
10
0.935627
20
-3.46233
11
0.922666
21
-3.45572
0
LINE
8
BLACK
6
CONTINUOUS
10
0.922666
20
-3.45572
11
0.909086
21
-3.45051
0
LINE
8
BLACK
6
CONTINUOUS
10
0.909086
20
-3.45051
11
0.895035
21
-3.44674
0
LINE
8
BLACK
6
CONTINUOUS
10
0.895035
20
-3.44674
11
0.880668
21
-3.44447
0
LINE
8
BLACK
6
CONTINUOUS
10
0.880668
20
-3.44447
11
0.866142
21
-3.44371
0
LINE
8
BLACK
6
CONTINUOUS
10
0.866142
20
-3.44371
11
0.851615
21
-3.44447
0
LINE
8
BLACK
6
CONTINUOUS
10
0.851615
20
-3.44447
11
0.837248
21
-3.44674
0
LINE
8
BLACK
6
CONTINUOUS
10
0.837248
20
-3.44674
11
0.823198
21
-3.45051
0
LINE
8
BLACK
6
CONTINUOUS
10
0.823198
20
-3.45051
11
0.809618
21
-3.45572
0
LINE
8
BLACK
6
CONTINUOUS
10
0.809618
20
-3.45572
11
0.796657
21
-3.46233
0
LINE
8
BLACK
6
CONTINUOUS
10
0.796657
20
-3.46233
11
0.784457
21
-3.47025
0
LINE
8
BLACK
6
CONTINUOUS
10
0.784457
20
-3.47025
11
0.773153
21
-3.4794
0
LINE
8
BLACK
6
CONTINUOUS
10
0.773153
20
-3.4794
11
0.762867
21
-3.48969
0
LINE
8
BLACK
6
CONTINUOUS
10
0.762867
20
-3.48969
11
0.753713
21
-3.50099
0
LINE
8
BLACK
6
CONTINUOUS
10
0.753713
20
-3.50099
11
0.74579
21
-3.51319
0
LINE
8
BLACK
6
CONTINUOUS
10
0.74579
20
-3.51319
11
0.739186
21
-3.52615
0
LINE
8
BLACK
6
CONTINUOUS
10
0.739186
20
-3.52615
11
0.733973
21
-3.53973
0
LINE
8
BLACK
6
CONTINUOUS
10
0.733973
20
-3.53973
11
0.730209
21
-3.55378
0
LINE
8
BLACK
6
CONTINUOUS
10
0.730209
20
-3.55378
11
0.727933
21
-3.56815
0
LINE
8
BLACK
6
CONTINUOUS
10
0.727933
20
-3.56815
11
0.727172
21
-3.58268
0
LINE
8
BLACK
6
CONTINUOUS
10
0.727172
20
-3.58268
11
0.727933
21
-3.5972
0
LINE
8
BLACK
6
CONTINUOUS
10
0.727933
20
-3.5972
11
0.730209
21
-3.61157
0
LINE
8
BLACK
6
CONTINUOUS
10
0.102364
20
-3.56701
11
0.104883
21
-3.55328
0
LINE
8
BLACK
6
CONTINUOUS
10
0.104883
20
-3.55328
11
0.108916
21
-3.53992
0
LINE
8
BLACK
6
CONTINUOUS
10
0.108916
20
-3.53992
11
0.114414
21
-3.5271
0
LINE
8
BLACK
6
CONTINUOUS
10
0.114414
20
-3.5271
11
0.121307
21
-3.51496
0
LINE
8
BLACK
6
CONTINUOUS
10
0.121307
20
-3.51496
11
0.12951
21
-3.50367
0
LINE
8
BLACK
6
CONTINUOUS
10
0.12951
20
-3.50367
11
0.13892
21
-3.49337
0
LINE
8
BLACK
6
CONTINUOUS
10
0.13892
20
-3.49337
11
0.14942
21
-3.48418
0
LINE
8
BLACK
6
CONTINUOUS
10
0.14942
20
-3.48418
11
0.16088
21
-3.47621
0
LINE
8
BLACK
6
CONTINUOUS
10
0.16088
20
-3.47621
11
0.173156
21
-3.46957
0
LINE
8
BLACK
6
CONTINUOUS
10
0.173156
20
-3.46957
11
0.186095
21
-3.46435
0
LINE
8
BLACK
6
CONTINUOUS
10
0.186095
20
-3.46435
11
0.199536
21
-3.46059
0
LINE
8
BLACK
6
CONTINUOUS
10
0.199536
20
-3.46059
11
0.213312
21
-3.45836
0
LINE
8
BLACK
6
CONTINUOUS
10
0.213312
20
-3.45836
11
0.227251
21
-3.45768
0
LINE
8
BLACK
6
CONTINUOUS
10
0.227251
20
-3.45768
11
0.241178
21
-3.45856
0
LINE
8
BLACK
6
CONTINUOUS
10
0.241178
20
-3.45856
11
0.254922
21
-3.46098
0
LINE
8
BLACK
6
CONTINUOUS
10
0.254922
20
-3.46098
11
0.268309
21
-3.46492
0
LINE
8
BLACK
6
CONTINUOUS
10
0.268309
20
-3.46492
11
0.281174
21
-3.47033
0
LINE
8
BLACK
6
CONTINUOUS
10
0.281174
20
-3.47033
11
0.293356
21
-3.47714
0
LINE
8
BLACK
6
CONTINUOUS
10
0.293356
20
-3.47714
11
0.304703
21
-3.48526
0
LINE
8
BLACK
6
CONTINUOUS
10
0.304703
20
-3.48526
11
0.315074
21
-3.4946
0
LINE
8
BLACK
6
CONTINUOUS
10
0.315074
20
-3.4946
11
0.32434
21
-3.50503
0
LINE
8
BLACK
6
CONTINUOUS
10
0.32434
20
-3.50503
11
0.332384
21
-3.51644
0
LINE
8
BLACK
6
CONTINUOUS
10
0.332384
20
-3.51644
11
0.339107
21
-3.52867
0
LINE
8
BLACK
6
CONTINUOUS
10
0.339107
20
-3.52867
11
0.344425
21
-3.54157
0
LINE
8
BLACK
6
CONTINUOUS
10
0.344425
20
-3.54157
11
0.348272
21
-3.55498
0
LINE
8
BLACK
6
CONTINUOUS
10
0.348272
20
-3.55498
11
0.350599
21
-3.56874
0
LINE
8
BLACK
6
CONTINUOUS
10
0.350599
20
-3.56874
11
0.351378
21
-3.58268
0
LINE
8
BLACK
6
CONTINUOUS
10
0.351378
20
-3.58268
11
0.351329
21
-3.58617
0
LINE
8
BLACK
6
CONTINUOUS
10
0.351329
20
-3.58617
11
0.350161
21
-3.60007
0
LINE
8
BLACK
6
CONTINUOUS
10
0.350161
20
-3.60007
11
0.347451
21
-3.61376
0
LINE
8
BLACK
6
CONTINUOUS
10
0.347451
20
-3.61376
11
0.343231
21
-3.62707
0
LINE
8
BLACK
6
CONTINUOUS
10
0.343231
20
-3.62707
11
0.337555
21
-3.63981
0
LINE
8
BLACK
6
CONTINUOUS
10
0.337555
20
-3.63981
11
0.330493
21
-3.65185
0
LINE
8
BLACK
6
CONTINUOUS
10
0.330493
20
-3.65185
11
0.322134
21
-3.66303
0
LINE
8
BLACK
6
CONTINUOUS
10
0.322134
20
-3.66303
11
0.31258
21
-3.6732
0
LINE
8
BLACK
6
CONTINUOUS
10
0.31258
20
-3.6732
11
0.301953
21
-3.68224
0
LINE
8
BLACK
6
CONTINUOUS
10
0.301953
20
-3.68224
11
0.290383
21
-3.69005
0
LINE
8
BLACK
6
CONTINUOUS
10
0.290383
20
-3.69005
11
0.278016
21
-3.69651
0
LINE
8
BLACK
6
CONTINUOUS
10
0.278016
20
-3.69651
11
0.265005
21
-3.70156
0
LINE
8
BLACK
6
CONTINUOUS
10
0.265005
20
-3.70156
11
0.251513
21
-3.70512
0
LINE
8
BLACK
6
CONTINUOUS
10
0.251513
20
-3.70512
11
0.237707
21
-3.70716
0
LINE
8
BLACK
6
CONTINUOUS
10
0.237707
20
-3.70716
11
0.22376
21
-3.70765
0
LINE
8
BLACK
6
CONTINUOUS
10
0.22376
20
-3.70765
11
0.209846
21
-3.70658
0
LINE
8
BLACK
6
CONTINUOUS
10
0.209846
20
-3.70658
11
0.196138
21
-3.70396
0
LINE
8
BLACK
6
CONTINUOUS
10
0.196138
20
-3.70396
11
0.182806
21
-3.69984
0
LINE
8
BLACK
6
CONTINUOUS
10
0.182806
20
-3.69984
11
0.170018
21
-3.69425
0
LINE
8
BLACK
6
CONTINUOUS
10
0.170018
20
-3.69425
11
0.157933
21
-3.68727
0
LINE
8
BLACK
6
CONTINUOUS
10
0.157933
20
-3.68727
11
0.1467
21
-3.67899
0
LINE
8
BLACK
6
CONTINUOUS
10
0.1467
20
-3.67899
11
0.13646
21
-3.66951
0
LINE
8
BLACK
6
CONTINUOUS
10
0.13646
20
-3.66951
11
0.127342
21
-3.65895
0
LINE
8
BLACK
6
CONTINUOUS
10
0.127342
20
-3.65895
11
0.119457
21
-3.64743
0
LINE
8
BLACK
6
CONTINUOUS
10
0.119457
20
-3.64743
11
0.112906
21
-3.63511
0
LINE
8
BLACK
6
CONTINUOUS
10
0.112906
20
-3.63511
11
0.107768
21
-3.62213
0
LINE
8
BLACK
6
CONTINUOUS
10
0.107768
20
-3.62213
11
0.104109
21
-3.60867
0
LINE
8
BLACK
6
CONTINUOUS
10
0.104109
20
-3.60867
11
0.101975
21
-3.59488
0
LINE
8
BLACK
6
CONTINUOUS
10
0.101975
20
-3.59488
11
0.101393
21
-3.58101
0
LINE
8
BLACK
6
CONTINUOUS
10
0.101393
20
-3.58101
11
0.10139
21
-3.58093
0
LINE
8
BLACK
6
CONTINUOUS
10
0.10139
20
-3.58093
11
0.102364
21
-3.56701
0
LINE
8
BLACK
6
CONTINUOUS
10
0.109702
20
-3.60748
11
0.113194
21
-3.62033
0
LINE
8
BLACK
6
CONTINUOUS
10
0.113194
20
-3.62033
11
0.118096
21
-3.63271
0
LINE
8
BLACK
6
CONTINUOUS
10
0.118096
20
-3.63271
11
0.124348
21
-3.64447
0
LINE
8
BLACK
6
CONTINUOUS
10
0.124348
20
-3.64447
11
0.131872
21
-3.65546
0
LINE
8
BLACK
6
CONTINUOUS
10
0.131872
20
-3.65546
11
0.140574
21
-3.66554
0
LINE
8
BLACK
6
CONTINUOUS
10
0.140574
20
-3.66554
11
0.150345
21
-3.67459
0
LINE
8
BLACK
6
CONTINUOUS
10
0.150345
20
-3.67459
11
0.161063
21
-3.68249
0
LINE
8
BLACK
6
CONTINUOUS
10
0.161063
20
-3.68249
11
0.172596
21
-3.68915
0
LINE
8
BLACK
6
CONTINUOUS
10
0.172596
20
-3.68915
11
0.1848
21
-3.69448
0
LINE
8
BLACK
6
CONTINUOUS
10
0.1848
20
-3.69448
11
0.197521
21
-3.69842
0
LINE
8
BLACK
6
CONTINUOUS
10
0.197521
20
-3.69842
11
0.210602
21
-3.70091
0
LINE
8
BLACK
6
CONTINUOUS
10
0.210602
20
-3.70091
11
0.22388
21
-3.70193
0
LINE
8
BLACK
6
CONTINUOUS
10
0.22388
20
-3.70193
11
0.237189
21
-3.70147
0
LINE
8
BLACK
6
CONTINUOUS
10
0.237189
20
-3.70147
11
0.250363
21
-3.69952
0
LINE
8
BLACK
6
CONTINUOUS
10
0.250363
20
-3.69952
11
0.263238
21
-3.69612
0
LINE
8
BLACK
6
CONTINUOUS
10
0.263238
20
-3.69612
11
0.275654
21
-3.69131
0
LINE
8
BLACK
6
CONTINUOUS
10
0.275654
20
-3.69131
11
0.287456
21
-3.68514
0
LINE
8
BLACK
6
CONTINUOUS
10
0.287456
20
-3.68514
11
0.298496
21
-3.67769
0
LINE
8
BLACK
6
CONTINUOUS
10
0.298496
20
-3.67769
11
0.308637
21
-3.66906
0
LINE
8
BLACK
6
CONTINUOUS
10
0.308637
20
-3.66906
11
0.317753
21
-3.65935
0
LINE
8
BLACK
6
CONTINUOUS
10
0.317753
20
-3.65935
11
0.325731
21
-3.64869
0
LINE
8
BLACK
6
CONTINUOUS
10
0.325731
20
-3.64869
11
0.332469
21
-3.6372
0
LINE
8
BLACK
6
CONTINUOUS
10
0.332469
20
-3.6372
11
0.337886
21
-3.62504
0
LINE
8
BLACK
6
CONTINUOUS
10
0.337886
20
-3.62504
11
0.341913
21
-3.61234
0
LINE
8
BLACK
6
CONTINUOUS
10
0.341913
20
-3.61234
11
0.344499
21
-3.59928
0
LINE
8
BLACK
6
CONTINUOUS
10
0.344499
20
-3.59928
11
0.345614
21
-3.58601
0
LINE
8
BLACK
6
CONTINUOUS
10
0.345614
20
-3.58601
11
0.34566
21
-3.58268
0
LINE
8
BLACK
6
CONTINUOUS
10
0.34566
20
-3.58268
11
0.344917
21
-3.56938
0
LINE
8
BLACK
6
CONTINUOUS
10
0.344917
20
-3.56938
11
0.342696
21
-3.55625
0
LINE
8
BLACK
6
CONTINUOUS
10
0.342696
20
-3.55625
11
0.339025
21
-3.54345
0
LINE
8
BLACK
6
CONTINUOUS
10
0.339025
20
-3.54345
11
0.33395
21
-3.53114
0
LINE
8
BLACK
6
CONTINUOUS
10
0.33395
20
-3.53114
11
0.327535
21
-3.51947
0
LINE
8
BLACK
6
CONTINUOUS
10
0.327535
20
-3.51947
11
0.319859
21
-3.50859
0
LINE
8
BLACK
6
CONTINUOUS
10
0.319859
20
-3.50859
11
0.311017
21
-3.49863
0
LINE
8
BLACK
6
CONTINUOUS
10
0.311017
20
-3.49863
11
0.301121
21
-3.48972
0
LINE
8
BLACK
6
CONTINUOUS
10
0.301121
20
-3.48972
11
0.290293
21
-3.48196
0
LINE
8
BLACK
6
CONTINUOUS
10
0.290293
20
-3.48196
11
0.278668
21
-3.47547
0
LINE
8
BLACK
6
CONTINUOUS
10
0.278668
20
-3.47547
11
0.266391
21
-3.47031
0
LINE
8
BLACK
6
CONTINUOUS
10
0.266391
20
-3.47031
11
0.253616
21
-3.46655
0
LINE
8
BLACK
6
CONTINUOUS
10
0.253616
20
-3.46655
11
0.240501
21
-3.46423
0
LINE
8
BLACK
6
CONTINUOUS
10
0.240501
20
-3.46423
11
0.227211
21
-3.4634
0
LINE
8
BLACK
6
CONTINUOUS
10
0.227211
20
-3.4634
11
0.21391
21
-3.46405
0
LINE
8
BLACK
6
CONTINUOUS
10
0.21391
20
-3.46405
11
0.200764
21
-3.46618
0
LINE
8
BLACK
6
CONTINUOUS
10
0.200764
20
-3.46618
11
0.187937
21
-3.46976
0
LINE
8
BLACK
6
CONTINUOUS
10
0.187937
20
-3.46976
11
0.17559
21
-3.47475
0
LINE
8
BLACK
6
CONTINUOUS
10
0.17559
20
-3.47475
11
0.163876
21
-3.48108
0
LINE
8
BLACK
6
CONTINUOUS
10
0.163876
20
-3.48108
11
0.152941
21
-3.48868
0
LINE
8
BLACK
6
CONTINUOUS
10
0.152941
20
-3.48868
11
0.142921
21
-3.49745
0
LINE
8
BLACK
6
CONTINUOUS
10
0.142921
20
-3.49745
11
0.133941
21
-3.50729
0
LINE
8
BLACK
6
CONTINUOUS
10
0.133941
20
-3.50729
11
0.126113
21
-3.51806
0
LINE
8
BLACK
6
CONTINUOUS
10
0.126113
20
-3.51806
11
0.119536
21
-3.52964
0
LINE
8
BLACK
6
CONTINUOUS
10
0.119536
20
-3.52964
11
0.114289
21
-3.54188
0
LINE
8
BLACK
6
CONTINUOUS
10
0.114289
20
-3.54188
11
0.11044
21
-3.55463
0
LINE
8
BLACK
6
CONTINUOUS
10
0.11044
20
-3.55463
11
0.108036
21
-3.56773
0
LINE
8
BLACK
6
CONTINUOUS
10
0.108036
20
-3.56773
11
0.107107
21
-3.58101
0
LINE
8
BLACK
6
CONTINUOUS
10
0.107107
20
-3.58101
11
0.107665
21
-3.59432
0
LINE
8
BLACK
6
CONTINUOUS
10
0.107665
20
-3.59432
11
0.109702
21
-3.60748
0
LINE
8
BLACK
6
CONTINUOUS
10
2.40551
20
-3.56701
11
2.40803
21
-3.55328
0
LINE
8
BLACK
6
CONTINUOUS
10
2.40803
20
-3.55328
11
2.41207
21
-3.53992
0
LINE
8
BLACK
6
CONTINUOUS
10
2.41207
20
-3.53992
11
2.41756
21
-3.5271
0
LINE
8
BLACK
6
CONTINUOUS
10
2.41756
20
-3.5271
11
2.42446
21
-3.51496
0
LINE
8
BLACK
6
CONTINUOUS
10
2.42446
20
-3.51496
11
2.43266
21
-3.50367
0
LINE
8
BLACK
6
CONTINUOUS
10
2.43266
20
-3.50367
11
2.44207
21
-3.49337
0
LINE
8
BLACK
6
CONTINUOUS
10
2.44207
20
-3.49337
11
2.45257
21
-3.48418
0
LINE
8
BLACK
6
CONTINUOUS
10
2.45257
20
-3.48418
11
2.46403
21
-3.47621
0
LINE
8
BLACK
6
CONTINUOUS
10
2.46403
20
-3.47621
11
2.47631
21
-3.46957
0
LINE
8
BLACK
6
CONTINUOUS
10
2.47631
20
-3.46957
11
2.48924
21
-3.46435
0
LINE
8
BLACK
6
CONTINUOUS
10
2.48924
20
-3.46435
11
2.50269
21
-3.46059
0
LINE
8
BLACK
6
CONTINUOUS
10
2.50269
20
-3.46059
11
2.51646
21
-3.45836
0
LINE
8
BLACK
6
CONTINUOUS
10
2.51646
20
-3.45836
11
2.5304
21
-3.45768
0
LINE
8
BLACK
6
CONTINUOUS
10
2.5304
20
-3.45768
11
2.54433
21
-3.45856
0
LINE
8
BLACK
6
CONTINUOUS
10
2.54433
20
-3.45856
11
2.55807
21
-3.46098
0
LINE
8
BLACK
6
CONTINUOUS
10
2.55807
20
-3.46098
11
2.57146
21
-3.46492
0
LINE
8
BLACK
6
CONTINUOUS
10
2.57146
20
-3.46492
11
2.58432
21
-3.47033
0
LINE
8
BLACK
6
CONTINUOUS
10
2.58432
20
-3.47033
11
2.59651
21
-3.47714
0
LINE
8
BLACK
6
CONTINUOUS
10
2.59651
20
-3.47714
11
2.60785
21
-3.48526
0
LINE
8
BLACK
6
CONTINUOUS
10
2.60785
20
-3.48526
11
2.61822
21
-3.4946
0
LINE
8
BLACK
6
CONTINUOUS
10
2.61822
20
-3.4946
11
2.62749
21
-3.50503
0
LINE
8
BLACK
6
CONTINUOUS
10
2.62749
20
-3.50503
11
2.63553
21
-3.51644
0
LINE
8
BLACK
6
CONTINUOUS
10
2.63553
20
-3.51644
11
2.64226
21
-3.52867
0
LINE
8
BLACK
6
CONTINUOUS
10
2.64226
20
-3.52867
11
2.64757
21
-3.54157
0
LINE
8
BLACK
6
CONTINUOUS
10
2.64757
20
-3.54157
11
2.65142
21
-3.55498
0
LINE
8
BLACK
6
CONTINUOUS
10
2.65142
20
-3.55498
11
2.65375
21
-3.56874
0
LINE
8
BLACK
6
CONTINUOUS
10
2.65375
20
-3.56874
11
2.65453
21
-3.58268
0
LINE
8
BLACK
6
CONTINUOUS
10
2.65453
20
-3.58268
11
2.65448
21
-3.58617
0
LINE
8
BLACK
6
CONTINUOUS
10
2.65448
20
-3.58617
11
2.65331
21
-3.60007
0
LINE
8
BLACK
6
CONTINUOUS
10
2.65331
20
-3.60007
11
2.6506
21
-3.61376
0
LINE
8
BLACK
6
CONTINUOUS
10
2.6506
20
-3.61376
11
2.64638
21
-3.62707
0
LINE
8
BLACK
6
CONTINUOUS
10
2.64638
20
-3.62707
11
2.6407
21
-3.63981
0
LINE
8
BLACK
6
CONTINUOUS
10
2.6407
20
-3.63981
11
2.63364
21
-3.65185
0
LINE
8
BLACK
6
CONTINUOUS
10
2.63364
20
-3.65185
11
2.62528
21
-3.66303
0
LINE
8
BLACK
6
CONTINUOUS
10
2.62528
20
-3.66303
11
2.61573
21
-3.6732
0
LINE
8
BLACK
6
CONTINUOUS
10
2.61573
20
-3.6732
11
2.6051
21
-3.68224
0
LINE
8
BLACK
6
CONTINUOUS
10
2.6051
20
-3.68224
11
2.59353
21
-3.69005
0
LINE
8
BLACK
6
CONTINUOUS
10
2.59353
20
-3.69005
11
2.58117
21
-3.69651
0
LINE
8
BLACK
6
CONTINUOUS
10
2.58117
20
-3.69651
11
2.56815
21
-3.70156
0
LINE
8
BLACK
6
CONTINUOUS
10
2.56815
20
-3.70156
11
2.55466
21
-3.70512
0
LINE
8
BLACK
6
CONTINUOUS
10
2.55466
20
-3.70512
11
2.54086
21
-3.70716
0
LINE
8
BLACK
6
CONTINUOUS
10
2.54086
20
-3.70716
11
2.52691
21
-3.70765
0
LINE
8
BLACK
6
CONTINUOUS
10
2.52691
20
-3.70765
11
2.513
21
-3.70658
0
LINE
8
BLACK
6
CONTINUOUS
10
2.513
20
-3.70658
11
2.49929
21
-3.70396
0
LINE
8
BLACK
6
CONTINUOUS
10
2.49929
20
-3.70396
11
2.48596
21
-3.69984
0
LINE
8
BLACK
6
CONTINUOUS
10
2.48596
20
-3.69984
11
2.47317
21
-3.69425
0
LINE
8
BLACK
6
CONTINUOUS
10
2.47317
20
-3.69425
11
2.46108
21
-3.68727
0
LINE
8
BLACK
6
CONTINUOUS
10
2.46108
20
-3.68727
11
2.44985
21
-3.67899
0
LINE
8
BLACK
6
CONTINUOUS
10
2.44985
20
-3.67899
11
2.43961
21
-3.66951
0
LINE
8
BLACK
6
CONTINUOUS
10
2.43961
20
-3.66951
11
2.43049
21
-3.65895
0
LINE
8
BLACK
6
CONTINUOUS
10
2.43049
20
-3.65895
11
2.42261
21
-3.64743
0
LINE
8
BLACK
6
CONTINUOUS
10
2.42261
20
-3.64743
11
2.41606
21
-3.63511
0
LINE
8
BLACK
6
CONTINUOUS
10
2.41606
20
-3.63511
11
2.41092
21
-3.62213
0
LINE
8
BLACK
6
CONTINUOUS
10
2.41092
20
-3.62213
11
2.40726
21
-3.60867
0
LINE
8
BLACK
6
CONTINUOUS
10
2.40726
20
-3.60867
11
2.40512
21
-3.59488
0
LINE
8
BLACK
6
CONTINUOUS
10
2.40512
20
-3.59488
11
2.40454
21
-3.58101
0
LINE
8
BLACK
6
CONTINUOUS
10
2.40454
20
-3.58101
11
2.40454
21
-3.58093
0
LINE
8
BLACK
6
CONTINUOUS
10
2.40454
20
-3.58093
11
2.40551
21
-3.56701
0
LINE
8
BLACK
6
CONTINUOUS
10
2.41285
20
-3.60748
11
2.41634
21
-3.62033
0
LINE
8
BLACK
6
CONTINUOUS
10
2.41634
20
-3.62033
11
2.42125
21
-3.63271
0
LINE
8
BLACK
6
CONTINUOUS
10
2.42125
20
-3.63271
11
2.4275
21
-3.64447
0
LINE
8
BLACK
6
CONTINUOUS
10
2.4275
20
-3.64447
11
2.43502
21
-3.65546
0
LINE
8
BLACK
6
CONTINUOUS
10
2.43502
20
-3.65546
11
2.44372
21
-3.66554
0
LINE
8
BLACK
6
CONTINUOUS
10
2.44372
20
-3.66554
11
2.45349
21
-3.67459
0
LINE
8
BLACK
6
CONTINUOUS
10
2.45349
20
-3.67459
11
2.46421
21
-3.68249
0
LINE
8
BLACK
6
CONTINUOUS
10
2.46421
20
-3.68249
11
2.47575
21
-3.68915
0
LINE
8
BLACK
6
CONTINUOUS
10
2.47575
20
-3.68915
11
2.48795
21
-3.69448
0
LINE
8
BLACK
6
CONTINUOUS
10
2.48795
20
-3.69448
11
2.50067
21
-3.69842
0
LINE
8
BLACK
6
CONTINUOUS
10
2.50067
20
-3.69842
11
2.51375
21
-3.70091
0
LINE
8
BLACK
6
CONTINUOUS
10
2.51375
20
-3.70091
11
2.52703
21
-3.70193
0
LINE
8
BLACK
6
CONTINUOUS
10
2.52703
20
-3.70193
11
2.54034
21
-3.70147
0
LINE
8
BLACK
6
CONTINUOUS
10
2.54034
20
-3.70147
11
2.55351
21
-3.69952
0
LINE
8
BLACK
6
CONTINUOUS
10
2.55351
20
-3.69952
11
2.56639
21
-3.69612
0
LINE
8
BLACK
6
CONTINUOUS
10
2.56639
20
-3.69612
11
2.5788
21
-3.69131
0
LINE
8
BLACK
6
CONTINUOUS
10
2.5788
20
-3.69131
11
2.59061
21
-3.68514
0
LINE
8
BLACK
6
CONTINUOUS
10
2.59061
20
-3.68514
11
2.60165
21
-3.67769
0
LINE
8
BLACK
6
CONTINUOUS
10
2.60165
20
-3.67769
11
2.61179
21
-3.66906
0
LINE
8
BLACK
6
CONTINUOUS
10
2.61179
20
-3.66906
11
2.6209
21
-3.65935
0
LINE
8
BLACK
6
CONTINUOUS
10
2.6209
20
-3.65935
11
2.62888
21
-3.64869
0
LINE
8
BLACK
6
CONTINUOUS
10
2.62888
20
-3.64869
11
2.63562
21
-3.6372
0
LINE
8
BLACK
6
CONTINUOUS
10
2.63562
20
-3.6372
11
2.64104
21
-3.62504
0
LINE
8
BLACK
6
CONTINUOUS
10
2.64104
20
-3.62504
11
2.64506
21
-3.61234
0
LINE
8
BLACK
6
CONTINUOUS
10
2.64506
20
-3.61234
11
2.64765
21
-3.59928
0
LINE
8
BLACK
6
CONTINUOUS
10
2.64765
20
-3.59928
11
2.64876
21
-3.58601
0
LINE
8
BLACK
6
CONTINUOUS
10
2.64876
20
-3.58601
11
2.64881
21
-3.58268
0
LINE
8
BLACK
6
CONTINUOUS
10
2.64881
20
-3.58268
11
2.64807
21
-3.56938
0
LINE
8
BLACK
6
CONTINUOUS
10
2.64807
20
-3.56938
11
2.64585
21
-3.55625
0
LINE
8
BLACK
6
CONTINUOUS
10
2.64585
20
-3.55625
11
2.64217
21
-3.54345
0
LINE
8
BLACK
6
CONTINUOUS
10
2.64217
20
-3.54345
11
2.6371
21
-3.53114
0
LINE
8
BLACK
6
CONTINUOUS
10
2.6371
20
-3.53114
11
2.63068
21
-3.51947
0
LINE
8
BLACK
6
CONTINUOUS
10
2.63068
20
-3.51947
11
2.62301
21
-3.50859
0
LINE
8
BLACK
6
CONTINUOUS
10
2.62301
20
-3.50859
11
2.61417
21
-3.49863
0
LINE
8
BLACK
6
CONTINUOUS
10
2.61417
20
-3.49863
11
2.60427
21
-3.48972
0
LINE
8
BLACK
6
CONTINUOUS
10
2.60427
20
-3.48972
11
2.59344
21
-3.48196
0
LINE
8
BLACK
6
CONTINUOUS
10
2.59344
20
-3.48196
11
2.58182
21
-3.47547
0
LINE
8
BLACK
6
CONTINUOUS
10
2.58182
20
-3.47547
11
2.56954
21
-3.47031
0
LINE
8
BLACK
6
CONTINUOUS
10
2.56954
20
-3.47031
11
2.55677
21
-3.46655
0
LINE
8
BLACK
6
CONTINUOUS
10
2.55677
20
-3.46655
11
2.54365
21
-3.46423
0
LINE
8
BLACK
6
CONTINUOUS
10
2.54365
20
-3.46423
11
2.53036
21
-3.4634
0
LINE
8
BLACK
6
CONTINUOUS
10
2.53036
20
-3.4634
11
2.51706
21
-3.46405
0
LINE
8
BLACK
6
CONTINUOUS
10
2.51706
20
-3.46405
11
2.50391
21
-3.46618
0
LINE
8
BLACK
6
CONTINUOUS
10
2.50391
20
-3.46618
11
2.49109
21
-3.46976
0
LINE
8
BLACK
6
CONTINUOUS
10
2.49109
20
-3.46976
11
2.47874
21
-3.47475
0
LINE
8
BLACK
6
CONTINUOUS
10
2.47874
20
-3.47475
11
2.46703
21
-3.48108
0
LINE
8
BLACK
6
CONTINUOUS
10
2.46703
20
-3.48108
11
2.45609
21
-3.48868
0
LINE
8
BLACK
6
CONTINUOUS
10
2.45609
20
-3.48868
11
2.44607
21
-3.49745
0
LINE
8
BLACK
6
CONTINUOUS
10
2.44607
20
-3.49745
11
2.43709
21
-3.50729
0
LINE
8
BLACK
6
CONTINUOUS
10
2.43709
20
-3.50729
11
2.42926
21
-3.51806
0
LINE
8
BLACK
6
CONTINUOUS
10
2.42926
20
-3.51806
11
2.42269
21
-3.52964
0
LINE
8
BLACK
6
CONTINUOUS
10
2.42269
20
-3.52964
11
2.41744
21
-3.54188
0
LINE
8
BLACK
6
CONTINUOUS
10
2.41744
20
-3.54188
11
2.41359
21
-3.55463
0
LINE
8
BLACK
6
CONTINUOUS
10
2.41359
20
-3.55463
11
2.41119
21
-3.56773
0
LINE
8
BLACK
6
CONTINUOUS
10
2.41119
20
-3.56773
11
2.41026
21
-3.58101
0
LINE
8
BLACK
6
CONTINUOUS
10
2.41026
20
-3.58101
11
2.41081
21
-3.59432
0
LINE
8
BLACK
6
CONTINUOUS
10
2.41081
20
-3.59432
11
2.41285
21
-3.60748
0
LINE
8
BLACK
6
CONTINUOUS
10
1.74824
20
-2.74551
11
1.75216
21
-2.73088
0
LINE
8
BLACK
6
CONTINUOUS
10
1.75216
20
-2.73088
11
1.75759
21
-2.71674
0
LINE
8
BLACK
6
CONTINUOUS
10
1.75759
20
-2.71674
11
1.76446
21
-2.70325
0
LINE
8
BLACK
6
CONTINUOUS
10
1.76446
20
-2.70325
11
1.77271
21
-2.69055
0
LINE
8
BLACK
6
CONTINUOUS
10
1.77271
20
-2.69055
11
1.78224
21
-2.67878
0
LINE
8
BLACK
6
CONTINUOUS
10
1.78224
20
-2.67878
11
1.79295
21
-2.66807
0
LINE
8
BLACK
6
CONTINUOUS
10
1.79295
20
-2.66807
11
1.80472
21
-2.65854
0
LINE
8
BLACK
6
CONTINUOUS
10
1.80472
20
-2.65854
11
1.81742
21
-2.65029
0
LINE
8
BLACK
6
CONTINUOUS
10
1.81742
20
-2.65029
11
1.83092
21
-2.64341
0
LINE
8
BLACK
6
CONTINUOUS
10
1.83092
20
-2.64341
11
1.84505
21
-2.63799
0
LINE
8
BLACK
6
CONTINUOUS
10
1.84505
20
-2.63799
11
1.85968
21
-2.63407
0
LINE
8
BLACK
6
CONTINUOUS
10
1.85968
20
-2.63407
11
1.87464
21
-2.6317
0
LINE
8
BLACK
6
CONTINUOUS
10
1.87464
20
-2.6317
11
1.88976
21
-2.63091
0
LINE
8
BLACK
6
CONTINUOUS
10
1.88976
20
-2.63091
11
1.90489
21
-2.6317
0
LINE
8
BLACK
6
CONTINUOUS
10
1.90489
20
-2.6317
11
1.91985
21
-2.63407
0
LINE
8
BLACK
6
CONTINUOUS
10
1.91985
20
-2.63407
11
1.93447
21
-2.63799
0
LINE
8
BLACK
6
CONTINUOUS
10
1.93447
20
-2.63799
11
1.94861
21
-2.64341
0
LINE
8
BLACK
6
CONTINUOUS
10
1.94861
20
-2.64341
11
1.96211
21
-2.65029
0
LINE
8
BLACK
6
CONTINUOUS
10
1.96211
20
-2.65029
11
1.97481
21
-2.65854
0
LINE
8
BLACK
6
CONTINUOUS
10
1.97481
20
-2.65854
11
1.98658
21
-2.66807
0
LINE
8
BLACK
6
CONTINUOUS
10
1.98658
20
-2.66807
11
1.99729
21
-2.67878
0
LINE
8
BLACK
6
CONTINUOUS
10
1.99729
20
-2.67878
11
2.00682
21
-2.69055
0
LINE
8
BLACK
6
CONTINUOUS
10
2.00682
20
-2.69055
11
2.01506
21
-2.70325
0
LINE
8
BLACK
6
CONTINUOUS
10
2.01506
20
-2.70325
11
2.02194
21
-2.71674
0
LINE
8
BLACK
6
CONTINUOUS
10
2.02194
20
-2.71674
11
2.02737
21
-2.73088
0
LINE
8
BLACK
6
CONTINUOUS
10
2.02737
20
-2.73088
11
2.03129
21
-2.74551
0
LINE
8
BLACK
6
CONTINUOUS
10
2.03129
20
-2.74551
11
2.03366
21
-2.76047
0
LINE
8
BLACK
6
CONTINUOUS
10
2.03366
20
-2.76047
11
2.03445
21
-2.77559
0
LINE
8
BLACK
6
CONTINUOUS
10
2.03445
20
-2.77559
11
2.03366
21
-2.79071
0
LINE
8
BLACK
6
CONTINUOUS
10
2.03366
20
-2.79071
11
2.03129
21
-2.80567
0
LINE
8
BLACK
6
CONTINUOUS
10
2.03129
20
-2.80567
11
2.02737
21
-2.8203
0
LINE
8
BLACK
6
CONTINUOUS
10
2.02737
20
-2.8203
11
2.02194
21
-2.83444
0
LINE
8
BLACK
6
CONTINUOUS
10
2.02194
20
-2.83444
11
2.01506
21
-2.84793
0
LINE
8
BLACK
6
CONTINUOUS
10
2.01506
20
-2.84793
11
2.00682
21
-2.86063
0
LINE
8
BLACK
6
CONTINUOUS
10
2.00682
20
-2.86063
11
1.99729
21
-2.8724
0
LINE
8
BLACK
6
CONTINUOUS
10
1.99729
20
-2.8724
11
1.98658
21
-2.88311
0
LINE
8
BLACK
6
CONTINUOUS
10
1.98658
20
-2.88311
11
1.97481
21
-2.89264
0
LINE
8
BLACK
6
CONTINUOUS
10
1.97481
20
-2.89264
11
1.96211
21
-2.90089
0
LINE
8
BLACK
6
CONTINUOUS
10
1.96211
20
-2.90089
11
1.94861
21
-2.90777
0
LINE
8
BLACK
6
CONTINUOUS
10
1.94861
20
-2.90777
11
1.93447
21
-2.91319
0
LINE
8
BLACK
6
CONTINUOUS
10
1.93447
20
-2.91319
11
1.91985
21
-2.91711
0
LINE
8
BLACK
6
CONTINUOUS
10
1.91985
20
-2.91711
11
1.90489
21
-2.91948
0
LINE
8
BLACK
6
CONTINUOUS
10
1.90489
20
-2.91948
11
1.88976
21
-2.92028
0
LINE
8
BLACK
6
CONTINUOUS
10
1.88976
20
-2.92028
11
1.87464
21
-2.91948
0
LINE
8
BLACK
6
CONTINUOUS
10
1.87464
20
-2.91948
11
1.85968
21
-2.91711
0
LINE
8
BLACK
6
CONTINUOUS
10
1.85968
20
-2.91711
11
1.84505
21
-2.91319
0
LINE
8
BLACK
6
CONTINUOUS
10
1.84505
20
-2.91319
11
1.83092
21
-2.90777
0
LINE
8
BLACK
6
CONTINUOUS
10
1.83092
20
-2.90777
11
1.81742
21
-2.90089
0
LINE
8
BLACK
6
CONTINUOUS
10
1.81742
20
-2.90089
11
1.80472
21
-2.89264
0
LINE
8
BLACK
6
CONTINUOUS
10
1.80472
20
-2.89264
11
1.79295
21
-2.88311
0
LINE
8
BLACK
6
CONTINUOUS
10
1.79295
20
-2.88311
11
1.78224
21
-2.8724
0
LINE
8
BLACK
6
CONTINUOUS
10
1.78224
20
-2.8724
11
1.77271
21
-2.86063
0
LINE
8
BLACK
6
CONTINUOUS
10
1.77271
20
-2.86063
11
1.76446
21
-2.84793
0
LINE
8
BLACK
6
CONTINUOUS
10
1.76446
20
-2.84793
11
1.75759
21
-2.83444
0
LINE
8
BLACK
6
CONTINUOUS
10
1.75759
20
-2.83444
11
1.75216
21
-2.8203
0
LINE
8
BLACK
6
CONTINUOUS
10
1.75216
20
-2.8203
11
1.74824
21
-2.80567
0
LINE
8
BLACK
6
CONTINUOUS
10
1.74824
20
-2.80567
11
1.74587
21
-2.79071
0
LINE
8
BLACK
6
CONTINUOUS
10
1.74587
20
-2.79071
11
1.74508
21
-2.77559
0
LINE
8
BLACK
6
CONTINUOUS
10
1.74508
20
-2.77559
11
1.74587
21
-2.76047
0
LINE
8
BLACK
6
CONTINUOUS
10
1.74587
20
-2.76047
11
1.74824
21
-2.74551
0
LINE
8
BLACK
6
CONTINUOUS
10
1.75383
20
-2.80448
11
1.7576
21
-2.81853
0
LINE
8
BLACK
6
CONTINUOUS
10
1.7576
20
-2.81853
11
1.76281
21
-2.83211
0
LINE
8
BLACK
6
CONTINUOUS
10
1.76281
20
-2.83211
11
1.76941
21
-2.84508
0
LINE
8
BLACK
6
CONTINUOUS
10
1.76941
20
-2.84508
11
1.77733
21
-2.85728
0
LINE
8
BLACK
6
CONTINUOUS
10
1.77733
20
-2.85728
11
1.78649
21
-2.86858
0
LINE
8
BLACK
6
CONTINUOUS
10
1.78649
20
-2.86858
11
1.79677
21
-2.87887
0
LINE
8
BLACK
6
CONTINUOUS
10
1.79677
20
-2.87887
11
1.80808
21
-2.88802
0
LINE
8
BLACK
6
CONTINUOUS
10
1.80808
20
-2.88802
11
1.82028
21
-2.89594
0
LINE
8
BLACK
6
CONTINUOUS
10
1.82028
20
-2.89594
11
1.83324
21
-2.90255
0
LINE
8
BLACK
6
CONTINUOUS
10
1.83324
20
-2.90255
11
1.84682
21
-2.90776
0
LINE
8
BLACK
6
CONTINUOUS
10
1.84682
20
-2.90776
11
1.86087
21
-2.91152
0
LINE
8
BLACK
6
CONTINUOUS
10
1.86087
20
-2.91152
11
1.87524
21
-2.9138
0
LINE
8
BLACK
6
CONTINUOUS
10
1.87524
20
-2.9138
11
1.88976
21
-2.91456
0
LINE
8
BLACK
6
CONTINUOUS
10
1.88976
20
-2.91456
11
1.90429
21
-2.9138
0
LINE
8
BLACK
6
CONTINUOUS
10
1.90429
20
-2.9138
11
1.91866
21
-2.91152
0
LINE
8
BLACK
6
CONTINUOUS
10
1.91866
20
-2.91152
11
1.93271
21
-2.90776
0
LINE
8
BLACK
6
CONTINUOUS
10
1.93271
20
-2.90776
11
1.94629
21
-2.90255
0
LINE
8
BLACK
6
CONTINUOUS
10
1.94629
20
-2.90255
11
1.95925
21
-2.89594
0
LINE
8
BLACK
6
CONTINUOUS
10
1.95925
20
-2.89594
11
1.97145
21
-2.88802
0
LINE
8
BLACK
6
CONTINUOUS
10
1.97145
20
-2.88802
11
1.98275
21
-2.87887
0
LINE
8
BLACK
6
CONTINUOUS
10
1.98275
20
-2.87887
11
1.99304
21
-2.86858
0
LINE
8
BLACK
6
CONTINUOUS
10
1.99304
20
-2.86858
11
2.00219
21
-2.85728
0
LINE
8
BLACK
6
CONTINUOUS
10
2.00219
20
-2.85728
11
2.01012
21
-2.84508
0
LINE
8
BLACK
6
CONTINUOUS
10
2.01012
20
-2.84508
11
2.01672
21
-2.83211
0
LINE
8
BLACK
6
CONTINUOUS
10
2.01672
20
-2.83211
11
2.02193
21
-2.81853
0
LINE
8
BLACK
6
CONTINUOUS
10
2.02193
20
-2.81853
11
2.0257
21
-2.80448
0
LINE
8
BLACK
6
CONTINUOUS
10
2.0257
20
-2.80448
11
2.02797
21
-2.79012
0
LINE
8
BLACK
6
CONTINUOUS
10
2.02797
20
-2.79012
11
2.02873
21
-2.77559
0
LINE
8
BLACK
6
CONTINUOUS
10
2.02873
20
-2.77559
11
2.02797
21
-2.76106
0
LINE
8
BLACK
6
CONTINUOUS
10
2.02797
20
-2.76106
11
2.0257
21
-2.7467
0
LINE
8
BLACK
6
CONTINUOUS
10
2.0257
20
-2.7467
11
2.02193
21
-2.73265
0
LINE
8
BLACK
6
CONTINUOUS
10
2.02193
20
-2.73265
11
2.01672
21
-2.71907
0
LINE
8
BLACK
6
CONTINUOUS
10
2.01672
20
-2.71907
11
2.01012
21
-2.70611
0
LINE
8
BLACK
6
CONTINUOUS
10
2.01012
20
-2.70611
11
2.00219
21
-2.69391
0
LINE
8
BLACK
6
CONTINUOUS
10
2.00219
20
-2.69391
11
1.99304
21
-2.6826
0
LINE
8
BLACK
6
CONTINUOUS
10
1.99304
20
-2.6826
11
1.98275
21
-2.67232
0
LINE
8
BLACK
6
CONTINUOUS
10
1.98275
20
-2.67232
11
1.97145
21
-2.66316
0
LINE
8
BLACK
6
CONTINUOUS
10
1.97145
20
-2.66316
11
1.95925
21
-2.65524
0
LINE
8
BLACK
6
CONTINUOUS
10
1.95925
20
-2.65524
11
1.94629
21
-2.64864
0
LINE
8
BLACK
6
CONTINUOUS
10
1.94629
20
-2.64864
11
1.93271
21
-2.64342
0
LINE
8
BLACK
6
CONTINUOUS
10
1.93271
20
-2.64342
11
1.91866
21
-2.63966
0
LINE
8
BLACK
6
CONTINUOUS
10
1.91866
20
-2.63966
11
1.90429
21
-2.63738
0
LINE
8
BLACK
6
CONTINUOUS
10
1.90429
20
-2.63738
11
1.88976
21
-2.63662
0
LINE
8
BLACK
6
CONTINUOUS
10
1.88976
20
-2.63662
11
1.87524
21
-2.63738
0
LINE
8
BLACK
6
CONTINUOUS
10
1.87524
20
-2.63738
11
1.86087
21
-2.63966
0
LINE
8
BLACK
6
CONTINUOUS
10
1.86087
20
-2.63966
11
1.84682
21
-2.64342
0
LINE
8
BLACK
6
CONTINUOUS
10
1.84682
20
-2.64342
11
1.83324
21
-2.64864
0
LINE
8
BLACK
6
CONTINUOUS
10
1.83324
20
-2.64864
11
1.82028
21
-2.65524
0
LINE
8
BLACK
6
CONTINUOUS
10
1.82028
20
-2.65524
11
1.80808
21
-2.66316
0
LINE
8
BLACK
6
CONTINUOUS
10
1.80808
20
-2.66316
11
1.79677
21
-2.67232
0
LINE
8
BLACK
6
CONTINUOUS
10
1.79677
20
-2.67232
11
1.78649
21
-2.6826
0
LINE
8
BLACK
6
CONTINUOUS
10
1.78649
20
-2.6826
11
1.77733
21
-2.69391
0
LINE
8
BLACK
6
CONTINUOUS
10
1.77733
20
-2.69391
11
1.76941
21
-2.70611
0
LINE
8
BLACK
6
CONTINUOUS
10
1.76941
20
-2.70611
11
1.76281
21
-2.71907
0
LINE
8
BLACK
6
CONTINUOUS
10
1.76281
20
-2.71907
11
1.7576
21
-2.73265
0
LINE
8
BLACK
6
CONTINUOUS
10
1.7576
20
-2.73265
11
1.75383
21
-2.7467
0
LINE
8
BLACK
6
CONTINUOUS
10
1.75383
20
-2.7467
11
1.75156
21
-2.76106
0
LINE
8
BLACK
6
CONTINUOUS
10
1.75156
20
-2.76106
11
1.75079
21
-2.77559
0
LINE
8
BLACK
6
CONTINUOUS
10
1.75079
20
-2.77559
11
1.75156
21
-2.79012
0
LINE
8
BLACK
6
CONTINUOUS
10
1.75156
20
-2.79012
11
1.75383
21
-2.80448
0
LINE
8
BLACK
6
CONTINUOUS
10
0.724618
20
-2.74551
11
0.728538
21
-2.73088
0
LINE
8
BLACK
6
CONTINUOUS
10
0.728538
20
-2.73088
11
0.733965
21
-2.71674
0
LINE
8
BLACK
6
CONTINUOUS
10
0.733965
20
-2.71674
11
0.740841
21
-2.70325
0
LINE
8
BLACK
6
CONTINUOUS
10
0.740841
20
-2.70325
11
0.749089
21
-2.69055
0
LINE
8
BLACK
6
CONTINUOUS
10
0.749089
20
-2.69055
11
0.75862
21
-2.67878
0
LINE
8
BLACK
6
CONTINUOUS
10
0.75862
20
-2.67878
11
0.769329
21
-2.66807
0
LINE
8
BLACK
6
CONTINUOUS
10
0.769329
20
-2.66807
11
0.781098
21
-2.65854
0
LINE
8
BLACK
6
CONTINUOUS
10
0.781098
20
-2.65854
11
0.793799
21
-2.65029
0
LINE
8
BLACK
6
CONTINUOUS
10
0.793799
20
-2.65029
11
0.807293
21
-2.64341
0
LINE
8
BLACK
6
CONTINUOUS
10
0.807293
20
-2.64341
11
0.821432
21
-2.63799
0
LINE
8
BLACK
6
CONTINUOUS
10
0.821432
20
-2.63799
11
0.83606
21
-2.63407
0
LINE
8
BLACK
6
CONTINUOUS
10
0.83606
20
-2.63407
11
0.851018
21
-2.6317
0
LINE
8
BLACK
6
CONTINUOUS
10
0.851018
20
-2.6317
11
0.866142
21
-2.63091
0
LINE
8
BLACK
6
CONTINUOUS
10
0.866142
20
-2.63091
11
0.881265
21
-2.6317
0
LINE
8
BLACK
6
CONTINUOUS
10
0.881265
20
-2.6317
11
0.896223
21
-2.63407
0
LINE
8
BLACK
6
CONTINUOUS
10
0.896223
20
-2.63407
11
0.910852
21
-2.63799
0
LINE
8
BLACK
6
CONTINUOUS
10
0.910852
20
-2.63799
11
0.92499
21
-2.64341
0
LINE
8
BLACK
6
CONTINUOUS
10
0.92499
20
-2.64341
11
0.938484
21
-2.65029
0
LINE
8
BLACK
6
CONTINUOUS
10
0.938484
20
-2.65029
11
0.951185
21
-2.65854
0
LINE
8
BLACK
6
CONTINUOUS
10
0.951185
20
-2.65854
11
0.962955
21
-2.66807
0
LINE
8
BLACK
6
CONTINUOUS
10
0.962955
20
-2.66807
11
0.973664
21
-2.67878
0
LINE
8
BLACK
6
CONTINUOUS
10
0.973664
20
-2.67878
11
0.983194
21
-2.69055
0
LINE
8
BLACK
6
CONTINUOUS
10
0.983194
20
-2.69055
11
0.991443
21
-2.70325
0
LINE
8
BLACK
6
CONTINUOUS
10
0.991443
20
-2.70325
11
0.998318
21
-2.71674
0
LINE
8
BLACK
6
CONTINUOUS
10
0.998318
20
-2.71674
11
1.00375
21
-2.73088
0
LINE
8
BLACK
6
CONTINUOUS
10
1.00375
20
-2.73088
11
1.00767
21
-2.74551
0
LINE
8
BLACK
6
CONTINUOUS
10
1.00767
20
-2.74551
11
1.01003
21
-2.76047
0
LINE
8
BLACK
6
CONTINUOUS
10
1.01003
20
-2.76047
11
1.01083
21
-2.77559
0
LINE
8
BLACK
6
CONTINUOUS
10
1.01083
20
-2.77559
11
1.01003
21
-2.79071
0
LINE
8
BLACK
6
CONTINUOUS
10
1.01003
20
-2.79071
11
1.00767
21
-2.80567
0
LINE
8
BLACK
6
CONTINUOUS
10
1.00767
20
-2.80567
11
1.00375
21
-2.8203
0
LINE
8
BLACK
6
CONTINUOUS
10
1.00375
20
-2.8203
11
0.998318
21
-2.83444
0
LINE
8
BLACK
6
CONTINUOUS
10
0.998318
20
-2.83444
11
0.991443
21
-2.84793
0
LINE
8
BLACK
6
CONTINUOUS
10
0.991443
20
-2.84793
11
0.983194
21
-2.86063
0
LINE
8
BLACK
6
CONTINUOUS
10
0.983194
20
-2.86063
11
0.973664
21
-2.8724
0
LINE
8
BLACK
6
CONTINUOUS
10
0.973664
20
-2.8724
11
0.962955
21
-2.88311
0
LINE
8
BLACK
6
CONTINUOUS
10
0.962955
20
-2.88311
11
0.951185
21
-2.89264
0
LINE
8
BLACK
6
CONTINUOUS
10
0.951185
20
-2.89264
11
0.938484
21
-2.90089
0
LINE
8
BLACK
6
CONTINUOUS
10
0.938484
20
-2.90089
11
0.92499
21
-2.90777
0
LINE
8
BLACK
6
CONTINUOUS
10
0.92499
20
-2.90777
11
0.910852
21
-2.91319
0
LINE
8
BLACK
6
CONTINUOUS
10
0.910852
20
-2.91319
11
0.896223
21
-2.91711
0
LINE
8
BLACK
6
CONTINUOUS
10
0.896223
20
-2.91711
11
0.881265
21
-2.91948
0
LINE
8
BLACK
6
CONTINUOUS
10
0.881265
20
-2.91948
11
0.866142
21
-2.92028
0
LINE
8
BLACK
6
CONTINUOUS
10
0.866142
20
-2.92028
11
0.851018
21
-2.91948
0
LINE
8
BLACK
6
CONTINUOUS
10
0.851018
20
-2.91948
11
0.83606
21
-2.91711
0
LINE
8
BLACK
6
CONTINUOUS
10
0.83606
20
-2.91711
11
0.821432
21
-2.91319
0
LINE
8
BLACK
6
CONTINUOUS
10
0.821432
20
-2.91319
11
0.807293
21
-2.90777
0
LINE
8
BLACK
6
CONTINUOUS
10
0.807293
20
-2.90777
11
0.793799
21
-2.90089
0
LINE
8
BLACK
6
CONTINUOUS
10
0.793799
20
-2.90089
11
0.781098
21
-2.89264
0
LINE
8
BLACK
6
CONTINUOUS
10
0.781098
20
-2.89264
11
0.769329
21
-2.88311
0
LINE
8
BLACK
6
CONTINUOUS
10
0.769329
20
-2.88311
11
0.75862
21
-2.8724
0
LINE
8
BLACK
6
CONTINUOUS
10
0.75862
20
-2.8724
11
0.749089
21
-2.86063
0
LINE
8
BLACK
6
CONTINUOUS
10
0.749089
20
-2.86063
11
0.740841
21
-2.84793
0
LINE
8
BLACK
6
CONTINUOUS
10
0.740841
20
-2.84793
11
0.733965
21
-2.83444
0
LINE
8
BLACK
6
CONTINUOUS
10
0.733965
20
-2.83444
11
0.728538
21
-2.8203
0
LINE
8
BLACK
6
CONTINUOUS
10
0.728538
20
-2.8203
11
0.724618
21
-2.80567
0
LINE
8
BLACK
6
CONTINUOUS
10
0.724618
20
-2.80567
11
0.722249
21
-2.79071
0
LINE
8
BLACK
6
CONTINUOUS
10
0.722249
20
-2.79071
11
0.721457
21
-2.77559
0
LINE
8
BLACK
6
CONTINUOUS
10
0.721457
20
-2.77559
11
0.722249
21
-2.76047
0
LINE
8
BLACK
6
CONTINUOUS
10
0.722249
20
-2.76047
11
0.724618
21
-2.74551
0
LINE
8
BLACK
6
CONTINUOUS
10
0.730209
20
-2.80448
11
0.733973
21
-2.81853
0
LINE
8
BLACK
6
CONTINUOUS
10
0.733973
20
-2.81853
11
0.739186
21
-2.83211
0
LINE
8
BLACK
6
CONTINUOUS
10
0.739186
20
-2.83211
11
0.74579
21
-2.84508
0
LINE
8
BLACK
6
CONTINUOUS
10
0.74579
20
-2.84508
11
0.753713
21
-2.85728
0
LINE
8
BLACK
6
CONTINUOUS
10
0.753713
20
-2.85728
11
0.762867
21
-2.86858
0
LINE
8
BLACK
6
CONTINUOUS
10
0.762867
20
-2.86858
11
0.773153
21
-2.87887
0
LINE
8
BLACK
6
CONTINUOUS
10
0.773153
20
-2.87887
11
0.784457
21
-2.88802
0
LINE
8
BLACK
6
CONTINUOUS
10
0.784457
20
-2.88802
11
0.796657
21
-2.89594
0
LINE
8
BLACK
6
CONTINUOUS
10
0.796657
20
-2.89594
11
0.809618
21
-2.90255
0
LINE
8
BLACK
6
CONTINUOUS
10
0.809618
20
-2.90255
11
0.823198
21
-2.90776
0
LINE
8
BLACK
6
CONTINUOUS
10
0.823198
20
-2.90776
11
0.837248
21
-2.91152
0
LINE
8
BLACK
6
CONTINUOUS
10
0.837248
20
-2.91152
11
0.851615
21
-2.9138
0
LINE
8
BLACK
6
CONTINUOUS
10
0.851615
20
-2.9138
11
0.866142
21
-2.91456
0
LINE
8
BLACK
6
CONTINUOUS
10
0.866142
20
-2.91456
11
0.880668
21
-2.9138
0
LINE
8
BLACK
6
CONTINUOUS
10
0.880668
20
-2.9138
11
0.895035
21
-2.91152
0
LINE
8
BLACK
6
CONTINUOUS
10
0.895035
20
-2.91152
11
0.909086
21
-2.90776
0
LINE
8
BLACK
6
CONTINUOUS
10
0.909086
20
-2.90776
11
0.922666
21
-2.90255
0
LINE
8
BLACK
6
CONTINUOUS
10
0.922666
20
-2.90255
11
0.935627
21
-2.89594
0
LINE
8
BLACK
6
CONTINUOUS
10
0.935627
20
-2.89594
11
0.947826
21
-2.88802
0
LINE
8
BLACK
6
CONTINUOUS
10
0.947826
20
-2.88802
11
0.959131
21
-2.87887
0
LINE
8
BLACK
6
CONTINUOUS
10
0.959131
20
-2.87887
11
0.969417
21
-2.86858
0
LINE
8
BLACK
6
CONTINUOUS
10
0.969417
20
-2.86858
11
0.978571
21
-2.85728
0
LINE
8
BLACK
6
CONTINUOUS
10
0.978571
20
-2.85728
11
0.986493
21
-2.84508
0
LINE
8
BLACK
6
CONTINUOUS
10
0.986493
20
-2.84508
11
0.993097
21
-2.83211
0
LINE
8
BLACK
6
CONTINUOUS
10
0.993097
20
-2.83211
11
0.99831
21
-2.81853
0
LINE
8
BLACK
6
CONTINUOUS
10
0.99831
20
-2.81853
11
1.00207
21
-2.80448
0
LINE
8
BLACK
6
CONTINUOUS
10
1.00207
20
-2.80448
11
1.00435
21
-2.79012
0
LINE
8
BLACK
6
CONTINUOUS
10
1.00435
20
-2.79012
11
1.00511
21
-2.77559
0
LINE
8
BLACK
6
CONTINUOUS
10
1.00511
20
-2.77559
11
1.00435
21
-2.76106
0
LINE
8
BLACK
6
CONTINUOUS
10
1.00435
20
-2.76106
11
1.00207
21
-2.7467
0
LINE
8
BLACK
6
CONTINUOUS
10
1.00207
20
-2.7467
11
0.99831
21
-2.73265
0
LINE
8
BLACK
6
CONTINUOUS
10
0.99831
20
-2.73265
11
0.993097
21
-2.71907
0
LINE
8
BLACK
6
CONTINUOUS
10
0.993097
20
-2.71907
11
0.986493
21
-2.70611
0
LINE
8
BLACK
6
CONTINUOUS
10
0.986493
20
-2.70611
11
0.978571
21
-2.69391
0
LINE
8
BLACK
6
CONTINUOUS
10
0.978571
20
-2.69391
11
0.969417
21
-2.6826
0
LINE
8
BLACK
6
CONTINUOUS
10
0.969417
20
-2.6826
11
0.959131
21
-2.67232
0
LINE
8
BLACK
6
CONTINUOUS
10
0.959131
20
-2.67232
11
0.947826
21
-2.66316
0
LINE
8
BLACK
6
CONTINUOUS
10
0.947826
20
-2.66316
11
0.935627
21
-2.65524
0
LINE
8
BLACK
6
CONTINUOUS
10
0.935627
20
-2.65524
11
0.922666
21
-2.64864
0
LINE
8
BLACK
6
CONTINUOUS
10
0.922666
20
-2.64864
11
0.909086
21
-2.64342
0
LINE
8
BLACK
6
CONTINUOUS
10
0.909086
20
-2.64342
11
0.895035
21
-2.63966
0
LINE
8
BLACK
6
CONTINUOUS
10
0.895035
20
-2.63966
11
0.880668
21
-2.63738
0
LINE
8
BLACK
6
CONTINUOUS
10
0.880668
20
-2.63738
11
0.866142
21
-2.63662
0
LINE
8
BLACK
6
CONTINUOUS
10
0.866142
20
-2.63662
11
0.851615
21
-2.63738
0
LINE
8
BLACK
6
CONTINUOUS
10
0.851615
20
-2.63738
11
0.837248
21
-2.63966
0
LINE
8
BLACK
6
CONTINUOUS
10
0.837248
20
-2.63966
11
0.823198
21
-2.64342
0
LINE
8
BLACK
6
CONTINUOUS
10
0.823198
20
-2.64342
11
0.809618
21
-2.64864
0
LINE
8
BLACK
6
CONTINUOUS
10
0.809618
20
-2.64864
11
0.796657
21
-2.65524
0
LINE
8
BLACK
6
CONTINUOUS
10
0.796657
20
-2.65524
11
0.784457
21
-2.66316
0
LINE
8
BLACK
6
CONTINUOUS
10
0.784457
20
-2.66316
11
0.773153
21
-2.67232
0
LINE
8
BLACK
6
CONTINUOUS
10
0.773153
20
-2.67232
11
0.762867
21
-2.6826
0
LINE
8
BLACK
6
CONTINUOUS
10
0.762867
20
-2.6826
11
0.753713
21
-2.69391
0
LINE
8
BLACK
6
CONTINUOUS
10
0.753713
20
-2.69391
11
0.74579
21
-2.70611
0
LINE
8
BLACK
6
CONTINUOUS
10
0.74579
20
-2.70611
11
0.739186
21
-2.71907
0
LINE
8
BLACK
6
CONTINUOUS
10
0.739186
20
-2.71907
11
0.733973
21
-2.73265
0
LINE
8
BLACK
6
CONTINUOUS
10
0.733973
20
-2.73265
11
0.730209
21
-2.7467
0
LINE
8
BLACK
6
CONTINUOUS
10
0.730209
20
-2.7467
11
0.727933
21
-2.76106
0
LINE
8
BLACK
6
CONTINUOUS
10
0.727933
20
-2.76106
11
0.727172
21
-2.77559
0
LINE
8
BLACK
6
CONTINUOUS
10
0.727172
20
-2.77559
11
0.727933
21
-2.79012
0
LINE
8
BLACK
6
CONTINUOUS
10
0.727933
20
-2.79012
11
0.730209
21
-2.80448
0
LINE
8
BLACK
6
CONTINUOUS
10
2.40551
20
-2.75992
11
2.40803
21
-2.7462
0
LINE
8
BLACK
6
CONTINUOUS
10
2.40803
20
-2.7462
11
2.41207
21
-2.73284
0
LINE
8
BLACK
6
CONTINUOUS
10
2.41207
20
-2.73284
11
2.41756
21
-2.72001
0
LINE
8
BLACK
6
CONTINUOUS
10
2.41756
20
-2.72001
11
2.42446
21
-2.70788
0
LINE
8
BLACK
6
CONTINUOUS
10
2.42446
20
-2.70788
11
2.43266
21
-2.69659
0
LINE
8
BLACK
6
CONTINUOUS
10
2.43266
20
-2.69659
11
2.44207
21
-2.68628
0
LINE
8
BLACK
6
CONTINUOUS
10
2.44207
20
-2.68628
11
2.45257
21
-2.67709
0
LINE
8
BLACK
6
CONTINUOUS
10
2.45257
20
-2.67709
11
2.46403
21
-2.66912
0
LINE
8
BLACK
6
CONTINUOUS
10
2.46403
20
-2.66912
11
2.47631
21
-2.66249
0
LINE
8
BLACK
6
CONTINUOUS
10
2.47631
20
-2.66249
11
2.48924
21
-2.65726
0
LINE
8
BLACK
6
CONTINUOUS
10
2.48924
20
-2.65726
11
2.50269
21
-2.65351
0
LINE
8
BLACK
6
CONTINUOUS
10
2.50269
20
-2.65351
11
2.51646
21
-2.65128
0
LINE
8
BLACK
6
CONTINUOUS
10
2.51646
20
-2.65128
11
2.5304
21
-2.65059
0
LINE
8
BLACK
6
CONTINUOUS
10
2.5304
20
-2.65059
11
2.54433
21
-2.65147
0
LINE
8
BLACK
6
CONTINUOUS
10
2.54433
20
-2.65147
11
2.55807
21
-2.65389
0
LINE
8
BLACK
6
CONTINUOUS
10
2.55807
20
-2.65389
11
2.57146
21
-2.65783
0
LINE
8
BLACK
6
CONTINUOUS
10
2.57146
20
-2.65783
11
2.58432
21
-2.66324
0
LINE
8
BLACK
6
CONTINUOUS
10
2.58432
20
-2.66324
11
2.59651
21
-2.67005
0
LINE
8
BLACK
6
CONTINUOUS
10
2.59651
20
-2.67005
11
2.60785
21
-2.67817
0
LINE
8
BLACK
6
CONTINUOUS
10
2.60785
20
-2.67817
11
2.61822
21
-2.68751
0
LINE
8
BLACK
6
CONTINUOUS
10
2.61822
20
-2.68751
11
2.62749
21
-2.69795
0
LINE
8
BLACK
6
CONTINUOUS
10
2.62749
20
-2.69795
11
2.63553
21
-2.70935
0
LINE
8
BLACK
6
CONTINUOUS
10
2.63553
20
-2.70935
11
2.64226
21
-2.72158
0
LINE
8
BLACK
6
CONTINUOUS
10
2.64226
20
-2.72158
11
2.64757
21
-2.73448
0
LINE
8
BLACK
6
CONTINUOUS
10
2.64757
20
-2.73448
11
2.65142
21
-2.7479
0
LINE
8
BLACK
6
CONTINUOUS
10
2.65142
20
-2.7479
11
2.65375
21
-2.76166
0
LINE
8
BLACK
6
CONTINUOUS
10
2.65375
20
-2.76166
11
2.65453
21
-2.77559
0
LINE
8
BLACK
6
CONTINUOUS
10
2.65453
20
-2.77559
11
2.65448
21
-2.77908
0
LINE
8
BLACK
6
CONTINUOUS
10
2.65448
20
-2.77908
11
2.65331
21
-2.79299
0
LINE
8
BLACK
6
CONTINUOUS
10
2.65331
20
-2.79299
11
2.6506
21
-2.80668
0
LINE
8
BLACK
6
CONTINUOUS
10
2.6506
20
-2.80668
11
2.64638
21
-2.81998
0
LINE
8
BLACK
6
CONTINUOUS
10
2.64638
20
-2.81998
11
2.6407
21
-2.83273
0
LINE
8
BLACK
6
CONTINUOUS
10
2.6407
20
-2.83273
11
2.63364
21
-2.84476
0
LINE
8
BLACK
6
CONTINUOUS
10
2.63364
20
-2.84476
11
2.62528
21
-2.85594
0
LINE
8
BLACK
6
CONTINUOUS
10
2.62528
20
-2.85594
11
2.61573
21
-2.86611
0
LINE
8
BLACK
6
CONTINUOUS
10
2.61573
20
-2.86611
11
2.6051
21
-2.87516
0
LINE
8
BLACK
6
CONTINUOUS
10
2.6051
20
-2.87516
11
2.59353
21
-2.88296
0
LINE
8
BLACK
6
CONTINUOUS
10
2.59353
20
-2.88296
11
2.58117
21
-2.88943
0
LINE
8
BLACK
6
CONTINUOUS
10
2.58117
20
-2.88943
11
2.56815
21
-2.89447
0
LINE
8
BLACK
6
CONTINUOUS
10
2.56815
20
-2.89447
11
2.55466
21
-2.89804
0
LINE
8
BLACK
6
CONTINUOUS
10
2.55466
20
-2.89804
11
2.54086
21
-2.90008
0
LINE
8
BLACK
6
CONTINUOUS
10
2.54086
20
-2.90008
11
2.52691
21
-2.90056
0
LINE
8
BLACK
6
CONTINUOUS
10
2.52691
20
-2.90056
11
2.513
21
-2.89949
0
LINE
8
BLACK
6
CONTINUOUS
10
2.513
20
-2.89949
11
2.49929
21
-2.89688
0
LINE
8
BLACK
6
CONTINUOUS
10
2.49929
20
-2.89688
11
2.48596
21
-2.89275
0
LINE
8
BLACK
6
CONTINUOUS
10
2.48596
20
-2.89275
11
2.47317
21
-2.88716
0
LINE
8
BLACK
6
CONTINUOUS
10
2.47317
20
-2.88716
11
2.46108
21
-2.88019
0
LINE
8
BLACK
6
CONTINUOUS
10
2.46108
20
-2.88019
11
2.44985
21
-2.8719
0
LINE
8
BLACK
6
CONTINUOUS
10
2.44985
20
-2.8719
11
2.43961
21
-2.86242
0
LINE
8
BLACK
6
CONTINUOUS
10
2.43961
20
-2.86242
11
2.43049
21
-2.85186
0
LINE
8
BLACK
6
CONTINUOUS
10
2.43049
20
-2.85186
11
2.42261
21
-2.84034
0
LINE
8
BLACK
6
CONTINUOUS
10
2.42261
20
-2.84034
11
2.41606
21
-2.82802
0
LINE
8
BLACK
6
CONTINUOUS
10
2.41606
20
-2.82802
11
2.41092
21
-2.81505
0
LINE
8
BLACK
6
CONTINUOUS
10
2.41092
20
-2.81505
11
2.40726
21
-2.80158
0
LINE
8
BLACK
6
CONTINUOUS
10
2.40726
20
-2.80158
11
2.40512
21
-2.78779
0
LINE
8
BLACK
6
CONTINUOUS
10
2.40512
20
-2.78779
11
2.40454
21
-2.77393
0
LINE
8
BLACK
6
CONTINUOUS
10
2.40454
20
-2.77393
11
2.40454
21
-2.77385
0
LINE
8
BLACK
6
CONTINUOUS
10
2.40454
20
-2.77385
11
2.40551
21
-2.75992
0
LINE
8
BLACK
6
CONTINUOUS
10
2.41285
20
-2.80039
11
2.41634
21
-2.81324
0
LINE
8
BLACK
6
CONTINUOUS
10
2.41634
20
-2.81324
11
2.42125
21
-2.82562
0
LINE
8
BLACK
6
CONTINUOUS
10
2.42125
20
-2.82562
11
2.4275
21
-2.83738
0
LINE
8
BLACK
6
CONTINUOUS
10
2.4275
20
-2.83738
11
2.43502
21
-2.84837
0
LINE
8
BLACK
6
CONTINUOUS
10
2.43502
20
-2.84837
11
2.44372
21
-2.85845
0
LINE
8
BLACK
6
CONTINUOUS
10
2.44372
20
-2.85845
11
2.45349
21
-2.8675
0
LINE
8
BLACK
6
CONTINUOUS
10
2.45349
20
-2.8675
11
2.46421
21
-2.8754
0
LINE
8
BLACK
6
CONTINUOUS
10
2.46421
20
-2.8754
11
2.47575
21
-2.88206
0
LINE
8
BLACK
6
CONTINUOUS
10
2.47575
20
-2.88206
11
2.48795
21
-2.88739
0
LINE
8
BLACK
6
CONTINUOUS
10
2.48795
20
-2.88739
11
2.50067
21
-2.89133
0
LINE
8
BLACK
6
CONTINUOUS
10
2.50067
20
-2.89133
11
2.51375
21
-2.89382
0
LINE
8
BLACK
6
CONTINUOUS
10
2.51375
20
-2.89382
11
2.52703
21
-2.89485
0
LINE
8
BLACK
6
CONTINUOUS
10
2.52703
20
-2.89485
11
2.54034
21
-2.89438
0
LINE
8
BLACK
6
CONTINUOUS
10
2.54034
20
-2.89438
11
2.55351
21
-2.89244
0
LINE
8
BLACK
6
CONTINUOUS
10
2.55351
20
-2.89244
11
2.56639
21
-2.88903
0
LINE
8
BLACK
6
CONTINUOUS
10
2.56639
20
-2.88903
11
2.5788
21
-2.88422
0
LINE
8
BLACK
6
CONTINUOUS
10
2.5788
20
-2.88422
11
2.59061
21
-2.87805
0
LINE
8
BLACK
6
CONTINUOUS
10
2.59061
20
-2.87805
11
2.60165
21
-2.8706
0
LINE
8
BLACK
6
CONTINUOUS
10
2.60165
20
-2.8706
11
2.61179
21
-2.86197
0
LINE
8
BLACK
6
CONTINUOUS
10
2.61179
20
-2.86197
11
2.6209
21
-2.85226
0
LINE
8
BLACK
6
CONTINUOUS
10
2.6209
20
-2.85226
11
2.62888
21
-2.8416
0
LINE
8
BLACK
6
CONTINUOUS
10
2.62888
20
-2.8416
11
2.63562
21
-2.83011
0
LINE
8
BLACK
6
CONTINUOUS
10
2.63562
20
-2.83011
11
2.64104
21
-2.81795
0
LINE
8
BLACK
6
CONTINUOUS
10
2.64104
20
-2.81795
11
2.64506
21
-2.80525
0
LINE
8
BLACK
6
CONTINUOUS
10
2.64506
20
-2.80525
11
2.64765
21
-2.79219
0
LINE
8
BLACK
6
CONTINUOUS
10
2.64765
20
-2.79219
11
2.64876
21
-2.77892
0
LINE
8
BLACK
6
CONTINUOUS
10
2.64876
20
-2.77892
11
2.64881
21
-2.77559
0
LINE
8
BLACK
6
CONTINUOUS
10
2.64881
20
-2.77559
11
2.64807
21
-2.76229
0
LINE
8
BLACK
6
CONTINUOUS
10
2.64807
20
-2.76229
11
2.64585
21
-2.74916
0
LINE
8
BLACK
6
CONTINUOUS
10
2.64585
20
-2.74916
11
2.64217
21
-2.73636
0
LINE
8
BLACK
6
CONTINUOUS
10
2.64217
20
-2.73636
11
2.6371
21
-2.72405
0
LINE
8
BLACK
6
CONTINUOUS
10
2.6371
20
-2.72405
11
2.63068
21
-2.71238
0
LINE
8
BLACK
6
CONTINUOUS
10
2.63068
20
-2.71238
11
2.62301
21
-2.7015
0
LINE
8
BLACK
6
CONTINUOUS
10
2.62301
20
-2.7015
11
2.61417
21
-2.69154
0
LINE
8
BLACK
6
CONTINUOUS
10
2.61417
20
-2.69154
11
2.60427
21
-2.68263
0
LINE
8
BLACK
6
CONTINUOUS
10
2.60427
20
-2.68263
11
2.59344
21
-2.67488
0
LINE
8
BLACK
6
CONTINUOUS
10
2.59344
20
-2.67488
11
2.58182
21
-2.66838
0
LINE
8
BLACK
6
CONTINUOUS
10
2.58182
20
-2.66838
11
2.56954
21
-2.66322
0
LINE
8
BLACK
6
CONTINUOUS
10
2.56954
20
-2.66322
11
2.55677
21
-2.65946
0
LINE
8
BLACK
6
CONTINUOUS
10
2.55677
20
-2.65946
11
2.54365
21
-2.65715
0
LINE
8
BLACK
6
CONTINUOUS
10
2.54365
20
-2.65715
11
2.53036
21
-2.65631
0
LINE
8
BLACK
6
CONTINUOUS
10
2.53036
20
-2.65631
11
2.51706
21
-2.65696
0
LINE
8
BLACK
6
CONTINUOUS
10
2.51706
20
-2.65696
11
2.50391
21
-2.65909
0
LINE
8
BLACK
6
CONTINUOUS
10
2.50391
20
-2.65909
11
2.49109
21
-2.66267
0
LINE
8
BLACK
6
CONTINUOUS
10
2.49109
20
-2.66267
11
2.47874
21
-2.66766
0
LINE
8
BLACK
6
CONTINUOUS
10
2.47874
20
-2.66766
11
2.46703
21
-2.67399
0
LINE
8
BLACK
6
CONTINUOUS
10
2.46703
20
-2.67399
11
2.45609
21
-2.68159
0
LINE
8
BLACK
6
CONTINUOUS
10
2.45609
20
-2.68159
11
2.44607
21
-2.69037
0
LINE
8
BLACK
6
CONTINUOUS
10
2.44607
20
-2.69037
11
2.43709
21
-2.7002
0
LINE
8
BLACK
6
CONTINUOUS
10
2.43709
20
-2.7002
11
2.42926
21
-2.71097
0
LINE
8
BLACK
6
CONTINUOUS
10
2.42926
20
-2.71097
11
2.42269
21
-2.72255
0
LINE
8
BLACK
6
CONTINUOUS
10
2.42269
20
-2.72255
11
2.41744
21
-2.73479
0
LINE
8
BLACK
6
CONTINUOUS
10
2.41744
20
-2.73479
11
2.41359
21
-2.74754
0
LINE
8
BLACK
6
CONTINUOUS
10
2.41359
20
-2.74754
11
2.41119
21
-2.76064
0
LINE
8
BLACK
6
CONTINUOUS
10
2.41119
20
-2.76064
11
2.41026
21
-2.77393
0
LINE
8
BLACK
6
CONTINUOUS
10
2.41026
20
-2.77393
11
2.41081
21
-2.78723
0
LINE
8
BLACK
6
CONTINUOUS
10
2.41081
20
-2.78723
11
2.41285
21
-2.80039
0
LINE
8
BLACK
6
CONTINUOUS
10
0.102364
20
-1.95284
11
0.104883
21
-1.93911
0
LINE
8
BLACK
6
CONTINUOUS
10
0.104883
20
-1.93911
11
0.108916
21
-1.92575
0
LINE
8
BLACK
6
CONTINUOUS
10
0.108916
20
-1.92575
11
0.114414
21
-1.91292
0
LINE
8
BLACK
6
CONTINUOUS
10
0.114414
20
-1.91292
11
0.121307
21
-1.90079
0
LINE
8
BLACK
6
CONTINUOUS
10
0.121307
20
-1.90079
11
0.12951
21
-1.8895
0
LINE
8
BLACK
6
CONTINUOUS
10
0.12951
20
-1.8895
11
0.13892
21
-1.87919
0
LINE
8
BLACK
6
CONTINUOUS
10
0.13892
20
-1.87919
11
0.14942
21
-1.87
0
LINE
8
BLACK
6
CONTINUOUS
10
0.14942
20
-1.87
11
0.16088
21
-1.86204
0
LINE
8
BLACK
6
CONTINUOUS
10
0.16088
20
-1.86204
11
0.173156
21
-1.8554
0
LINE
8
BLACK
6
CONTINUOUS
10
0.173156
20
-1.8554
11
0.186095
21
-1.85017
0
LINE
8
BLACK
6
CONTINUOUS
10
0.186095
20
-1.85017
11
0.199536
21
-1.84642
0
LINE
8
BLACK
6
CONTINUOUS
10
0.199536
20
-1.84642
11
0.213312
21
-1.84419
0
LINE
8
BLACK
6
CONTINUOUS
10
0.213312
20
-1.84419
11
0.227251
21
-1.84351
0
LINE
8
BLACK
6
CONTINUOUS
10
0.227251
20
-1.84351
11
0.241178
21
-1.84438
0
LINE
8
BLACK
6
CONTINUOUS
10
0.241178
20
-1.84438
11
0.254922
21
-1.84681
0
LINE
8
BLACK
6
CONTINUOUS
10
0.254922
20
-1.84681
11
0.268309
21
-1.85075
0
LINE
8
BLACK
6
CONTINUOUS
10
0.268309
20
-1.85075
11
0.281174
21
-1.85615
0
LINE
8
BLACK
6
CONTINUOUS
10
0.281174
20
-1.85615
11
0.293356
21
-1.86296
0
LINE
8
BLACK
6
CONTINUOUS
10
0.293356
20
-1.86296
11
0.304703
21
-1.87109
0
LINE
8
BLACK
6
CONTINUOUS
10
0.304703
20
-1.87109
11
0.315074
21
-1.88042
0
LINE
8
BLACK
6
CONTINUOUS
10
0.315074
20
-1.88042
11
0.32434
21
-1.89086
0
LINE
8
BLACK
6
CONTINUOUS
10
0.32434
20
-1.89086
11
0.332384
21
-1.90226
0
LINE
8
BLACK
6
CONTINUOUS
10
0.332384
20
-1.90226
11
0.339107
21
-1.91449
0
LINE
8
BLACK
6
CONTINUOUS
10
0.339107
20
-1.91449
11
0.344425
21
-1.9274
0
LINE
8
BLACK
6
CONTINUOUS
10
0.344425
20
-1.9274
11
0.348272
21
-1.94081
0
LINE
8
BLACK
6
CONTINUOUS
10
0.348272
20
-1.94081
11
0.350599
21
-1.95457
0
LINE
8
BLACK
6
CONTINUOUS
10
0.350599
20
-1.95457
11
0.351378
21
-1.9685
0
LINE
8
BLACK
6
CONTINUOUS
10
0.351378
20
-1.9685
11
0.351329
21
-1.97199
0
LINE
8
BLACK
6
CONTINUOUS
10
0.351329
20
-1.97199
11
0.350161
21
-1.9859
0
LINE
8
BLACK
6
CONTINUOUS
10
0.350161
20
-1.9859
11
0.347451
21
-1.99959
0
LINE
8
BLACK
6
CONTINUOUS
10
0.347451
20
-1.99959
11
0.343231
21
-2.01289
0
LINE
8
BLACK
6
CONTINUOUS
10
0.343231
20
-2.01289
11
0.337555
21
-2.02564
0
LINE
8
BLACK
6
CONTINUOUS
10
0.337555
20
-2.02564
11
0.330493
21
-2.03768
0
LINE
8
BLACK
6
CONTINUOUS
10
0.330493
20
-2.03768
11
0.322134
21
-2.04885
0
LINE
8
BLACK
6
CONTINUOUS
10
0.322134
20
-2.04885
11
0.31258
21
-2.05903
0
LINE
8
BLACK
6
CONTINUOUS
10
0.31258
20
-2.05903
11
0.301953
21
-2.06807
0
LINE
8
BLACK
6
CONTINUOUS
10
0.301953
20
-2.06807
11
0.290383
21
-2.07587
0
LINE
8
BLACK
6
CONTINUOUS
10
0.290383
20
-2.07587
11
0.278016
21
-2.08234
0
LINE
8
BLACK
6
CONTINUOUS
10
0.278016
20
-2.08234
11
0.265005
21
-2.08739
0
LINE
8
BLACK
6
CONTINUOUS
10
0.265005
20
-2.08739
11
0.251513
21
-2.09095
0
LINE
8
BLACK
6
CONTINUOUS
10
0.251513
20
-2.09095
11
0.237707
21
-2.09299
0
LINE
8
BLACK
6
CONTINUOUS
10
0.237707
20
-2.09299
11
0.22376
21
-2.09348
0
LINE
8
BLACK
6
CONTINUOUS
10
0.22376
20
-2.09348
11
0.209846
21
-2.09241
0
LINE
8
BLACK
6
CONTINUOUS
10
0.209846
20
-2.09241
11
0.196138
21
-2.08979
0
LINE
8
BLACK
6
CONTINUOUS
10
0.196138
20
-2.08979
11
0.182806
21
-2.08566
0
LINE
8
BLACK
6
CONTINUOUS
10
0.182806
20
-2.08566
11
0.170018
21
-2.08008
0
LINE
8
BLACK
6
CONTINUOUS
10
0.170018
20
-2.08008
11
0.157933
21
-2.0731
0
LINE
8
BLACK
6
CONTINUOUS
10
0.157933
20
-2.0731
11
0.1467
21
-2.06482
0
LINE
8
BLACK
6
CONTINUOUS
10
0.1467
20
-2.06482
11
0.13646
21
-2.05534
0
LINE
8
BLACK
6
CONTINUOUS
10
0.13646
20
-2.05534
11
0.127342
21
-2.04477
0
LINE
8
BLACK
6
CONTINUOUS
10
0.127342
20
-2.04477
11
0.119457
21
-2.03326
0
LINE
8
BLACK
6
CONTINUOUS
10
0.119457
20
-2.03326
11
0.112906
21
-2.02094
0
LINE
8
BLACK
6
CONTINUOUS
10
0.112906
20
-2.02094
11
0.107768
21
-2.00796
0
LINE
8
BLACK
6
CONTINUOUS
10
0.107768
20
-2.00796
11
0.104109
21
-1.99449
0
LINE
8
BLACK
6
CONTINUOUS
10
0.104109
20
-1.99449
11
0.101975
21
-1.9807
0
LINE
8
BLACK
6
CONTINUOUS
10
0.101975
20
-1.9807
11
0.101393
21
-1.96684
0
LINE
8
BLACK
6
CONTINUOUS
10
0.101393
20
-1.96684
11
0.10139
21
-1.96676
0
LINE
8
BLACK
6
CONTINUOUS
10
0.10139
20
-1.96676
11
0.102364
21
-1.95284
0
LINE
8
BLACK
6
CONTINUOUS
10
0.109702
20
-1.9933
11
0.113194
21
-2.00616
0
LINE
8
BLACK
6
CONTINUOUS
10
0.113194
20
-2.00616
11
0.118096
21
-2.01854
0
LINE
8
BLACK
6
CONTINUOUS
10
0.118096
20
-2.01854
11
0.124348
21
-2.0303
0
LINE
8
BLACK
6
CONTINUOUS
10
0.124348
20
-2.0303
11
0.131872
21
-2.04128
0
LINE
8
BLACK
6
CONTINUOUS
10
0.131872
20
-2.04128
11
0.140574
21
-2.05136
0
LINE
8
BLACK
6
CONTINUOUS
10
0.140574
20
-2.05136
11
0.150345
21
-2.06041
0
LINE
8
BLACK
6
CONTINUOUS
10
0.150345
20
-2.06041
11
0.161063
21
-2.06831
0
LINE
8
BLACK
6
CONTINUOUS
10
0.161063
20
-2.06831
11
0.172596
21
-2.07497
0
LINE
8
BLACK
6
CONTINUOUS
10
0.172596
20
-2.07497
11
0.1848
21
-2.0803
0
LINE
8
BLACK
6
CONTINUOUS
10
0.1848
20
-2.0803
11
0.197521
21
-2.08424
0
LINE
8
BLACK
6
CONTINUOUS
10
0.197521
20
-2.08424
11
0.210602
21
-2.08674
0
LINE
8
BLACK
6
CONTINUOUS
10
0.210602
20
-2.08674
11
0.22388
21
-2.08776
0
LINE
8
BLACK
6
CONTINUOUS
10
0.22388
20
-2.08776
11
0.237189
21
-2.0873
0
LINE
8
BLACK
6
CONTINUOUS
10
0.237189
20
-2.0873
11
0.250363
21
-2.08535
0
LINE
8
BLACK
6
CONTINUOUS
10
0.250363
20
-2.08535
11
0.263238
21
-2.08195
0
LINE
8
BLACK
6
CONTINUOUS
10
0.263238
20
-2.08195
11
0.275654
21
-2.07713
0
LINE
8
BLACK
6
CONTINUOUS
10
0.275654
20
-2.07713
11
0.287456
21
-2.07096
0
LINE
8
BLACK
6
CONTINUOUS
10
0.287456
20
-2.07096
11
0.298496
21
-2.06352
0
LINE
8
BLACK
6
CONTINUOUS
10
0.298496
20
-2.06352
11
0.308637
21
-2.05488
0
LINE
8
BLACK
6
CONTINUOUS
10
0.308637
20
-2.05488
11
0.317753
21
-2.04518
0
LINE
8
BLACK
6
CONTINUOUS
10
0.317753
20
-2.04518
11
0.325731
21
-2.03451
0
LINE
8
BLACK
6
CONTINUOUS
10
0.325731
20
-2.03451
11
0.332469
21
-2.02303
0
LINE
8
BLACK
6
CONTINUOUS
10
0.332469
20
-2.02303
11
0.337886
21
-2.01086
0
LINE
8
BLACK
6
CONTINUOUS
10
0.337886
20
-2.01086
11
0.341913
21
-1.99817
0
LINE
8
BLACK
6
CONTINUOUS
10
0.341913
20
-1.99817
11
0.344499
21
-1.9851
0
LINE
8
BLACK
6
CONTINUOUS
10
0.344499
20
-1.9851
11
0.345614
21
-1.97183
0
LINE
8
BLACK
6
CONTINUOUS
10
0.345614
20
-1.97183
11
0.34566
21
-1.9685
0
LINE
8
BLACK
6
CONTINUOUS
10
0.34566
20
-1.9685
11
0.344917
21
-1.95521
0
LINE
8
BLACK
6
CONTINUOUS
10
0.344917
20
-1.95521
11
0.342696
21
-1.94208
0
LINE
8
BLACK
6
CONTINUOUS
10
0.342696
20
-1.94208
11
0.339025
21
-1.92928
0
LINE
8
BLACK
6
CONTINUOUS
10
0.339025
20
-1.92928
11
0.33395
21
-1.91696
0
LINE
8
BLACK
6
CONTINUOUS
10
0.33395
20
-1.91696
11
0.327535
21
-1.90529
0
LINE
8
BLACK
6
CONTINUOUS
10
0.327535
20
-1.90529
11
0.319859
21
-1.89441
0
LINE
8
BLACK
6
CONTINUOUS
10
0.319859
20
-1.89441
11
0.311017
21
-1.88445
0
LINE
8
BLACK
6
CONTINUOUS
10
0.311017
20
-1.88445
11
0.301121
21
-1.87554
0
LINE
8
BLACK
6
CONTINUOUS
10
0.301121
20
-1.87554
11
0.290293
21
-1.86779
0
LINE
8
BLACK
6
CONTINUOUS
10
0.290293
20
-1.86779
11
0.278668
21
-1.86129
0
LINE
8
BLACK
6
CONTINUOUS
10
0.278668
20
-1.86129
11
0.266391
21
-1.85613
0
LINE
8
BLACK
6
CONTINUOUS
10
0.266391
20
-1.85613
11
0.253616
21
-1.85237
0
LINE
8
BLACK
6
CONTINUOUS
10
0.253616
20
-1.85237
11
0.240501
21
-1.85006
0
LINE
8
BLACK
6
CONTINUOUS
10
0.240501
20
-1.85006
11
0.227211
21
-1.84922
0
LINE
8
BLACK
6
CONTINUOUS
10
0.227211
20
-1.84922
11
0.21391
21
-1.84988
0
LINE
8
BLACK
6
CONTINUOUS
10
0.21391
20
-1.84988
11
0.200764
21
-1.852
0
LINE
8
BLACK
6
CONTINUOUS
10
0.200764
20
-1.852
11
0.187937
21
-1.85559
0
LINE
8
BLACK
6
CONTINUOUS
10
0.187937
20
-1.85559
11
0.17559
21
-1.86057
0
LINE
8
BLACK
6
CONTINUOUS
10
0.17559
20
-1.86057
11
0.163876
21
-1.86691
0
LINE
8
BLACK
6
CONTINUOUS
10
0.163876
20
-1.86691
11
0.152941
21
-1.87451
0
LINE
8
BLACK
6
CONTINUOUS
10
0.152941
20
-1.87451
11
0.142921
21
-1.88328
0
LINE
8
BLACK
6
CONTINUOUS
10
0.142921
20
-1.88328
11
0.133941
21
-1.89311
0
LINE
8
BLACK
6
CONTINUOUS
10
0.133941
20
-1.89311
11
0.126113
21
-1.90389
0
LINE
8
BLACK
6
CONTINUOUS
10
0.126113
20
-1.90389
11
0.119536
21
-1.91547
0
LINE
8
BLACK
6
CONTINUOUS
10
0.119536
20
-1.91547
11
0.114289
21
-1.92771
0
LINE
8
BLACK
6
CONTINUOUS
10
0.114289
20
-1.92771
11
0.11044
21
-1.94046
0
LINE
8
BLACK
6
CONTINUOUS
10
0.11044
20
-1.94046
11
0.108036
21
-1.95355
0
LINE
8
BLACK
6
CONTINUOUS
10
0.108036
20
-1.95355
11
0.107107
21
-1.96684
0
LINE
8
BLACK
6
CONTINUOUS
10
0.107107
20
-1.96684
11
0.107665
21
-1.98014
0
LINE
8
BLACK
6
CONTINUOUS
10
0.107665
20
-1.98014
11
0.109702
21
-1.9933
0
LINE
8
BLACK
6
CONTINUOUS
10
2.40551
20
-1.95284
11
2.40803
21
-1.93911
0
LINE
8
BLACK
6
CONTINUOUS
10
2.40803
20
-1.93911
11
2.41207
21
-1.92575
0
LINE
8
BLACK
6
CONTINUOUS
10
2.41207
20
-1.92575
11
2.41756
21
-1.91292
0
LINE
8
BLACK
6
CONTINUOUS
10
2.41756
20
-1.91292
11
2.42446
21
-1.90079
0
LINE
8
BLACK
6
CONTINUOUS
10
2.42446
20
-1.90079
11
2.43266
21
-1.8895
0
LINE
8
BLACK
6
CONTINUOUS
10
2.43266
20
-1.8895
11
2.44207
21
-1.87919
0
LINE
8
BLACK
6
CONTINUOUS
10
2.44207
20
-1.87919
11
2.45257
21
-1.87
0
LINE
8
BLACK
6
CONTINUOUS
10
2.45257
20
-1.87
11
2.46403
21
-1.86204
0
LINE
8
BLACK
6
CONTINUOUS
10
2.46403
20
-1.86204
11
2.47631
21
-1.8554
0
LINE
8
BLACK
6
CONTINUOUS
10
2.47631
20
-1.8554
11
2.48924
21
-1.85017
0
LINE
8
BLACK
6
CONTINUOUS
10
2.48924
20
-1.85017
11
2.50269
21
-1.84642
0
LINE
8
BLACK
6
CONTINUOUS
10
2.50269
20
-1.84642
11
2.51646
21
-1.84419
0
LINE
8
BLACK
6
CONTINUOUS
10
2.51646
20
-1.84419
11
2.5304
21
-1.84351
0
LINE
8
BLACK
6
CONTINUOUS
10
2.5304
20
-1.84351
11
2.54433
21
-1.84438
0
LINE
8
BLACK
6
CONTINUOUS
10
2.54433
20
-1.84438
11
2.55807
21
-1.84681
0
LINE
8
BLACK
6
CONTINUOUS
10
2.55807
20
-1.84681
11
2.57146
21
-1.85075
0
LINE
8
BLACK
6
CONTINUOUS
10
2.57146
20
-1.85075
11
2.58432
21
-1.85615
0
LINE
8
BLACK
6
CONTINUOUS
10
2.58432
20
-1.85615
11
2.59651
21
-1.86296
0
LINE
8
BLACK
6
CONTINUOUS
10
2.59651
20
-1.86296
11
2.60785
21
-1.87109
0
LINE
8
BLACK
6
CONTINUOUS
10
2.60785
20
-1.87109
11
2.61822
21
-1.88042
0
LINE
8
BLACK
6
CONTINUOUS
10
2.61822
20
-1.88042
11
2.62749
21
-1.89086
0
LINE
8
BLACK
6
CONTINUOUS
10
2.62749
20
-1.89086
11
2.63553
21
-1.90226
0
LINE
8
BLACK
6
CONTINUOUS
10
2.63553
20
-1.90226
11
2.64226
21
-1.91449
0
LINE
8
BLACK
6
CONTINUOUS
10
2.64226
20
-1.91449
11
2.64757
21
-1.9274
0
LINE
8
BLACK
6
CONTINUOUS
10
2.64757
20
-1.9274
11
2.65142
21
-1.94081
0
LINE
8
BLACK
6
CONTINUOUS
10
2.65142
20
-1.94081
11
2.65375
21
-1.95457
0
LINE
8
BLACK
6
CONTINUOUS
10
2.65375
20
-1.95457
11
2.65453
21
-1.9685
0
LINE
8
BLACK
6
CONTINUOUS
10
2.65453
20
-1.9685
11
2.65448
21
-1.97199
0
LINE
8
BLACK
6
CONTINUOUS
10
2.65448
20
-1.97199
11
2.65331
21
-1.9859
0
LINE
8
BLACK
6
CONTINUOUS
10
2.65331
20
-1.9859
11
2.6506
21
-1.99959
0
LINE
8
BLACK
6
CONTINUOUS
10
2.6506
20
-1.99959
11
2.64638
21
-2.01289
0
LINE
8
BLACK
6
CONTINUOUS
10
2.64638
20
-2.01289
11
2.6407
21
-2.02564
0
LINE
8
BLACK
6
CONTINUOUS
10
2.6407
20
-2.02564
11
2.63364
21
-2.03768
0
LINE
8
BLACK
6
CONTINUOUS
10
2.63364
20
-2.03768
11
2.62528
21
-2.04885
0
LINE
8
BLACK
6
CONTINUOUS
10
2.62528
20
-2.04885
11
2.61573
21
-2.05903
0
LINE
8
BLACK
6
CONTINUOUS
10
2.61573
20
-2.05903
11
2.6051
21
-2.06807
0
LINE
8
BLACK
6
CONTINUOUS
10
2.6051
20
-2.06807
11
2.59353
21
-2.07587
0
LINE
8
BLACK
6
CONTINUOUS
10
2.59353
20
-2.07587
11
2.58117
21
-2.08234
0
LINE
8
BLACK
6
CONTINUOUS
10
2.58117
20
-2.08234
11
2.56815
21
-2.08739
0
LINE
8
BLACK
6
CONTINUOUS
10
2.56815
20
-2.08739
11
2.55466
21
-2.09095
0
LINE
8
BLACK
6
CONTINUOUS
10
2.55466
20
-2.09095
11
2.54086
21
-2.09299
0
LINE
8
BLACK
6
CONTINUOUS
10
2.54086
20
-2.09299
11
2.52691
21
-2.09348
0
LINE
8
BLACK
6
CONTINUOUS
10
2.52691
20
-2.09348
11
2.513
21
-2.09241
0
LINE
8
BLACK
6
CONTINUOUS
10
2.513
20
-2.09241
11
2.49929
21
-2.08979
0
LINE
8
BLACK
6
CONTINUOUS
10
2.49929
20
-2.08979
11
2.48596
21
-2.08566
0
LINE
8
BLACK
6
CONTINUOUS
10
2.48596
20
-2.08566
11
2.47317
21
-2.08008
0
LINE
8
BLACK
6
CONTINUOUS
10
2.47317
20
-2.08008
11
2.46108
21
-2.0731
0
LINE
8
BLACK
6
CONTINUOUS
10
2.46108
20
-2.0731
11
2.44985
21
-2.06482
0
LINE
8
BLACK
6
CONTINUOUS
10
2.44985
20
-2.06482
11
2.43961
21
-2.05534
0
LINE
8
BLACK
6
CONTINUOUS
10
2.43961
20
-2.05534
11
2.43049
21
-2.04477
0
LINE
8
BLACK
6
CONTINUOUS
10
2.43049
20
-2.04477
11
2.42261
21
-2.03326
0
LINE
8
BLACK
6
CONTINUOUS
10
2.42261
20
-2.03326
11
2.41606
21
-2.02094
0
LINE
8
BLACK
6
CONTINUOUS
10
2.41606
20
-2.02094
11
2.41092
21
-2.00796
0
LINE
8
BLACK
6
CONTINUOUS
10
2.41092
20
-2.00796
11
2.40726
21
-1.99449
0
LINE
8
BLACK
6
CONTINUOUS
10
2.40726
20
-1.99449
11
2.40512
21
-1.9807
0
LINE
8
BLACK
6
CONTINUOUS
10
2.40512
20
-1.9807
11
2.40454
21
-1.96684
0
LINE
8
BLACK
6
CONTINUOUS
10
2.40454
20
-1.96684
11
2.40454
21
-1.96676
0
LINE
8
BLACK
6
CONTINUOUS
10
2.40454
20
-1.96676
11
2.40551
21
-1.95284
0
LINE
8
BLACK
6
CONTINUOUS
10
2.41285
20
-1.9933
11
2.41634
21
-2.00616
0
LINE
8
BLACK
6
CONTINUOUS
10
2.41634
20
-2.00616
11
2.42125
21
-2.01854
0
LINE
8
BLACK
6
CONTINUOUS
10
2.42125
20
-2.01854
11
2.4275
21
-2.0303
0
LINE
8
BLACK
6
CONTINUOUS
10
2.4275
20
-2.0303
11
2.43502
21
-2.04128
0
LINE
8
BLACK
6
CONTINUOUS
10
2.43502
20
-2.04128
11
2.44372
21
-2.05136
0
LINE
8
BLACK
6
CONTINUOUS
10
2.44372
20
-2.05136
11
2.45349
21
-2.06041
0
LINE
8
BLACK
6
CONTINUOUS
10
2.45349
20
-2.06041
11
2.46421
21
-2.06831
0
LINE
8
BLACK
6
CONTINUOUS
10
2.46421
20
-2.06831
11
2.47575
21
-2.07497
0
LINE
8
BLACK
6
CONTINUOUS
10
2.47575
20
-2.07497
11
2.48795
21
-2.0803
0
LINE
8
BLACK
6
CONTINUOUS
10
2.48795
20
-2.0803
11
2.50067
21
-2.08424
0
LINE
8
BLACK
6
CONTINUOUS
10
2.50067
20
-2.08424
11
2.51375
21
-2.08674
0
LINE
8
BLACK
6
CONTINUOUS
10
2.51375
20
-2.08674
11
2.52703
21
-2.08776
0
LINE
8
BLACK
6
CONTINUOUS
10
2.52703
20
-2.08776
11
2.54034
21
-2.0873
0
LINE
8
BLACK
6
CONTINUOUS
10
2.54034
20
-2.0873
11
2.55351
21
-2.08535
0
LINE
8
BLACK
6
CONTINUOUS
10
2.55351
20
-2.08535
11
2.56639
21
-2.08195
0
LINE
8
BLACK
6
CONTINUOUS
10
2.56639
20
-2.08195
11
2.5788
21
-2.07713
0
LINE
8
BLACK
6
CONTINUOUS
10
2.5788
20
-2.07713
11
2.59061
21
-2.07096
0
LINE
8
BLACK
6
CONTINUOUS
10
2.59061
20
-2.07096
11
2.60165
21
-2.06352
0
LINE
8
BLACK
6
CONTINUOUS
10
2.60165
20
-2.06352
11
2.61179
21
-2.05488
0
LINE
8
BLACK
6
CONTINUOUS
10
2.61179
20
-2.05488
11
2.6209
21
-2.04518
0
LINE
8
BLACK
6
CONTINUOUS
10
2.6209
20
-2.04518
11
2.62888
21
-2.03451
0
LINE
8
BLACK
6
CONTINUOUS
10
2.62888
20
-2.03451
11
2.63562
21
-2.02303
0
LINE
8
BLACK
6
CONTINUOUS
10
2.63562
20
-2.02303
11
2.64104
21
-2.01086
0
LINE
8
BLACK
6
CONTINUOUS
10
2.64104
20
-2.01086
11
2.64506
21
-1.99817
0
LINE
8
BLACK
6
CONTINUOUS
10
2.64506
20
-1.99817
11
2.64765
21
-1.9851
0
LINE
8
BLACK
6
CONTINUOUS
10
2.64765
20
-1.9851
11
2.64876
21
-1.97183
0
LINE
8
BLACK
6
CONTINUOUS
10
2.64876
20
-1.97183
11
2.64881
21
-1.9685
0
LINE
8
BLACK
6
CONTINUOUS
10
2.64881
20
-1.9685
11
2.64807
21
-1.95521
0
LINE
8
BLACK
6
CONTINUOUS
10
2.64807
20
-1.95521
11
2.64585
21
-1.94208
0
LINE
8
BLACK
6
CONTINUOUS
10
2.64585
20
-1.94208
11
2.64217
21
-1.92928
0
LINE
8
BLACK
6
CONTINUOUS
10
2.64217
20
-1.92928
11
2.6371
21
-1.91696
0
LINE
8
BLACK
6
CONTINUOUS
10
2.6371
20
-1.91696
11
2.63068
21
-1.90529
0
LINE
8
BLACK
6
CONTINUOUS
10
2.63068
20
-1.90529
11
2.62301
21
-1.89441
0
LINE
8
BLACK
6
CONTINUOUS
10
2.62301
20
-1.89441
11
2.61417
21
-1.88445
0
LINE
8
BLACK
6
CONTINUOUS
10
2.61417
20
-1.88445
11
2.60427
21
-1.87554
0
LINE
8
BLACK
6
CONTINUOUS
10
2.60427
20
-1.87554
11
2.59344
21
-1.86779
0
LINE
8
BLACK
6
CONTINUOUS
10
2.59344
20
-1.86779
11
2.58182
21
-1.86129
0
LINE
8
BLACK
6
CONTINUOUS
10
2.58182
20
-1.86129
11
2.56954
21
-1.85613
0
LINE
8
BLACK
6
CONTINUOUS
10
2.56954
20
-1.85613
11
2.55677
21
-1.85237
0
LINE
8
BLACK
6
CONTINUOUS
10
2.55677
20
-1.85237
11
2.54365
21
-1.85006
0
LINE
8
BLACK
6
CONTINUOUS
10
2.54365
20
-1.85006
11
2.53036
21
-1.84922
0
LINE
8
BLACK
6
CONTINUOUS
10
2.53036
20
-1.84922
11
2.51706
21
-1.84988
0
LINE
8
BLACK
6
CONTINUOUS
10
2.51706
20
-1.84988
11
2.50391
21
-1.852
0
LINE
8
BLACK
6
CONTINUOUS
10
2.50391
20
-1.852
11
2.49109
21
-1.85559
0
LINE
8
BLACK
6
CONTINUOUS
10
2.49109
20
-1.85559
11
2.47874
21
-1.86057
0
LINE
8
BLACK
6
CONTINUOUS
10
2.47874
20
-1.86057
11
2.46703
21
-1.86691
0
LINE
8
BLACK
6
CONTINUOUS
10
2.46703
20
-1.86691
11
2.45609
21
-1.87451
0
LINE
8
BLACK
6
CONTINUOUS
10
2.45609
20
-1.87451
11
2.44607
21
-1.88328
0
LINE
8
BLACK
6
CONTINUOUS
10
2.44607
20
-1.88328
11
2.43709
21
-1.89311
0
LINE
8
BLACK
6
CONTINUOUS
10
2.43709
20
-1.89311
11
2.42926
21
-1.90389
0
LINE
8
BLACK
6
CONTINUOUS
10
2.42926
20
-1.90389
11
2.42269
21
-1.91547
0
LINE
8
BLACK
6
CONTINUOUS
10
2.42269
20
-1.91547
11
2.41744
21
-1.92771
0
LINE
8
BLACK
6
CONTINUOUS
10
2.41744
20
-1.92771
11
2.41359
21
-1.94046
0
LINE
8
BLACK
6
CONTINUOUS
10
2.41359
20
-1.94046
11
2.41119
21
-1.95355
0
LINE
8
BLACK
6
CONTINUOUS
10
2.41119
20
-1.95355
11
2.41026
21
-1.96684
0
LINE
8
BLACK
6
CONTINUOUS
10
2.41026
20
-1.96684
11
2.41081
21
-1.98014
0
LINE
8
BLACK
6
CONTINUOUS
10
2.41081
20
-1.98014
11
2.41285
21
-1.9933
0
LINE
8
BLACK
6
CONTINUOUS
10
1.74824
20
-1.09197
11
1.75216
21
-1.07734
0
LINE
8
BLACK
6
CONTINUOUS
10
1.75216
20
-1.07734
11
1.75759
21
-1.0632
0
LINE
8
BLACK
6
CONTINUOUS
10
1.75759
20
-1.0632
11
1.76446
21
-1.0497
0
LINE
8
BLACK
6
CONTINUOUS
10
1.76446
20
-1.0497
11
1.77271
21
-1.037
0
LINE
8
BLACK
6
CONTINUOUS
10
1.77271
20
-1.037
11
1.78224
21
-1.02523
0
LINE
8
BLACK
6
CONTINUOUS
10
1.78224
20
-1.02523
11
1.79295
21
-1.01453
0
LINE
8
BLACK
6
CONTINUOUS
10
1.79295
20
-1.01453
11
1.80472
21
-1.00499
0
LINE
8
BLACK
6
CONTINUOUS
10
1.80472
20
-1.00499
11
1.81742
21
-0.996746
0
LINE
8
BLACK
6
CONTINUOUS
10
1.81742
20
-0.996746
11
1.83092
21
-0.989871
0
LINE
8
BLACK
6
CONTINUOUS
10
1.83092
20
-0.989871
11
1.84505
21
-0.984444
0
LINE
8
BLACK
6
CONTINUOUS
10
1.84505
20
-0.984444
11
1.85968
21
-0.980524
0
LINE
8
BLACK
6
CONTINUOUS
10
1.85968
20
-0.980524
11
1.87464
21
-0.978155
0
LINE
8
BLACK
6
CONTINUOUS
10
1.87464
20
-0.978155
11
1.88976
21
-0.977362
0
LINE
8
BLACK
6
CONTINUOUS
10
1.88976
20
-0.977362
11
1.90489
21
-0.978155
0
LINE
8
BLACK
6
CONTINUOUS
10
1.90489
20
-0.978155
11
1.91985
21
-0.980524
0
LINE
8
BLACK
6
CONTINUOUS
10
1.91985
20
-0.980524
11
1.93447
21
-0.984444
0
LINE
8
BLACK
6
CONTINUOUS
10
1.93447
20
-0.984444
11
1.94861
21
-0.989871
0
LINE
8
BLACK
6
CONTINUOUS
10
1.94861
20
-0.989871
11
1.96211
21
-0.996746
0
LINE
8
BLACK
6
CONTINUOUS
10
1.96211
20
-0.996746
11
1.97481
21
-1.00499
0
LINE
8
BLACK
6
CONTINUOUS
10
1.97481
20
-1.00499
11
1.98658
21
-1.01453
0
LINE
8
BLACK
6
CONTINUOUS
10
1.98658
20
-1.01453
11
1.99729
21
-1.02523
0
LINE
8
BLACK
6
CONTINUOUS
10
1.99729
20
-1.02523
11
2.00682
21
-1.037
0
LINE
8
BLACK
6
CONTINUOUS
10
2.00682
20
-1.037
11
2.01506
21
-1.0497
0
LINE
8
BLACK
6
CONTINUOUS
10
2.01506
20
-1.0497
11
2.02194
21
-1.0632
0
LINE
8
BLACK
6
CONTINUOUS
10
2.02194
20
-1.0632
11
2.02737
21
-1.07734
0
LINE
8
BLACK
6
CONTINUOUS
10
2.02737
20
-1.07734
11
2.03129
21
-1.09197
0
LINE
8
BLACK
6
CONTINUOUS
10
2.03129
20
-1.09197
11
2.03366
21
-1.10692
0
LINE
8
BLACK
6
CONTINUOUS
10
2.03366
20
-1.10692
11
2.03445
21
-1.12205
0
LINE
8
BLACK
6
CONTINUOUS
10
2.03445
20
-1.12205
11
2.03366
21
-1.13717
0
LINE
8
BLACK
6
CONTINUOUS
10
2.03366
20
-1.13717
11
2.03129
21
-1.15213
0
LINE
8
BLACK
6
CONTINUOUS
10
2.03129
20
-1.15213
11
2.02737
21
-1.16676
0
LINE
8
BLACK
6
CONTINUOUS
10
2.02737
20
-1.16676
11
2.02194
21
-1.1809
0
LINE
8
BLACK
6
CONTINUOUS
10
2.02194
20
-1.1809
11
2.01506
21
-1.19439
0
LINE
8
BLACK
6
CONTINUOUS
10
2.01506
20
-1.19439
11
2.00682
21
-1.20709
0
LINE
8
BLACK
6
CONTINUOUS
10
2.00682
20
-1.20709
11
1.99729
21
-1.21886
0
LINE
8
BLACK
6
CONTINUOUS
10
1.99729
20
-1.21886
11
1.98658
21
-1.22957
0
LINE
8
BLACK
6
CONTINUOUS
10
1.98658
20
-1.22957
11
1.97481
21
-1.2391
0
LINE
8
BLACK
6
CONTINUOUS
10
1.97481
20
-1.2391
11
1.96211
21
-1.24735
0
LINE
8
BLACK
6
CONTINUOUS
10
1.96211
20
-1.24735
11
1.94861
21
-1.25422
0
LINE
8
BLACK
6
CONTINUOUS
10
1.94861
20
-1.25422
11
1.93447
21
-1.25965
0
LINE
8
BLACK
6
CONTINUOUS
10
1.93447
20
-1.25965
11
1.91985
21
-1.26357
0
LINE
8
BLACK
6
CONTINUOUS
10
1.91985
20
-1.26357
11
1.90489
21
-1.26594
0
LINE
8
BLACK
6
CONTINUOUS
10
1.90489
20
-1.26594
11
1.88976
21
-1.26673
0
LINE
8
BLACK
6
CONTINUOUS
10
1.88976
20
-1.26673
11
1.87464
21
-1.26594
0
LINE
8
BLACK
6
CONTINUOUS
10
1.87464
20
-1.26594
11
1.85968
21
-1.26357
0
LINE
8
BLACK
6
CONTINUOUS
10
1.85968
20
-1.26357
11
1.84505
21
-1.25965
0
LINE
8
BLACK
6
CONTINUOUS
10
1.84505
20
-1.25965
11
1.83092
21
-1.25422
0
LINE
8
BLACK
6
CONTINUOUS
10
1.83092
20
-1.25422
11
1.81742
21
-1.24735
0
LINE
8
BLACK
6
CONTINUOUS
10
1.81742
20
-1.24735
11
1.80472
21
-1.2391
0
LINE
8
BLACK
6
CONTINUOUS
10
1.80472
20
-1.2391
11
1.79295
21
-1.22957
0
LINE
8
BLACK
6
CONTINUOUS
10
1.79295
20
-1.22957
11
1.78224
21
-1.21886
0
LINE
8
BLACK
6
CONTINUOUS
10
1.78224
20
-1.21886
11
1.77271
21
-1.20709
0
LINE
8
BLACK
6
CONTINUOUS
10
1.77271
20
-1.20709
11
1.76446
21
-1.19439
0
LINE
8
BLACK
6
CONTINUOUS
10
1.76446
20
-1.19439
11
1.75759
21
-1.1809
0
LINE
8
BLACK
6
CONTINUOUS
10
1.75759
20
-1.1809
11
1.75216
21
-1.16676
0
LINE
8
BLACK
6
CONTINUOUS
10
1.75216
20
-1.16676
11
1.74824
21
-1.15213
0
LINE
8
BLACK
6
CONTINUOUS
10
1.74824
20
-1.15213
11
1.74587
21
-1.13717
0
LINE
8
BLACK
6
CONTINUOUS
10
1.74587
20
-1.13717
11
1.74508
21
-1.12205
0
LINE
8
BLACK
6
CONTINUOUS
10
1.74508
20
-1.12205
11
1.74587
21
-1.10692
0
LINE
8
BLACK
6
CONTINUOUS
10
1.74587
20
-1.10692
11
1.74824
21
-1.09197
0
LINE
8
BLACK
6
CONTINUOUS
10
1.75383
20
-1.15094
11
1.7576
21
-1.16499
0
LINE
8
BLACK
6
CONTINUOUS
10
1.7576
20
-1.16499
11
1.76281
21
-1.17857
0
LINE
8
BLACK
6
CONTINUOUS
10
1.76281
20
-1.17857
11
1.76941
21
-1.19153
0
LINE
8
BLACK
6
CONTINUOUS
10
1.76941
20
-1.19153
11
1.77733
21
-1.20373
0
LINE
8
BLACK
6
CONTINUOUS
10
1.77733
20
-1.20373
11
1.78649
21
-1.21504
0
LINE
8
BLACK
6
CONTINUOUS
10
1.78649
20
-1.21504
11
1.79677
21
-1.22532
0
LINE
8
BLACK
6
CONTINUOUS
10
1.79677
20
-1.22532
11
1.80808
21
-1.23448
0
LINE
8
BLACK
6
CONTINUOUS
10
1.80808
20
-1.23448
11
1.82028
21
-1.2424
0
LINE
8
BLACK
6
CONTINUOUS
10
1.82028
20
-1.2424
11
1.83324
21
-1.249
0
LINE
8
BLACK
6
CONTINUOUS
10
1.83324
20
-1.249
11
1.84682
21
-1.25422
0
LINE
8
BLACK
6
CONTINUOUS
10
1.84682
20
-1.25422
11
1.86087
21
-1.25798
0
LINE
8
BLACK
6
CONTINUOUS
10
1.86087
20
-1.25798
11
1.87524
21
-1.26026
0
LINE
8
BLACK
6
CONTINUOUS
10
1.87524
20
-1.26026
11
1.88976
21
-1.26102
0
LINE
8
BLACK
6
CONTINUOUS
10
1.88976
20
-1.26102
11
1.90429
21
-1.26026
0
LINE
8
BLACK
6
CONTINUOUS
10
1.90429
20
-1.26026
11
1.91866
21
-1.25798
0
LINE
8
BLACK
6
CONTINUOUS
10
1.91866
20
-1.25798
11
1.93271
21
-1.25422
0
LINE
8
BLACK
6
CONTINUOUS
10
1.93271
20
-1.25422
11
1.94629
21
-1.249
0
LINE
8
BLACK
6
CONTINUOUS
10
1.94629
20
-1.249
11
1.95925
21
-1.2424
0
LINE
8
BLACK
6
CONTINUOUS
10
1.95925
20
-1.2424
11
1.97145
21
-1.23448
0
LINE
8
BLACK
6
CONTINUOUS
10
1.97145
20
-1.23448
11
1.98275
21
-1.22532
0
LINE
8
BLACK
6
CONTINUOUS
10
1.98275
20
-1.22532
11
1.99304
21
-1.21504
0
LINE
8
BLACK
6
CONTINUOUS
10
1.99304
20
-1.21504
11
2.00219
21
-1.20373
0
LINE
8
BLACK
6
CONTINUOUS
10
2.00219
20
-1.20373
11
2.01012
21
-1.19153
0
LINE
8
BLACK
6
CONTINUOUS
10
2.01012
20
-1.19153
11
2.01672
21
-1.17857
0
LINE
8
BLACK
6
CONTINUOUS
10
2.01672
20
-1.17857
11
2.02193
21
-1.16499
0
LINE
8
BLACK
6
CONTINUOUS
10
2.02193
20
-1.16499
11
2.0257
21
-1.15094
0
LINE
8
BLACK
6
CONTINUOUS
10
2.0257
20
-1.15094
11
2.02797
21
-1.13657
0
LINE
8
BLACK
6
CONTINUOUS
10
2.02797
20
-1.13657
11
2.02873
21
-1.12205
0
LINE
8
BLACK
6
CONTINUOUS
10
2.02873
20
-1.12205
11
2.02797
21
-1.10752
0
LINE
8
BLACK
6
CONTINUOUS
10
2.02797
20
-1.10752
11
2.0257
21
-1.09315
0
LINE
8
BLACK
6
CONTINUOUS
10
2.0257
20
-1.09315
11
2.02193
21
-1.0791
0
LINE
8
BLACK
6
CONTINUOUS
10
2.02193
20
-1.0791
11
2.01672
21
-1.06552
0
LINE
8
BLACK
6
CONTINUOUS
10
2.01672
20
-1.06552
11
2.01012
21
-1.05256
0
LINE
8
BLACK
6
CONTINUOUS
10
2.01012
20
-1.05256
11
2.00219
21
-1.04036
0
LINE
8
BLACK
6
CONTINUOUS
10
2.00219
20
-1.04036
11
1.99304
21
-1.02906
0
LINE
8
BLACK
6
CONTINUOUS
10
1.99304
20
-1.02906
11
1.98275
21
-1.01877
0
LINE
8
BLACK
6
CONTINUOUS
10
1.98275
20
-1.01877
11
1.97145
21
-1.00962
0
LINE
8
BLACK
6
CONTINUOUS
10
1.97145
20
-1.00962
11
1.95925
21
-1.0017
0
LINE
8
BLACK
6
CONTINUOUS
10
1.95925
20
-1.0017
11
1.94629
21
-0.995092
0
LINE
8
BLACK
6
CONTINUOUS
10
1.94629
20
-0.995092
11
1.93271
21
-0.989879
0
LINE
8
BLACK
6
CONTINUOUS
10
1.93271
20
-0.989879
11
1.91866
21
-0.986114
0
LINE
8
BLACK
6
CONTINUOUS
10
1.91866
20
-0.986114
11
1.90429
21
-0.983839
0
LINE
8
BLACK
6
CONTINUOUS
10
1.90429
20
-0.983839
11
1.88976
21
-0.983077
0
LINE
8
BLACK
6
CONTINUOUS
10
1.88976
20
-0.983077
11
1.87524
21
-0.983839
0
LINE
8
BLACK
6
CONTINUOUS
10
1.87524
20
-0.983839
11
1.86087
21
-0.986114
0
LINE
8
BLACK
6
CONTINUOUS
10
1.86087
20
-0.986114
11
1.84682
21
-0.989879
0
LINE
8
BLACK
6
CONTINUOUS
10
1.84682
20
-0.989879
11
1.83324
21
-0.995092
0
LINE
8
BLACK
6
CONTINUOUS
10
1.83324
20
-0.995092
11
1.82028
21
-1.0017
0
LINE
8
BLACK
6
CONTINUOUS
10
1.82028
20
-1.0017
11
1.80808
21
-1.00962
0
LINE
8
BLACK
6
CONTINUOUS
10
1.80808
20
-1.00962
11
1.79677
21
-1.01877
0
LINE
8
BLACK
6
CONTINUOUS
10
1.79677
20
-1.01877
11
1.78649
21
-1.02906
0
LINE
8
BLACK
6
CONTINUOUS
10
1.78649
20
-1.02906
11
1.77733
21
-1.04036
0
LINE
8
BLACK
6
CONTINUOUS
10
1.77733
20
-1.04036
11
1.76941
21
-1.05256
0
LINE
8
BLACK
6
CONTINUOUS
10
1.76941
20
-1.05256
11
1.76281
21
-1.06552
0
LINE
8
BLACK
6
CONTINUOUS
10
1.76281
20
-1.06552
11
1.7576
21
-1.0791
0
LINE
8
BLACK
6
CONTINUOUS
10
1.7576
20
-1.0791
11
1.75383
21
-1.09315
0
LINE
8
BLACK
6
CONTINUOUS
10
1.75383
20
-1.09315
11
1.75156
21
-1.10752
0
LINE
8
BLACK
6
CONTINUOUS
10
1.75156
20
-1.10752
11
1.75079
21
-1.12205
0
LINE
8
BLACK
6
CONTINUOUS
10
1.75079
20
-1.12205
11
1.75156
21
-1.13657
0
LINE
8
BLACK
6
CONTINUOUS
10
1.75156
20
-1.13657
11
1.75383
21
-1.15094
0
LINE
8
BLACK
6
CONTINUOUS
10
0.724618
20
-1.09197
11
0.728538
21
-1.07734
0
LINE
8
BLACK
6
CONTINUOUS
10
0.728538
20
-1.07734
11
0.733965
21
-1.0632
0
LINE
8
BLACK
6
CONTINUOUS
10
0.733965
20
-1.0632
11
0.740841
21
-1.0497
0
LINE
8
BLACK
6
CONTINUOUS
10
0.740841
20
-1.0497
11
0.749089
21
-1.037
0
LINE
8
BLACK
6
CONTINUOUS
10
0.749089
20
-1.037
11
0.75862
21
-1.02523
0
LINE
8
BLACK
6
CONTINUOUS
10
0.75862
20
-1.02523
11
0.769329
21
-1.01453
0
LINE
8
BLACK
6
CONTINUOUS
10
0.769329
20
-1.01453
11
0.781098
21
-1.00499
0
LINE
8
BLACK
6
CONTINUOUS
10
0.781098
20
-1.00499
11
0.793799
21
-0.996746
0
LINE
8
BLACK
6
CONTINUOUS
10
0.793799
20
-0.996746
11
0.807293
21
-0.989871
0
LINE
8
BLACK
6
CONTINUOUS
10
0.807293
20
-0.989871
11
0.821432
21
-0.984444
0
LINE
8
BLACK
6
CONTINUOUS
10
0.821432
20
-0.984444
11
0.83606
21
-0.980524
0
LINE
8
BLACK
6
CONTINUOUS
10
0.83606
20
-0.980524
11
0.851018
21
-0.978155
0
LINE
8
BLACK
6
CONTINUOUS
10
0.851018
20
-0.978155
11
0.866142
21
-0.977362
0
LINE
8
BLACK
6
CONTINUOUS
10
0.866142
20
-0.977362
11
0.881265
21
-0.978155
0
LINE
8
BLACK
6
CONTINUOUS
10
0.881265
20
-0.978155
11
0.896223
21
-0.980524
0
LINE
8
BLACK
6
CONTINUOUS
10
0.896223
20
-0.980524
11
0.910852
21
-0.984444
0
LINE
8
BLACK
6
CONTINUOUS
10
0.910852
20
-0.984444
11
0.92499
21
-0.989871
0
LINE
8
BLACK
6
CONTINUOUS
10
0.92499
20
-0.989871
11
0.938484
21
-0.996746
0
LINE
8
BLACK
6
CONTINUOUS
10
0.938484
20
-0.996746
11
0.951185
21
-1.00499
0
LINE
8
BLACK
6
CONTINUOUS
10
0.951185
20
-1.00499
11
0.962955
21
-1.01453
0
LINE
8
BLACK
6
CONTINUOUS
10
0.962955
20
-1.01453
11
0.973664
21
-1.02523
0
LINE
8
BLACK
6
CONTINUOUS
10
0.973664
20
-1.02523
11
0.983194
21
-1.037
0
LINE
8
BLACK
6
CONTINUOUS
10
0.983194
20
-1.037
11
0.991443
21
-1.0497
0
LINE
8
BLACK
6
CONTINUOUS
10
0.991443
20
-1.0497
11
0.998318
21
-1.0632
0
LINE
8
BLACK
6
CONTINUOUS
10
0.998318
20
-1.0632
11
1.00375
21
-1.07734
0
LINE
8
BLACK
6
CONTINUOUS
10
1.00375
20
-1.07734
11
1.00767
21
-1.09197
0
LINE
8
BLACK
6
CONTINUOUS
10
1.00767
20
-1.09197
11
1.01003
21
-1.10692
0
LINE
8
BLACK
6
CONTINUOUS
10
1.01003
20
-1.10692
11
1.01083
21
-1.12205
0
LINE
8
BLACK
6
CONTINUOUS
10
1.01083
20
-1.12205
11
1.01003
21
-1.13717
0
LINE
8
BLACK
6
CONTINUOUS
10
1.01003
20
-1.13717
11
1.00767
21
-1.15213
0
LINE
8
BLACK
6
CONTINUOUS
10
1.00767
20
-1.15213
11
1.00375
21
-1.16676
0
LINE
8
BLACK
6
CONTINUOUS
10
1.00375
20
-1.16676
11
0.998318
21
-1.1809
0
LINE
8
BLACK
6
CONTINUOUS
10
0.998318
20
-1.1809
11
0.991443
21
-1.19439
0
LINE
8
BLACK
6
CONTINUOUS
10
0.991443
20
-1.19439
11
0.983194
21
-1.20709
0
LINE
8
BLACK
6
CONTINUOUS
10
0.983194
20
-1.20709
11
0.973664
21
-1.21886
0
LINE
8
BLACK
6
CONTINUOUS
10
0.973664
20
-1.21886
11
0.962955
21
-1.22957
0
LINE
8
BLACK
6
CONTINUOUS
10
0.962955
20
-1.22957
11
0.951185
21
-1.2391
0
LINE
8
BLACK
6
CONTINUOUS
10
0.951185
20
-1.2391
11
0.938484
21
-1.24735
0
LINE
8
BLACK
6
CONTINUOUS
10
0.938484
20
-1.24735
11
0.92499
21
-1.25422
0
LINE
8
BLACK
6
CONTINUOUS
10
0.92499
20
-1.25422
11
0.910852
21
-1.25965
0
LINE
8
BLACK
6
CONTINUOUS
10
0.910852
20
-1.25965
11
0.896223
21
-1.26357
0
LINE
8
BLACK
6
CONTINUOUS
10
0.896223
20
-1.26357
11
0.881265
21
-1.26594
0
LINE
8
BLACK
6
CONTINUOUS
10
0.881265
20
-1.26594
11
0.866142
21
-1.26673
0
LINE
8
BLACK
6
CONTINUOUS
10
0.866142
20
-1.26673
11
0.851018
21
-1.26594
0
LINE
8
BLACK
6
CONTINUOUS
10
0.851018
20
-1.26594
11
0.83606
21
-1.26357
0
LINE
8
BLACK
6
CONTINUOUS
10
0.83606
20
-1.26357
11
0.821432
21
-1.25965
0
LINE
8
BLACK
6
CONTINUOUS
10
0.821432
20
-1.25965
11
0.807293
21
-1.25422
0
LINE
8
BLACK
6
CONTINUOUS
10
0.807293
20
-1.25422
11
0.793799
21
-1.24735
0
LINE
8
BLACK
6
CONTINUOUS
10
0.793799
20
-1.24735
11
0.781098
21
-1.2391
0
LINE
8
BLACK
6
CONTINUOUS
10
0.781098
20
-1.2391
11
0.769329
21
-1.22957
0
LINE
8
BLACK
6
CONTINUOUS
10
0.769329
20
-1.22957
11
0.75862
21
-1.21886
0
LINE
8
BLACK
6
CONTINUOUS
10
0.75862
20
-1.21886
11
0.749089
21
-1.20709
0
LINE
8
BLACK
6
CONTINUOUS
10
0.749089
20
-1.20709
11
0.740841
21
-1.19439
0
LINE
8
BLACK
6
CONTINUOUS
10
0.740841
20
-1.19439
11
0.733965
21
-1.1809
0
LINE
8
BLACK
6
CONTINUOUS
10
0.733965
20
-1.1809
11
0.728538
21
-1.16676
0
LINE
8
BLACK
6
CONTINUOUS
10
0.728538
20
-1.16676
11
0.724618
21
-1.15213
0
LINE
8
BLACK
6
CONTINUOUS
10
0.724618
20
-1.15213
11
0.722249
21
-1.13717
0
LINE
8
BLACK
6
CONTINUOUS
10
0.722249
20
-1.13717
11
0.721457
21
-1.12205
0
LINE
8
BLACK
6
CONTINUOUS
10
0.721457
20
-1.12205
11
0.722249
21
-1.10692
0
LINE
8
BLACK
6
CONTINUOUS
10
0.722249
20
-1.10692
11
0.724618
21
-1.09197
0
LINE
8
BLACK
6
CONTINUOUS
10
0.730209
20
-1.15094
11
0.733973
21
-1.16499
0
LINE
8
BLACK
6
CONTINUOUS
10
0.733973
20
-1.16499
11
0.739186
21
-1.17857
0
LINE
8
BLACK
6
CONTINUOUS
10
0.739186
20
-1.17857
11
0.74579
21
-1.19153
0
LINE
8
BLACK
6
CONTINUOUS
10
0.74579
20
-1.19153
11
0.753713
21
-1.20373
0
LINE
8
BLACK
6
CONTINUOUS
10
0.753713
20
-1.20373
11
0.762867
21
-1.21504
0
LINE
8
BLACK
6
CONTINUOUS
10
0.762867
20
-1.21504
11
0.773153
21
-1.22532
0
LINE
8
BLACK
6
CONTINUOUS
10
0.773153
20
-1.22532
11
0.784457
21
-1.23448
0
LINE
8
BLACK
6
CONTINUOUS
10
0.784457
20
-1.23448
11
0.796657
21
-1.2424
0
LINE
8
BLACK
6
CONTINUOUS
10
0.796657
20
-1.2424
11
0.809618
21
-1.249
0
LINE
8
BLACK
6
CONTINUOUS
10
0.809618
20
-1.249
11
0.823198
21
-1.25422
0
LINE
8
BLACK
6
CONTINUOUS
10
0.823198
20
-1.25422
11
0.837248
21
-1.25798
0
LINE
8
BLACK
6
CONTINUOUS
10
0.837248
20
-1.25798
11
0.851615
21
-1.26026
0
LINE
8
BLACK
6
CONTINUOUS
10
0.851615
20
-1.26026
11
0.866142
21
-1.26102
0
LINE
8
BLACK
6
CONTINUOUS
10
0.866142
20
-1.26102
11
0.880668
21
-1.26026
0
LINE
8
BLACK
6
CONTINUOUS
10
0.880668
20
-1.26026
11
0.895035
21
-1.25798
0
LINE
8
BLACK
6
CONTINUOUS
10
0.895035
20
-1.25798
11
0.909086
21
-1.25422
0
LINE
8
BLACK
6
CONTINUOUS
10
0.909086
20
-1.25422
11
0.922666
21
-1.249
0
LINE
8
BLACK
6
CONTINUOUS
10
0.922666
20
-1.249
11
0.935627
21
-1.2424
0
LINE
8
BLACK
6
CONTINUOUS
10
0.935627
20
-1.2424
11
0.947826
21
-1.23448
0
LINE
8
BLACK
6
CONTINUOUS
10
0.947826
20
-1.23448
11
0.959131
21
-1.22532
0
LINE
8
BLACK
6
CONTINUOUS
10
0.959131
20
-1.22532
11
0.969417
21
-1.21504
0
LINE
8
BLACK
6
CONTINUOUS
10
0.969417
20
-1.21504
11
0.978571
21
-1.20373
0
LINE
8
BLACK
6
CONTINUOUS
10
0.978571
20
-1.20373
11
0.986493
21
-1.19153
0
LINE
8
BLACK
6
CONTINUOUS
10
0.986493
20
-1.19153
11
0.993097
21
-1.17857
0
LINE
8
BLACK
6
CONTINUOUS
10
0.993097
20
-1.17857
11
0.99831
21
-1.16499
0
LINE
8
BLACK
6
CONTINUOUS
10
0.99831
20
-1.16499
11
1.00207
21
-1.15094
0
LINE
8
BLACK
6
CONTINUOUS
10
1.00207
20
-1.15094
11
1.00435
21
-1.13657
0
LINE
8
BLACK
6
CONTINUOUS
10
1.00435
20
-1.13657
11
1.00511
21
-1.12205
0
LINE
8
BLACK
6
CONTINUOUS
10
1.00511
20
-1.12205
11
1.00435
21
-1.10752
0
LINE
8
BLACK
6
CONTINUOUS
10
1.00435
20
-1.10752
11
1.00207
21
-1.09315
0
LINE
8
BLACK
6
CONTINUOUS
10
1.00207
20
-1.09315
11
0.99831
21
-1.0791
0
LINE
8
BLACK
6
CONTINUOUS
10
0.99831
20
-1.0791
11
0.993097
21
-1.06552
0
LINE
8
BLACK
6
CONTINUOUS
10
0.993097
20
-1.06552
11
0.986493
21
-1.05256
0
LINE
8
BLACK
6
CONTINUOUS
10
0.986493
20
-1.05256
11
0.978571
21
-1.04036
0
LINE
8
BLACK
6
CONTINUOUS
10
0.978571
20
-1.04036
11
0.969417
21
-1.02906
0
LINE
8
BLACK
6
CONTINUOUS
10
0.969417
20
-1.02906
11
0.959131
21
-1.01877
0
LINE
8
BLACK
6
CONTINUOUS
10
0.959131
20
-1.01877
11
0.947826
21
-1.00962
0
LINE
8
BLACK
6
CONTINUOUS
10
0.947826
20
-1.00962
11
0.935627
21
-1.0017
0
LINE
8
BLACK
6
CONTINUOUS
10
0.935627
20
-1.0017
11
0.922666
21
-0.995092
0
LINE
8
BLACK
6
CONTINUOUS
10
0.922666
20
-0.995092
11
0.909086
21
-0.989879
0
LINE
8
BLACK
6
CONTINUOUS
10
0.909086
20
-0.989879
11
0.895035
21
-0.986114
0
LINE
8
BLACK
6
CONTINUOUS
10
0.895035
20
-0.986114
11
0.880668
21
-0.983839
0
LINE
8
BLACK
6
CONTINUOUS
10
0.880668
20
-0.983839
11
0.866142
21
-0.983077
0
LINE
8
BLACK
6
CONTINUOUS
10
0.866142
20
-0.983077
11
0.851615
21
-0.983839
0
LINE
8
BLACK
6
CONTINUOUS
10
0.851615
20
-0.983839
11
0.837248
21
-0.986114
0
LINE
8
BLACK
6
CONTINUOUS
10
0.837248
20
-0.986114
11
0.823198
21
-0.989879
0
LINE
8
BLACK
6
CONTINUOUS
10
0.823198
20
-0.989879
11
0.809618
21
-0.995092
0
LINE
8
BLACK
6
CONTINUOUS
10
0.809618
20
-0.995092
11
0.796657
21
-1.0017
0
LINE
8
BLACK
6
CONTINUOUS
10
0.796657
20
-1.0017
11
0.784457
21
-1.00962
0
LINE
8
BLACK
6
CONTINUOUS
10
0.784457
20
-1.00962
11
0.773153
21
-1.01877
0
LINE
8
BLACK
6
CONTINUOUS
10
0.773153
20
-1.01877
11
0.762867
21
-1.02906
0
LINE
8
BLACK
6
CONTINUOUS
10
0.762867
20
-1.02906
11
0.753713
21
-1.04036
0
LINE
8
BLACK
6
CONTINUOUS
10
0.753713
20
-1.04036
11
0.74579
21
-1.05256
0
LINE
8
BLACK
6
CONTINUOUS
10
0.74579
20
-1.05256
11
0.739186
21
-1.06552
0
LINE
8
BLACK
6
CONTINUOUS
10
0.739186
20
-1.06552
11
0.733973
21
-1.0791
0
LINE
8
BLACK
6
CONTINUOUS
10
0.733973
20
-1.0791
11
0.730209
21
-1.09315
0
LINE
8
BLACK
6
CONTINUOUS
10
0.730209
20
-1.09315
11
0.727933
21
-1.10752
0
LINE
8
BLACK
6
CONTINUOUS
10
0.727933
20
-1.10752
11
0.727172
21
-1.12205
0
LINE
8
BLACK
6
CONTINUOUS
10
0.727172
20
-1.12205
11
0.727933
21
-1.13657
0
LINE
8
BLACK
6
CONTINUOUS
10
0.727933
20
-1.13657
11
0.730209
21
-1.15094
0
LINE
8
BLACK
6
CONTINUOUS
10
2.40551
20
-1.10638
11
2.40803
21
-1.09265
0
LINE
8
BLACK
6
CONTINUOUS
10
2.40803
20
-1.09265
11
2.41207
21
-1.07929
0
LINE
8
BLACK
6
CONTINUOUS
10
2.41207
20
-1.07929
11
2.41756
21
-1.06647
0
LINE
8
BLACK
6
CONTINUOUS
10
2.41756
20
-1.06647
11
2.42446
21
-1.05433
0
LINE
8
BLACK
6
CONTINUOUS
10
2.42446
20
-1.05433
11
2.43266
21
-1.04304
0
LINE
8
BLACK
6
CONTINUOUS
10
2.43266
20
-1.04304
11
2.44207
21
-1.03274
0
LINE
8
BLACK
6
CONTINUOUS
10
2.44207
20
-1.03274
11
2.45257
21
-1.02355
0
LINE
8
BLACK
6
CONTINUOUS
10
2.45257
20
-1.02355
11
2.46403
21
-1.01558
0
LINE
8
BLACK
6
CONTINUOUS
10
2.46403
20
-1.01558
11
2.47631
21
-1.00894
0
LINE
8
BLACK
6
CONTINUOUS
10
2.47631
20
-1.00894
11
2.48924
21
-1.00372
0
LINE
8
BLACK
6
CONTINUOUS
10
2.48924
20
-1.00372
11
2.50269
21
-0.999963
0
LINE
8
BLACK
6
CONTINUOUS
10
2.50269
20
-0.999963
11
2.51646
21
-0.997732
0
LINE
8
BLACK
6
CONTINUOUS
10
2.51646
20
-0.997732
11
2.5304
21
-0.99705
0
LINE
8
BLACK
6
CONTINUOUS
10
2.5304
20
-0.99705
11
2.54433
21
-0.997927
0
LINE
8
BLACK
6
CONTINUOUS
10
2.54433
20
-0.997927
11
2.55807
21
-1.00035
0
LINE
8
BLACK
6
CONTINUOUS
10
2.55807
20
-1.00035
11
2.57146
21
-1.00429
0
LINE
8
BLACK
6
CONTINUOUS
10
2.57146
20
-1.00429
11
2.58432
21
-1.0097
0
LINE
8
BLACK
6
CONTINUOUS
10
2.58432
20
-1.0097
11
2.59651
21
-1.01651
0
LINE
8
BLACK
6
CONTINUOUS
10
2.59651
20
-1.01651
11
2.60785
21
-1.02463
0
LINE
8
BLACK
6
CONTINUOUS
10
2.60785
20
-1.02463
11
2.61822
21
-1.03397
0
LINE
8
BLACK
6
CONTINUOUS
10
2.61822
20
-1.03397
11
2.62749
21
-1.0444
0
LINE
8
BLACK
6
CONTINUOUS
10
2.62749
20
-1.0444
11
2.63553
21
-1.05581
0
LINE
8
BLACK
6
CONTINUOUS
10
2.63553
20
-1.05581
11
2.64226
21
-1.06804
0
LINE
8
BLACK
6
CONTINUOUS
10
2.64226
20
-1.06804
11
2.64757
21
-1.08094
0
LINE
8
BLACK
6
CONTINUOUS
10
2.64757
20
-1.08094
11
2.65142
21
-1.09435
0
LINE
8
BLACK
6
CONTINUOUS
10
2.65142
20
-1.09435
11
2.65375
21
-1.10811
0
LINE
8
BLACK
6
CONTINUOUS
10
2.65375
20
-1.10811
11
2.65453
21
-1.12205
0
LINE
8
BLACK
6
CONTINUOUS
10
2.65453
20
-1.12205
11
2.65448
21
-1.12554
0
LINE
8
BLACK
6
CONTINUOUS
10
2.65448
20
-1.12554
11
2.65331
21
-1.13944
0
LINE
8
BLACK
6
CONTINUOUS
10
2.65331
20
-1.13944
11
2.6506
21
-1.15313
0
LINE
8
BLACK
6
CONTINUOUS
10
2.6506
20
-1.15313
11
2.64638
21
-1.16644
0
LINE
8
BLACK
6
CONTINUOUS
10
2.64638
20
-1.16644
11
2.6407
21
-1.17918
0
LINE
8
BLACK
6
CONTINUOUS
10
2.6407
20
-1.17918
11
2.63364
21
-1.19122
0
LINE
8
BLACK
6
CONTINUOUS
10
2.63364
20
-1.19122
11
2.62528
21
-1.2024
0
LINE
8
BLACK
6
CONTINUOUS
10
2.62528
20
-1.2024
11
2.61573
21
-1.21257
0
LINE
8
BLACK
6
CONTINUOUS
10
2.61573
20
-1.21257
11
2.6051
21
-1.22161
0
LINE
8
BLACK
6
CONTINUOUS
10
2.6051
20
-1.22161
11
2.59353
21
-1.22942
0
LINE
8
BLACK
6
CONTINUOUS
10
2.59353
20
-1.22942
11
2.58117
21
-1.23588
0
LINE
8
BLACK
6
CONTINUOUS
10
2.58117
20
-1.23588
11
2.56815
21
-1.24093
0
LINE
8
BLACK
6
CONTINUOUS
10
2.56815
20
-1.24093
11
2.55466
21
-1.24449
0
LINE
8
BLACK
6
CONTINUOUS
10
2.55466
20
-1.24449
11
2.54086
21
-1.24653
0
LINE
8
BLACK
6
CONTINUOUS
10
2.54086
20
-1.24653
11
2.52691
21
-1.24702
0
LINE
8
BLACK
6
CONTINUOUS
10
2.52691
20
-1.24702
11
2.513
21
-1.24595
0
LINE
8
BLACK
6
CONTINUOUS
10
2.513
20
-1.24595
11
2.49929
21
-1.24333
0
LINE
8
BLACK
6
CONTINUOUS
10
2.49929
20
-1.24333
11
2.48596
21
-1.23921
0
LINE
8
BLACK
6
CONTINUOUS
10
2.48596
20
-1.23921
11
2.47317
21
-1.23362
0
LINE
8
BLACK
6
CONTINUOUS
10
2.47317
20
-1.23362
11
2.46108
21
-1.22664
0
LINE
8
BLACK
6
CONTINUOUS
10
2.46108
20
-1.22664
11
2.44985
21
-1.21836
0
LINE
8
BLACK
6
CONTINUOUS
10
2.44985
20
-1.21836
11
2.43961
21
-1.20888
0
LINE
8
BLACK
6
CONTINUOUS
10
2.43961
20
-1.20888
11
2.43049
21
-1.19832
0
LINE
8
BLACK
6
CONTINUOUS
10
2.43049
20
-1.19832
11
2.42261
21
-1.1868
0
LINE
8
BLACK
6
CONTINUOUS
10
2.42261
20
-1.1868
11
2.41606
21
-1.17448
0
LINE
8
BLACK
6
CONTINUOUS
10
2.41606
20
-1.17448
11
2.41092
21
-1.1615
0
LINE
8
BLACK
6
CONTINUOUS
10
2.41092
20
-1.1615
11
2.40726
21
-1.14804
0
LINE
8
BLACK
6
CONTINUOUS
10
2.40726
20
-1.14804
11
2.40512
21
-1.13425
0
LINE
8
BLACK
6
CONTINUOUS
10
2.40512
20
-1.13425
11
2.40454
21
-1.12038
0
LINE
8
BLACK
6
CONTINUOUS
10
2.40454
20
-1.12038
11
2.40454
21
-1.1203
0
LINE
8
BLACK
6
CONTINUOUS
10
2.40454
20
-1.1203
11
2.40551
21
-1.10638
0
LINE
8
BLACK
6
CONTINUOUS
10
2.41285
20
-1.14685
11
2.41634
21
-1.1597
0
LINE
8
BLACK
6
CONTINUOUS
10
2.41634
20
-1.1597
11
2.42125
21
-1.17208
0
LINE
8
BLACK
6
CONTINUOUS
10
2.42125
20
-1.17208
11
2.4275
21
-1.18384
0
LINE
8
BLACK
6
CONTINUOUS
10
2.4275
20
-1.18384
11
2.43502
21
-1.19483
0
LINE
8
BLACK
6
CONTINUOUS
10
2.43502
20
-1.19483
11
2.44372
21
-1.20491
0
LINE
8
BLACK
6
CONTINUOUS
10
2.44372
20
-1.20491
11
2.45349
21
-1.21396
0
LINE
8
BLACK
6
CONTINUOUS
10
2.45349
20
-1.21396
11
2.46421
21
-1.22186
0
LINE
8
BLACK
6
CONTINUOUS
10
2.46421
20
-1.22186
11
2.47575
21
-1.22852
0
LINE
8
BLACK
6
CONTINUOUS
10
2.47575
20
-1.22852
11
2.48795
21
-1.23385
0
LINE
8
BLACK
6
CONTINUOUS
10
2.48795
20
-1.23385
11
2.50067
21
-1.23779
0
LINE
8
BLACK
6
CONTINUOUS
10
2.50067
20
-1.23779
11
2.51375
21
-1.24028
0
LINE
8
BLACK
6
CONTINUOUS
10
2.51375
20
-1.24028
11
2.52703
21
-1.2413
0
LINE
8
BLACK
6
CONTINUOUS
10
2.52703
20
-1.2413
11
2.54034
21
-1.24084
0
LINE
8
BLACK
6
CONTINUOUS
10
2.54034
20
-1.24084
11
2.55351
21
-1.23889
0
LINE
8
BLACK
6
CONTINUOUS
10
2.55351
20
-1.23889
11
2.56639
21
-1.23549
0
LINE
8
BLACK
6
CONTINUOUS
10
2.56639
20
-1.23549
11
2.5788
21
-1.23068
0
LINE
8
BLACK
6
CONTINUOUS
10
2.5788
20
-1.23068
11
2.59061
21
-1.22451
0
LINE
8
BLACK
6
CONTINUOUS
10
2.59061
20
-1.22451
11
2.60165
21
-1.21706
0
LINE
8
BLACK
6
CONTINUOUS
10
2.60165
20
-1.21706
11
2.61179
21
-1.20843
0
LINE
8
BLACK
6
CONTINUOUS
10
2.61179
20
-1.20843
11
2.6209
21
-1.19872
0
LINE
8
BLACK
6
CONTINUOUS
10
2.6209
20
-1.19872
11
2.62888
21
-1.18806
0
LINE
8
BLACK
6
CONTINUOUS
10
2.62888
20
-1.18806
11
2.63562
21
-1.17657
0
LINE
8
BLACK
6
CONTINUOUS
10
2.63562
20
-1.17657
11
2.64104
21
-1.16441
0
LINE
8
BLACK
6
CONTINUOUS
10
2.64104
20
-1.16441
11
2.64506
21
-1.15171
0
LINE
8
BLACK
6
CONTINUOUS
10
2.64506
20
-1.15171
11
2.64765
21
-1.13865
0
LINE
8
BLACK
6
CONTINUOUS
10
2.64765
20
-1.13865
11
2.64876
21
-1.12538
0
LINE
8
BLACK
6
CONTINUOUS
10
2.64876
20
-1.12538
11
2.64881
21
-1.12205
0
LINE
8
BLACK
6
CONTINUOUS
10
2.64881
20
-1.12205
11
2.64807
21
-1.10875
0
LINE
8
BLACK
6
CONTINUOUS
10
2.64807
20
-1.10875
11
2.64585
21
-1.09562
0
LINE
8
BLACK
6
CONTINUOUS
10
2.64585
20
-1.09562
11
2.64217
21
-1.08282
0
LINE
8
BLACK
6
CONTINUOUS
10
2.64217
20
-1.08282
11
2.6371
21
-1.07051
0
LINE
8
BLACK
6
CONTINUOUS
10
2.6371
20
-1.07051
11
2.63068
21
-1.05884
0
LINE
8
BLACK
6
CONTINUOUS
10
2.63068
20
-1.05884
11
2.62301
21
-1.04796
0
LINE
8
BLACK
6
CONTINUOUS
10
2.62301
20
-1.04796
11
2.61417
21
-1.038
0
LINE
8
BLACK
6
CONTINUOUS
10
2.61417
20
-1.038
11
2.60427
21
-1.02909
0
LINE
8
BLACK
6
CONTINUOUS
10
2.60427
20
-1.02909
11
2.59344
21
-1.02133
0
LINE
8
BLACK
6
CONTINUOUS
10
2.59344
20
-1.02133
11
2.58182
21
-1.01484
0
LINE
8
BLACK
6
CONTINUOUS
10
2.58182
20
-1.01484
11
2.56954
21
-1.00968
0
LINE
8
BLACK
6
CONTINUOUS
10
2.56954
20
-1.00968
11
2.55677
21
-1.00592
0
LINE
8
BLACK
6
CONTINUOUS
10
2.55677
20
-1.00592
11
2.54365
21
-1.0036
0
LINE
8
BLACK
6
CONTINUOUS
10
2.54365
20
-1.0036
11
2.53036
21
-1.00277
0
LINE
8
BLACK
6
CONTINUOUS
10
2.53036
20
-1.00277
11
2.51706
21
-1.00342
0
LINE
8
BLACK
6
CONTINUOUS
10
2.51706
20
-1.00342
11
2.50391
21
-1.00555
0
LINE
8
BLACK
6
CONTINUOUS
10
2.50391
20
-1.00555
11
2.49109
21
-1.00913
0
LINE
8
BLACK
6
CONTINUOUS
10
2.49109
20
-1.00913
11
2.47874
21
-1.01412
0
LINE
8
BLACK
6
CONTINUOUS
10
2.47874
20
-1.01412
11
2.46703
21
-1.02045
0
LINE
8
BLACK
6
CONTINUOUS
10
2.46703
20
-1.02045
11
2.45609
21
-1.02805
0
LINE
8
BLACK
6
CONTINUOUS
10
2.45609
20
-1.02805
11
2.44607
21
-1.03682
0
LINE
8
BLACK
6
CONTINUOUS
10
2.44607
20
-1.03682
11
2.43709
21
-1.04666
0
LINE
8
BLACK
6
CONTINUOUS
10
2.43709
20
-1.04666
11
2.42926
21
-1.05743
0
LINE
8
BLACK
6
CONTINUOUS
10
2.42926
20
-1.05743
11
2.42269
21
-1.06901
0
LINE
8
BLACK
6
CONTINUOUS
10
2.42269
20
-1.06901
11
2.41744
21
-1.08125
0
LINE
8
BLACK
6
CONTINUOUS
10
2.41744
20
-1.08125
11
2.41359
21
-1.094
0
LINE
8
BLACK
6
CONTINUOUS
10
2.41359
20
-1.094
11
2.41119
21
-1.1071
0
LINE
8
BLACK
6
CONTINUOUS
10
2.41119
20
-1.1071
11
2.41026
21
-1.12038
0
LINE
8
BLACK
6
CONTINUOUS
10
2.41026
20
-1.12038
11
2.41081
21
-1.13369
0
LINE
8
BLACK
6
CONTINUOUS
10
2.41081
20
-1.13369
11
2.41285
21
-1.14685
0
LINE
8
BLACK
6
CONTINUOUS
10
0.724618
20
-0.225824
11
0.728538
21
-0.211195
0
LINE
8
BLACK
6
CONTINUOUS
10
0.728538
20
-0.211195
11
0.733965
21
-0.197057
0
LINE
8
BLACK
6
CONTINUOUS
10
0.733965
20
-0.197057
11
0.740841
21
-0.183563
0
LINE
8
BLACK
6
CONTINUOUS
10
0.740841
20
-0.183563
11
0.749089
21
-0.170862
0
LINE
8
BLACK
6
CONTINUOUS
10
0.749089
20
-0.170862
11
0.75862
21
-0.159092
0
LINE
8
BLACK
6
CONTINUOUS
10
0.75862
20
-0.159092
11
0.769329
21
-0.148384
0
LINE
8
BLACK
6
CONTINUOUS
10
0.769329
20
-0.148384
11
0.781098
21
-0.138853
0
LINE
8
BLACK
6
CONTINUOUS
10
0.781098
20
-0.138853
11
0.793799
21
-0.130605
0
LINE
8
BLACK
6
CONTINUOUS
10
0.793799
20
-0.130605
11
0.807293
21
-0.123729
0
LINE
8
BLACK
6
CONTINUOUS
10
0.807293
20
-0.123729
11
0.821432
21
-0.118302
0
LINE
8
BLACK
6
CONTINUOUS
10
0.821432
20
-0.118302
11
0.83606
21
-0.114382
0
LINE
8
BLACK
6
CONTINUOUS
10
0.83606
20
-0.114382
11
0.851018
21
-0.112013
0
LINE
8
BLACK
6
CONTINUOUS
10
0.851018
20
-0.112013
11
0.866142
21
-0.11122
0
LINE
8
BLACK
6
CONTINUOUS
10
0.866142
20
-0.11122
11
0.881265
21
-0.112013
0
LINE
8
BLACK
6
CONTINUOUS
10
0.881265
20
-0.112013
11
0.896223
21
-0.114382
0
LINE
8
BLACK
6
CONTINUOUS
10
0.896223
20
-0.114382
11
0.910852
21
-0.118302
0
LINE
8
BLACK
6
CONTINUOUS
10
0.910852
20
-0.118302
11
0.92499
21
-0.123729
0
LINE
8
BLACK
6
CONTINUOUS
10
0.92499
20
-0.123729
11
0.938484
21
-0.130605
0
LINE
8
BLACK
6
CONTINUOUS
10
0.938484
20
-0.130605
11
0.951185
21
-0.138853
0
LINE
8
BLACK
6
CONTINUOUS
10
0.951185
20
-0.138853
11
0.962955
21
-0.148384
0
LINE
8
BLACK
6
CONTINUOUS
10
0.962955
20
-0.148384
11
0.973664
21
-0.159092
0
LINE
8
BLACK
6
CONTINUOUS
10
0.973664
20
-0.159092
11
0.983194
21
-0.170862
0
LINE
8
BLACK
6
CONTINUOUS
10
0.983194
20
-0.170862
11
0.991443
21
-0.183563
0
LINE
8
BLACK
6
CONTINUOUS
10
0.991443
20
-0.183563
11
0.998318
21
-0.197057
0
LINE
8
BLACK
6
CONTINUOUS
10
0.998318
20
-0.197057
11
1.00375
21
-0.211195
0
LINE
8
BLACK
6
CONTINUOUS
10
1.00375
20
-0.211195
11
1.00767
21
-0.225824
0
LINE
8
BLACK
6
CONTINUOUS
10
1.00767
20
-0.225824
11
1.01003
21
-0.240782
0
LINE
8
BLACK
6
CONTINUOUS
10
1.01003
20
-0.240782
11
1.01083
21
-0.255906
0
LINE
8
BLACK
6
CONTINUOUS
10
1.01083
20
-0.255906
11
1.01003
21
-0.271029
0
LINE
8
BLACK
6
CONTINUOUS
10
1.01003
20
-0.271029
11
1.00767
21
-0.285987
0
LINE
8
BLACK
6
CONTINUOUS
10
1.00767
20
-0.285987
11
1.00375
21
-0.300616
0
LINE
8
BLACK
6
CONTINUOUS
10
1.00375
20
-0.300616
11
0.998318
21
-0.314754
0
LINE
8
BLACK
6
CONTINUOUS
10
0.998318
20
-0.314754
11
0.991443
21
-0.328248
0
LINE
8
BLACK
6
CONTINUOUS
10
0.991443
20
-0.328248
11
0.983194
21
-0.340949
0
LINE
8
BLACK
6
CONTINUOUS
10
0.983194
20
-0.340949
11
0.973664
21
-0.352719
0
LINE
8
BLACK
6
CONTINUOUS
10
0.973664
20
-0.352719
11
0.962955
21
-0.363427
0
LINE
8
BLACK
6
CONTINUOUS
10
0.962955
20
-0.363427
11
0.951185
21
-0.372958
0
LINE
8
BLACK
6
CONTINUOUS
10
0.951185
20
-0.372958
11
0.938484
21
-0.381206
0
LINE
8
BLACK
6
CONTINUOUS
10
0.938484
20
-0.381206
11
0.92499
21
-0.388082
0
LINE
8
BLACK
6
CONTINUOUS
10
0.92499
20
-0.388082
11
0.910852
21
-0.393509
0
LINE
8
BLACK
6
CONTINUOUS
10
0.910852
20
-0.393509
11
0.896223
21
-0.397429
0
LINE
8
BLACK
6
CONTINUOUS
10
0.896223
20
-0.397429
11
0.881265
21
-0.399798
0
LINE
8
BLACK
6
CONTINUOUS
10
0.881265
20
-0.399798
11
0.866142
21
-0.400591
0
LINE
8
BLACK
6
CONTINUOUS
10
0.866142
20
-0.400591
11
0.851018
21
-0.399798
0
LINE
8
BLACK
6
CONTINUOUS
10
0.851018
20
-0.399798
11
0.83606
21
-0.397429
0
LINE
8
BLACK
6
CONTINUOUS
10
0.83606
20
-0.397429
11
0.821432
21
-0.393509
0
LINE
8
BLACK
6
CONTINUOUS
10
0.821432
20
-0.393509
11
0.807293
21
-0.388082
0
LINE
8
BLACK
6
CONTINUOUS
10
0.807293
20
-0.388082
11
0.793799
21
-0.381206
0
LINE
8
BLACK
6
CONTINUOUS
10
0.793799
20
-0.381206
11
0.781098
21
-0.372958
0
LINE
8
BLACK
6
CONTINUOUS
10
0.781098
20
-0.372958
11
0.769329
21
-0.363427
0
LINE
8
BLACK
6
CONTINUOUS
10
0.769329
20
-0.363427
11
0.75862
21
-0.352719
0
LINE
8
BLACK
6
CONTINUOUS
10
0.75862
20
-0.352719
11
0.749089
21
-0.340949
0
LINE
8
BLACK
6
CONTINUOUS
10
0.749089
20
-0.340949
11
0.740841
21
-0.328248
0
LINE
8
BLACK
6
CONTINUOUS
10
0.740841
20
-0.328248
11
0.733965
21
-0.314754
0
LINE
8
BLACK
6
CONTINUOUS
10
0.733965
20
-0.314754
11
0.728538
21
-0.300616
0
LINE
8
BLACK
6
CONTINUOUS
10
0.728538
20
-0.300616
11
0.724618
21
-0.285987
0
LINE
8
BLACK
6
CONTINUOUS
10
0.724618
20
-0.285987
11
0.722249
21
-0.271029
0
LINE
8
BLACK
6
CONTINUOUS
10
0.722249
20
-0.271029
11
0.721457
21
-0.255906
0
LINE
8
BLACK
6
CONTINUOUS
10
0.721457
20
-0.255906
11
0.722249
21
-0.240782
0
LINE
8
BLACK
6
CONTINUOUS
10
0.722249
20
-0.240782
11
0.724618
21
-0.225824
0
LINE
8
BLACK
6
CONTINUOUS
10
0.730209
20
-0.284799
11
0.733973
21
-0.29885
0
LINE
8
BLACK
6
CONTINUOUS
10
0.733973
20
-0.29885
11
0.739186
21
-0.31243
0
LINE
8
BLACK
6
CONTINUOUS
10
0.739186
20
-0.31243
11
0.74579
21
-0.325391
0
LINE
8
BLACK
6
CONTINUOUS
10
0.74579
20
-0.325391
11
0.753713
21
-0.33759
0
LINE
8
BLACK
6
CONTINUOUS
10
0.753713
20
-0.33759
11
0.762867
21
-0.348895
0
LINE
8
BLACK
6
CONTINUOUS
10
0.762867
20
-0.348895
11
0.773153
21
-0.35918
0
LINE
8
BLACK
6
CONTINUOUS
10
0.773153
20
-0.35918
11
0.784457
21
-0.368335
0
LINE
8
BLACK
6
CONTINUOUS
10
0.784457
20
-0.368335
11
0.796657
21
-0.376257
0
LINE
8
BLACK
6
CONTINUOUS
10
0.796657
20
-0.376257
11
0.809618
21
-0.382861
0
LINE
8
BLACK
6
CONTINUOUS
10
0.809618
20
-0.382861
11
0.823198
21
-0.388074
0
LINE
8
BLACK
6
CONTINUOUS
10
0.823198
20
-0.388074
11
0.837248
21
-0.391839
0
LINE
8
BLACK
6
CONTINUOUS
10
0.837248
20
-0.391839
11
0.851615
21
-0.394114
0
LINE
8
BLACK
6
CONTINUOUS
10
0.851615
20
-0.394114
11
0.866142
21
-0.394876
0
LINE
8
BLACK
6
CONTINUOUS
10
0.866142
20
-0.394876
11
0.880668
21
-0.394114
0
LINE
8
BLACK
6
CONTINUOUS
10
0.880668
20
-0.394114
11
0.895035
21
-0.391839
0
LINE
8
BLACK
6
CONTINUOUS
10
0.895035
20
-0.391839
11
0.909086
21
-0.388074
0
LINE
8
BLACK
6
CONTINUOUS
10
0.909086
20
-0.388074
11
0.922666
21
-0.382861
0
LINE
8
BLACK
6
CONTINUOUS
10
0.922666
20
-0.382861
11
0.935627
21
-0.376257
0
LINE
8
BLACK
6
CONTINUOUS
10
0.935627
20
-0.376257
11
0.947826
21
-0.368335
0
LINE
8
BLACK
6
CONTINUOUS
10
0.947826
20
-0.368335
11
0.959131
21
-0.35918
0
LINE
8
BLACK
6
CONTINUOUS
10
0.959131
20
-0.35918
11
0.969417
21
-0.348895
0
LINE
8
BLACK
6
CONTINUOUS
10
0.969417
20
-0.348895
11
0.978571
21
-0.33759
0
LINE
8
BLACK
6
CONTINUOUS
10
0.978571
20
-0.33759
11
0.986493
21
-0.325391
0
LINE
8
BLACK
6
CONTINUOUS
10
0.986493
20
-0.325391
11
0.993097
21
-0.31243
0
LINE
8
BLACK
6
CONTINUOUS
10
0.993097
20
-0.31243
11
0.99831
21
-0.29885
0
LINE
8
BLACK
6
CONTINUOUS
10
0.99831
20
-0.29885
11
1.00207
21
-0.284799
0
LINE
8
BLACK
6
CONTINUOUS
10
1.00207
20
-0.284799
11
1.00435
21
-0.270432
0
LINE
8
BLACK
6
CONTINUOUS
10
1.00435
20
-0.270432
11
1.00511
21
-0.255906
0
LINE
8
BLACK
6
CONTINUOUS
10
1.00511
20
-0.255906
11
1.00435
21
-0.241379
0
LINE
8
BLACK
6
CONTINUOUS
10
1.00435
20
-0.241379
11
1.00207
21
-0.227012
0
LINE
8
BLACK
6
CONTINUOUS
10
1.00207
20
-0.227012
11
0.99831
21
-0.212961
0
LINE
8
BLACK
6
CONTINUOUS
10
0.99831
20
-0.212961
11
0.993097
21
-0.199381
0
LINE
8
BLACK
6
CONTINUOUS
10
0.993097
20
-0.199381
11
0.986493
21
-0.186421
0
LINE
8
BLACK
6
CONTINUOUS
10
0.986493
20
-0.186421
11
0.978571
21
-0.174221
0
LINE
8
BLACK
6
CONTINUOUS
10
0.978571
20
-0.174221
11
0.969417
21
-0.162916
0
LINE
8
BLACK
6
CONTINUOUS
10
0.969417
20
-0.162916
11
0.959131
21
-0.152631
0
LINE
8
BLACK
6
CONTINUOUS
10
0.959131
20
-0.152631
11
0.947826
21
-0.143476
0
LINE
8
BLACK
6
CONTINUOUS
10
0.947826
20
-0.143476
11
0.935627
21
-0.135554
0
LINE
8
BLACK
6
CONTINUOUS
10
0.935627
20
-0.135554
11
0.922666
21
-0.12895
0
LINE
8
BLACK
6
CONTINUOUS
10
0.922666
20
-0.12895
11
0.909086
21
-0.123737
0
LINE
8
BLACK
6
CONTINUOUS
10
0.909086
20
-0.123737
11
0.895035
21
-0.119972
0
LINE
8
BLACK
6
CONTINUOUS
10
0.895035
20
-0.119972
11
0.880668
21
-0.117697
0
LINE
8
BLACK
6
CONTINUOUS
10
0.880668
20
-0.117697
11
0.866142
21
-0.116936
0
LINE
8
BLACK
6
CONTINUOUS
10
0.866142
20
-0.116936
11
0.851615
21
-0.117697
0
LINE
8
BLACK
6
CONTINUOUS
10
0.851615
20
-0.117697
11
0.837248
21
-0.119972
0
LINE
8
BLACK
6
CONTINUOUS
10
0.837248
20
-0.119972
11
0.823198
21
-0.123737
0
LINE
8
BLACK
6
CONTINUOUS
10
0.823198
20
-0.123737
11
0.809618
21
-0.12895
0
LINE
8
BLACK
6
CONTINUOUS
10
0.809618
20
-0.12895
11
0.796657
21
-0.135554
0
LINE
8
BLACK
6
CONTINUOUS
10
0.796657
20
-0.135554
11
0.784457
21
-0.143476
0
LINE
8
BLACK
6
CONTINUOUS
10
0.784457
20
-0.143476
11
0.773153
21
-0.152631
0
LINE
8
BLACK
6
CONTINUOUS
10
0.773153
20
-0.152631
11
0.762867
21
-0.162916
0
LINE
8
BLACK
6
CONTINUOUS
10
0.762867
20
-0.162916
11
0.753713
21
-0.174221
0
LINE
8
BLACK
6
CONTINUOUS
10
0.753713
20
-0.174221
11
0.74579
21
-0.186421
0
LINE
8
BLACK
6
CONTINUOUS
10
0.74579
20
-0.186421
11
0.739186
21
-0.199381
0
LINE
8
BLACK
6
CONTINUOUS
10
0.739186
20
-0.199381
11
0.733973
21
-0.212961
0
LINE
8
BLACK
6
CONTINUOUS
10
0.733973
20
-0.212961
11
0.730209
21
-0.227012
0
LINE
8
BLACK
6
CONTINUOUS
10
0.730209
20
-0.227012
11
0.727933
21
-0.241379
0
LINE
8
BLACK
6
CONTINUOUS
10
0.727933
20
-0.241379
11
0.727172
21
-0.255906
0
LINE
8
BLACK
6
CONTINUOUS
10
0.727172
20
-0.255906
11
0.727933
21
-0.270432
0
LINE
8
BLACK
6
CONTINUOUS
10
0.727933
20
-0.270432
11
0.730209
21
-0.284799
0
LINE
8
BLACK
6
CONTINUOUS
10
2.40551
20
-0.240239
11
2.40803
21
-0.226513
0
LINE
8
BLACK
6
CONTINUOUS
10
2.40803
20
-0.226513
11
2.41207
21
-0.213153
0
LINE
8
BLACK
6
CONTINUOUS
10
2.41207
20
-0.213153
11
2.41756
21
-0.200326
0
LINE
8
BLACK
6
CONTINUOUS
10
2.41756
20
-0.200326
11
2.42446
21
-0.188192
0
LINE
8
BLACK
6
CONTINUOUS
10
2.42446
20
-0.188192
11
2.43266
21
-0.176902
0
LINE
8
BLACK
6
CONTINUOUS
10
2.43266
20
-0.176902
11
2.44207
21
-0.166596
0
LINE
8
BLACK
6
CONTINUOUS
10
2.44207
20
-0.166596
11
2.45257
21
-0.157404
0
LINE
8
BLACK
6
CONTINUOUS
10
2.45257
20
-0.157404
11
2.46403
21
-0.14944
0
LINE
8
BLACK
6
CONTINUOUS
10
2.46403
20
-0.14944
11
2.47631
21
-0.142802
0
LINE
8
BLACK
6
CONTINUOUS
10
2.47631
20
-0.142802
11
2.48924
21
-0.137574
0
LINE
8
BLACK
6
CONTINUOUS
10
2.48924
20
-0.137574
11
2.50269
21
-0.133821
0
LINE
8
BLACK
6
CONTINUOUS
10
2.50269
20
-0.133821
11
2.51646
21
-0.13159
0
LINE
8
BLACK
6
CONTINUOUS
10
2.51646
20
-0.13159
11
2.5304
21
-0.130909
0
LINE
8
BLACK
6
CONTINUOUS
10
2.5304
20
-0.130909
11
2.54433
21
-0.131785
0
LINE
8
BLACK
6
CONTINUOUS
10
2.54433
20
-0.131785
11
2.55807
21
-0.134208
0
LINE
8
BLACK
6
CONTINUOUS
10
2.55807
20
-0.134208
11
2.57146
21
-0.138148
0
LINE
8
BLACK
6
CONTINUOUS
10
2.57146
20
-0.138148
11
2.58432
21
-0.143556
0
LINE
8
BLACK
6
CONTINUOUS
10
2.58432
20
-0.143556
11
2.59651
21
-0.150365
0
LINE
8
BLACK
6
CONTINUOUS
10
2.59651
20
-0.150365
11
2.60785
21
-0.158488
0
LINE
8
BLACK
6
CONTINUOUS
10
2.60785
20
-0.158488
11
2.61822
21
-0.167826
0
LINE
8
BLACK
6
CONTINUOUS
10
2.61822
20
-0.167826
11
2.62749
21
-0.178262
0
LINE
8
BLACK
6
CONTINUOUS
10
2.62749
20
-0.178262
11
2.63553
21
-0.189666
0
LINE
8
BLACK
6
CONTINUOUS
10
2.63553
20
-0.189666
11
2.64226
21
-0.201895
0
LINE
8
BLACK
6
CONTINUOUS
10
2.64226
20
-0.201895
11
2.64757
21
-0.214797
0
LINE
8
BLACK
6
CONTINUOUS
10
2.64757
20
-0.214797
11
2.65142
21
-0.228212
0
LINE
8
BLACK
6
CONTINUOUS
10
2.65142
20
-0.228212
11
2.65375
21
-0.241972
0
LINE
8
BLACK
6
CONTINUOUS
10
2.65375
20
-0.241972
11
2.65453
21
-0.255906
0
LINE
8
BLACK
6
CONTINUOUS
10
2.65453
20
-0.255906
11
2.65448
21
-0.259396
0
LINE
8
BLACK
6
CONTINUOUS
10
2.65448
20
-0.259396
11
2.65331
21
-0.273302
0
LINE
8
BLACK
6
CONTINUOUS
10
2.65331
20
-0.273302
11
2.6506
21
-0.286992
0
LINE
8
BLACK
6
CONTINUOUS
10
2.6506
20
-0.286992
11
2.64638
21
-0.300294
0
LINE
8
BLACK
6
CONTINUOUS
10
2.64638
20
-0.300294
11
2.6407
21
-0.313043
0
LINE
8
BLACK
6
CONTINUOUS
10
2.6407
20
-0.313043
11
2.63364
21
-0.325079
0
LINE
8
BLACK
6
CONTINUOUS
10
2.63364
20
-0.325079
11
2.62528
21
-0.336254
0
LINE
8
BLACK
6
CONTINUOUS
10
2.62528
20
-0.336254
11
2.61573
21
-0.346427
0
LINE
8
BLACK
6
CONTINUOUS
10
2.61573
20
-0.346427
11
2.6051
21
-0.355472
0
LINE
8
BLACK
6
CONTINUOUS
10
2.6051
20
-0.355472
11
2.59353
21
-0.363276
0
LINE
8
BLACK
6
CONTINUOUS
10
2.59353
20
-0.363276
11
2.58117
21
-0.369741
0
LINE
8
BLACK
6
CONTINUOUS
10
2.58117
20
-0.369741
11
2.56815
21
-0.374788
0
LINE
8
BLACK
6
CONTINUOUS
10
2.56815
20
-0.374788
11
2.55466
21
-0.378352
0
LINE
8
BLACK
6
CONTINUOUS
10
2.55466
20
-0.378352
11
2.54086
21
-0.380391
0
LINE
8
BLACK
6
CONTINUOUS
10
2.54086
20
-0.380391
11
2.52691
21
-0.380878
0
LINE
8
BLACK
6
CONTINUOUS
10
2.52691
20
-0.380878
11
2.513
21
-0.379807
0
LINE
8
BLACK
6
CONTINUOUS
10
2.513
20
-0.379807
11
2.49929
21
-0.377192
0
LINE
8
BLACK
6
CONTINUOUS
10
2.49929
20
-0.377192
11
2.48596
21
-0.373066
0
LINE
8
BLACK
6
CONTINUOUS
10
2.48596
20
-0.373066
11
2.47317
21
-0.367479
0
LINE
8
BLACK
6
CONTINUOUS
10
2.47317
20
-0.367479
11
2.46108
21
-0.360501
0
LINE
8
BLACK
6
CONTINUOUS
10
2.46108
20
-0.360501
11
2.44985
21
-0.35222
0
LINE
8
BLACK
6
CONTINUOUS
10
2.44985
20
-0.35222
11
2.43961
21
-0.342738
0
LINE
8
BLACK
6
CONTINUOUS
10
2.43961
20
-0.342738
11
2.43049
21
-0.332174
0
LINE
8
BLACK
6
CONTINUOUS
10
2.43049
20
-0.332174
11
2.42261
21
-0.320659
0
LINE
8
BLACK
6
CONTINUOUS
10
2.42261
20
-0.320659
11
2.41606
21
-0.308337
0
LINE
8
BLACK
6
CONTINUOUS
10
2.41606
20
-0.308337
11
2.41092
21
-0.295362
0
LINE
8
BLACK
6
CONTINUOUS
10
2.41092
20
-0.295362
11
2.40726
21
-0.281894
0
LINE
8
BLACK
6
CONTINUOUS
10
2.40726
20
-0.281894
11
2.40512
21
-0.268103
0
LINE
8
BLACK
6
CONTINUOUS
10
2.40512
20
-0.268103
11
2.40454
21
-0.25424
0
LINE
8
BLACK
6
CONTINUOUS
10
2.40454
20
-0.25424
11
2.40454
21
-0.25416
0
LINE
8
BLACK
6
CONTINUOUS
10
2.40454
20
-0.25416
11
2.40551
21
-0.240239
0
LINE
8
BLACK
6
CONTINUOUS
10
2.41285
20
-0.280706
11
2.41634
21
-0.293557
0
LINE
8
BLACK
6
CONTINUOUS
10
2.41634
20
-0.293557
11
2.42125
21
-0.305939
0
LINE
8
BLACK
6
CONTINUOUS
10
2.42125
20
-0.305939
11
2.4275
21
-0.317697
0
LINE
8
BLACK
6
CONTINUOUS
10
2.4275
20
-0.317697
11
2.43502
21
-0.328685
0
LINE
8
BLACK
6
CONTINUOUS
10
2.43502
20
-0.328685
11
2.44372
21
-0.338766
0
LINE
8
BLACK
6
CONTINUOUS
10
2.44372
20
-0.338766
11
2.45349
21
-0.347814
0
LINE
8
BLACK
6
CONTINUOUS
10
2.45349
20
-0.347814
11
2.46421
21
-0.355717
0
LINE
8
BLACK
6
CONTINUOUS
10
2.46421
20
-0.355717
11
2.47575
21
-0.362375
0
LINE
8
BLACK
6
CONTINUOUS
10
2.47575
20
-0.362375
11
2.48795
21
-0.367706
0
LINE
8
BLACK
6
CONTINUOUS
10
2.48795
20
-0.367706
11
2.50067
21
-0.371644
0
LINE
8
BLACK
6
CONTINUOUS
10
2.50067
20
-0.371644
11
2.51375
21
-0.37414
0
LINE
8
BLACK
6
CONTINUOUS
10
2.51375
20
-0.37414
11
2.52703
21
-0.375161
0
LINE
8
BLACK
6
CONTINUOUS
10
2.52703
20
-0.375161
11
2.54034
21
-0.374697
0
LINE
8
BLACK
6
CONTINUOUS
10
2.54034
20
-0.374697
11
2.55351
21
-0.372751
0
LINE
8
BLACK
6
CONTINUOUS
10
2.55351
20
-0.372751
11
2.56639
21
-0.36935
0
LINE
8
BLACK
6
CONTINUOUS
10
2.56639
20
-0.36935
11
2.5788
21
-0.364534
0
LINE
8
BLACK
6
CONTINUOUS
10
2.5788
20
-0.364534
11
2.59061
21
-0.358364
0
LINE
8
BLACK
6
CONTINUOUS
10
2.59061
20
-0.358364
11
2.60165
21
-0.350917
0
LINE
8
BLACK
6
CONTINUOUS
10
2.60165
20
-0.350917
11
2.61179
21
-0.342286
0
LINE
8
BLACK
6
CONTINUOUS
10
2.61179
20
-0.342286
11
2.6209
21
-0.332579
0
LINE
8
BLACK
6
CONTINUOUS
10
2.6209
20
-0.332579
11
2.62888
21
-0.321915
0
LINE
8
BLACK
6
CONTINUOUS
10
2.62888
20
-0.321915
11
2.63562
21
-0.310429
0
LINE
8
BLACK
6
CONTINUOUS
10
2.63562
20
-0.310429
11
2.64104
21
-0.298263
0
LINE
8
BLACK
6
CONTINUOUS
10
2.64104
20
-0.298263
11
2.64506
21
-0.28557
0
LINE
8
BLACK
6
CONTINUOUS
10
2.64506
20
-0.28557
11
2.64765
21
-0.272506
0
LINE
8
BLACK
6
CONTINUOUS
10
2.64765
20
-0.272506
11
2.64876
21
-0.259236
0
LINE
8
BLACK
6
CONTINUOUS
10
2.64876
20
-0.259236
11
2.64881
21
-0.255906
0
LINE
8
BLACK
6
CONTINUOUS
10
2.64881
20
-0.255906
11
2.64807
21
-0.242609
0
LINE
8
BLACK
6
CONTINUOUS
10
2.64807
20
-0.242609
11
2.64585
21
-0.229479
0
LINE
8
BLACK
6
CONTINUOUS
10
2.64585
20
-0.229479
11
2.64217
21
-0.216678
0
LINE
8
BLACK
6
CONTINUOUS
10
2.64217
20
-0.216678
11
2.6371
21
-0.204365
0
LINE
8
BLACK
6
CONTINUOUS
10
2.6371
20
-0.204365
11
2.63068
21
-0.192696
0
LINE
8
BLACK
6
CONTINUOUS
10
2.63068
20
-0.192696
11
2.62301
21
-0.181814
0
LINE
8
BLACK
6
CONTINUOUS
10
2.62301
20
-0.181814
11
2.61417
21
-0.171855
0
LINE
8
BLACK
6
CONTINUOUS
10
2.61417
20
-0.171855
11
2.60427
21
-0.162944
0
LINE
8
BLACK
6
CONTINUOUS
10
2.60427
20
-0.162944
11
2.59344
21
-0.155192
0
LINE
8
BLACK
6
CONTINUOUS
10
2.59344
20
-0.155192
11
2.58182
21
-0.148695
0
LINE
8
BLACK
6
CONTINUOUS
10
2.58182
20
-0.148695
11
2.56954
21
-0.143535
0
LINE
8
BLACK
6
CONTINUOUS
10
2.56954
20
-0.143535
11
2.55677
21
-0.139775
0
LINE
8
BLACK
6
CONTINUOUS
10
2.55677
20
-0.139775
11
2.54365
21
-0.137462
0
LINE
8
BLACK
6
CONTINUOUS
10
2.54365
20
-0.137462
11
2.53036
21
-0.136626
0
LINE
8
BLACK
6
CONTINUOUS
10
2.53036
20
-0.136626
11
2.51706
21
-0.137277
0
LINE
8
BLACK
6
CONTINUOUS
10
2.51706
20
-0.137277
11
2.50391
21
-0.139406
0
LINE
8
BLACK
6
CONTINUOUS
10
2.50391
20
-0.139406
11
2.49109
21
-0.142987
0
LINE
8
BLACK
6
CONTINUOUS
10
2.49109
20
-0.142987
11
2.47874
21
-0.147976
0
LINE
8
BLACK
6
CONTINUOUS
10
2.47874
20
-0.147976
11
2.46703
21
-0.15431
0
LINE
8
BLACK
6
CONTINUOUS
10
2.46703
20
-0.15431
11
2.45609
21
-0.16191
0
LINE
8
BLACK
6
CONTINUOUS
10
2.45609
20
-0.16191
11
2.44607
21
-0.170682
0
LINE
8
BLACK
6
CONTINUOUS
10
2.44607
20
-0.170682
11
2.43709
21
-0.180516
0
LINE
8
BLACK
6
CONTINUOUS
10
2.43709
20
-0.180516
11
2.42926
21
-0.191289
0
LINE
8
BLACK
6
CONTINUOUS
10
2.42926
20
-0.191289
11
2.42269
21
-0.202868
0
LINE
8
BLACK
6
CONTINUOUS
10
2.42269
20
-0.202868
11
2.41744
21
-0.215109
0
LINE
8
BLACK
6
CONTINUOUS
10
2.41744
20
-0.215109
11
2.41359
21
-0.227857
0
LINE
8
BLACK
6
CONTINUOUS
10
2.41359
20
-0.227857
11
2.41119
21
-0.240956
0
LINE
8
BLACK
6
CONTINUOUS
10
2.41119
20
-0.240956
11
2.41026
21
-0.25424
0
LINE
8
BLACK
6
CONTINUOUS
10
2.41026
20
-0.25424
11
2.41081
21
-0.267545
0
LINE
8
BLACK
6
CONTINUOUS
10
2.41081
20
-0.267545
11
2.41285
21
-0.280706
0
LINE
8
BLACK
6
CONTINUOUS
10
0.102364
20
-0.240239
11
0.104883
21
-0.226513
0
LINE
8
BLACK
6
CONTINUOUS
10
0.104883
20
-0.226513
11
0.108916
21
-0.213153
0
LINE
8
BLACK
6
CONTINUOUS
10
0.108916
20
-0.213153
11
0.114414
21
-0.200326
0
LINE
8
BLACK
6
CONTINUOUS
10
0.114414
20
-0.200326
11
0.121307
21
-0.188192
0
LINE
8
BLACK
6
CONTINUOUS
10
0.121307
20
-0.188192
11
0.12951
21
-0.176902
0
LINE
8
BLACK
6
CONTINUOUS
10
0.12951
20
-0.176902
11
0.13892
21
-0.166596
0
LINE
8
BLACK
6
CONTINUOUS
10
0.13892
20
-0.166596
11
0.14942
21
-0.157404
0
LINE
8
BLACK
6
CONTINUOUS
10
0.14942
20
-0.157404
11
0.16088
21
-0.14944
0
LINE
8
BLACK
6
CONTINUOUS
10
0.16088
20
-0.14944
11
0.173156
21
-0.142802
0
LINE
8
BLACK
6
CONTINUOUS
10
0.173156
20
-0.142802
11
0.186095
21
-0.137574
0
LINE
8
BLACK
6
CONTINUOUS
10
0.186095
20
-0.137574
11
0.199536
21
-0.133821
0
LINE
8
BLACK
6
CONTINUOUS
10
0.199536
20
-0.133821
11
0.213312
21
-0.13159
0
LINE
8
BLACK
6
CONTINUOUS
10
0.213312
20
-0.13159
11
0.227251
21
-0.130909
0
LINE
8
BLACK
6
CONTINUOUS
10
0.227251
20
-0.130909
11
0.241178
21
-0.131785
0
LINE
8
BLACK
6
CONTINUOUS
10
0.241178
20
-0.131785
11
0.254922
21
-0.134208
0
LINE
8
BLACK
6
CONTINUOUS
10
0.254922
20
-0.134208
11
0.268309
21
-0.138148
0
LINE
8
BLACK
6
CONTINUOUS
10
0.268309
20
-0.138148
11
0.281174
21
-0.143556
0
LINE
8
BLACK
6
CONTINUOUS
10
0.281174
20
-0.143556
11
0.293356
21
-0.150365
0
LINE
8
BLACK
6
CONTINUOUS
10
0.293356
20
-0.150365
11
0.304703
21
-0.158488
0
LINE
8
BLACK
6
CONTINUOUS
10
0.304703
20
-0.158488
11
0.315074
21
-0.167826
0
LINE
8
BLACK
6
CONTINUOUS
10
0.315074
20
-0.167826
11
0.32434
21
-0.178262
0
LINE
8
BLACK
6
CONTINUOUS
10
0.32434
20
-0.178262
11
0.332384
21
-0.189666
0
LINE
8
BLACK
6
CONTINUOUS
10
0.332384
20
-0.189666
11
0.339107
21
-0.201895
0
LINE
8
BLACK
6
CONTINUOUS
10
0.339107
20
-0.201895
11
0.344425
21
-0.214797
0
LINE
8
BLACK
6
CONTINUOUS
10
0.344425
20
-0.214797
11
0.348272
21
-0.228212
0
LINE
8
BLACK
6
CONTINUOUS
10
0.348272
20
-0.228212
11
0.350599
21
-0.241972
0
LINE
8
BLACK
6
CONTINUOUS
10
0.350599
20
-0.241972
11
0.351378
21
-0.255906
0
LINE
8
BLACK
6
CONTINUOUS
10
0.351378
20
-0.255906
11
0.351329
21
-0.259396
0
LINE
8
BLACK
6
CONTINUOUS
10
0.351329
20
-0.259396
11
0.350161
21
-0.273302
0
LINE
8
BLACK
6
CONTINUOUS
10
0.350161
20
-0.273302
11
0.347451
21
-0.286992
0
LINE
8
BLACK
6
CONTINUOUS
10
0.347451
20
-0.286992
11
0.343231
21
-0.300294
0
LINE
8
BLACK
6
CONTINUOUS
10
0.343231
20
-0.300294
11
0.337555
21
-0.313043
0
LINE
8
BLACK
6
CONTINUOUS
10
0.337555
20
-0.313043
11
0.330493
21
-0.325079
0
LINE
8
BLACK
6
CONTINUOUS
10
0.330493
20
-0.325079
11
0.322134
21
-0.336254
0
LINE
8
BLACK
6
CONTINUOUS
10
0.322134
20
-0.336254
11
0.31258
21
-0.346427
0
LINE
8
BLACK
6
CONTINUOUS
10
0.31258
20
-0.346427
11
0.301953
21
-0.355472
0
LINE
8
BLACK
6
CONTINUOUS
10
0.301953
20
-0.355472
11
0.290383
21
-0.363276
0
LINE
8
BLACK
6
CONTINUOUS
10
0.290383
20
-0.363276
11
0.278016
21
-0.369741
0
LINE
8
BLACK
6
CONTINUOUS
10
0.278016
20
-0.369741
11
0.265005
21
-0.374788
0
LINE
8
BLACK
6
CONTINUOUS
10
0.265005
20
-0.374788
11
0.251513
21
-0.378352
0
LINE
8
BLACK
6
CONTINUOUS
10
0.251513
20
-0.378352
11
0.237707
21
-0.380391
0
LINE
8
BLACK
6
CONTINUOUS
10
0.237707
20
-0.380391
11
0.22376
21
-0.380878
0
LINE
8
BLACK
6
CONTINUOUS
10
0.22376
20
-0.380878
11
0.209846
21
-0.379807
0
LINE
8
BLACK
6
CONTINUOUS
10
0.209846
20
-0.379807
11
0.196138
21
-0.377192
0
LINE
8
BLACK
6
CONTINUOUS
10
0.196138
20
-0.377192
11
0.182806
21
-0.373066
0
LINE
8
BLACK
6
CONTINUOUS
10
0.182806
20
-0.373066
11
0.170018
21
-0.367479
0
LINE
8
BLACK
6
CONTINUOUS
10
0.170018
20
-0.367479
11
0.157933
21
-0.360501
0
LINE
8
BLACK
6
CONTINUOUS
10
0.157933
20
-0.360501
11
0.1467
21
-0.35222
0
LINE
8
BLACK
6
CONTINUOUS
10
0.1467
20
-0.35222
11
0.13646
21
-0.342738
0
LINE
8
BLACK
6
CONTINUOUS
10
0.13646
20
-0.342738
11
0.127342
21
-0.332174
0
LINE
8
BLACK
6
CONTINUOUS
10
0.127342
20
-0.332174
11
0.119457
21
-0.320659
0
LINE
8
BLACK
6
CONTINUOUS
10
0.119457
20
-0.320659
11
0.112906
21
-0.308337
0
LINE
8
BLACK
6
CONTINUOUS
10
0.112906
20
-0.308337
11
0.107768
21
-0.295362
0
LINE
8
BLACK
6
CONTINUOUS
10
0.107768
20
-0.295362
11
0.104109
21
-0.281894
0
LINE
8
BLACK
6
CONTINUOUS
10
0.104109
20
-0.281894
11
0.101975
21
-0.268103
0
LINE
8
BLACK
6
CONTINUOUS
10
0.101975
20
-0.268103
11
0.101393
21
-0.25424
0
LINE
8
BLACK
6
CONTINUOUS
10
0.101393
20
-0.25424
11
0.10139
21
-0.25416
0
LINE
8
BLACK
6
CONTINUOUS
10
0.10139
20
-0.25416
11
0.102364
21
-0.240239
0
LINE
8
BLACK
6
CONTINUOUS
10
0.109702
20
-0.280706
11
0.113194
21
-0.293557
0
LINE
8
BLACK
6
CONTINUOUS
10
0.113194
20
-0.293557
11
0.118096
21
-0.305939
0
LINE
8
BLACK
6
CONTINUOUS
10
0.118096
20
-0.305939
11
0.124348
21
-0.317697
0
LINE
8
BLACK
6
CONTINUOUS
10
0.124348
20
-0.317697
11
0.131872
21
-0.328685
0
LINE
8
BLACK
6
CONTINUOUS
10
0.131872
20
-0.328685
11
0.140574
21
-0.338766
0
LINE
8
BLACK
6
CONTINUOUS
10
0.140574
20
-0.338766
11
0.150345
21
-0.347814
0
LINE
8
BLACK
6
CONTINUOUS
10
0.150345
20
-0.347814
11
0.161063
21
-0.355717
0
LINE
8
BLACK
6
CONTINUOUS
10
0.161063
20
-0.355717
11
0.172596
21
-0.362375
0
LINE
8
BLACK
6
CONTINUOUS
10
0.172596
20
-0.362375
11
0.1848
21
-0.367706
0
LINE
8
BLACK
6
CONTINUOUS
10
0.1848
20
-0.367706
11
0.197521
21
-0.371644
0
LINE
8
BLACK
6
CONTINUOUS
10
0.197521
20
-0.371644
11
0.210602
21
-0.37414
0
LINE
8
BLACK
6
CONTINUOUS
10
0.210602
20
-0.37414
11
0.22388
21
-0.375161
0
LINE
8
BLACK
6
CONTINUOUS
10
0.22388
20
-0.375161
11
0.237189
21
-0.374697
0
LINE
8
BLACK
6
CONTINUOUS
10
0.237189
20
-0.374697
11
0.250363
21
-0.372751
0
LINE
8
BLACK
6
CONTINUOUS
10
0.250363
20
-0.372751
11
0.263238
21
-0.36935
0
LINE
8
BLACK
6
CONTINUOUS
10
0.263238
20
-0.36935
11
0.275654
21
-0.364534
0
LINE
8
BLACK
6
CONTINUOUS
10
0.275654
20
-0.364534
11
0.287456
21
-0.358364
0
LINE
8
BLACK
6
CONTINUOUS
10
0.287456
20
-0.358364
11
0.298496
21
-0.350917
0
LINE
8
BLACK
6
CONTINUOUS
10
0.298496
20
-0.350917
11
0.308637
21
-0.342286
0
LINE
8
BLACK
6
CONTINUOUS
10
0.308637
20
-0.342286
11
0.317753
21
-0.332579
0
LINE
8
BLACK
6
CONTINUOUS
10
0.317753
20
-0.332579
11
0.325731
21
-0.321915
0
LINE
8
BLACK
6
CONTINUOUS
10
0.325731
20
-0.321915
11
0.332469
21
-0.310429
0
LINE
8
BLACK
6
CONTINUOUS
10
0.332469
20
-0.310429
11
0.337886
21
-0.298263
0
LINE
8
BLACK
6
CONTINUOUS
10
0.337886
20
-0.298263
11
0.341913
21
-0.28557
0
LINE
8
BLACK
6
CONTINUOUS
10
0.341913
20
-0.28557
11
0.344499
21
-0.272506
0
LINE
8
BLACK
6
CONTINUOUS
10
0.344499
20
-0.272506
11
0.345614
21
-0.259236
0
LINE
8
BLACK
6
CONTINUOUS
10
0.345614
20
-0.259236
11
0.34566
21
-0.255906
0
LINE
8
BLACK
6
CONTINUOUS
10
0.34566
20
-0.255906
11
0.344917
21
-0.242609
0
LINE
8
BLACK
6
CONTINUOUS
10
0.344917
20
-0.242609
11
0.342696
21
-0.229479
0
LINE
8
BLACK
6
CONTINUOUS
10
0.342696
20
-0.229479
11
0.339025
21
-0.216678
0
LINE
8
BLACK
6
CONTINUOUS
10
0.339025
20
-0.216678
11
0.33395
21
-0.204365
0
LINE
8
BLACK
6
CONTINUOUS
10
0.33395
20
-0.204365
11
0.327535
21
-0.192696
0
LINE
8
BLACK
6
CONTINUOUS
10
0.327535
20
-0.192696
11
0.319859
21
-0.181814
0
LINE
8
BLACK
6
CONTINUOUS
10
0.319859
20
-0.181814
11
0.311017
21
-0.171855
0
LINE
8
BLACK
6
CONTINUOUS
10
0.311017
20
-0.171855
11
0.301121
21
-0.162944
0
LINE
8
BLACK
6
CONTINUOUS
10
0.301121
20
-0.162944
11
0.290293
21
-0.155192
0
LINE
8
BLACK
6
CONTINUOUS
10
0.290293
20
-0.155192
11
0.278668
21
-0.148695
0
LINE
8
BLACK
6
CONTINUOUS
10
0.278668
20
-0.148695
11
0.266391
21
-0.143535
0
LINE
8
BLACK
6
CONTINUOUS
10
0.266391
20
-0.143535
11
0.253616
21
-0.139775
0
LINE
8
BLACK
6
CONTINUOUS
10
0.253616
20
-0.139775
11
0.240501
21
-0.137462
0
LINE
8
BLACK
6
CONTINUOUS
10
0.240501
20
-0.137462
11
0.227211
21
-0.136626
0
LINE
8
BLACK
6
CONTINUOUS
10
0.227211
20
-0.136626
11
0.21391
21
-0.137277
0
LINE
8
BLACK
6
CONTINUOUS
10
0.21391
20
-0.137277
11
0.200764
21
-0.139406
0
LINE
8
BLACK
6
CONTINUOUS
10
0.200764
20
-0.139406
11
0.187937
21
-0.142987
0
LINE
8
BLACK
6
CONTINUOUS
10
0.187937
20
-0.142987
11
0.17559
21
-0.147976
0
LINE
8
BLACK
6
CONTINUOUS
10
0.17559
20
-0.147976
11
0.163876
21
-0.15431
0
LINE
8
BLACK
6
CONTINUOUS
10
0.163876
20
-0.15431
11
0.152941
21
-0.16191
0
LINE
8
BLACK
6
CONTINUOUS
10
0.152941
20
-0.16191
11
0.142921
21
-0.170682
0
LINE
8
BLACK
6
CONTINUOUS
10
0.142921
20
-0.170682
11
0.133941
21
-0.180516
0
LINE
8
BLACK
6
CONTINUOUS
10
0.133941
20
-0.180516
11
0.126113
21
-0.191289
0
LINE
8
BLACK
6
CONTINUOUS
10
0.126113
20
-0.191289
11
0.119536
21
-0.202868
0
LINE
8
BLACK
6
CONTINUOUS
10
0.119536
20
-0.202868
11
0.114289
21
-0.215109
0
LINE
8
BLACK
6
CONTINUOUS
10
0.114289
20
-0.215109
11
0.11044
21
-0.227857
0
LINE
8
BLACK
6
CONTINUOUS
10
0.11044
20
-0.227857
11
0.108036
21
-0.240956
0
LINE
8
BLACK
6
CONTINUOUS
10
0.108036
20
-0.240956
11
0.107107
21
-0.25424
0
LINE
8
BLACK
6
CONTINUOUS
10
0.107107
20
-0.25424
11
0.107665
21
-0.267545
0
LINE
8
BLACK
6
CONTINUOUS
10
0.107665
20
-0.267545
11
0.109702
21
-0.280706
  0
ENDSEC
  0
EOF
