  0
SECTION
  2
HEADER
  9
$ANGBASE
  50
0.0
  9
$ANGDIR
  70
1
  9
$MEASUREMENT
  70
1
  0
ENDSEC
  0
SECTION
  2
TABLES
  0
TABLE
  2
LTYPE
  70
4
  0
LTYPE
  5
40F
  2
CONTINUOUS
  70
0
  3
Solid line
  72
65
  73
0
  40
0.0
  0
LTYPE
  5
410
  2
DASHDOT
 70
0
  3
Dash Dot ____ _ ____ _
 72
65
 73
4
 40
2.0
 49
1.25
 49
-0.25
 49
0.25
 49
-0.25
  0
LTYPE
  5
411
  2
DASHED
 70
0
  3
Dashed __ __ __ __ __
 72
65
 73
2
 40
0.75
 49
0.5
 49
-0.25
  0
LTYPE
  5
43B
  2
DOTTED
 70
0
  3
Dotted .  .  .  .
 72
65
 73
2
 40
0.2
 49
0.0
 49
-0.2
  0
ENDTAB
  0
TABLE
  2
STYLE
  70
4
  0
STYLE
  2
KICAD
  70
0
  40
0
  41
1
  42
1
  50
0
  71
0
  3
isocp.shx
  0
STYLE
  2
KICADB
  70
0
  40
0
  41
1
  42
1
  50
0
  71
0
  3
isocp.shx
  0
STYLE
  2
KICADI
  70
0
  40
0
  41
1
  42
1
  50
15
  71
0
  3
isocp.shx
  0
STYLE
  2
KICADBI
  70
0
  40
0
  41
1
  42
1
  50
15
  71
0
  3
isocp.shx
  0
ENDTAB
  0
TABLE
  2
LAYER
  70
1
  0
LAYER
  2
BLACK
  70
0
  62
7
  6
CONTINUOUS
  0
ENDTAB
  0
ENDSEC
  0
SECTION
  2
ENTITIES
0
LINE
8
BLACK
6
CONTINUOUS
10
70.0097
20
0.073282
11
70.013
21
0.073861
0
LINE
8
BLACK
6
CONTINUOUS
10
70.013
20
0.073861
11
70.0159
21
0.072195
0
LINE
8
BLACK
6
CONTINUOUS
10
70.0159
20
0.072195
11
70.0257
21
0.070477
0
LINE
8
BLACK
6
CONTINUOUS
10
70.0257
20
0.070477
11
70.0406
21
0.057951
0
LINE
8
BLACK
6
CONTINUOUS
10
70.0406
20
0.057951
11
70.0575
21
0.048209
0
LINE
8
BLACK
6
CONTINUOUS
10
70.0575
20
0.048209
11
70.0598
21
0.04185
0
LINE
8
BLACK
6
CONTINUOUS
10
70.0598
20
0.04185
11
70.065
21
0.0375
0
LINE
8
BLACK
6
CONTINUOUS
10
70.065
20
0.0375
11
70.0683
21
0.018309
0
LINE
8
BLACK
6
CONTINUOUS
10
70.0683
20
0.018309
11
70.075
21
0
0
LINE
8
BLACK
6
CONTINUOUS
10
70.075
20
0
11
70.075
21
-100
0
LINE
8
BLACK
6
CONTINUOUS
10
70.075
20
-100
11
70.0733
21
-100.01
0
LINE
8
BLACK
6
CONTINUOUS
10
70.0733
20
-100.01
11
70.0739
21
-100.013
0
LINE
8
BLACK
6
CONTINUOUS
10
70.0739
20
-100.013
11
70.0722
21
-100.016
0
LINE
8
BLACK
6
CONTINUOUS
10
70.0722
20
-100.016
11
70.0705
21
-100.026
0
LINE
8
BLACK
6
CONTINUOUS
10
70.0705
20
-100.026
11
70.058
21
-100.041
0
LINE
8
BLACK
6
CONTINUOUS
10
70.058
20
-100.041
11
70.0482
21
-100.057
0
LINE
8
BLACK
6
CONTINUOUS
10
70.0482
20
-100.057
11
70.0418
21
-100.06
0
LINE
8
BLACK
6
CONTINUOUS
10
70.0418
20
-100.06
11
70.0375
21
-100.065
0
LINE
8
BLACK
6
CONTINUOUS
10
70.0375
20
-100.065
11
70.0183
21
-100.068
0
LINE
8
BLACK
6
CONTINUOUS
10
70.0183
20
-100.068
11
70
21
-100.075
0
LINE
8
BLACK
6
CONTINUOUS
10
70
20
-100.075
11
0
21
-100.075
0
LINE
8
BLACK
6
CONTINUOUS
10
0
20
-100.075
11
-0.009742
21
-100.073
0
LINE
8
BLACK
6
CONTINUOUS
10
-0.009742
20
-100.073
11
-0.013024
21
-100.074
0
LINE
8
BLACK
6
CONTINUOUS
10
-0.013024
20
-100.074
11
-0.01591
21
-100.072
0
LINE
8
BLACK
6
CONTINUOUS
10
-0.01591
20
-100.072
11
-0.025652
21
-100.07
0
LINE
8
BLACK
6
CONTINUOUS
10
-0.025652
20
-100.07
11
-0.040579
21
-100.058
0
LINE
8
BLACK
6
CONTINUOUS
10
-0.040579
20
-100.058
11
-0.057453
21
-100.048
0
LINE
8
BLACK
6
CONTINUOUS
10
-0.057453
20
-100.048
11
-0.059767
21
-100.042
0
LINE
8
BLACK
6
CONTINUOUS
10
-0.059767
20
-100.042
11
-0.064952
21
-100.037
0
LINE
8
BLACK
6
CONTINUOUS
10
-0.064952
20
-100.037
11
-0.068336
21
-100.018
0
LINE
8
BLACK
6
CONTINUOUS
10
-0.068336
20
-100.018
11
-0.075
21
-100
0
LINE
8
BLACK
6
CONTINUOUS
10
-0.075
20
-100
11
-0.075
21
0
0
LINE
8
BLACK
6
CONTINUOUS
10
-0.075
20
0
11
-0.073282
21
0.009742
0
LINE
8
BLACK
6
CONTINUOUS
10
-0.073282
20
0.009742
11
-0.073861
21
0.013024
0
LINE
8
BLACK
6
CONTINUOUS
10
-0.073861
20
0.013024
11
-0.072195
21
0.01591
0
LINE
8
BLACK
6
CONTINUOUS
10
-0.072195
20
0.01591
11
-0.070477
21
0.025652
0
LINE
8
BLACK
6
CONTINUOUS
10
-0.070477
20
0.025652
11
-0.057951
21
0.040579
0
LINE
8
BLACK
6
CONTINUOUS
10
-0.057951
20
0.040579
11
-0.048209
21
0.057453
0
LINE
8
BLACK
6
CONTINUOUS
10
-0.048209
20
0.057453
11
-0.04185
21
0.059767
0
LINE
8
BLACK
6
CONTINUOUS
10
-0.04185
20
0.059767
11
-0.0375
21
0.064952
0
LINE
8
BLACK
6
CONTINUOUS
10
-0.0375
20
0.064952
11
-0.018309
21
0.068336
0
LINE
8
BLACK
6
CONTINUOUS
10
-0.018309
20
0.068336
11
0
21
0.075
0
LINE
8
BLACK
6
CONTINUOUS
10
0
20
0.075
11
70
21
0.075
0
LINE
8
BLACK
6
CONTINUOUS
10
70
20
0.075
11
70.0097
21
0.073282
0
LINE
8
BLACK
6
CONTINUOUS
10
0.075
20
-0.075
11
0.075
21
-99.925
0
LINE
8
BLACK
6
CONTINUOUS
10
0.075
20
-99.925
11
69.925
21
-99.925
0
LINE
8
BLACK
6
CONTINUOUS
10
69.925
20
-99.925
11
69.925
21
-0.075
0
LINE
8
BLACK
6
CONTINUOUS
10
69.925
20
-0.075
11
0.075
21
-0.075
0
LINE
8
BLACK
6
CONTINUOUS
10
18.4053
20
-90.2359
11
18.5049
21
-89.8644
0
LINE
8
BLACK
6
CONTINUOUS
10
18.5049
20
-89.8644
11
18.6427
21
-89.5052
0
LINE
8
BLACK
6
CONTINUOUS
10
18.6427
20
-89.5052
11
18.8174
21
-89.1625
0
LINE
8
BLACK
6
CONTINUOUS
10
18.8174
20
-89.1625
11
19.0269
21
-88.8399
0
LINE
8
BLACK
6
CONTINUOUS
10
19.0269
20
-88.8399
11
19.2689
21
-88.5409
0
LINE
8
BLACK
6
CONTINUOUS
10
19.2689
20
-88.5409
11
19.5409
21
-88.2689
0
LINE
8
BLACK
6
CONTINUOUS
10
19.5409
20
-88.2689
11
19.8399
21
-88.0269
0
LINE
8
BLACK
6
CONTINUOUS
10
19.8399
20
-88.0269
11
20.1625
21
-87.8174
0
LINE
8
BLACK
6
CONTINUOUS
10
20.1625
20
-87.8174
11
20.5052
21
-87.6427
0
LINE
8
BLACK
6
CONTINUOUS
10
20.5052
20
-87.6427
11
20.8644
21
-87.5049
0
LINE
8
BLACK
6
CONTINUOUS
10
20.8644
20
-87.5049
11
21.2359
21
-87.4053
0
LINE
8
BLACK
6
CONTINUOUS
10
21.2359
20
-87.4053
11
21.6159
21
-87.3451
0
LINE
8
BLACK
6
CONTINUOUS
10
21.6159
20
-87.3451
11
22
21
-87.325
0
LINE
8
BLACK
6
CONTINUOUS
10
22
20
-87.325
11
22.3841
21
-87.3451
0
LINE
8
BLACK
6
CONTINUOUS
10
22.3841
20
-87.3451
11
22.7641
21
-87.4053
0
LINE
8
BLACK
6
CONTINUOUS
10
22.7641
20
-87.4053
11
23.1356
21
-87.5049
0
LINE
8
BLACK
6
CONTINUOUS
10
23.1356
20
-87.5049
11
23.4948
21
-87.6427
0
LINE
8
BLACK
6
CONTINUOUS
10
23.4948
20
-87.6427
11
23.8375
21
-87.8174
0
LINE
8
BLACK
6
CONTINUOUS
10
23.8375
20
-87.8174
11
24.1601
21
-88.0269
0
LINE
8
BLACK
6
CONTINUOUS
10
24.1601
20
-88.0269
11
24.4591
21
-88.2689
0
LINE
8
BLACK
6
CONTINUOUS
10
24.4591
20
-88.2689
11
24.7311
21
-88.5409
0
LINE
8
BLACK
6
CONTINUOUS
10
24.7311
20
-88.5409
11
24.9731
21
-88.8399
0
LINE
8
BLACK
6
CONTINUOUS
10
24.9731
20
-88.8399
11
25.1826
21
-89.1625
0
LINE
8
BLACK
6
CONTINUOUS
10
25.1826
20
-89.1625
11
25.3573
21
-89.5052
0
LINE
8
BLACK
6
CONTINUOUS
10
25.3573
20
-89.5052
11
25.4951
21
-89.8644
0
LINE
8
BLACK
6
CONTINUOUS
10
25.4951
20
-89.8644
11
25.5947
21
-90.2359
0
LINE
8
BLACK
6
CONTINUOUS
10
25.5947
20
-90.2359
11
25.6549
21
-90.6159
0
LINE
8
BLACK
6
CONTINUOUS
10
25.6549
20
-90.6159
11
25.675
21
-91
0
LINE
8
BLACK
6
CONTINUOUS
10
25.675
20
-91
11
25.6549
21
-91.3841
0
LINE
8
BLACK
6
CONTINUOUS
10
25.6549
20
-91.3841
11
25.5947
21
-91.7641
0
LINE
8
BLACK
6
CONTINUOUS
10
25.5947
20
-91.7641
11
25.4951
21
-92.1356
0
LINE
8
BLACK
6
CONTINUOUS
10
25.4951
20
-92.1356
11
25.3573
21
-92.4948
0
LINE
8
BLACK
6
CONTINUOUS
10
25.3573
20
-92.4948
11
25.1826
21
-92.8375
0
LINE
8
BLACK
6
CONTINUOUS
10
25.1826
20
-92.8375
11
24.9731
21
-93.1601
0
LINE
8
BLACK
6
CONTINUOUS
10
24.9731
20
-93.1601
11
24.7311
21
-93.4591
0
LINE
8
BLACK
6
CONTINUOUS
10
24.7311
20
-93.4591
11
24.4591
21
-93.7311
0
LINE
8
BLACK
6
CONTINUOUS
10
24.4591
20
-93.7311
11
24.1601
21
-93.9731
0
LINE
8
BLACK
6
CONTINUOUS
10
24.1601
20
-93.9731
11
23.8375
21
-94.1826
0
LINE
8
BLACK
6
CONTINUOUS
10
23.8375
20
-94.1826
11
23.4948
21
-94.3573
0
LINE
8
BLACK
6
CONTINUOUS
10
23.4948
20
-94.3573
11
23.1356
21
-94.4951
0
LINE
8
BLACK
6
CONTINUOUS
10
23.1356
20
-94.4951
11
22.7641
21
-94.5947
0
LINE
8
BLACK
6
CONTINUOUS
10
22.7641
20
-94.5947
11
22.3841
21
-94.6549
0
LINE
8
BLACK
6
CONTINUOUS
10
22.3841
20
-94.6549
11
22
21
-94.675
0
LINE
8
BLACK
6
CONTINUOUS
10
22
20
-94.675
11
21.6159
21
-94.6549
0
LINE
8
BLACK
6
CONTINUOUS
10
21.6159
20
-94.6549
11
21.2359
21
-94.5947
0
LINE
8
BLACK
6
CONTINUOUS
10
21.2359
20
-94.5947
11
20.8644
21
-94.4951
0
LINE
8
BLACK
6
CONTINUOUS
10
20.8644
20
-94.4951
11
20.5052
21
-94.3573
0
LINE
8
BLACK
6
CONTINUOUS
10
20.5052
20
-94.3573
11
20.1625
21
-94.1826
0
LINE
8
BLACK
6
CONTINUOUS
10
20.1625
20
-94.1826
11
19.8399
21
-93.9731
0
LINE
8
BLACK
6
CONTINUOUS
10
19.8399
20
-93.9731
11
19.5409
21
-93.7311
0
LINE
8
BLACK
6
CONTINUOUS
10
19.5409
20
-93.7311
11
19.2689
21
-93.4591
0
LINE
8
BLACK
6
CONTINUOUS
10
19.2689
20
-93.4591
11
19.0269
21
-93.1601
0
LINE
8
BLACK
6
CONTINUOUS
10
19.0269
20
-93.1601
11
18.8174
21
-92.8375
0
LINE
8
BLACK
6
CONTINUOUS
10
18.8174
20
-92.8375
11
18.6427
21
-92.4948
0
LINE
8
BLACK
6
CONTINUOUS
10
18.6427
20
-92.4948
11
18.5049
21
-92.1356
0
LINE
8
BLACK
6
CONTINUOUS
10
18.5049
20
-92.1356
11
18.4053
21
-91.7641
0
LINE
8
BLACK
6
CONTINUOUS
10
18.4053
20
-91.7641
11
18.3451
21
-91.3841
0
LINE
8
BLACK
6
CONTINUOUS
10
18.3451
20
-91.3841
11
18.325
21
-91
0
LINE
8
BLACK
6
CONTINUOUS
10
18.325
20
-91
11
18.3451
21
-90.6159
0
LINE
8
BLACK
6
CONTINUOUS
10
18.3451
20
-90.6159
11
18.4053
21
-90.2359
0
LINE
8
BLACK
6
CONTINUOUS
10
18.5473
20
-91.7339
11
18.6429
21
-92.0908
0
LINE
8
BLACK
6
CONTINUOUS
10
18.6429
20
-92.0908
11
18.7753
21
-92.4357
0
LINE
8
BLACK
6
CONTINUOUS
10
18.7753
20
-92.4357
11
18.9431
21
-92.7649
0
LINE
8
BLACK
6
CONTINUOUS
10
18.9431
20
-92.7649
11
19.1443
21
-93.0748
0
LINE
8
BLACK
6
CONTINUOUS
10
19.1443
20
-93.0748
11
19.3768
21
-93.3619
0
LINE
8
BLACK
6
CONTINUOUS
10
19.3768
20
-93.3619
11
19.6381
21
-93.6232
0
LINE
8
BLACK
6
CONTINUOUS
10
19.6381
20
-93.6232
11
19.9252
21
-93.8557
0
LINE
8
BLACK
6
CONTINUOUS
10
19.9252
20
-93.8557
11
20.2351
21
-94.0569
0
LINE
8
BLACK
6
CONTINUOUS
10
20.2351
20
-94.0569
11
20.5643
21
-94.2247
0
LINE
8
BLACK
6
CONTINUOUS
10
20.5643
20
-94.2247
11
20.9092
21
-94.3571
0
LINE
8
BLACK
6
CONTINUOUS
10
20.9092
20
-94.3571
11
21.2661
21
-94.4527
0
LINE
8
BLACK
6
CONTINUOUS
10
21.2661
20
-94.4527
11
21.631
21
-94.5105
0
LINE
8
BLACK
6
CONTINUOUS
10
21.631
20
-94.5105
11
22
21
-94.5298
0
LINE
8
BLACK
6
CONTINUOUS
10
22
20
-94.5298
11
22.369
21
-94.5105
0
LINE
8
BLACK
6
CONTINUOUS
10
22.369
20
-94.5105
11
22.7339
21
-94.4527
0
LINE
8
BLACK
6
CONTINUOUS
10
22.7339
20
-94.4527
11
23.0908
21
-94.3571
0
LINE
8
BLACK
6
CONTINUOUS
10
23.0908
20
-94.3571
11
23.4357
21
-94.2247
0
LINE
8
BLACK
6
CONTINUOUS
10
23.4357
20
-94.2247
11
23.7649
21
-94.0569
0
LINE
8
BLACK
6
CONTINUOUS
10
23.7649
20
-94.0569
11
24.0748
21
-93.8557
0
LINE
8
BLACK
6
CONTINUOUS
10
24.0748
20
-93.8557
11
24.3619
21
-93.6232
0
LINE
8
BLACK
6
CONTINUOUS
10
24.3619
20
-93.6232
11
24.6232
21
-93.3619
0
LINE
8
BLACK
6
CONTINUOUS
10
24.6232
20
-93.3619
11
24.8557
21
-93.0748
0
LINE
8
BLACK
6
CONTINUOUS
10
24.8557
20
-93.0748
11
25.0569
21
-92.7649
0
LINE
8
BLACK
6
CONTINUOUS
10
25.0569
20
-92.7649
11
25.2247
21
-92.4357
0
LINE
8
BLACK
6
CONTINUOUS
10
25.2247
20
-92.4357
11
25.3571
21
-92.0908
0
LINE
8
BLACK
6
CONTINUOUS
10
25.3571
20
-92.0908
11
25.4527
21
-91.7339
0
LINE
8
BLACK
6
CONTINUOUS
10
25.4527
20
-91.7339
11
25.5105
21
-91.369
0
LINE
8
BLACK
6
CONTINUOUS
10
25.5105
20
-91.369
11
25.5298
21
-91
0
LINE
8
BLACK
6
CONTINUOUS
10
25.5298
20
-91
11
25.5105
21
-90.631
0
LINE
8
BLACK
6
CONTINUOUS
10
25.5105
20
-90.631
11
25.4527
21
-90.2661
0
LINE
8
BLACK
6
CONTINUOUS
10
25.4527
20
-90.2661
11
25.3571
21
-89.9092
0
LINE
8
BLACK
6
CONTINUOUS
10
25.3571
20
-89.9092
11
25.2247
21
-89.5643
0
LINE
8
BLACK
6
CONTINUOUS
10
25.2247
20
-89.5643
11
25.0569
21
-89.2351
0
LINE
8
BLACK
6
CONTINUOUS
10
25.0569
20
-89.2351
11
24.8557
21
-88.9252
0
LINE
8
BLACK
6
CONTINUOUS
10
24.8557
20
-88.9252
11
24.6232
21
-88.6381
0
LINE
8
BLACK
6
CONTINUOUS
10
24.6232
20
-88.6381
11
24.3619
21
-88.3768
0
LINE
8
BLACK
6
CONTINUOUS
10
24.3619
20
-88.3768
11
24.0748
21
-88.1443
0
LINE
8
BLACK
6
CONTINUOUS
10
24.0748
20
-88.1443
11
23.7649
21
-87.9431
0
LINE
8
BLACK
6
CONTINUOUS
10
23.7649
20
-87.9431
11
23.4357
21
-87.7753
0
LINE
8
BLACK
6
CONTINUOUS
10
23.4357
20
-87.7753
11
23.0908
21
-87.6429
0
LINE
8
BLACK
6
CONTINUOUS
10
23.0908
20
-87.6429
11
22.7339
21
-87.5473
0
LINE
8
BLACK
6
CONTINUOUS
10
22.7339
20
-87.5473
11
22.369
21
-87.4895
0
LINE
8
BLACK
6
CONTINUOUS
10
22.369
20
-87.4895
11
22
21
-87.4702
0
LINE
8
BLACK
6
CONTINUOUS
10
22
20
-87.4702
11
21.631
21
-87.4895
0
LINE
8
BLACK
6
CONTINUOUS
10
21.631
20
-87.4895
11
21.2661
21
-87.5473
0
LINE
8
BLACK
6
CONTINUOUS
10
21.2661
20
-87.5473
11
20.9092
21
-87.6429
0
LINE
8
BLACK
6
CONTINUOUS
10
20.9092
20
-87.6429
11
20.5643
21
-87.7753
0
LINE
8
BLACK
6
CONTINUOUS
10
20.5643
20
-87.7753
11
20.2351
21
-87.9431
0
LINE
8
BLACK
6
CONTINUOUS
10
20.2351
20
-87.9431
11
19.9252
21
-88.1443
0
LINE
8
BLACK
6
CONTINUOUS
10
19.9252
20
-88.1443
11
19.6381
21
-88.3768
0
LINE
8
BLACK
6
CONTINUOUS
10
19.6381
20
-88.3768
11
19.3768
21
-88.6381
0
LINE
8
BLACK
6
CONTINUOUS
10
19.3768
20
-88.6381
11
19.1443
21
-88.9252
0
LINE
8
BLACK
6
CONTINUOUS
10
19.1443
20
-88.9252
11
18.9431
21
-89.2351
0
LINE
8
BLACK
6
CONTINUOUS
10
18.9431
20
-89.2351
11
18.7753
21
-89.5643
0
LINE
8
BLACK
6
CONTINUOUS
10
18.7753
20
-89.5643
11
18.6429
21
-89.9092
0
LINE
8
BLACK
6
CONTINUOUS
10
18.6429
20
-89.9092
11
18.5473
21
-90.2661
0
LINE
8
BLACK
6
CONTINUOUS
10
18.5473
20
-90.2661
11
18.4895
21
-90.631
0
LINE
8
BLACK
6
CONTINUOUS
10
18.4895
20
-90.631
11
18.4702
21
-91
0
LINE
8
BLACK
6
CONTINUOUS
10
18.4702
20
-91
11
18.4895
21
-91.369
0
LINE
8
BLACK
6
CONTINUOUS
10
18.4895
20
-91.369
11
18.5473
21
-91.7339
0
LINE
8
BLACK
6
CONTINUOUS
10
2.85004
20
-90.6021
11
2.91402
21
-90.2534
0
LINE
8
BLACK
6
CONTINUOUS
10
2.91402
20
-90.2534
11
3.01648
21
-89.9141
0
LINE
8
BLACK
6
CONTINUOUS
10
3.01648
20
-89.9141
11
3.15611
21
-89.5883
0
LINE
8
BLACK
6
CONTINUOUS
10
3.15611
20
-89.5883
11
3.3312
21
-89.2801
0
LINE
8
BLACK
6
CONTINUOUS
10
3.3312
20
-89.2801
11
3.53955
21
-88.9933
0
LINE
8
BLACK
6
CONTINUOUS
10
3.53955
20
-88.9933
11
3.77857
21
-88.7315
0
LINE
8
BLACK
6
CONTINUOUS
10
3.77857
20
-88.7315
11
4.04528
21
-88.4981
0
LINE
8
BLACK
6
CONTINUOUS
10
4.04528
20
-88.4981
11
4.33634
21
-88.2958
0
LINE
8
BLACK
6
CONTINUOUS
10
4.33634
20
-88.2958
11
4.64815
21
-88.1272
0
LINE
8
BLACK
6
CONTINUOUS
10
4.64815
20
-88.1272
11
4.97681
21
-87.9944
0
LINE
8
BLACK
6
CONTINUOUS
10
4.97681
20
-87.9944
11
5.31821
21
-87.8991
0
LINE
8
BLACK
6
CONTINUOUS
10
5.31821
20
-87.8991
11
5.66812
21
-87.8424
0
LINE
8
BLACK
6
CONTINUOUS
10
5.66812
20
-87.8424
11
6.02217
21
-87.8251
0
LINE
8
BLACK
6
CONTINUOUS
10
6.02217
20
-87.8251
11
6.37593
21
-87.8473
0
LINE
8
BLACK
6
CONTINUOUS
10
6.37593
20
-87.8473
11
6.72501
21
-87.9089
0
LINE
8
BLACK
6
CONTINUOUS
10
6.72501
20
-87.9089
11
7.06506
21
-88.009
0
LINE
8
BLACK
6
CONTINUOUS
10
7.06506
20
-88.009
11
7.39183
21
-88.1463
0
LINE
8
BLACK
6
CONTINUOUS
10
7.39183
20
-88.1463
11
7.70125
21
-88.3193
0
LINE
8
BLACK
6
CONTINUOUS
10
7.70125
20
-88.3193
11
7.98947
21
-88.5256
0
LINE
8
BLACK
6
CONTINUOUS
10
7.98947
20
-88.5256
11
8.25289
21
-88.7628
0
LINE
8
BLACK
6
CONTINUOUS
10
8.25289
20
-88.7628
11
8.48823
21
-89.0279
0
LINE
8
BLACK
6
CONTINUOUS
10
8.48823
20
-89.0279
11
8.69255
21
-89.3175
0
LINE
8
BLACK
6
CONTINUOUS
10
8.69255
20
-89.3175
11
8.86332
21
-89.6281
0
LINE
8
BLACK
6
CONTINUOUS
10
8.86332
20
-89.6281
11
8.9984
21
-89.9558
0
LINE
8
BLACK
6
CONTINUOUS
10
8.9984
20
-89.9558
11
9.0961
21
-90.2966
0
LINE
8
BLACK
6
CONTINUOUS
10
9.0961
20
-90.2966
11
9.15521
21
-90.6461
0
LINE
8
BLACK
6
CONTINUOUS
10
9.15521
20
-90.6461
11
9.175
21
-91
0
LINE
8
BLACK
6
CONTINUOUS
10
9.175
20
-91
11
9.17376
21
-91.0887
0
LINE
8
BLACK
6
CONTINUOUS
10
9.17376
20
-91.0887
11
9.1441
21
-91.4419
0
LINE
8
BLACK
6
CONTINUOUS
10
9.1441
20
-91.4419
11
9.07525
21
-91.7896
0
LINE
8
BLACK
6
CONTINUOUS
10
9.07525
20
-91.7896
11
8.96807
21
-92.1275
0
LINE
8
BLACK
6
CONTINUOUS
10
8.96807
20
-92.1275
11
8.8239
21
-92.4513
0
LINE
8
BLACK
6
CONTINUOUS
10
8.8239
20
-92.4513
11
8.64452
21
-92.757
0
LINE
8
BLACK
6
CONTINUOUS
10
8.64452
20
-92.757
11
8.43219
21
-93.0409
0
LINE
8
BLACK
6
CONTINUOUS
10
8.43219
20
-93.0409
11
8.18954
21
-93.2992
0
LINE
8
BLACK
6
CONTINUOUS
10
8.18954
20
-93.2992
11
7.9196
21
-93.529
0
LINE
8
BLACK
6
CONTINUOUS
10
7.9196
20
-93.529
11
7.62574
21
-93.7272
0
LINE
8
BLACK
6
CONTINUOUS
10
7.62574
20
-93.7272
11
7.31161
21
-93.8914
0
LINE
8
BLACK
6
CONTINUOUS
10
7.31161
20
-93.8914
11
6.98113
21
-94.0196
0
LINE
8
BLACK
6
CONTINUOUS
10
6.98113
20
-94.0196
11
6.63842
21
-94.1102
0
LINE
8
BLACK
6
CONTINUOUS
10
6.63842
20
-94.1102
11
6.28776
21
-94.1619
0
LINE
8
BLACK
6
CONTINUOUS
10
6.28776
20
-94.1619
11
5.93351
21
-94.1743
0
LINE
8
BLACK
6
CONTINUOUS
10
5.93351
20
-94.1743
11
5.58009
21
-94.1471
0
LINE
8
BLACK
6
CONTINUOUS
10
5.58009
20
-94.1471
11
5.2319
21
-94.0807
0
LINE
8
BLACK
6
CONTINUOUS
10
5.2319
20
-94.0807
11
4.89328
21
-93.9759
0
LINE
8
BLACK
6
CONTINUOUS
10
4.89328
20
-93.9759
11
4.56846
21
-93.834
0
LINE
8
BLACK
6
CONTINUOUS
10
4.56846
20
-93.834
11
4.26149
21
-93.6567
0
LINE
8
BLACK
6
CONTINUOUS
10
4.26149
20
-93.6567
11
3.97618
21
-93.4464
0
LINE
8
BLACK
6
CONTINUOUS
10
3.97618
20
-93.4464
11
3.7161
21
-93.2055
0
LINE
8
BLACK
6
CONTINUOUS
10
3.7161
20
-93.2055
11
3.48448
21
-92.9372
0
LINE
8
BLACK
6
CONTINUOUS
10
3.48448
20
-92.9372
11
3.28422
21
-92.6447
0
LINE
8
BLACK
6
CONTINUOUS
10
3.28422
20
-92.6447
11
3.11781
21
-92.3318
0
LINE
8
BLACK
6
CONTINUOUS
10
3.11781
20
-92.3318
11
2.98732
21
-92.0022
0
LINE
8
BLACK
6
CONTINUOUS
10
2.98732
20
-92.0022
11
2.89438
21
-91.6601
0
LINE
8
BLACK
6
CONTINUOUS
10
2.89438
20
-91.6601
11
2.84015
21
-91.3098
0
LINE
8
BLACK
6
CONTINUOUS
10
2.84015
20
-91.3098
11
2.82539
21
-90.9577
0
LINE
8
BLACK
6
CONTINUOUS
10
2.82539
20
-90.9577
11
2.82531
21
-90.9557
0
LINE
8
BLACK
6
CONTINUOUS
10
2.82531
20
-90.9557
11
2.85004
21
-90.6021
0
LINE
8
BLACK
6
CONTINUOUS
10
3.03644
20
-91.6299
11
3.12513
21
-91.9563
0
LINE
8
BLACK
6
CONTINUOUS
10
3.12513
20
-91.9563
11
3.24965
21
-92.2708
0
LINE
8
BLACK
6
CONTINUOUS
10
3.24965
20
-92.2708
11
3.40845
21
-92.5695
0
LINE
8
BLACK
6
CONTINUOUS
10
3.40845
20
-92.5695
11
3.59955
21
-92.8486
0
LINE
8
BLACK
6
CONTINUOUS
10
3.59955
20
-92.8486
11
3.82057
21
-93.1047
0
LINE
8
BLACK
6
CONTINUOUS
10
3.82057
20
-93.1047
11
4.06875
21
-93.3345
0
LINE
8
BLACK
6
CONTINUOUS
10
4.06875
20
-93.3345
11
4.34101
21
-93.5352
0
LINE
8
BLACK
6
CONTINUOUS
10
4.34101
20
-93.5352
11
4.63395
21
-93.7043
0
LINE
8
BLACK
6
CONTINUOUS
10
4.63395
20
-93.7043
11
4.94391
21
-93.8397
0
LINE
8
BLACK
6
CONTINUOUS
10
4.94391
20
-93.8397
11
5.26703
21
-93.9398
0
LINE
8
BLACK
6
CONTINUOUS
10
5.26703
20
-93.9398
11
5.59929
21
-94.0032
0
LINE
8
BLACK
6
CONTINUOUS
10
5.59929
20
-94.0032
11
5.93655
21
-94.0291
0
LINE
8
BLACK
6
CONTINUOUS
10
5.93655
20
-94.0291
11
6.2746
21
-94.0173
0
LINE
8
BLACK
6
CONTINUOUS
10
6.2746
20
-94.0173
11
6.60922
21
-93.9679
0
LINE
8
BLACK
6
CONTINUOUS
10
6.60922
20
-93.9679
11
6.93625
21
-93.8815
0
LINE
8
BLACK
6
CONTINUOUS
10
6.93625
20
-93.8815
11
7.25161
21
-93.7592
0
LINE
8
BLACK
6
CONTINUOUS
10
7.25161
20
-93.7592
11
7.55137
21
-93.6024
0
LINE
8
BLACK
6
CONTINUOUS
10
7.55137
20
-93.6024
11
7.83179
21
-93.4133
0
LINE
8
BLACK
6
CONTINUOUS
10
7.83179
20
-93.4133
11
8.08939
21
-93.1941
0
LINE
8
BLACK
6
CONTINUOUS
10
8.08939
20
-93.1941
11
8.32094
21
-92.9475
0
LINE
8
BLACK
6
CONTINUOUS
10
8.32094
20
-92.9475
11
8.52356
21
-92.6766
0
LINE
8
BLACK
6
CONTINUOUS
10
8.52356
20
-92.6766
11
8.69472
21
-92.3849
0
LINE
8
BLACK
6
CONTINUOUS
10
8.69472
20
-92.3849
11
8.8323
21
-92.0759
0
LINE
8
BLACK
6
CONTINUOUS
10
8.8323
20
-92.0759
11
8.93458
21
-91.7535
0
LINE
8
BLACK
6
CONTINUOUS
10
8.93458
20
-91.7535
11
9.00028
21
-91.4217
0
LINE
8
BLACK
6
CONTINUOUS
10
9.00028
20
-91.4217
11
9.02858
21
-91.0846
0
LINE
8
BLACK
6
CONTINUOUS
10
9.02858
20
-91.0846
11
9.02977
21
-91
0
LINE
8
BLACK
6
CONTINUOUS
10
9.02977
20
-91
11
9.01088
21
-90.6623
0
LINE
8
BLACK
6
CONTINUOUS
10
9.01088
20
-90.6623
11
8.95447
21
-90.3288
0
LINE
8
BLACK
6
CONTINUOUS
10
8.95447
20
-90.3288
11
8.86124
21
-90.0036
0
LINE
8
BLACK
6
CONTINUOUS
10
8.86124
20
-90.0036
11
8.73234
21
-89.6909
0
LINE
8
BLACK
6
CONTINUOUS
10
8.73234
20
-89.6909
11
8.56939
21
-89.3945
0
LINE
8
BLACK
6
CONTINUOUS
10
8.56939
20
-89.3945
11
8.37441
21
-89.1181
0
LINE
8
BLACK
6
CONTINUOUS
10
8.37441
20
-89.1181
11
8.14983
21
-88.8651
0
LINE
8
BLACK
6
CONTINUOUS
10
8.14983
20
-88.8651
11
7.89846
21
-88.6388
0
LINE
8
BLACK
6
CONTINUOUS
10
7.89846
20
-88.6388
11
7.62343
21
-88.4419
0
LINE
8
BLACK
6
CONTINUOUS
10
7.62343
20
-88.4419
11
7.32816
21
-88.2769
0
LINE
8
BLACK
6
CONTINUOUS
10
7.32816
20
-88.2769
11
7.01634
21
-88.1458
0
LINE
8
BLACK
6
CONTINUOUS
10
7.01634
20
-88.1458
11
6.69185
21
-88.0503
0
LINE
8
BLACK
6
CONTINUOUS
10
6.69185
20
-88.0503
11
6.35874
21
-87.9915
0
LINE
8
BLACK
6
CONTINUOUS
10
6.35874
20
-87.9915
11
6.02115
21
-87.9703
0
LINE
8
BLACK
6
CONTINUOUS
10
6.02115
20
-87.9703
11
5.6833
21
-87.9868
0
LINE
8
BLACK
6
CONTINUOUS
10
5.6833
20
-87.9868
11
5.3494
21
-88.0409
0
LINE
8
BLACK
6
CONTINUOUS
10
5.3494
20
-88.0409
11
5.02361
21
-88.1319
0
LINE
8
BLACK
6
CONTINUOUS
10
5.02361
20
-88.1319
11
4.70999
21
-88.2586
0
LINE
8
BLACK
6
CONTINUOUS
10
4.70999
20
-88.2586
11
4.41244
21
-88.4195
0
LINE
8
BLACK
6
CONTINUOUS
10
4.41244
20
-88.4195
11
4.13469
21
-88.6125
0
LINE
8
BLACK
6
CONTINUOUS
10
4.13469
20
-88.6125
11
3.88018
21
-88.8353
0
LINE
8
BLACK
6
CONTINUOUS
10
3.88018
20
-88.8353
11
3.6521
21
-89.0851
0
LINE
8
BLACK
6
CONTINUOUS
10
3.6521
20
-89.0851
11
3.45328
21
-89.3588
0
LINE
8
BLACK
6
CONTINUOUS
10
3.45328
20
-89.3588
11
3.2862
21
-89.6529
0
LINE
8
BLACK
6
CONTINUOUS
10
3.2862
20
-89.6529
11
3.15295
21
-89.9638
0
LINE
8
BLACK
6
CONTINUOUS
10
3.15295
20
-89.9638
11
3.05519
21
-90.2876
0
LINE
8
BLACK
6
CONTINUOUS
10
3.05519
20
-90.2876
11
2.99412
21
-90.6203
0
LINE
8
BLACK
6
CONTINUOUS
10
2.99412
20
-90.6203
11
2.97053
21
-90.9577
0
LINE
8
BLACK
6
CONTINUOUS
10
2.97053
20
-90.9577
11
2.98469
21
-91.2957
0
LINE
8
BLACK
6
CONTINUOUS
10
2.98469
20
-91.2957
11
3.03644
21
-91.6299
0
LINE
8
BLACK
6
CONTINUOUS
10
60.85
20
-90.6021
11
60.914
21
-90.2534
0
LINE
8
BLACK
6
CONTINUOUS
10
60.914
20
-90.2534
11
61.0165
21
-89.9141
0
LINE
8
BLACK
6
CONTINUOUS
10
61.0165
20
-89.9141
11
61.1561
21
-89.5883
0
LINE
8
BLACK
6
CONTINUOUS
10
61.1561
20
-89.5883
11
61.3312
21
-89.2801
0
LINE
8
BLACK
6
CONTINUOUS
10
61.3312
20
-89.2801
11
61.5396
21
-88.9933
0
LINE
8
BLACK
6
CONTINUOUS
10
61.5396
20
-88.9933
11
61.7786
21
-88.7315
0
LINE
8
BLACK
6
CONTINUOUS
10
61.7786
20
-88.7315
11
62.0453
21
-88.4981
0
LINE
8
BLACK
6
CONTINUOUS
10
62.0453
20
-88.4981
11
62.3363
21
-88.2958
0
LINE
8
BLACK
6
CONTINUOUS
10
62.3363
20
-88.2958
11
62.6482
21
-88.1272
0
LINE
8
BLACK
6
CONTINUOUS
10
62.6482
20
-88.1272
11
62.9768
21
-87.9944
0
LINE
8
BLACK
6
CONTINUOUS
10
62.9768
20
-87.9944
11
63.3182
21
-87.8991
0
LINE
8
BLACK
6
CONTINUOUS
10
63.3182
20
-87.8991
11
63.6681
21
-87.8424
0
LINE
8
BLACK
6
CONTINUOUS
10
63.6681
20
-87.8424
11
64.0222
21
-87.8251
0
LINE
8
BLACK
6
CONTINUOUS
10
64.0222
20
-87.8251
11
64.3759
21
-87.8473
0
LINE
8
BLACK
6
CONTINUOUS
10
64.3759
20
-87.8473
11
64.725
21
-87.9089
0
LINE
8
BLACK
6
CONTINUOUS
10
64.725
20
-87.9089
11
65.0651
21
-88.009
0
LINE
8
BLACK
6
CONTINUOUS
10
65.0651
20
-88.009
11
65.3918
21
-88.1463
0
LINE
8
BLACK
6
CONTINUOUS
10
65.3918
20
-88.1463
11
65.7013
21
-88.3193
0
LINE
8
BLACK
6
CONTINUOUS
10
65.7013
20
-88.3193
11
65.9895
21
-88.5256
0
LINE
8
BLACK
6
CONTINUOUS
10
65.9895
20
-88.5256
11
66.2529
21
-88.7628
0
LINE
8
BLACK
6
CONTINUOUS
10
66.2529
20
-88.7628
11
66.4882
21
-89.0279
0
LINE
8
BLACK
6
CONTINUOUS
10
66.4882
20
-89.0279
11
66.6926
21
-89.3175
0
LINE
8
BLACK
6
CONTINUOUS
10
66.6926
20
-89.3175
11
66.8633
21
-89.6281
0
LINE
8
BLACK
6
CONTINUOUS
10
66.8633
20
-89.6281
11
66.9984
21
-89.9558
0
LINE
8
BLACK
6
CONTINUOUS
10
66.9984
20
-89.9558
11
67.0961
21
-90.2966
0
LINE
8
BLACK
6
CONTINUOUS
10
67.0961
20
-90.2966
11
67.1552
21
-90.6461
0
LINE
8
BLACK
6
CONTINUOUS
10
67.1552
20
-90.6461
11
67.175
21
-91
0
LINE
8
BLACK
6
CONTINUOUS
10
67.175
20
-91
11
67.1738
21
-91.0887
0
LINE
8
BLACK
6
CONTINUOUS
10
67.1738
20
-91.0887
11
67.1441
21
-91.4419
0
LINE
8
BLACK
6
CONTINUOUS
10
67.1441
20
-91.4419
11
67.0753
21
-91.7896
0
LINE
8
BLACK
6
CONTINUOUS
10
67.0753
20
-91.7896
11
66.9681
21
-92.1275
0
LINE
8
BLACK
6
CONTINUOUS
10
66.9681
20
-92.1275
11
66.8239
21
-92.4513
0
LINE
8
BLACK
6
CONTINUOUS
10
66.8239
20
-92.4513
11
66.6445
21
-92.757
0
LINE
8
BLACK
6
CONTINUOUS
10
66.6445
20
-92.757
11
66.4322
21
-93.0409
0
LINE
8
BLACK
6
CONTINUOUS
10
66.4322
20
-93.0409
11
66.1895
21
-93.2992
0
LINE
8
BLACK
6
CONTINUOUS
10
66.1895
20
-93.2992
11
65.9196
21
-93.529
0
LINE
8
BLACK
6
CONTINUOUS
10
65.9196
20
-93.529
11
65.6257
21
-93.7272
0
LINE
8
BLACK
6
CONTINUOUS
10
65.6257
20
-93.7272
11
65.3116
21
-93.8914
0
LINE
8
BLACK
6
CONTINUOUS
10
65.3116
20
-93.8914
11
64.9811
21
-94.0196
0
LINE
8
BLACK
6
CONTINUOUS
10
64.9811
20
-94.0196
11
64.6384
21
-94.1102
0
LINE
8
BLACK
6
CONTINUOUS
10
64.6384
20
-94.1102
11
64.2878
21
-94.1619
0
LINE
8
BLACK
6
CONTINUOUS
10
64.2878
20
-94.1619
11
63.9335
21
-94.1743
0
LINE
8
BLACK
6
CONTINUOUS
10
63.9335
20
-94.1743
11
63.5801
21
-94.1471
0
LINE
8
BLACK
6
CONTINUOUS
10
63.5801
20
-94.1471
11
63.2319
21
-94.0807
0
LINE
8
BLACK
6
CONTINUOUS
10
63.2319
20
-94.0807
11
62.8933
21
-93.9759
0
LINE
8
BLACK
6
CONTINUOUS
10
62.8933
20
-93.9759
11
62.5685
21
-93.834
0
LINE
8
BLACK
6
CONTINUOUS
10
62.5685
20
-93.834
11
62.2615
21
-93.6567
0
LINE
8
BLACK
6
CONTINUOUS
10
62.2615
20
-93.6567
11
61.9762
21
-93.4464
0
LINE
8
BLACK
6
CONTINUOUS
10
61.9762
20
-93.4464
11
61.7161
21
-93.2055
0
LINE
8
BLACK
6
CONTINUOUS
10
61.7161
20
-93.2055
11
61.4845
21
-92.9372
0
LINE
8
BLACK
6
CONTINUOUS
10
61.4845
20
-92.9372
11
61.2842
21
-92.6447
0
LINE
8
BLACK
6
CONTINUOUS
10
61.2842
20
-92.6447
11
61.1178
21
-92.3318
0
LINE
8
BLACK
6
CONTINUOUS
10
61.1178
20
-92.3318
11
60.9873
21
-92.0022
0
LINE
8
BLACK
6
CONTINUOUS
10
60.9873
20
-92.0022
11
60.8944
21
-91.6601
0
LINE
8
BLACK
6
CONTINUOUS
10
60.8944
20
-91.6601
11
60.8402
21
-91.3098
0
LINE
8
BLACK
6
CONTINUOUS
10
60.8402
20
-91.3098
11
60.8254
21
-90.9577
0
LINE
8
BLACK
6
CONTINUOUS
10
60.8254
20
-90.9577
11
60.8253
21
-90.9557
0
LINE
8
BLACK
6
CONTINUOUS
10
60.8253
20
-90.9557
11
60.85
21
-90.6021
0
LINE
8
BLACK
6
CONTINUOUS
10
61.0364
20
-91.6299
11
61.1251
21
-91.9563
0
LINE
8
BLACK
6
CONTINUOUS
10
61.1251
20
-91.9563
11
61.2496
21
-92.2708
0
LINE
8
BLACK
6
CONTINUOUS
10
61.2496
20
-92.2708
11
61.4084
21
-92.5695
0
LINE
8
BLACK
6
CONTINUOUS
10
61.4084
20
-92.5695
11
61.5995
21
-92.8486
0
LINE
8
BLACK
6
CONTINUOUS
10
61.5995
20
-92.8486
11
61.8206
21
-93.1047
0
LINE
8
BLACK
6
CONTINUOUS
10
61.8206
20
-93.1047
11
62.0688
21
-93.3345
0
LINE
8
BLACK
6
CONTINUOUS
10
62.0688
20
-93.3345
11
62.341
21
-93.5352
0
LINE
8
BLACK
6
CONTINUOUS
10
62.341
20
-93.5352
11
62.6339
21
-93.7043
0
LINE
8
BLACK
6
CONTINUOUS
10
62.6339
20
-93.7043
11
62.9439
21
-93.8397
0
LINE
8
BLACK
6
CONTINUOUS
10
62.9439
20
-93.8397
11
63.267
21
-93.9398
0
LINE
8
BLACK
6
CONTINUOUS
10
63.267
20
-93.9398
11
63.5993
21
-94.0032
0
LINE
8
BLACK
6
CONTINUOUS
10
63.5993
20
-94.0032
11
63.9365
21
-94.0291
0
LINE
8
BLACK
6
CONTINUOUS
10
63.9365
20
-94.0291
11
64.2746
21
-94.0173
0
LINE
8
BLACK
6
CONTINUOUS
10
64.2746
20
-94.0173
11
64.6092
21
-93.9679
0
LINE
8
BLACK
6
CONTINUOUS
10
64.6092
20
-93.9679
11
64.9362
21
-93.8815
0
LINE
8
BLACK
6
CONTINUOUS
10
64.9362
20
-93.8815
11
65.2516
21
-93.7592
0
LINE
8
BLACK
6
CONTINUOUS
10
65.2516
20
-93.7592
11
65.5514
21
-93.6024
0
LINE
8
BLACK
6
CONTINUOUS
10
65.5514
20
-93.6024
11
65.8318
21
-93.4133
0
LINE
8
BLACK
6
CONTINUOUS
10
65.8318
20
-93.4133
11
66.0894
21
-93.1941
0
LINE
8
BLACK
6
CONTINUOUS
10
66.0894
20
-93.1941
11
66.3209
21
-92.9475
0
LINE
8
BLACK
6
CONTINUOUS
10
66.3209
20
-92.9475
11
66.5236
21
-92.6766
0
LINE
8
BLACK
6
CONTINUOUS
10
66.5236
20
-92.6766
11
66.6947
21
-92.3849
0
LINE
8
BLACK
6
CONTINUOUS
10
66.6947
20
-92.3849
11
66.8323
21
-92.0759
0
LINE
8
BLACK
6
CONTINUOUS
10
66.8323
20
-92.0759
11
66.9346
21
-91.7535
0
LINE
8
BLACK
6
CONTINUOUS
10
66.9346
20
-91.7535
11
67.0003
21
-91.4217
0
LINE
8
BLACK
6
CONTINUOUS
10
67.0003
20
-91.4217
11
67.0286
21
-91.0846
0
LINE
8
BLACK
6
CONTINUOUS
10
67.0286
20
-91.0846
11
67.0298
21
-91
0
LINE
8
BLACK
6
CONTINUOUS
10
67.0298
20
-91
11
67.0109
21
-90.6623
0
LINE
8
BLACK
6
CONTINUOUS
10
67.0109
20
-90.6623
11
66.9545
21
-90.3288
0
LINE
8
BLACK
6
CONTINUOUS
10
66.9545
20
-90.3288
11
66.8612
21
-90.0036
0
LINE
8
BLACK
6
CONTINUOUS
10
66.8612
20
-90.0036
11
66.7323
21
-89.6909
0
LINE
8
BLACK
6
CONTINUOUS
10
66.7323
20
-89.6909
11
66.5694
21
-89.3945
0
LINE
8
BLACK
6
CONTINUOUS
10
66.5694
20
-89.3945
11
66.3744
21
-89.1181
0
LINE
8
BLACK
6
CONTINUOUS
10
66.3744
20
-89.1181
11
66.1498
21
-88.8651
0
LINE
8
BLACK
6
CONTINUOUS
10
66.1498
20
-88.8651
11
65.8985
21
-88.6388
0
LINE
8
BLACK
6
CONTINUOUS
10
65.8985
20
-88.6388
11
65.6234
21
-88.4419
0
LINE
8
BLACK
6
CONTINUOUS
10
65.6234
20
-88.4419
11
65.3282
21
-88.2769
0
LINE
8
BLACK
6
CONTINUOUS
10
65.3282
20
-88.2769
11
65.0163
21
-88.1458
0
LINE
8
BLACK
6
CONTINUOUS
10
65.0163
20
-88.1458
11
64.6919
21
-88.0503
0
LINE
8
BLACK
6
CONTINUOUS
10
64.6919
20
-88.0503
11
64.3587
21
-87.9915
0
LINE
8
BLACK
6
CONTINUOUS
10
64.3587
20
-87.9915
11
64.0212
21
-87.9703
0
LINE
8
BLACK
6
CONTINUOUS
10
64.0212
20
-87.9703
11
63.6833
21
-87.9868
0
LINE
8
BLACK
6
CONTINUOUS
10
63.6833
20
-87.9868
11
63.3494
21
-88.0409
0
LINE
8
BLACK
6
CONTINUOUS
10
63.3494
20
-88.0409
11
63.0236
21
-88.1319
0
LINE
8
BLACK
6
CONTINUOUS
10
63.0236
20
-88.1319
11
62.71
21
-88.2586
0
LINE
8
BLACK
6
CONTINUOUS
10
62.71
20
-88.2586
11
62.4124
21
-88.4195
0
LINE
8
BLACK
6
CONTINUOUS
10
62.4124
20
-88.4195
11
62.1347
21
-88.6125
0
LINE
8
BLACK
6
CONTINUOUS
10
62.1347
20
-88.6125
11
61.8802
21
-88.8353
0
LINE
8
BLACK
6
CONTINUOUS
10
61.8802
20
-88.8353
11
61.6521
21
-89.0851
0
LINE
8
BLACK
6
CONTINUOUS
10
61.6521
20
-89.0851
11
61.4533
21
-89.3588
0
LINE
8
BLACK
6
CONTINUOUS
10
61.4533
20
-89.3588
11
61.2862
21
-89.6529
0
LINE
8
BLACK
6
CONTINUOUS
10
61.2862
20
-89.6529
11
61.153
21
-89.9638
0
LINE
8
BLACK
6
CONTINUOUS
10
61.153
20
-89.9638
11
61.0552
21
-90.2876
0
LINE
8
BLACK
6
CONTINUOUS
10
61.0552
20
-90.2876
11
60.9941
21
-90.6203
0
LINE
8
BLACK
6
CONTINUOUS
10
60.9941
20
-90.6203
11
60.9705
21
-90.9577
0
LINE
8
BLACK
6
CONTINUOUS
10
60.9705
20
-90.9577
11
60.9847
21
-91.2957
0
LINE
8
BLACK
6
CONTINUOUS
10
60.9847
20
-91.2957
11
61.0364
21
-91.6299
0
LINE
8
BLACK
6
CONTINUOUS
10
44.4053
20
-69.7359
11
44.5049
21
-69.3644
0
LINE
8
BLACK
6
CONTINUOUS
10
44.5049
20
-69.3644
11
44.6427
21
-69.0052
0
LINE
8
BLACK
6
CONTINUOUS
10
44.6427
20
-69.0052
11
44.8174
21
-68.6625
0
LINE
8
BLACK
6
CONTINUOUS
10
44.8174
20
-68.6625
11
45.0269
21
-68.3399
0
LINE
8
BLACK
6
CONTINUOUS
10
45.0269
20
-68.3399
11
45.2689
21
-68.0409
0
LINE
8
BLACK
6
CONTINUOUS
10
45.2689
20
-68.0409
11
45.5409
21
-67.7689
0
LINE
8
BLACK
6
CONTINUOUS
10
45.5409
20
-67.7689
11
45.8399
21
-67.5269
0
LINE
8
BLACK
6
CONTINUOUS
10
45.8399
20
-67.5269
11
46.1625
21
-67.3174
0
LINE
8
BLACK
6
CONTINUOUS
10
46.1625
20
-67.3174
11
46.5052
21
-67.1427
0
LINE
8
BLACK
6
CONTINUOUS
10
46.5052
20
-67.1427
11
46.8644
21
-67.0049
0
LINE
8
BLACK
6
CONTINUOUS
10
46.8644
20
-67.0049
11
47.2359
21
-66.9053
0
LINE
8
BLACK
6
CONTINUOUS
10
47.2359
20
-66.9053
11
47.6159
21
-66.8451
0
LINE
8
BLACK
6
CONTINUOUS
10
47.6159
20
-66.8451
11
48
21
-66.825
0
LINE
8
BLACK
6
CONTINUOUS
10
48
20
-66.825
11
48.3841
21
-66.8451
0
LINE
8
BLACK
6
CONTINUOUS
10
48.3841
20
-66.8451
11
48.7641
21
-66.9053
0
LINE
8
BLACK
6
CONTINUOUS
10
48.7641
20
-66.9053
11
49.1356
21
-67.0049
0
LINE
8
BLACK
6
CONTINUOUS
10
49.1356
20
-67.0049
11
49.4948
21
-67.1427
0
LINE
8
BLACK
6
CONTINUOUS
10
49.4948
20
-67.1427
11
49.8375
21
-67.3174
0
LINE
8
BLACK
6
CONTINUOUS
10
49.8375
20
-67.3174
11
50.1601
21
-67.5269
0
LINE
8
BLACK
6
CONTINUOUS
10
50.1601
20
-67.5269
11
50.4591
21
-67.7689
0
LINE
8
BLACK
6
CONTINUOUS
10
50.4591
20
-67.7689
11
50.7311
21
-68.0409
0
LINE
8
BLACK
6
CONTINUOUS
10
50.7311
20
-68.0409
11
50.9731
21
-68.3399
0
LINE
8
BLACK
6
CONTINUOUS
10
50.9731
20
-68.3399
11
51.1826
21
-68.6625
0
LINE
8
BLACK
6
CONTINUOUS
10
51.1826
20
-68.6625
11
51.3573
21
-69.0052
0
LINE
8
BLACK
6
CONTINUOUS
10
51.3573
20
-69.0052
11
51.4951
21
-69.3644
0
LINE
8
BLACK
6
CONTINUOUS
10
51.4951
20
-69.3644
11
51.5947
21
-69.7359
0
LINE
8
BLACK
6
CONTINUOUS
10
51.5947
20
-69.7359
11
51.6549
21
-70.1159
0
LINE
8
BLACK
6
CONTINUOUS
10
51.6549
20
-70.1159
11
51.675
21
-70.5
0
LINE
8
BLACK
6
CONTINUOUS
10
51.675
20
-70.5
11
51.6549
21
-70.8841
0
LINE
8
BLACK
6
CONTINUOUS
10
51.6549
20
-70.8841
11
51.5947
21
-71.2641
0
LINE
8
BLACK
6
CONTINUOUS
10
51.5947
20
-71.2641
11
51.4951
21
-71.6356
0
LINE
8
BLACK
6
CONTINUOUS
10
51.4951
20
-71.6356
11
51.3573
21
-71.9948
0
LINE
8
BLACK
6
CONTINUOUS
10
51.3573
20
-71.9948
11
51.1826
21
-72.3375
0
LINE
8
BLACK
6
CONTINUOUS
10
51.1826
20
-72.3375
11
50.9731
21
-72.6601
0
LINE
8
BLACK
6
CONTINUOUS
10
50.9731
20
-72.6601
11
50.7311
21
-72.9591
0
LINE
8
BLACK
6
CONTINUOUS
10
50.7311
20
-72.9591
11
50.4591
21
-73.2311
0
LINE
8
BLACK
6
CONTINUOUS
10
50.4591
20
-73.2311
11
50.1601
21
-73.4731
0
LINE
8
BLACK
6
CONTINUOUS
10
50.1601
20
-73.4731
11
49.8375
21
-73.6826
0
LINE
8
BLACK
6
CONTINUOUS
10
49.8375
20
-73.6826
11
49.4948
21
-73.8573
0
LINE
8
BLACK
6
CONTINUOUS
10
49.4948
20
-73.8573
11
49.1356
21
-73.9951
0
LINE
8
BLACK
6
CONTINUOUS
10
49.1356
20
-73.9951
11
48.7641
21
-74.0947
0
LINE
8
BLACK
6
CONTINUOUS
10
48.7641
20
-74.0947
11
48.3841
21
-74.1549
0
LINE
8
BLACK
6
CONTINUOUS
10
48.3841
20
-74.1549
11
48
21
-74.175
0
LINE
8
BLACK
6
CONTINUOUS
10
48
20
-74.175
11
47.6159
21
-74.1549
0
LINE
8
BLACK
6
CONTINUOUS
10
47.6159
20
-74.1549
11
47.2359
21
-74.0947
0
LINE
8
BLACK
6
CONTINUOUS
10
47.2359
20
-74.0947
11
46.8644
21
-73.9951
0
LINE
8
BLACK
6
CONTINUOUS
10
46.8644
20
-73.9951
11
46.5052
21
-73.8573
0
LINE
8
BLACK
6
CONTINUOUS
10
46.5052
20
-73.8573
11
46.1625
21
-73.6826
0
LINE
8
BLACK
6
CONTINUOUS
10
46.1625
20
-73.6826
11
45.8399
21
-73.4731
0
LINE
8
BLACK
6
CONTINUOUS
10
45.8399
20
-73.4731
11
45.5409
21
-73.2311
0
LINE
8
BLACK
6
CONTINUOUS
10
45.5409
20
-73.2311
11
45.2689
21
-72.9591
0
LINE
8
BLACK
6
CONTINUOUS
10
45.2689
20
-72.9591
11
45.0269
21
-72.6601
0
LINE
8
BLACK
6
CONTINUOUS
10
45.0269
20
-72.6601
11
44.8174
21
-72.3375
0
LINE
8
BLACK
6
CONTINUOUS
10
44.8174
20
-72.3375
11
44.6427
21
-71.9948
0
LINE
8
BLACK
6
CONTINUOUS
10
44.6427
20
-71.9948
11
44.5049
21
-71.6356
0
LINE
8
BLACK
6
CONTINUOUS
10
44.5049
20
-71.6356
11
44.4053
21
-71.2641
0
LINE
8
BLACK
6
CONTINUOUS
10
44.4053
20
-71.2641
11
44.3451
21
-70.8841
0
LINE
8
BLACK
6
CONTINUOUS
10
44.3451
20
-70.8841
11
44.325
21
-70.5
0
LINE
8
BLACK
6
CONTINUOUS
10
44.325
20
-70.5
11
44.3451
21
-70.1159
0
LINE
8
BLACK
6
CONTINUOUS
10
44.3451
20
-70.1159
11
44.4053
21
-69.7359
0
LINE
8
BLACK
6
CONTINUOUS
10
44.5473
20
-71.2339
11
44.6429
21
-71.5908
0
LINE
8
BLACK
6
CONTINUOUS
10
44.6429
20
-71.5908
11
44.7753
21
-71.9357
0
LINE
8
BLACK
6
CONTINUOUS
10
44.7753
20
-71.9357
11
44.9431
21
-72.2649
0
LINE
8
BLACK
6
CONTINUOUS
10
44.9431
20
-72.2649
11
45.1443
21
-72.5748
0
LINE
8
BLACK
6
CONTINUOUS
10
45.1443
20
-72.5748
11
45.3768
21
-72.8619
0
LINE
8
BLACK
6
CONTINUOUS
10
45.3768
20
-72.8619
11
45.6381
21
-73.1232
0
LINE
8
BLACK
6
CONTINUOUS
10
45.6381
20
-73.1232
11
45.9252
21
-73.3557
0
LINE
8
BLACK
6
CONTINUOUS
10
45.9252
20
-73.3557
11
46.2351
21
-73.5569
0
LINE
8
BLACK
6
CONTINUOUS
10
46.2351
20
-73.5569
11
46.5643
21
-73.7247
0
LINE
8
BLACK
6
CONTINUOUS
10
46.5643
20
-73.7247
11
46.9092
21
-73.8571
0
LINE
8
BLACK
6
CONTINUOUS
10
46.9092
20
-73.8571
11
47.2661
21
-73.9527
0
LINE
8
BLACK
6
CONTINUOUS
10
47.2661
20
-73.9527
11
47.631
21
-74.0105
0
LINE
8
BLACK
6
CONTINUOUS
10
47.631
20
-74.0105
11
48
21
-74.0298
0
LINE
8
BLACK
6
CONTINUOUS
10
48
20
-74.0298
11
48.369
21
-74.0105
0
LINE
8
BLACK
6
CONTINUOUS
10
48.369
20
-74.0105
11
48.7339
21
-73.9527
0
LINE
8
BLACK
6
CONTINUOUS
10
48.7339
20
-73.9527
11
49.0908
21
-73.8571
0
LINE
8
BLACK
6
CONTINUOUS
10
49.0908
20
-73.8571
11
49.4357
21
-73.7247
0
LINE
8
BLACK
6
CONTINUOUS
10
49.4357
20
-73.7247
11
49.7649
21
-73.5569
0
LINE
8
BLACK
6
CONTINUOUS
10
49.7649
20
-73.5569
11
50.0748
21
-73.3557
0
LINE
8
BLACK
6
CONTINUOUS
10
50.0748
20
-73.3557
11
50.3619
21
-73.1232
0
LINE
8
BLACK
6
CONTINUOUS
10
50.3619
20
-73.1232
11
50.6232
21
-72.8619
0
LINE
8
BLACK
6
CONTINUOUS
10
50.6232
20
-72.8619
11
50.8557
21
-72.5748
0
LINE
8
BLACK
6
CONTINUOUS
10
50.8557
20
-72.5748
11
51.0569
21
-72.2649
0
LINE
8
BLACK
6
CONTINUOUS
10
51.0569
20
-72.2649
11
51.2247
21
-71.9357
0
LINE
8
BLACK
6
CONTINUOUS
10
51.2247
20
-71.9357
11
51.3571
21
-71.5908
0
LINE
8
BLACK
6
CONTINUOUS
10
51.3571
20
-71.5908
11
51.4527
21
-71.2339
0
LINE
8
BLACK
6
CONTINUOUS
10
51.4527
20
-71.2339
11
51.5105
21
-70.869
0
LINE
8
BLACK
6
CONTINUOUS
10
51.5105
20
-70.869
11
51.5298
21
-70.5
0
LINE
8
BLACK
6
CONTINUOUS
10
51.5298
20
-70.5
11
51.5105
21
-70.131
0
LINE
8
BLACK
6
CONTINUOUS
10
51.5105
20
-70.131
11
51.4527
21
-69.7661
0
LINE
8
BLACK
6
CONTINUOUS
10
51.4527
20
-69.7661
11
51.3571
21
-69.4092
0
LINE
8
BLACK
6
CONTINUOUS
10
51.3571
20
-69.4092
11
51.2247
21
-69.0643
0
LINE
8
BLACK
6
CONTINUOUS
10
51.2247
20
-69.0643
11
51.0569
21
-68.7351
0
LINE
8
BLACK
6
CONTINUOUS
10
51.0569
20
-68.7351
11
50.8557
21
-68.4252
0
LINE
8
BLACK
6
CONTINUOUS
10
50.8557
20
-68.4252
11
50.6232
21
-68.1381
0
LINE
8
BLACK
6
CONTINUOUS
10
50.6232
20
-68.1381
11
50.3619
21
-67.8768
0
LINE
8
BLACK
6
CONTINUOUS
10
50.3619
20
-67.8768
11
50.0748
21
-67.6443
0
LINE
8
BLACK
6
CONTINUOUS
10
50.0748
20
-67.6443
11
49.7649
21
-67.4431
0
LINE
8
BLACK
6
CONTINUOUS
10
49.7649
20
-67.4431
11
49.4357
21
-67.2753
0
LINE
8
BLACK
6
CONTINUOUS
10
49.4357
20
-67.2753
11
49.0908
21
-67.1429
0
LINE
8
BLACK
6
CONTINUOUS
10
49.0908
20
-67.1429
11
48.7339
21
-67.0473
0
LINE
8
BLACK
6
CONTINUOUS
10
48.7339
20
-67.0473
11
48.369
21
-66.9895
0
LINE
8
BLACK
6
CONTINUOUS
10
48.369
20
-66.9895
11
48
21
-66.9702
0
LINE
8
BLACK
6
CONTINUOUS
10
48
20
-66.9702
11
47.631
21
-66.9895
0
LINE
8
BLACK
6
CONTINUOUS
10
47.631
20
-66.9895
11
47.2661
21
-67.0473
0
LINE
8
BLACK
6
CONTINUOUS
10
47.2661
20
-67.0473
11
46.9092
21
-67.1429
0
LINE
8
BLACK
6
CONTINUOUS
10
46.9092
20
-67.1429
11
46.5643
21
-67.2753
0
LINE
8
BLACK
6
CONTINUOUS
10
46.5643
20
-67.2753
11
46.2351
21
-67.4431
0
LINE
8
BLACK
6
CONTINUOUS
10
46.2351
20
-67.4431
11
45.9252
21
-67.6443
0
LINE
8
BLACK
6
CONTINUOUS
10
45.9252
20
-67.6443
11
45.6381
21
-67.8768
0
LINE
8
BLACK
6
CONTINUOUS
10
45.6381
20
-67.8768
11
45.3768
21
-68.1381
0
LINE
8
BLACK
6
CONTINUOUS
10
45.3768
20
-68.1381
11
45.1443
21
-68.4252
0
LINE
8
BLACK
6
CONTINUOUS
10
45.1443
20
-68.4252
11
44.9431
21
-68.7351
0
LINE
8
BLACK
6
CONTINUOUS
10
44.9431
20
-68.7351
11
44.7753
21
-69.0643
0
LINE
8
BLACK
6
CONTINUOUS
10
44.7753
20
-69.0643
11
44.6429
21
-69.4092
0
LINE
8
BLACK
6
CONTINUOUS
10
44.6429
20
-69.4092
11
44.5473
21
-69.7661
0
LINE
8
BLACK
6
CONTINUOUS
10
44.5473
20
-69.7661
11
44.4895
21
-70.131
0
LINE
8
BLACK
6
CONTINUOUS
10
44.4895
20
-70.131
11
44.4702
21
-70.5
0
LINE
8
BLACK
6
CONTINUOUS
10
44.4702
20
-70.5
11
44.4895
21
-70.869
0
LINE
8
BLACK
6
CONTINUOUS
10
44.4895
20
-70.869
11
44.5473
21
-71.2339
0
LINE
8
BLACK
6
CONTINUOUS
10
18.4053
20
-69.7359
11
18.5049
21
-69.3644
0
LINE
8
BLACK
6
CONTINUOUS
10
18.5049
20
-69.3644
11
18.6427
21
-69.0052
0
LINE
8
BLACK
6
CONTINUOUS
10
18.6427
20
-69.0052
11
18.8174
21
-68.6625
0
LINE
8
BLACK
6
CONTINUOUS
10
18.8174
20
-68.6625
11
19.0269
21
-68.3399
0
LINE
8
BLACK
6
CONTINUOUS
10
19.0269
20
-68.3399
11
19.2689
21
-68.0409
0
LINE
8
BLACK
6
CONTINUOUS
10
19.2689
20
-68.0409
11
19.5409
21
-67.7689
0
LINE
8
BLACK
6
CONTINUOUS
10
19.5409
20
-67.7689
11
19.8399
21
-67.5269
0
LINE
8
BLACK
6
CONTINUOUS
10
19.8399
20
-67.5269
11
20.1625
21
-67.3174
0
LINE
8
BLACK
6
CONTINUOUS
10
20.1625
20
-67.3174
11
20.5052
21
-67.1427
0
LINE
8
BLACK
6
CONTINUOUS
10
20.5052
20
-67.1427
11
20.8644
21
-67.0049
0
LINE
8
BLACK
6
CONTINUOUS
10
20.8644
20
-67.0049
11
21.2359
21
-66.9053
0
LINE
8
BLACK
6
CONTINUOUS
10
21.2359
20
-66.9053
11
21.6159
21
-66.8451
0
LINE
8
BLACK
6
CONTINUOUS
10
21.6159
20
-66.8451
11
22
21
-66.825
0
LINE
8
BLACK
6
CONTINUOUS
10
22
20
-66.825
11
22.3841
21
-66.8451
0
LINE
8
BLACK
6
CONTINUOUS
10
22.3841
20
-66.8451
11
22.7641
21
-66.9053
0
LINE
8
BLACK
6
CONTINUOUS
10
22.7641
20
-66.9053
11
23.1356
21
-67.0049
0
LINE
8
BLACK
6
CONTINUOUS
10
23.1356
20
-67.0049
11
23.4948
21
-67.1427
0
LINE
8
BLACK
6
CONTINUOUS
10
23.4948
20
-67.1427
11
23.8375
21
-67.3174
0
LINE
8
BLACK
6
CONTINUOUS
10
23.8375
20
-67.3174
11
24.1601
21
-67.5269
0
LINE
8
BLACK
6
CONTINUOUS
10
24.1601
20
-67.5269
11
24.4591
21
-67.7689
0
LINE
8
BLACK
6
CONTINUOUS
10
24.4591
20
-67.7689
11
24.7311
21
-68.0409
0
LINE
8
BLACK
6
CONTINUOUS
10
24.7311
20
-68.0409
11
24.9731
21
-68.3399
0
LINE
8
BLACK
6
CONTINUOUS
10
24.9731
20
-68.3399
11
25.1826
21
-68.6625
0
LINE
8
BLACK
6
CONTINUOUS
10
25.1826
20
-68.6625
11
25.3573
21
-69.0052
0
LINE
8
BLACK
6
CONTINUOUS
10
25.3573
20
-69.0052
11
25.4951
21
-69.3644
0
LINE
8
BLACK
6
CONTINUOUS
10
25.4951
20
-69.3644
11
25.5947
21
-69.7359
0
LINE
8
BLACK
6
CONTINUOUS
10
25.5947
20
-69.7359
11
25.6549
21
-70.1159
0
LINE
8
BLACK
6
CONTINUOUS
10
25.6549
20
-70.1159
11
25.675
21
-70.5
0
LINE
8
BLACK
6
CONTINUOUS
10
25.675
20
-70.5
11
25.6549
21
-70.8841
0
LINE
8
BLACK
6
CONTINUOUS
10
25.6549
20
-70.8841
11
25.5947
21
-71.2641
0
LINE
8
BLACK
6
CONTINUOUS
10
25.5947
20
-71.2641
11
25.4951
21
-71.6356
0
LINE
8
BLACK
6
CONTINUOUS
10
25.4951
20
-71.6356
11
25.3573
21
-71.9948
0
LINE
8
BLACK
6
CONTINUOUS
10
25.3573
20
-71.9948
11
25.1826
21
-72.3375
0
LINE
8
BLACK
6
CONTINUOUS
10
25.1826
20
-72.3375
11
24.9731
21
-72.6601
0
LINE
8
BLACK
6
CONTINUOUS
10
24.9731
20
-72.6601
11
24.7311
21
-72.9591
0
LINE
8
BLACK
6
CONTINUOUS
10
24.7311
20
-72.9591
11
24.4591
21
-73.2311
0
LINE
8
BLACK
6
CONTINUOUS
10
24.4591
20
-73.2311
11
24.1601
21
-73.4731
0
LINE
8
BLACK
6
CONTINUOUS
10
24.1601
20
-73.4731
11
23.8375
21
-73.6826
0
LINE
8
BLACK
6
CONTINUOUS
10
23.8375
20
-73.6826
11
23.4948
21
-73.8573
0
LINE
8
BLACK
6
CONTINUOUS
10
23.4948
20
-73.8573
11
23.1356
21
-73.9951
0
LINE
8
BLACK
6
CONTINUOUS
10
23.1356
20
-73.9951
11
22.7641
21
-74.0947
0
LINE
8
BLACK
6
CONTINUOUS
10
22.7641
20
-74.0947
11
22.3841
21
-74.1549
0
LINE
8
BLACK
6
CONTINUOUS
10
22.3841
20
-74.1549
11
22
21
-74.175
0
LINE
8
BLACK
6
CONTINUOUS
10
22
20
-74.175
11
21.6159
21
-74.1549
0
LINE
8
BLACK
6
CONTINUOUS
10
21.6159
20
-74.1549
11
21.2359
21
-74.0947
0
LINE
8
BLACK
6
CONTINUOUS
10
21.2359
20
-74.0947
11
20.8644
21
-73.9951
0
LINE
8
BLACK
6
CONTINUOUS
10
20.8644
20
-73.9951
11
20.5052
21
-73.8573
0
LINE
8
BLACK
6
CONTINUOUS
10
20.5052
20
-73.8573
11
20.1625
21
-73.6826
0
LINE
8
BLACK
6
CONTINUOUS
10
20.1625
20
-73.6826
11
19.8399
21
-73.4731
0
LINE
8
BLACK
6
CONTINUOUS
10
19.8399
20
-73.4731
11
19.5409
21
-73.2311
0
LINE
8
BLACK
6
CONTINUOUS
10
19.5409
20
-73.2311
11
19.2689
21
-72.9591
0
LINE
8
BLACK
6
CONTINUOUS
10
19.2689
20
-72.9591
11
19.0269
21
-72.6601
0
LINE
8
BLACK
6
CONTINUOUS
10
19.0269
20
-72.6601
11
18.8174
21
-72.3375
0
LINE
8
BLACK
6
CONTINUOUS
10
18.8174
20
-72.3375
11
18.6427
21
-71.9948
0
LINE
8
BLACK
6
CONTINUOUS
10
18.6427
20
-71.9948
11
18.5049
21
-71.6356
0
LINE
8
BLACK
6
CONTINUOUS
10
18.5049
20
-71.6356
11
18.4053
21
-71.2641
0
LINE
8
BLACK
6
CONTINUOUS
10
18.4053
20
-71.2641
11
18.3451
21
-70.8841
0
LINE
8
BLACK
6
CONTINUOUS
10
18.3451
20
-70.8841
11
18.325
21
-70.5
0
LINE
8
BLACK
6
CONTINUOUS
10
18.325
20
-70.5
11
18.3451
21
-70.1159
0
LINE
8
BLACK
6
CONTINUOUS
10
18.3451
20
-70.1159
11
18.4053
21
-69.7359
0
LINE
8
BLACK
6
CONTINUOUS
10
18.5473
20
-71.2339
11
18.6429
21
-71.5908
0
LINE
8
BLACK
6
CONTINUOUS
10
18.6429
20
-71.5908
11
18.7753
21
-71.9357
0
LINE
8
BLACK
6
CONTINUOUS
10
18.7753
20
-71.9357
11
18.9431
21
-72.2649
0
LINE
8
BLACK
6
CONTINUOUS
10
18.9431
20
-72.2649
11
19.1443
21
-72.5748
0
LINE
8
BLACK
6
CONTINUOUS
10
19.1443
20
-72.5748
11
19.3768
21
-72.8619
0
LINE
8
BLACK
6
CONTINUOUS
10
19.3768
20
-72.8619
11
19.6381
21
-73.1232
0
LINE
8
BLACK
6
CONTINUOUS
10
19.6381
20
-73.1232
11
19.9252
21
-73.3557
0
LINE
8
BLACK
6
CONTINUOUS
10
19.9252
20
-73.3557
11
20.2351
21
-73.5569
0
LINE
8
BLACK
6
CONTINUOUS
10
20.2351
20
-73.5569
11
20.5643
21
-73.7247
0
LINE
8
BLACK
6
CONTINUOUS
10
20.5643
20
-73.7247
11
20.9092
21
-73.8571
0
LINE
8
BLACK
6
CONTINUOUS
10
20.9092
20
-73.8571
11
21.2661
21
-73.9527
0
LINE
8
BLACK
6
CONTINUOUS
10
21.2661
20
-73.9527
11
21.631
21
-74.0105
0
LINE
8
BLACK
6
CONTINUOUS
10
21.631
20
-74.0105
11
22
21
-74.0298
0
LINE
8
BLACK
6
CONTINUOUS
10
22
20
-74.0298
11
22.369
21
-74.0105
0
LINE
8
BLACK
6
CONTINUOUS
10
22.369
20
-74.0105
11
22.7339
21
-73.9527
0
LINE
8
BLACK
6
CONTINUOUS
10
22.7339
20
-73.9527
11
23.0908
21
-73.8571
0
LINE
8
BLACK
6
CONTINUOUS
10
23.0908
20
-73.8571
11
23.4357
21
-73.7247
0
LINE
8
BLACK
6
CONTINUOUS
10
23.4357
20
-73.7247
11
23.7649
21
-73.5569
0
LINE
8
BLACK
6
CONTINUOUS
10
23.7649
20
-73.5569
11
24.0748
21
-73.3557
0
LINE
8
BLACK
6
CONTINUOUS
10
24.0748
20
-73.3557
11
24.3619
21
-73.1232
0
LINE
8
BLACK
6
CONTINUOUS
10
24.3619
20
-73.1232
11
24.6232
21
-72.8619
0
LINE
8
BLACK
6
CONTINUOUS
10
24.6232
20
-72.8619
11
24.8557
21
-72.5748
0
LINE
8
BLACK
6
CONTINUOUS
10
24.8557
20
-72.5748
11
25.0569
21
-72.2649
0
LINE
8
BLACK
6
CONTINUOUS
10
25.0569
20
-72.2649
11
25.2247
21
-71.9357
0
LINE
8
BLACK
6
CONTINUOUS
10
25.2247
20
-71.9357
11
25.3571
21
-71.5908
0
LINE
8
BLACK
6
CONTINUOUS
10
25.3571
20
-71.5908
11
25.4527
21
-71.2339
0
LINE
8
BLACK
6
CONTINUOUS
10
25.4527
20
-71.2339
11
25.5105
21
-70.869
0
LINE
8
BLACK
6
CONTINUOUS
10
25.5105
20
-70.869
11
25.5298
21
-70.5
0
LINE
8
BLACK
6
CONTINUOUS
10
25.5298
20
-70.5
11
25.5105
21
-70.131
0
LINE
8
BLACK
6
CONTINUOUS
10
25.5105
20
-70.131
11
25.4527
21
-69.7661
0
LINE
8
BLACK
6
CONTINUOUS
10
25.4527
20
-69.7661
11
25.3571
21
-69.4092
0
LINE
8
BLACK
6
CONTINUOUS
10
25.3571
20
-69.4092
11
25.2247
21
-69.0643
0
LINE
8
BLACK
6
CONTINUOUS
10
25.2247
20
-69.0643
11
25.0569
21
-68.7351
0
LINE
8
BLACK
6
CONTINUOUS
10
25.0569
20
-68.7351
11
24.8557
21
-68.4252
0
LINE
8
BLACK
6
CONTINUOUS
10
24.8557
20
-68.4252
11
24.6232
21
-68.1381
0
LINE
8
BLACK
6
CONTINUOUS
10
24.6232
20
-68.1381
11
24.3619
21
-67.8768
0
LINE
8
BLACK
6
CONTINUOUS
10
24.3619
20
-67.8768
11
24.0748
21
-67.6443
0
LINE
8
BLACK
6
CONTINUOUS
10
24.0748
20
-67.6443
11
23.7649
21
-67.4431
0
LINE
8
BLACK
6
CONTINUOUS
10
23.7649
20
-67.4431
11
23.4357
21
-67.2753
0
LINE
8
BLACK
6
CONTINUOUS
10
23.4357
20
-67.2753
11
23.0908
21
-67.1429
0
LINE
8
BLACK
6
CONTINUOUS
10
23.0908
20
-67.1429
11
22.7339
21
-67.0473
0
LINE
8
BLACK
6
CONTINUOUS
10
22.7339
20
-67.0473
11
22.369
21
-66.9895
0
LINE
8
BLACK
6
CONTINUOUS
10
22.369
20
-66.9895
11
22
21
-66.9702
0
LINE
8
BLACK
6
CONTINUOUS
10
22
20
-66.9702
11
21.631
21
-66.9895
0
LINE
8
BLACK
6
CONTINUOUS
10
21.631
20
-66.9895
11
21.2661
21
-67.0473
0
LINE
8
BLACK
6
CONTINUOUS
10
21.2661
20
-67.0473
11
20.9092
21
-67.1429
0
LINE
8
BLACK
6
CONTINUOUS
10
20.9092
20
-67.1429
11
20.5643
21
-67.2753
0
LINE
8
BLACK
6
CONTINUOUS
10
20.5643
20
-67.2753
11
20.2351
21
-67.4431
0
LINE
8
BLACK
6
CONTINUOUS
10
20.2351
20
-67.4431
11
19.9252
21
-67.6443
0
LINE
8
BLACK
6
CONTINUOUS
10
19.9252
20
-67.6443
11
19.6381
21
-67.8768
0
LINE
8
BLACK
6
CONTINUOUS
10
19.6381
20
-67.8768
11
19.3768
21
-68.1381
0
LINE
8
BLACK
6
CONTINUOUS
10
19.3768
20
-68.1381
11
19.1443
21
-68.4252
0
LINE
8
BLACK
6
CONTINUOUS
10
19.1443
20
-68.4252
11
18.9431
21
-68.7351
0
LINE
8
BLACK
6
CONTINUOUS
10
18.9431
20
-68.7351
11
18.7753
21
-69.0643
0
LINE
8
BLACK
6
CONTINUOUS
10
18.7753
20
-69.0643
11
18.6429
21
-69.4092
0
LINE
8
BLACK
6
CONTINUOUS
10
18.6429
20
-69.4092
11
18.5473
21
-69.7661
0
LINE
8
BLACK
6
CONTINUOUS
10
18.5473
20
-69.7661
11
18.4895
21
-70.131
0
LINE
8
BLACK
6
CONTINUOUS
10
18.4895
20
-70.131
11
18.4702
21
-70.5
0
LINE
8
BLACK
6
CONTINUOUS
10
18.4702
20
-70.5
11
18.4895
21
-70.869
0
LINE
8
BLACK
6
CONTINUOUS
10
18.4895
20
-70.869
11
18.5473
21
-71.2339
0
LINE
8
BLACK
6
CONTINUOUS
10
60.85
20
-70.1021
11
60.914
21
-69.7534
0
LINE
8
BLACK
6
CONTINUOUS
10
60.914
20
-69.7534
11
61.0165
21
-69.4141
0
LINE
8
BLACK
6
CONTINUOUS
10
61.0165
20
-69.4141
11
61.1561
21
-69.0883
0
LINE
8
BLACK
6
CONTINUOUS
10
61.1561
20
-69.0883
11
61.3312
21
-68.7801
0
LINE
8
BLACK
6
CONTINUOUS
10
61.3312
20
-68.7801
11
61.5396
21
-68.4933
0
LINE
8
BLACK
6
CONTINUOUS
10
61.5396
20
-68.4933
11
61.7786
21
-68.2315
0
LINE
8
BLACK
6
CONTINUOUS
10
61.7786
20
-68.2315
11
62.0453
21
-67.9981
0
LINE
8
BLACK
6
CONTINUOUS
10
62.0453
20
-67.9981
11
62.3363
21
-67.7958
0
LINE
8
BLACK
6
CONTINUOUS
10
62.3363
20
-67.7958
11
62.6482
21
-67.6272
0
LINE
8
BLACK
6
CONTINUOUS
10
62.6482
20
-67.6272
11
62.9768
21
-67.4944
0
LINE
8
BLACK
6
CONTINUOUS
10
62.9768
20
-67.4944
11
63.3182
21
-67.3991
0
LINE
8
BLACK
6
CONTINUOUS
10
63.3182
20
-67.3991
11
63.6681
21
-67.3424
0
LINE
8
BLACK
6
CONTINUOUS
10
63.6681
20
-67.3424
11
64.0222
21
-67.3251
0
LINE
8
BLACK
6
CONTINUOUS
10
64.0222
20
-67.3251
11
64.3759
21
-67.3473
0
LINE
8
BLACK
6
CONTINUOUS
10
64.3759
20
-67.3473
11
64.725
21
-67.4089
0
LINE
8
BLACK
6
CONTINUOUS
10
64.725
20
-67.4089
11
65.0651
21
-67.509
0
LINE
8
BLACK
6
CONTINUOUS
10
65.0651
20
-67.509
11
65.3918
21
-67.6463
0
LINE
8
BLACK
6
CONTINUOUS
10
65.3918
20
-67.6463
11
65.7013
21
-67.8193
0
LINE
8
BLACK
6
CONTINUOUS
10
65.7013
20
-67.8193
11
65.9895
21
-68.0256
0
LINE
8
BLACK
6
CONTINUOUS
10
65.9895
20
-68.0256
11
66.2529
21
-68.2628
0
LINE
8
BLACK
6
CONTINUOUS
10
66.2529
20
-68.2628
11
66.4882
21
-68.5279
0
LINE
8
BLACK
6
CONTINUOUS
10
66.4882
20
-68.5279
11
66.6926
21
-68.8175
0
LINE
8
BLACK
6
CONTINUOUS
10
66.6926
20
-68.8175
11
66.8633
21
-69.1281
0
LINE
8
BLACK
6
CONTINUOUS
10
66.8633
20
-69.1281
11
66.9984
21
-69.4558
0
LINE
8
BLACK
6
CONTINUOUS
10
66.9984
20
-69.4558
11
67.0961
21
-69.7966
0
LINE
8
BLACK
6
CONTINUOUS
10
67.0961
20
-69.7966
11
67.1552
21
-70.1461
0
LINE
8
BLACK
6
CONTINUOUS
10
67.1552
20
-70.1461
11
67.175
21
-70.5
0
LINE
8
BLACK
6
CONTINUOUS
10
67.175
20
-70.5
11
67.1738
21
-70.5887
0
LINE
8
BLACK
6
CONTINUOUS
10
67.1738
20
-70.5887
11
67.1441
21
-70.9419
0
LINE
8
BLACK
6
CONTINUOUS
10
67.1441
20
-70.9419
11
67.0753
21
-71.2896
0
LINE
8
BLACK
6
CONTINUOUS
10
67.0753
20
-71.2896
11
66.9681
21
-71.6275
0
LINE
8
BLACK
6
CONTINUOUS
10
66.9681
20
-71.6275
11
66.8239
21
-71.9513
0
LINE
8
BLACK
6
CONTINUOUS
10
66.8239
20
-71.9513
11
66.6445
21
-72.257
0
LINE
8
BLACK
6
CONTINUOUS
10
66.6445
20
-72.257
11
66.4322
21
-72.5409
0
LINE
8
BLACK
6
CONTINUOUS
10
66.4322
20
-72.5409
11
66.1895
21
-72.7992
0
LINE
8
BLACK
6
CONTINUOUS
10
66.1895
20
-72.7992
11
65.9196
21
-73.029
0
LINE
8
BLACK
6
CONTINUOUS
10
65.9196
20
-73.029
11
65.6257
21
-73.2272
0
LINE
8
BLACK
6
CONTINUOUS
10
65.6257
20
-73.2272
11
65.3116
21
-73.3914
0
LINE
8
BLACK
6
CONTINUOUS
10
65.3116
20
-73.3914
11
64.9811
21
-73.5196
0
LINE
8
BLACK
6
CONTINUOUS
10
64.9811
20
-73.5196
11
64.6384
21
-73.6102
0
LINE
8
BLACK
6
CONTINUOUS
10
64.6384
20
-73.6102
11
64.2878
21
-73.6619
0
LINE
8
BLACK
6
CONTINUOUS
10
64.2878
20
-73.6619
11
63.9335
21
-73.6743
0
LINE
8
BLACK
6
CONTINUOUS
10
63.9335
20
-73.6743
11
63.5801
21
-73.6471
0
LINE
8
BLACK
6
CONTINUOUS
10
63.5801
20
-73.6471
11
63.2319
21
-73.5807
0
LINE
8
BLACK
6
CONTINUOUS
10
63.2319
20
-73.5807
11
62.8933
21
-73.4759
0
LINE
8
BLACK
6
CONTINUOUS
10
62.8933
20
-73.4759
11
62.5685
21
-73.334
0
LINE
8
BLACK
6
CONTINUOUS
10
62.5685
20
-73.334
11
62.2615
21
-73.1567
0
LINE
8
BLACK
6
CONTINUOUS
10
62.2615
20
-73.1567
11
61.9762
21
-72.9464
0
LINE
8
BLACK
6
CONTINUOUS
10
61.9762
20
-72.9464
11
61.7161
21
-72.7055
0
LINE
8
BLACK
6
CONTINUOUS
10
61.7161
20
-72.7055
11
61.4845
21
-72.4372
0
LINE
8
BLACK
6
CONTINUOUS
10
61.4845
20
-72.4372
11
61.2842
21
-72.1447
0
LINE
8
BLACK
6
CONTINUOUS
10
61.2842
20
-72.1447
11
61.1178
21
-71.8318
0
LINE
8
BLACK
6
CONTINUOUS
10
61.1178
20
-71.8318
11
60.9873
21
-71.5022
0
LINE
8
BLACK
6
CONTINUOUS
10
60.9873
20
-71.5022
11
60.8944
21
-71.1601
0
LINE
8
BLACK
6
CONTINUOUS
10
60.8944
20
-71.1601
11
60.8402
21
-70.8098
0
LINE
8
BLACK
6
CONTINUOUS
10
60.8402
20
-70.8098
11
60.8254
21
-70.4577
0
LINE
8
BLACK
6
CONTINUOUS
10
60.8254
20
-70.4577
11
60.8253
21
-70.4557
0
LINE
8
BLACK
6
CONTINUOUS
10
60.8253
20
-70.4557
11
60.85
21
-70.1021
0
LINE
8
BLACK
6
CONTINUOUS
10
61.0364
20
-71.1299
11
61.1251
21
-71.4563
0
LINE
8
BLACK
6
CONTINUOUS
10
61.1251
20
-71.4563
11
61.2496
21
-71.7708
0
LINE
8
BLACK
6
CONTINUOUS
10
61.2496
20
-71.7708
11
61.4084
21
-72.0695
0
LINE
8
BLACK
6
CONTINUOUS
10
61.4084
20
-72.0695
11
61.5995
21
-72.3486
0
LINE
8
BLACK
6
CONTINUOUS
10
61.5995
20
-72.3486
11
61.8206
21
-72.6047
0
LINE
8
BLACK
6
CONTINUOUS
10
61.8206
20
-72.6047
11
62.0688
21
-72.8345
0
LINE
8
BLACK
6
CONTINUOUS
10
62.0688
20
-72.8345
11
62.341
21
-73.0352
0
LINE
8
BLACK
6
CONTINUOUS
10
62.341
20
-73.0352
11
62.6339
21
-73.2043
0
LINE
8
BLACK
6
CONTINUOUS
10
62.6339
20
-73.2043
11
62.9439
21
-73.3397
0
LINE
8
BLACK
6
CONTINUOUS
10
62.9439
20
-73.3397
11
63.267
21
-73.4398
0
LINE
8
BLACK
6
CONTINUOUS
10
63.267
20
-73.4398
11
63.5993
21
-73.5032
0
LINE
8
BLACK
6
CONTINUOUS
10
63.5993
20
-73.5032
11
63.9365
21
-73.5291
0
LINE
8
BLACK
6
CONTINUOUS
10
63.9365
20
-73.5291
11
64.2746
21
-73.5173
0
LINE
8
BLACK
6
CONTINUOUS
10
64.2746
20
-73.5173
11
64.6092
21
-73.4679
0
LINE
8
BLACK
6
CONTINUOUS
10
64.6092
20
-73.4679
11
64.9362
21
-73.3815
0
LINE
8
BLACK
6
CONTINUOUS
10
64.9362
20
-73.3815
11
65.2516
21
-73.2592
0
LINE
8
BLACK
6
CONTINUOUS
10
65.2516
20
-73.2592
11
65.5514
21
-73.1024
0
LINE
8
BLACK
6
CONTINUOUS
10
65.5514
20
-73.1024
11
65.8318
21
-72.9133
0
LINE
8
BLACK
6
CONTINUOUS
10
65.8318
20
-72.9133
11
66.0894
21
-72.6941
0
LINE
8
BLACK
6
CONTINUOUS
10
66.0894
20
-72.6941
11
66.3209
21
-72.4475
0
LINE
8
BLACK
6
CONTINUOUS
10
66.3209
20
-72.4475
11
66.5236
21
-72.1766
0
LINE
8
BLACK
6
CONTINUOUS
10
66.5236
20
-72.1766
11
66.6947
21
-71.8849
0
LINE
8
BLACK
6
CONTINUOUS
10
66.6947
20
-71.8849
11
66.8323
21
-71.5759
0
LINE
8
BLACK
6
CONTINUOUS
10
66.8323
20
-71.5759
11
66.9346
21
-71.2535
0
LINE
8
BLACK
6
CONTINUOUS
10
66.9346
20
-71.2535
11
67.0003
21
-70.9217
0
LINE
8
BLACK
6
CONTINUOUS
10
67.0003
20
-70.9217
11
67.0286
21
-70.5846
0
LINE
8
BLACK
6
CONTINUOUS
10
67.0286
20
-70.5846
11
67.0298
21
-70.5
0
LINE
8
BLACK
6
CONTINUOUS
10
67.0298
20
-70.5
11
67.0109
21
-70.1623
0
LINE
8
BLACK
6
CONTINUOUS
10
67.0109
20
-70.1623
11
66.9545
21
-69.8288
0
LINE
8
BLACK
6
CONTINUOUS
10
66.9545
20
-69.8288
11
66.8612
21
-69.5036
0
LINE
8
BLACK
6
CONTINUOUS
10
66.8612
20
-69.5036
11
66.7323
21
-69.1909
0
LINE
8
BLACK
6
CONTINUOUS
10
66.7323
20
-69.1909
11
66.5694
21
-68.8945
0
LINE
8
BLACK
6
CONTINUOUS
10
66.5694
20
-68.8945
11
66.3744
21
-68.6181
0
LINE
8
BLACK
6
CONTINUOUS
10
66.3744
20
-68.6181
11
66.1498
21
-68.3651
0
LINE
8
BLACK
6
CONTINUOUS
10
66.1498
20
-68.3651
11
65.8985
21
-68.1388
0
LINE
8
BLACK
6
CONTINUOUS
10
65.8985
20
-68.1388
11
65.6234
21
-67.9419
0
LINE
8
BLACK
6
CONTINUOUS
10
65.6234
20
-67.9419
11
65.3282
21
-67.7769
0
LINE
8
BLACK
6
CONTINUOUS
10
65.3282
20
-67.7769
11
65.0163
21
-67.6458
0
LINE
8
BLACK
6
CONTINUOUS
10
65.0163
20
-67.6458
11
64.6919
21
-67.5503
0
LINE
8
BLACK
6
CONTINUOUS
10
64.6919
20
-67.5503
11
64.3587
21
-67.4915
0
LINE
8
BLACK
6
CONTINUOUS
10
64.3587
20
-67.4915
11
64.0212
21
-67.4703
0
LINE
8
BLACK
6
CONTINUOUS
10
64.0212
20
-67.4703
11
63.6833
21
-67.4868
0
LINE
8
BLACK
6
CONTINUOUS
10
63.6833
20
-67.4868
11
63.3494
21
-67.5409
0
LINE
8
BLACK
6
CONTINUOUS
10
63.3494
20
-67.5409
11
63.0236
21
-67.6319
0
LINE
8
BLACK
6
CONTINUOUS
10
63.0236
20
-67.6319
11
62.71
21
-67.7586
0
LINE
8
BLACK
6
CONTINUOUS
10
62.71
20
-67.7586
11
62.4124
21
-67.9195
0
LINE
8
BLACK
6
CONTINUOUS
10
62.4124
20
-67.9195
11
62.1347
21
-68.1125
0
LINE
8
BLACK
6
CONTINUOUS
10
62.1347
20
-68.1125
11
61.8802
21
-68.3353
0
LINE
8
BLACK
6
CONTINUOUS
10
61.8802
20
-68.3353
11
61.6521
21
-68.5851
0
LINE
8
BLACK
6
CONTINUOUS
10
61.6521
20
-68.5851
11
61.4533
21
-68.8588
0
LINE
8
BLACK
6
CONTINUOUS
10
61.4533
20
-68.8588
11
61.2862
21
-69.1529
0
LINE
8
BLACK
6
CONTINUOUS
10
61.2862
20
-69.1529
11
61.153
21
-69.4638
0
LINE
8
BLACK
6
CONTINUOUS
10
61.153
20
-69.4638
11
61.0552
21
-69.7876
0
LINE
8
BLACK
6
CONTINUOUS
10
61.0552
20
-69.7876
11
60.9941
21
-70.1203
0
LINE
8
BLACK
6
CONTINUOUS
10
60.9941
20
-70.1203
11
60.9705
21
-70.4577
0
LINE
8
BLACK
6
CONTINUOUS
10
60.9705
20
-70.4577
11
60.9847
21
-70.7957
0
LINE
8
BLACK
6
CONTINUOUS
10
60.9847
20
-70.7957
11
61.0364
21
-71.1299
0
LINE
8
BLACK
6
CONTINUOUS
10
2.85004
20
-49.6021
11
2.91402
21
-49.2534
0
LINE
8
BLACK
6
CONTINUOUS
10
2.91402
20
-49.2534
11
3.01648
21
-48.9141
0
LINE
8
BLACK
6
CONTINUOUS
10
3.01648
20
-48.9141
11
3.15611
21
-48.5883
0
LINE
8
BLACK
6
CONTINUOUS
10
3.15611
20
-48.5883
11
3.3312
21
-48.2801
0
LINE
8
BLACK
6
CONTINUOUS
10
3.3312
20
-48.2801
11
3.53955
21
-47.9933
0
LINE
8
BLACK
6
CONTINUOUS
10
3.53955
20
-47.9933
11
3.77857
21
-47.7315
0
LINE
8
BLACK
6
CONTINUOUS
10
3.77857
20
-47.7315
11
4.04528
21
-47.4981
0
LINE
8
BLACK
6
CONTINUOUS
10
4.04528
20
-47.4981
11
4.33634
21
-47.2958
0
LINE
8
BLACK
6
CONTINUOUS
10
4.33634
20
-47.2958
11
4.64815
21
-47.1272
0
LINE
8
BLACK
6
CONTINUOUS
10
4.64815
20
-47.1272
11
4.97681
21
-46.9944
0
LINE
8
BLACK
6
CONTINUOUS
10
4.97681
20
-46.9944
11
5.31821
21
-46.8991
0
LINE
8
BLACK
6
CONTINUOUS
10
5.31821
20
-46.8991
11
5.66812
21
-46.8424
0
LINE
8
BLACK
6
CONTINUOUS
10
5.66812
20
-46.8424
11
6.02217
21
-46.8251
0
LINE
8
BLACK
6
CONTINUOUS
10
6.02217
20
-46.8251
11
6.37593
21
-46.8473
0
LINE
8
BLACK
6
CONTINUOUS
10
6.37593
20
-46.8473
11
6.72501
21
-46.9089
0
LINE
8
BLACK
6
CONTINUOUS
10
6.72501
20
-46.9089
11
7.06506
21
-47.009
0
LINE
8
BLACK
6
CONTINUOUS
10
7.06506
20
-47.009
11
7.39183
21
-47.1463
0
LINE
8
BLACK
6
CONTINUOUS
10
7.39183
20
-47.1463
11
7.70125
21
-47.3193
0
LINE
8
BLACK
6
CONTINUOUS
10
7.70125
20
-47.3193
11
7.98947
21
-47.5256
0
LINE
8
BLACK
6
CONTINUOUS
10
7.98947
20
-47.5256
11
8.25289
21
-47.7628
0
LINE
8
BLACK
6
CONTINUOUS
10
8.25289
20
-47.7628
11
8.48823
21
-48.0279
0
LINE
8
BLACK
6
CONTINUOUS
10
8.48823
20
-48.0279
11
8.69255
21
-48.3175
0
LINE
8
BLACK
6
CONTINUOUS
10
8.69255
20
-48.3175
11
8.86332
21
-48.6281
0
LINE
8
BLACK
6
CONTINUOUS
10
8.86332
20
-48.6281
11
8.9984
21
-48.9558
0
LINE
8
BLACK
6
CONTINUOUS
10
8.9984
20
-48.9558
11
9.0961
21
-49.2966
0
LINE
8
BLACK
6
CONTINUOUS
10
9.0961
20
-49.2966
11
9.15521
21
-49.6461
0
LINE
8
BLACK
6
CONTINUOUS
10
9.15521
20
-49.6461
11
9.175
21
-50
0
LINE
8
BLACK
6
CONTINUOUS
10
9.175
20
-50
11
9.17376
21
-50.0887
0
LINE
8
BLACK
6
CONTINUOUS
10
9.17376
20
-50.0887
11
9.1441
21
-50.4419
0
LINE
8
BLACK
6
CONTINUOUS
10
9.1441
20
-50.4419
11
9.07525
21
-50.7896
0
LINE
8
BLACK
6
CONTINUOUS
10
9.07525
20
-50.7896
11
8.96807
21
-51.1275
0
LINE
8
BLACK
6
CONTINUOUS
10
8.96807
20
-51.1275
11
8.8239
21
-51.4513
0
LINE
8
BLACK
6
CONTINUOUS
10
8.8239
20
-51.4513
11
8.64452
21
-51.757
0
LINE
8
BLACK
6
CONTINUOUS
10
8.64452
20
-51.757
11
8.43219
21
-52.0409
0
LINE
8
BLACK
6
CONTINUOUS
10
8.43219
20
-52.0409
11
8.18954
21
-52.2992
0
LINE
8
BLACK
6
CONTINUOUS
10
8.18954
20
-52.2992
11
7.9196
21
-52.529
0
LINE
8
BLACK
6
CONTINUOUS
10
7.9196
20
-52.529
11
7.62574
21
-52.7272
0
LINE
8
BLACK
6
CONTINUOUS
10
7.62574
20
-52.7272
11
7.31161
21
-52.8914
0
LINE
8
BLACK
6
CONTINUOUS
10
7.31161
20
-52.8914
11
6.98113
21
-53.0196
0
LINE
8
BLACK
6
CONTINUOUS
10
6.98113
20
-53.0196
11
6.63842
21
-53.1102
0
LINE
8
BLACK
6
CONTINUOUS
10
6.63842
20
-53.1102
11
6.28776
21
-53.1619
0
LINE
8
BLACK
6
CONTINUOUS
10
6.28776
20
-53.1619
11
5.93351
21
-53.1743
0
LINE
8
BLACK
6
CONTINUOUS
10
5.93351
20
-53.1743
11
5.58009
21
-53.1471
0
LINE
8
BLACK
6
CONTINUOUS
10
5.58009
20
-53.1471
11
5.2319
21
-53.0807
0
LINE
8
BLACK
6
CONTINUOUS
10
5.2319
20
-53.0807
11
4.89328
21
-52.9759
0
LINE
8
BLACK
6
CONTINUOUS
10
4.89328
20
-52.9759
11
4.56846
21
-52.834
0
LINE
8
BLACK
6
CONTINUOUS
10
4.56846
20
-52.834
11
4.26149
21
-52.6567
0
LINE
8
BLACK
6
CONTINUOUS
10
4.26149
20
-52.6567
11
3.97618
21
-52.4464
0
LINE
8
BLACK
6
CONTINUOUS
10
3.97618
20
-52.4464
11
3.7161
21
-52.2055
0
LINE
8
BLACK
6
CONTINUOUS
10
3.7161
20
-52.2055
11
3.48448
21
-51.9372
0
LINE
8
BLACK
6
CONTINUOUS
10
3.48448
20
-51.9372
11
3.28422
21
-51.6447
0
LINE
8
BLACK
6
CONTINUOUS
10
3.28422
20
-51.6447
11
3.11781
21
-51.3318
0
LINE
8
BLACK
6
CONTINUOUS
10
3.11781
20
-51.3318
11
2.98732
21
-51.0022
0
LINE
8
BLACK
6
CONTINUOUS
10
2.98732
20
-51.0022
11
2.89438
21
-50.6601
0
LINE
8
BLACK
6
CONTINUOUS
10
2.89438
20
-50.6601
11
2.84015
21
-50.3098
0
LINE
8
BLACK
6
CONTINUOUS
10
2.84015
20
-50.3098
11
2.82539
21
-49.9577
0
LINE
8
BLACK
6
CONTINUOUS
10
2.82539
20
-49.9577
11
2.82531
21
-49.9557
0
LINE
8
BLACK
6
CONTINUOUS
10
2.82531
20
-49.9557
11
2.85004
21
-49.6021
0
LINE
8
BLACK
6
CONTINUOUS
10
3.03644
20
-50.6299
11
3.12513
21
-50.9563
0
LINE
8
BLACK
6
CONTINUOUS
10
3.12513
20
-50.9563
11
3.24965
21
-51.2708
0
LINE
8
BLACK
6
CONTINUOUS
10
3.24965
20
-51.2708
11
3.40845
21
-51.5695
0
LINE
8
BLACK
6
CONTINUOUS
10
3.40845
20
-51.5695
11
3.59955
21
-51.8486
0
LINE
8
BLACK
6
CONTINUOUS
10
3.59955
20
-51.8486
11
3.82057
21
-52.1047
0
LINE
8
BLACK
6
CONTINUOUS
10
3.82057
20
-52.1047
11
4.06875
21
-52.3345
0
LINE
8
BLACK
6
CONTINUOUS
10
4.06875
20
-52.3345
11
4.34101
21
-52.5352
0
LINE
8
BLACK
6
CONTINUOUS
10
4.34101
20
-52.5352
11
4.63395
21
-52.7043
0
LINE
8
BLACK
6
CONTINUOUS
10
4.63395
20
-52.7043
11
4.94391
21
-52.8397
0
LINE
8
BLACK
6
CONTINUOUS
10
4.94391
20
-52.8397
11
5.26703
21
-52.9398
0
LINE
8
BLACK
6
CONTINUOUS
10
5.26703
20
-52.9398
11
5.59929
21
-53.0032
0
LINE
8
BLACK
6
CONTINUOUS
10
5.59929
20
-53.0032
11
5.93655
21
-53.0291
0
LINE
8
BLACK
6
CONTINUOUS
10
5.93655
20
-53.0291
11
6.2746
21
-53.0173
0
LINE
8
BLACK
6
CONTINUOUS
10
6.2746
20
-53.0173
11
6.60922
21
-52.9679
0
LINE
8
BLACK
6
CONTINUOUS
10
6.60922
20
-52.9679
11
6.93625
21
-52.8815
0
LINE
8
BLACK
6
CONTINUOUS
10
6.93625
20
-52.8815
11
7.25161
21
-52.7592
0
LINE
8
BLACK
6
CONTINUOUS
10
7.25161
20
-52.7592
11
7.55137
21
-52.6024
0
LINE
8
BLACK
6
CONTINUOUS
10
7.55137
20
-52.6024
11
7.83179
21
-52.4133
0
LINE
8
BLACK
6
CONTINUOUS
10
7.83179
20
-52.4133
11
8.08939
21
-52.1941
0
LINE
8
BLACK
6
CONTINUOUS
10
8.08939
20
-52.1941
11
8.32094
21
-51.9475
0
LINE
8
BLACK
6
CONTINUOUS
10
8.32094
20
-51.9475
11
8.52356
21
-51.6766
0
LINE
8
BLACK
6
CONTINUOUS
10
8.52356
20
-51.6766
11
8.69472
21
-51.3849
0
LINE
8
BLACK
6
CONTINUOUS
10
8.69472
20
-51.3849
11
8.8323
21
-51.0759
0
LINE
8
BLACK
6
CONTINUOUS
10
8.8323
20
-51.0759
11
8.93458
21
-50.7535
0
LINE
8
BLACK
6
CONTINUOUS
10
8.93458
20
-50.7535
11
9.00028
21
-50.4217
0
LINE
8
BLACK
6
CONTINUOUS
10
9.00028
20
-50.4217
11
9.02858
21
-50.0846
0
LINE
8
BLACK
6
CONTINUOUS
10
9.02858
20
-50.0846
11
9.02977
21
-50
0
LINE
8
BLACK
6
CONTINUOUS
10
9.02977
20
-50
11
9.01088
21
-49.6623
0
LINE
8
BLACK
6
CONTINUOUS
10
9.01088
20
-49.6623
11
8.95447
21
-49.3288
0
LINE
8
BLACK
6
CONTINUOUS
10
8.95447
20
-49.3288
11
8.86124
21
-49.0036
0
LINE
8
BLACK
6
CONTINUOUS
10
8.86124
20
-49.0036
11
8.73234
21
-48.6909
0
LINE
8
BLACK
6
CONTINUOUS
10
8.73234
20
-48.6909
11
8.56939
21
-48.3945
0
LINE
8
BLACK
6
CONTINUOUS
10
8.56939
20
-48.3945
11
8.37441
21
-48.1181
0
LINE
8
BLACK
6
CONTINUOUS
10
8.37441
20
-48.1181
11
8.14983
21
-47.8651
0
LINE
8
BLACK
6
CONTINUOUS
10
8.14983
20
-47.8651
11
7.89846
21
-47.6388
0
LINE
8
BLACK
6
CONTINUOUS
10
7.89846
20
-47.6388
11
7.62343
21
-47.4419
0
LINE
8
BLACK
6
CONTINUOUS
10
7.62343
20
-47.4419
11
7.32816
21
-47.2769
0
LINE
8
BLACK
6
CONTINUOUS
10
7.32816
20
-47.2769
11
7.01634
21
-47.1458
0
LINE
8
BLACK
6
CONTINUOUS
10
7.01634
20
-47.1458
11
6.69185
21
-47.0503
0
LINE
8
BLACK
6
CONTINUOUS
10
6.69185
20
-47.0503
11
6.35874
21
-46.9915
0
LINE
8
BLACK
6
CONTINUOUS
10
6.35874
20
-46.9915
11
6.02115
21
-46.9703
0
LINE
8
BLACK
6
CONTINUOUS
10
6.02115
20
-46.9703
11
5.6833
21
-46.9868
0
LINE
8
BLACK
6
CONTINUOUS
10
5.6833
20
-46.9868
11
5.3494
21
-47.0409
0
LINE
8
BLACK
6
CONTINUOUS
10
5.3494
20
-47.0409
11
5.02361
21
-47.1319
0
LINE
8
BLACK
6
CONTINUOUS
10
5.02361
20
-47.1319
11
4.70999
21
-47.2586
0
LINE
8
BLACK
6
CONTINUOUS
10
4.70999
20
-47.2586
11
4.41244
21
-47.4195
0
LINE
8
BLACK
6
CONTINUOUS
10
4.41244
20
-47.4195
11
4.13469
21
-47.6125
0
LINE
8
BLACK
6
CONTINUOUS
10
4.13469
20
-47.6125
11
3.88018
21
-47.8353
0
LINE
8
BLACK
6
CONTINUOUS
10
3.88018
20
-47.8353
11
3.6521
21
-48.0851
0
LINE
8
BLACK
6
CONTINUOUS
10
3.6521
20
-48.0851
11
3.45328
21
-48.3588
0
LINE
8
BLACK
6
CONTINUOUS
10
3.45328
20
-48.3588
11
3.2862
21
-48.6529
0
LINE
8
BLACK
6
CONTINUOUS
10
3.2862
20
-48.6529
11
3.15295
21
-48.9638
0
LINE
8
BLACK
6
CONTINUOUS
10
3.15295
20
-48.9638
11
3.05519
21
-49.2876
0
LINE
8
BLACK
6
CONTINUOUS
10
3.05519
20
-49.2876
11
2.99412
21
-49.6203
0
LINE
8
BLACK
6
CONTINUOUS
10
2.99412
20
-49.6203
11
2.97053
21
-49.9577
0
LINE
8
BLACK
6
CONTINUOUS
10
2.97053
20
-49.9577
11
2.98469
21
-50.2957
0
LINE
8
BLACK
6
CONTINUOUS
10
2.98469
20
-50.2957
11
3.03644
21
-50.6299
0
LINE
8
BLACK
6
CONTINUOUS
10
60.85
20
-49.6021
11
60.914
21
-49.2534
0
LINE
8
BLACK
6
CONTINUOUS
10
60.914
20
-49.2534
11
61.0165
21
-48.9141
0
LINE
8
BLACK
6
CONTINUOUS
10
61.0165
20
-48.9141
11
61.1561
21
-48.5883
0
LINE
8
BLACK
6
CONTINUOUS
10
61.1561
20
-48.5883
11
61.3312
21
-48.2801
0
LINE
8
BLACK
6
CONTINUOUS
10
61.3312
20
-48.2801
11
61.5396
21
-47.9933
0
LINE
8
BLACK
6
CONTINUOUS
10
61.5396
20
-47.9933
11
61.7786
21
-47.7315
0
LINE
8
BLACK
6
CONTINUOUS
10
61.7786
20
-47.7315
11
62.0453
21
-47.4981
0
LINE
8
BLACK
6
CONTINUOUS
10
62.0453
20
-47.4981
11
62.3363
21
-47.2958
0
LINE
8
BLACK
6
CONTINUOUS
10
62.3363
20
-47.2958
11
62.6482
21
-47.1272
0
LINE
8
BLACK
6
CONTINUOUS
10
62.6482
20
-47.1272
11
62.9768
21
-46.9944
0
LINE
8
BLACK
6
CONTINUOUS
10
62.9768
20
-46.9944
11
63.3182
21
-46.8991
0
LINE
8
BLACK
6
CONTINUOUS
10
63.3182
20
-46.8991
11
63.6681
21
-46.8424
0
LINE
8
BLACK
6
CONTINUOUS
10
63.6681
20
-46.8424
11
64.0222
21
-46.8251
0
LINE
8
BLACK
6
CONTINUOUS
10
64.0222
20
-46.8251
11
64.3759
21
-46.8473
0
LINE
8
BLACK
6
CONTINUOUS
10
64.3759
20
-46.8473
11
64.725
21
-46.9089
0
LINE
8
BLACK
6
CONTINUOUS
10
64.725
20
-46.9089
11
65.0651
21
-47.009
0
LINE
8
BLACK
6
CONTINUOUS
10
65.0651
20
-47.009
11
65.3918
21
-47.1463
0
LINE
8
BLACK
6
CONTINUOUS
10
65.3918
20
-47.1463
11
65.7013
21
-47.3193
0
LINE
8
BLACK
6
CONTINUOUS
10
65.7013
20
-47.3193
11
65.9895
21
-47.5256
0
LINE
8
BLACK
6
CONTINUOUS
10
65.9895
20
-47.5256
11
66.2529
21
-47.7628
0
LINE
8
BLACK
6
CONTINUOUS
10
66.2529
20
-47.7628
11
66.4882
21
-48.0279
0
LINE
8
BLACK
6
CONTINUOUS
10
66.4882
20
-48.0279
11
66.6926
21
-48.3175
0
LINE
8
BLACK
6
CONTINUOUS
10
66.6926
20
-48.3175
11
66.8633
21
-48.6281
0
LINE
8
BLACK
6
CONTINUOUS
10
66.8633
20
-48.6281
11
66.9984
21
-48.9558
0
LINE
8
BLACK
6
CONTINUOUS
10
66.9984
20
-48.9558
11
67.0961
21
-49.2966
0
LINE
8
BLACK
6
CONTINUOUS
10
67.0961
20
-49.2966
11
67.1552
21
-49.6461
0
LINE
8
BLACK
6
CONTINUOUS
10
67.1552
20
-49.6461
11
67.175
21
-50
0
LINE
8
BLACK
6
CONTINUOUS
10
67.175
20
-50
11
67.1738
21
-50.0887
0
LINE
8
BLACK
6
CONTINUOUS
10
67.1738
20
-50.0887
11
67.1441
21
-50.4419
0
LINE
8
BLACK
6
CONTINUOUS
10
67.1441
20
-50.4419
11
67.0753
21
-50.7896
0
LINE
8
BLACK
6
CONTINUOUS
10
67.0753
20
-50.7896
11
66.9681
21
-51.1275
0
LINE
8
BLACK
6
CONTINUOUS
10
66.9681
20
-51.1275
11
66.8239
21
-51.4513
0
LINE
8
BLACK
6
CONTINUOUS
10
66.8239
20
-51.4513
11
66.6445
21
-51.757
0
LINE
8
BLACK
6
CONTINUOUS
10
66.6445
20
-51.757
11
66.4322
21
-52.0409
0
LINE
8
BLACK
6
CONTINUOUS
10
66.4322
20
-52.0409
11
66.1895
21
-52.2992
0
LINE
8
BLACK
6
CONTINUOUS
10
66.1895
20
-52.2992
11
65.9196
21
-52.529
0
LINE
8
BLACK
6
CONTINUOUS
10
65.9196
20
-52.529
11
65.6257
21
-52.7272
0
LINE
8
BLACK
6
CONTINUOUS
10
65.6257
20
-52.7272
11
65.3116
21
-52.8914
0
LINE
8
BLACK
6
CONTINUOUS
10
65.3116
20
-52.8914
11
64.9811
21
-53.0196
0
LINE
8
BLACK
6
CONTINUOUS
10
64.9811
20
-53.0196
11
64.6384
21
-53.1102
0
LINE
8
BLACK
6
CONTINUOUS
10
64.6384
20
-53.1102
11
64.2878
21
-53.1619
0
LINE
8
BLACK
6
CONTINUOUS
10
64.2878
20
-53.1619
11
63.9335
21
-53.1743
0
LINE
8
BLACK
6
CONTINUOUS
10
63.9335
20
-53.1743
11
63.5801
21
-53.1471
0
LINE
8
BLACK
6
CONTINUOUS
10
63.5801
20
-53.1471
11
63.2319
21
-53.0807
0
LINE
8
BLACK
6
CONTINUOUS
10
63.2319
20
-53.0807
11
62.8933
21
-52.9759
0
LINE
8
BLACK
6
CONTINUOUS
10
62.8933
20
-52.9759
11
62.5685
21
-52.834
0
LINE
8
BLACK
6
CONTINUOUS
10
62.5685
20
-52.834
11
62.2615
21
-52.6567
0
LINE
8
BLACK
6
CONTINUOUS
10
62.2615
20
-52.6567
11
61.9762
21
-52.4464
0
LINE
8
BLACK
6
CONTINUOUS
10
61.9762
20
-52.4464
11
61.7161
21
-52.2055
0
LINE
8
BLACK
6
CONTINUOUS
10
61.7161
20
-52.2055
11
61.4845
21
-51.9372
0
LINE
8
BLACK
6
CONTINUOUS
10
61.4845
20
-51.9372
11
61.2842
21
-51.6447
0
LINE
8
BLACK
6
CONTINUOUS
10
61.2842
20
-51.6447
11
61.1178
21
-51.3318
0
LINE
8
BLACK
6
CONTINUOUS
10
61.1178
20
-51.3318
11
60.9873
21
-51.0022
0
LINE
8
BLACK
6
CONTINUOUS
10
60.9873
20
-51.0022
11
60.8944
21
-50.6601
0
LINE
8
BLACK
6
CONTINUOUS
10
60.8944
20
-50.6601
11
60.8402
21
-50.3098
0
LINE
8
BLACK
6
CONTINUOUS
10
60.8402
20
-50.3098
11
60.8254
21
-49.9577
0
LINE
8
BLACK
6
CONTINUOUS
10
60.8254
20
-49.9577
11
60.8253
21
-49.9557
0
LINE
8
BLACK
6
CONTINUOUS
10
60.8253
20
-49.9557
11
60.85
21
-49.6021
0
LINE
8
BLACK
6
CONTINUOUS
10
61.0364
20
-50.6299
11
61.1251
21
-50.9563
0
LINE
8
BLACK
6
CONTINUOUS
10
61.1251
20
-50.9563
11
61.2496
21
-51.2708
0
LINE
8
BLACK
6
CONTINUOUS
10
61.2496
20
-51.2708
11
61.4084
21
-51.5695
0
LINE
8
BLACK
6
CONTINUOUS
10
61.4084
20
-51.5695
11
61.5995
21
-51.8486
0
LINE
8
BLACK
6
CONTINUOUS
10
61.5995
20
-51.8486
11
61.8206
21
-52.1047
0
LINE
8
BLACK
6
CONTINUOUS
10
61.8206
20
-52.1047
11
62.0688
21
-52.3345
0
LINE
8
BLACK
6
CONTINUOUS
10
62.0688
20
-52.3345
11
62.341
21
-52.5352
0
LINE
8
BLACK
6
CONTINUOUS
10
62.341
20
-52.5352
11
62.6339
21
-52.7043
0
LINE
8
BLACK
6
CONTINUOUS
10
62.6339
20
-52.7043
11
62.9439
21
-52.8397
0
LINE
8
BLACK
6
CONTINUOUS
10
62.9439
20
-52.8397
11
63.267
21
-52.9398
0
LINE
8
BLACK
6
CONTINUOUS
10
63.267
20
-52.9398
11
63.5993
21
-53.0032
0
LINE
8
BLACK
6
CONTINUOUS
10
63.5993
20
-53.0032
11
63.9365
21
-53.0291
0
LINE
8
BLACK
6
CONTINUOUS
10
63.9365
20
-53.0291
11
64.2746
21
-53.0173
0
LINE
8
BLACK
6
CONTINUOUS
10
64.2746
20
-53.0173
11
64.6092
21
-52.9679
0
LINE
8
BLACK
6
CONTINUOUS
10
64.6092
20
-52.9679
11
64.9362
21
-52.8815
0
LINE
8
BLACK
6
CONTINUOUS
10
64.9362
20
-52.8815
11
65.2516
21
-52.7592
0
LINE
8
BLACK
6
CONTINUOUS
10
65.2516
20
-52.7592
11
65.5514
21
-52.6024
0
LINE
8
BLACK
6
CONTINUOUS
10
65.5514
20
-52.6024
11
65.8318
21
-52.4133
0
LINE
8
BLACK
6
CONTINUOUS
10
65.8318
20
-52.4133
11
66.0894
21
-52.1941
0
LINE
8
BLACK
6
CONTINUOUS
10
66.0894
20
-52.1941
11
66.3209
21
-51.9475
0
LINE
8
BLACK
6
CONTINUOUS
10
66.3209
20
-51.9475
11
66.5236
21
-51.6766
0
LINE
8
BLACK
6
CONTINUOUS
10
66.5236
20
-51.6766
11
66.6947
21
-51.3849
0
LINE
8
BLACK
6
CONTINUOUS
10
66.6947
20
-51.3849
11
66.8323
21
-51.0759
0
LINE
8
BLACK
6
CONTINUOUS
10
66.8323
20
-51.0759
11
66.9346
21
-50.7535
0
LINE
8
BLACK
6
CONTINUOUS
10
66.9346
20
-50.7535
11
67.0003
21
-50.4217
0
LINE
8
BLACK
6
CONTINUOUS
10
67.0003
20
-50.4217
11
67.0286
21
-50.0846
0
LINE
8
BLACK
6
CONTINUOUS
10
67.0286
20
-50.0846
11
67.0298
21
-50
0
LINE
8
BLACK
6
CONTINUOUS
10
67.0298
20
-50
11
67.0109
21
-49.6623
0
LINE
8
BLACK
6
CONTINUOUS
10
67.0109
20
-49.6623
11
66.9545
21
-49.3288
0
LINE
8
BLACK
6
CONTINUOUS
10
66.9545
20
-49.3288
11
66.8612
21
-49.0036
0
LINE
8
BLACK
6
CONTINUOUS
10
66.8612
20
-49.0036
11
66.7323
21
-48.6909
0
LINE
8
BLACK
6
CONTINUOUS
10
66.7323
20
-48.6909
11
66.5694
21
-48.3945
0
LINE
8
BLACK
6
CONTINUOUS
10
66.5694
20
-48.3945
11
66.3744
21
-48.1181
0
LINE
8
BLACK
6
CONTINUOUS
10
66.3744
20
-48.1181
11
66.1498
21
-47.8651
0
LINE
8
BLACK
6
CONTINUOUS
10
66.1498
20
-47.8651
11
65.8985
21
-47.6388
0
LINE
8
BLACK
6
CONTINUOUS
10
65.8985
20
-47.6388
11
65.6234
21
-47.4419
0
LINE
8
BLACK
6
CONTINUOUS
10
65.6234
20
-47.4419
11
65.3282
21
-47.2769
0
LINE
8
BLACK
6
CONTINUOUS
10
65.3282
20
-47.2769
11
65.0163
21
-47.1458
0
LINE
8
BLACK
6
CONTINUOUS
10
65.0163
20
-47.1458
11
64.6919
21
-47.0503
0
LINE
8
BLACK
6
CONTINUOUS
10
64.6919
20
-47.0503
11
64.3587
21
-46.9915
0
LINE
8
BLACK
6
CONTINUOUS
10
64.3587
20
-46.9915
11
64.0212
21
-46.9703
0
LINE
8
BLACK
6
CONTINUOUS
10
64.0212
20
-46.9703
11
63.6833
21
-46.9868
0
LINE
8
BLACK
6
CONTINUOUS
10
63.6833
20
-46.9868
11
63.3494
21
-47.0409
0
LINE
8
BLACK
6
CONTINUOUS
10
63.3494
20
-47.0409
11
63.0236
21
-47.1319
0
LINE
8
BLACK
6
CONTINUOUS
10
63.0236
20
-47.1319
11
62.71
21
-47.2586
0
LINE
8
BLACK
6
CONTINUOUS
10
62.71
20
-47.2586
11
62.4124
21
-47.4195
0
LINE
8
BLACK
6
CONTINUOUS
10
62.4124
20
-47.4195
11
62.1347
21
-47.6125
0
LINE
8
BLACK
6
CONTINUOUS
10
62.1347
20
-47.6125
11
61.8802
21
-47.8353
0
LINE
8
BLACK
6
CONTINUOUS
10
61.8802
20
-47.8353
11
61.6521
21
-48.0851
0
LINE
8
BLACK
6
CONTINUOUS
10
61.6521
20
-48.0851
11
61.4533
21
-48.3588
0
LINE
8
BLACK
6
CONTINUOUS
10
61.4533
20
-48.3588
11
61.2862
21
-48.6529
0
LINE
8
BLACK
6
CONTINUOUS
10
61.2862
20
-48.6529
11
61.153
21
-48.9638
0
LINE
8
BLACK
6
CONTINUOUS
10
61.153
20
-48.9638
11
61.0552
21
-49.2876
0
LINE
8
BLACK
6
CONTINUOUS
10
61.0552
20
-49.2876
11
60.9941
21
-49.6203
0
LINE
8
BLACK
6
CONTINUOUS
10
60.9941
20
-49.6203
11
60.9705
21
-49.9577
0
LINE
8
BLACK
6
CONTINUOUS
10
60.9705
20
-49.9577
11
60.9847
21
-50.2957
0
LINE
8
BLACK
6
CONTINUOUS
10
60.9847
20
-50.2957
11
61.0364
21
-50.6299
0
LINE
8
BLACK
6
CONTINUOUS
10
44.4053
20
-27.7359
11
44.5049
21
-27.3644
0
LINE
8
BLACK
6
CONTINUOUS
10
44.5049
20
-27.3644
11
44.6427
21
-27.0052
0
LINE
8
BLACK
6
CONTINUOUS
10
44.6427
20
-27.0052
11
44.8174
21
-26.6625
0
LINE
8
BLACK
6
CONTINUOUS
10
44.8174
20
-26.6625
11
45.0269
21
-26.3399
0
LINE
8
BLACK
6
CONTINUOUS
10
45.0269
20
-26.3399
11
45.2689
21
-26.0409
0
LINE
8
BLACK
6
CONTINUOUS
10
45.2689
20
-26.0409
11
45.5409
21
-25.7689
0
LINE
8
BLACK
6
CONTINUOUS
10
45.5409
20
-25.7689
11
45.8399
21
-25.5269
0
LINE
8
BLACK
6
CONTINUOUS
10
45.8399
20
-25.5269
11
46.1625
21
-25.3174
0
LINE
8
BLACK
6
CONTINUOUS
10
46.1625
20
-25.3174
11
46.5052
21
-25.1427
0
LINE
8
BLACK
6
CONTINUOUS
10
46.5052
20
-25.1427
11
46.8644
21
-25.0049
0
LINE
8
BLACK
6
CONTINUOUS
10
46.8644
20
-25.0049
11
47.2359
21
-24.9053
0
LINE
8
BLACK
6
CONTINUOUS
10
47.2359
20
-24.9053
11
47.6159
21
-24.8451
0
LINE
8
BLACK
6
CONTINUOUS
10
47.6159
20
-24.8451
11
48
21
-24.825
0
LINE
8
BLACK
6
CONTINUOUS
10
48
20
-24.825
11
48.3841
21
-24.8451
0
LINE
8
BLACK
6
CONTINUOUS
10
48.3841
20
-24.8451
11
48.7641
21
-24.9053
0
LINE
8
BLACK
6
CONTINUOUS
10
48.7641
20
-24.9053
11
49.1356
21
-25.0049
0
LINE
8
BLACK
6
CONTINUOUS
10
49.1356
20
-25.0049
11
49.4948
21
-25.1427
0
LINE
8
BLACK
6
CONTINUOUS
10
49.4948
20
-25.1427
11
49.8375
21
-25.3174
0
LINE
8
BLACK
6
CONTINUOUS
10
49.8375
20
-25.3174
11
50.1601
21
-25.5269
0
LINE
8
BLACK
6
CONTINUOUS
10
50.1601
20
-25.5269
11
50.4591
21
-25.7689
0
LINE
8
BLACK
6
CONTINUOUS
10
50.4591
20
-25.7689
11
50.7311
21
-26.0409
0
LINE
8
BLACK
6
CONTINUOUS
10
50.7311
20
-26.0409
11
50.9731
21
-26.3399
0
LINE
8
BLACK
6
CONTINUOUS
10
50.9731
20
-26.3399
11
51.1826
21
-26.6625
0
LINE
8
BLACK
6
CONTINUOUS
10
51.1826
20
-26.6625
11
51.3573
21
-27.0052
0
LINE
8
BLACK
6
CONTINUOUS
10
51.3573
20
-27.0052
11
51.4951
21
-27.3644
0
LINE
8
BLACK
6
CONTINUOUS
10
51.4951
20
-27.3644
11
51.5947
21
-27.7359
0
LINE
8
BLACK
6
CONTINUOUS
10
51.5947
20
-27.7359
11
51.6549
21
-28.1159
0
LINE
8
BLACK
6
CONTINUOUS
10
51.6549
20
-28.1159
11
51.675
21
-28.5
0
LINE
8
BLACK
6
CONTINUOUS
10
51.675
20
-28.5
11
51.6549
21
-28.8841
0
LINE
8
BLACK
6
CONTINUOUS
10
51.6549
20
-28.8841
11
51.5947
21
-29.2641
0
LINE
8
BLACK
6
CONTINUOUS
10
51.5947
20
-29.2641
11
51.4951
21
-29.6356
0
LINE
8
BLACK
6
CONTINUOUS
10
51.4951
20
-29.6356
11
51.3573
21
-29.9948
0
LINE
8
BLACK
6
CONTINUOUS
10
51.3573
20
-29.9948
11
51.1826
21
-30.3375
0
LINE
8
BLACK
6
CONTINUOUS
10
51.1826
20
-30.3375
11
50.9731
21
-30.6601
0
LINE
8
BLACK
6
CONTINUOUS
10
50.9731
20
-30.6601
11
50.7311
21
-30.9591
0
LINE
8
BLACK
6
CONTINUOUS
10
50.7311
20
-30.9591
11
50.4591
21
-31.2311
0
LINE
8
BLACK
6
CONTINUOUS
10
50.4591
20
-31.2311
11
50.1601
21
-31.4731
0
LINE
8
BLACK
6
CONTINUOUS
10
50.1601
20
-31.4731
11
49.8375
21
-31.6826
0
LINE
8
BLACK
6
CONTINUOUS
10
49.8375
20
-31.6826
11
49.4948
21
-31.8573
0
LINE
8
BLACK
6
CONTINUOUS
10
49.4948
20
-31.8573
11
49.1356
21
-31.9951
0
LINE
8
BLACK
6
CONTINUOUS
10
49.1356
20
-31.9951
11
48.7641
21
-32.0947
0
LINE
8
BLACK
6
CONTINUOUS
10
48.7641
20
-32.0947
11
48.3841
21
-32.1549
0
LINE
8
BLACK
6
CONTINUOUS
10
48.3841
20
-32.1549
11
48
21
-32.175
0
LINE
8
BLACK
6
CONTINUOUS
10
48
20
-32.175
11
47.6159
21
-32.1549
0
LINE
8
BLACK
6
CONTINUOUS
10
47.6159
20
-32.1549
11
47.2359
21
-32.0947
0
LINE
8
BLACK
6
CONTINUOUS
10
47.2359
20
-32.0947
11
46.8644
21
-31.9951
0
LINE
8
BLACK
6
CONTINUOUS
10
46.8644
20
-31.9951
11
46.5052
21
-31.8573
0
LINE
8
BLACK
6
CONTINUOUS
10
46.5052
20
-31.8573
11
46.1625
21
-31.6826
0
LINE
8
BLACK
6
CONTINUOUS
10
46.1625
20
-31.6826
11
45.8399
21
-31.4731
0
LINE
8
BLACK
6
CONTINUOUS
10
45.8399
20
-31.4731
11
45.5409
21
-31.2311
0
LINE
8
BLACK
6
CONTINUOUS
10
45.5409
20
-31.2311
11
45.2689
21
-30.9591
0
LINE
8
BLACK
6
CONTINUOUS
10
45.2689
20
-30.9591
11
45.0269
21
-30.6601
0
LINE
8
BLACK
6
CONTINUOUS
10
45.0269
20
-30.6601
11
44.8174
21
-30.3375
0
LINE
8
BLACK
6
CONTINUOUS
10
44.8174
20
-30.3375
11
44.6427
21
-29.9948
0
LINE
8
BLACK
6
CONTINUOUS
10
44.6427
20
-29.9948
11
44.5049
21
-29.6356
0
LINE
8
BLACK
6
CONTINUOUS
10
44.5049
20
-29.6356
11
44.4053
21
-29.2641
0
LINE
8
BLACK
6
CONTINUOUS
10
44.4053
20
-29.2641
11
44.3451
21
-28.8841
0
LINE
8
BLACK
6
CONTINUOUS
10
44.3451
20
-28.8841
11
44.325
21
-28.5
0
LINE
8
BLACK
6
CONTINUOUS
10
44.325
20
-28.5
11
44.3451
21
-28.1159
0
LINE
8
BLACK
6
CONTINUOUS
10
44.3451
20
-28.1159
11
44.4053
21
-27.7359
0
LINE
8
BLACK
6
CONTINUOUS
10
44.5473
20
-29.2339
11
44.6429
21
-29.5908
0
LINE
8
BLACK
6
CONTINUOUS
10
44.6429
20
-29.5908
11
44.7753
21
-29.9357
0
LINE
8
BLACK
6
CONTINUOUS
10
44.7753
20
-29.9357
11
44.9431
21
-30.2649
0
LINE
8
BLACK
6
CONTINUOUS
10
44.9431
20
-30.2649
11
45.1443
21
-30.5748
0
LINE
8
BLACK
6
CONTINUOUS
10
45.1443
20
-30.5748
11
45.3768
21
-30.8619
0
LINE
8
BLACK
6
CONTINUOUS
10
45.3768
20
-30.8619
11
45.6381
21
-31.1232
0
LINE
8
BLACK
6
CONTINUOUS
10
45.6381
20
-31.1232
11
45.9252
21
-31.3557
0
LINE
8
BLACK
6
CONTINUOUS
10
45.9252
20
-31.3557
11
46.2351
21
-31.5569
0
LINE
8
BLACK
6
CONTINUOUS
10
46.2351
20
-31.5569
11
46.5643
21
-31.7247
0
LINE
8
BLACK
6
CONTINUOUS
10
46.5643
20
-31.7247
11
46.9092
21
-31.8571
0
LINE
8
BLACK
6
CONTINUOUS
10
46.9092
20
-31.8571
11
47.2661
21
-31.9527
0
LINE
8
BLACK
6
CONTINUOUS
10
47.2661
20
-31.9527
11
47.631
21
-32.0105
0
LINE
8
BLACK
6
CONTINUOUS
10
47.631
20
-32.0105
11
48
21
-32.0298
0
LINE
8
BLACK
6
CONTINUOUS
10
48
20
-32.0298
11
48.369
21
-32.0105
0
LINE
8
BLACK
6
CONTINUOUS
10
48.369
20
-32.0105
11
48.7339
21
-31.9527
0
LINE
8
BLACK
6
CONTINUOUS
10
48.7339
20
-31.9527
11
49.0908
21
-31.8571
0
LINE
8
BLACK
6
CONTINUOUS
10
49.0908
20
-31.8571
11
49.4357
21
-31.7247
0
LINE
8
BLACK
6
CONTINUOUS
10
49.4357
20
-31.7247
11
49.7649
21
-31.5569
0
LINE
8
BLACK
6
CONTINUOUS
10
49.7649
20
-31.5569
11
50.0748
21
-31.3557
0
LINE
8
BLACK
6
CONTINUOUS
10
50.0748
20
-31.3557
11
50.3619
21
-31.1232
0
LINE
8
BLACK
6
CONTINUOUS
10
50.3619
20
-31.1232
11
50.6232
21
-30.8619
0
LINE
8
BLACK
6
CONTINUOUS
10
50.6232
20
-30.8619
11
50.8557
21
-30.5748
0
LINE
8
BLACK
6
CONTINUOUS
10
50.8557
20
-30.5748
11
51.0569
21
-30.2649
0
LINE
8
BLACK
6
CONTINUOUS
10
51.0569
20
-30.2649
11
51.2247
21
-29.9357
0
LINE
8
BLACK
6
CONTINUOUS
10
51.2247
20
-29.9357
11
51.3571
21
-29.5908
0
LINE
8
BLACK
6
CONTINUOUS
10
51.3571
20
-29.5908
11
51.4527
21
-29.2339
0
LINE
8
BLACK
6
CONTINUOUS
10
51.4527
20
-29.2339
11
51.5105
21
-28.869
0
LINE
8
BLACK
6
CONTINUOUS
10
51.5105
20
-28.869
11
51.5298
21
-28.5
0
LINE
8
BLACK
6
CONTINUOUS
10
51.5298
20
-28.5
11
51.5105
21
-28.131
0
LINE
8
BLACK
6
CONTINUOUS
10
51.5105
20
-28.131
11
51.4527
21
-27.7661
0
LINE
8
BLACK
6
CONTINUOUS
10
51.4527
20
-27.7661
11
51.3571
21
-27.4092
0
LINE
8
BLACK
6
CONTINUOUS
10
51.3571
20
-27.4092
11
51.2247
21
-27.0643
0
LINE
8
BLACK
6
CONTINUOUS
10
51.2247
20
-27.0643
11
51.0569
21
-26.7351
0
LINE
8
BLACK
6
CONTINUOUS
10
51.0569
20
-26.7351
11
50.8557
21
-26.4252
0
LINE
8
BLACK
6
CONTINUOUS
10
50.8557
20
-26.4252
11
50.6232
21
-26.1381
0
LINE
8
BLACK
6
CONTINUOUS
10
50.6232
20
-26.1381
11
50.3619
21
-25.8768
0
LINE
8
BLACK
6
CONTINUOUS
10
50.3619
20
-25.8768
11
50.0748
21
-25.6443
0
LINE
8
BLACK
6
CONTINUOUS
10
50.0748
20
-25.6443
11
49.7649
21
-25.4431
0
LINE
8
BLACK
6
CONTINUOUS
10
49.7649
20
-25.4431
11
49.4357
21
-25.2753
0
LINE
8
BLACK
6
CONTINUOUS
10
49.4357
20
-25.2753
11
49.0908
21
-25.1429
0
LINE
8
BLACK
6
CONTINUOUS
10
49.0908
20
-25.1429
11
48.7339
21
-25.0473
0
LINE
8
BLACK
6
CONTINUOUS
10
48.7339
20
-25.0473
11
48.369
21
-24.9895
0
LINE
8
BLACK
6
CONTINUOUS
10
48.369
20
-24.9895
11
48
21
-24.9702
0
LINE
8
BLACK
6
CONTINUOUS
10
48
20
-24.9702
11
47.631
21
-24.9895
0
LINE
8
BLACK
6
CONTINUOUS
10
47.631
20
-24.9895
11
47.2661
21
-25.0473
0
LINE
8
BLACK
6
CONTINUOUS
10
47.2661
20
-25.0473
11
46.9092
21
-25.1429
0
LINE
8
BLACK
6
CONTINUOUS
10
46.9092
20
-25.1429
11
46.5643
21
-25.2753
0
LINE
8
BLACK
6
CONTINUOUS
10
46.5643
20
-25.2753
11
46.2351
21
-25.4431
0
LINE
8
BLACK
6
CONTINUOUS
10
46.2351
20
-25.4431
11
45.9252
21
-25.6443
0
LINE
8
BLACK
6
CONTINUOUS
10
45.9252
20
-25.6443
11
45.6381
21
-25.8768
0
LINE
8
BLACK
6
CONTINUOUS
10
45.6381
20
-25.8768
11
45.3768
21
-26.1381
0
LINE
8
BLACK
6
CONTINUOUS
10
45.3768
20
-26.1381
11
45.1443
21
-26.4252
0
LINE
8
BLACK
6
CONTINUOUS
10
45.1443
20
-26.4252
11
44.9431
21
-26.7351
0
LINE
8
BLACK
6
CONTINUOUS
10
44.9431
20
-26.7351
11
44.7753
21
-27.0643
0
LINE
8
BLACK
6
CONTINUOUS
10
44.7753
20
-27.0643
11
44.6429
21
-27.4092
0
LINE
8
BLACK
6
CONTINUOUS
10
44.6429
20
-27.4092
11
44.5473
21
-27.7661
0
LINE
8
BLACK
6
CONTINUOUS
10
44.5473
20
-27.7661
11
44.4895
21
-28.131
0
LINE
8
BLACK
6
CONTINUOUS
10
44.4895
20
-28.131
11
44.4702
21
-28.5
0
LINE
8
BLACK
6
CONTINUOUS
10
44.4702
20
-28.5
11
44.4895
21
-28.869
0
LINE
8
BLACK
6
CONTINUOUS
10
44.4895
20
-28.869
11
44.5473
21
-29.2339
0
LINE
8
BLACK
6
CONTINUOUS
10
18.4053
20
-27.7359
11
18.5049
21
-27.3644
0
LINE
8
BLACK
6
CONTINUOUS
10
18.5049
20
-27.3644
11
18.6427
21
-27.0052
0
LINE
8
BLACK
6
CONTINUOUS
10
18.6427
20
-27.0052
11
18.8174
21
-26.6625
0
LINE
8
BLACK
6
CONTINUOUS
10
18.8174
20
-26.6625
11
19.0269
21
-26.3399
0
LINE
8
BLACK
6
CONTINUOUS
10
19.0269
20
-26.3399
11
19.2689
21
-26.0409
0
LINE
8
BLACK
6
CONTINUOUS
10
19.2689
20
-26.0409
11
19.5409
21
-25.7689
0
LINE
8
BLACK
6
CONTINUOUS
10
19.5409
20
-25.7689
11
19.8399
21
-25.5269
0
LINE
8
BLACK
6
CONTINUOUS
10
19.8399
20
-25.5269
11
20.1625
21
-25.3174
0
LINE
8
BLACK
6
CONTINUOUS
10
20.1625
20
-25.3174
11
20.5052
21
-25.1427
0
LINE
8
BLACK
6
CONTINUOUS
10
20.5052
20
-25.1427
11
20.8644
21
-25.0049
0
LINE
8
BLACK
6
CONTINUOUS
10
20.8644
20
-25.0049
11
21.2359
21
-24.9053
0
LINE
8
BLACK
6
CONTINUOUS
10
21.2359
20
-24.9053
11
21.6159
21
-24.8451
0
LINE
8
BLACK
6
CONTINUOUS
10
21.6159
20
-24.8451
11
22
21
-24.825
0
LINE
8
BLACK
6
CONTINUOUS
10
22
20
-24.825
11
22.3841
21
-24.8451
0
LINE
8
BLACK
6
CONTINUOUS
10
22.3841
20
-24.8451
11
22.7641
21
-24.9053
0
LINE
8
BLACK
6
CONTINUOUS
10
22.7641
20
-24.9053
11
23.1356
21
-25.0049
0
LINE
8
BLACK
6
CONTINUOUS
10
23.1356
20
-25.0049
11
23.4948
21
-25.1427
0
LINE
8
BLACK
6
CONTINUOUS
10
23.4948
20
-25.1427
11
23.8375
21
-25.3174
0
LINE
8
BLACK
6
CONTINUOUS
10
23.8375
20
-25.3174
11
24.1601
21
-25.5269
0
LINE
8
BLACK
6
CONTINUOUS
10
24.1601
20
-25.5269
11
24.4591
21
-25.7689
0
LINE
8
BLACK
6
CONTINUOUS
10
24.4591
20
-25.7689
11
24.7311
21
-26.0409
0
LINE
8
BLACK
6
CONTINUOUS
10
24.7311
20
-26.0409
11
24.9731
21
-26.3399
0
LINE
8
BLACK
6
CONTINUOUS
10
24.9731
20
-26.3399
11
25.1826
21
-26.6625
0
LINE
8
BLACK
6
CONTINUOUS
10
25.1826
20
-26.6625
11
25.3573
21
-27.0052
0
LINE
8
BLACK
6
CONTINUOUS
10
25.3573
20
-27.0052
11
25.4951
21
-27.3644
0
LINE
8
BLACK
6
CONTINUOUS
10
25.4951
20
-27.3644
11
25.5947
21
-27.7359
0
LINE
8
BLACK
6
CONTINUOUS
10
25.5947
20
-27.7359
11
25.6549
21
-28.1159
0
LINE
8
BLACK
6
CONTINUOUS
10
25.6549
20
-28.1159
11
25.675
21
-28.5
0
LINE
8
BLACK
6
CONTINUOUS
10
25.675
20
-28.5
11
25.6549
21
-28.8841
0
LINE
8
BLACK
6
CONTINUOUS
10
25.6549
20
-28.8841
11
25.5947
21
-29.2641
0
LINE
8
BLACK
6
CONTINUOUS
10
25.5947
20
-29.2641
11
25.4951
21
-29.6356
0
LINE
8
BLACK
6
CONTINUOUS
10
25.4951
20
-29.6356
11
25.3573
21
-29.9948
0
LINE
8
BLACK
6
CONTINUOUS
10
25.3573
20
-29.9948
11
25.1826
21
-30.3375
0
LINE
8
BLACK
6
CONTINUOUS
10
25.1826
20
-30.3375
11
24.9731
21
-30.6601
0
LINE
8
BLACK
6
CONTINUOUS
10
24.9731
20
-30.6601
11
24.7311
21
-30.9591
0
LINE
8
BLACK
6
CONTINUOUS
10
24.7311
20
-30.9591
11
24.4591
21
-31.2311
0
LINE
8
BLACK
6
CONTINUOUS
10
24.4591
20
-31.2311
11
24.1601
21
-31.4731
0
LINE
8
BLACK
6
CONTINUOUS
10
24.1601
20
-31.4731
11
23.8375
21
-31.6826
0
LINE
8
BLACK
6
CONTINUOUS
10
23.8375
20
-31.6826
11
23.4948
21
-31.8573
0
LINE
8
BLACK
6
CONTINUOUS
10
23.4948
20
-31.8573
11
23.1356
21
-31.9951
0
LINE
8
BLACK
6
CONTINUOUS
10
23.1356
20
-31.9951
11
22.7641
21
-32.0947
0
LINE
8
BLACK
6
CONTINUOUS
10
22.7641
20
-32.0947
11
22.3841
21
-32.1549
0
LINE
8
BLACK
6
CONTINUOUS
10
22.3841
20
-32.1549
11
22
21
-32.175
0
LINE
8
BLACK
6
CONTINUOUS
10
22
20
-32.175
11
21.6159
21
-32.1549
0
LINE
8
BLACK
6
CONTINUOUS
10
21.6159
20
-32.1549
11
21.2359
21
-32.0947
0
LINE
8
BLACK
6
CONTINUOUS
10
21.2359
20
-32.0947
11
20.8644
21
-31.9951
0
LINE
8
BLACK
6
CONTINUOUS
10
20.8644
20
-31.9951
11
20.5052
21
-31.8573
0
LINE
8
BLACK
6
CONTINUOUS
10
20.5052
20
-31.8573
11
20.1625
21
-31.6826
0
LINE
8
BLACK
6
CONTINUOUS
10
20.1625
20
-31.6826
11
19.8399
21
-31.4731
0
LINE
8
BLACK
6
CONTINUOUS
10
19.8399
20
-31.4731
11
19.5409
21
-31.2311
0
LINE
8
BLACK
6
CONTINUOUS
10
19.5409
20
-31.2311
11
19.2689
21
-30.9591
0
LINE
8
BLACK
6
CONTINUOUS
10
19.2689
20
-30.9591
11
19.0269
21
-30.6601
0
LINE
8
BLACK
6
CONTINUOUS
10
19.0269
20
-30.6601
11
18.8174
21
-30.3375
0
LINE
8
BLACK
6
CONTINUOUS
10
18.8174
20
-30.3375
11
18.6427
21
-29.9948
0
LINE
8
BLACK
6
CONTINUOUS
10
18.6427
20
-29.9948
11
18.5049
21
-29.6356
0
LINE
8
BLACK
6
CONTINUOUS
10
18.5049
20
-29.6356
11
18.4053
21
-29.2641
0
LINE
8
BLACK
6
CONTINUOUS
10
18.4053
20
-29.2641
11
18.3451
21
-28.8841
0
LINE
8
BLACK
6
CONTINUOUS
10
18.3451
20
-28.8841
11
18.325
21
-28.5
0
LINE
8
BLACK
6
CONTINUOUS
10
18.325
20
-28.5
11
18.3451
21
-28.1159
0
LINE
8
BLACK
6
CONTINUOUS
10
18.3451
20
-28.1159
11
18.4053
21
-27.7359
0
LINE
8
BLACK
6
CONTINUOUS
10
18.5473
20
-29.2339
11
18.6429
21
-29.5908
0
LINE
8
BLACK
6
CONTINUOUS
10
18.6429
20
-29.5908
11
18.7753
21
-29.9357
0
LINE
8
BLACK
6
CONTINUOUS
10
18.7753
20
-29.9357
11
18.9431
21
-30.2649
0
LINE
8
BLACK
6
CONTINUOUS
10
18.9431
20
-30.2649
11
19.1443
21
-30.5748
0
LINE
8
BLACK
6
CONTINUOUS
10
19.1443
20
-30.5748
11
19.3768
21
-30.8619
0
LINE
8
BLACK
6
CONTINUOUS
10
19.3768
20
-30.8619
11
19.6381
21
-31.1232
0
LINE
8
BLACK
6
CONTINUOUS
10
19.6381
20
-31.1232
11
19.9252
21
-31.3557
0
LINE
8
BLACK
6
CONTINUOUS
10
19.9252
20
-31.3557
11
20.2351
21
-31.5569
0
LINE
8
BLACK
6
CONTINUOUS
10
20.2351
20
-31.5569
11
20.5643
21
-31.7247
0
LINE
8
BLACK
6
CONTINUOUS
10
20.5643
20
-31.7247
11
20.9092
21
-31.8571
0
LINE
8
BLACK
6
CONTINUOUS
10
20.9092
20
-31.8571
11
21.2661
21
-31.9527
0
LINE
8
BLACK
6
CONTINUOUS
10
21.2661
20
-31.9527
11
21.631
21
-32.0105
0
LINE
8
BLACK
6
CONTINUOUS
10
21.631
20
-32.0105
11
22
21
-32.0298
0
LINE
8
BLACK
6
CONTINUOUS
10
22
20
-32.0298
11
22.369
21
-32.0105
0
LINE
8
BLACK
6
CONTINUOUS
10
22.369
20
-32.0105
11
22.7339
21
-31.9527
0
LINE
8
BLACK
6
CONTINUOUS
10
22.7339
20
-31.9527
11
23.0908
21
-31.8571
0
LINE
8
BLACK
6
CONTINUOUS
10
23.0908
20
-31.8571
11
23.4357
21
-31.7247
0
LINE
8
BLACK
6
CONTINUOUS
10
23.4357
20
-31.7247
11
23.7649
21
-31.5569
0
LINE
8
BLACK
6
CONTINUOUS
10
23.7649
20
-31.5569
11
24.0748
21
-31.3557
0
LINE
8
BLACK
6
CONTINUOUS
10
24.0748
20
-31.3557
11
24.3619
21
-31.1232
0
LINE
8
BLACK
6
CONTINUOUS
10
24.3619
20
-31.1232
11
24.6232
21
-30.8619
0
LINE
8
BLACK
6
CONTINUOUS
10
24.6232
20
-30.8619
11
24.8557
21
-30.5748
0
LINE
8
BLACK
6
CONTINUOUS
10
24.8557
20
-30.5748
11
25.0569
21
-30.2649
0
LINE
8
BLACK
6
CONTINUOUS
10
25.0569
20
-30.2649
11
25.2247
21
-29.9357
0
LINE
8
BLACK
6
CONTINUOUS
10
25.2247
20
-29.9357
11
25.3571
21
-29.5908
0
LINE
8
BLACK
6
CONTINUOUS
10
25.3571
20
-29.5908
11
25.4527
21
-29.2339
0
LINE
8
BLACK
6
CONTINUOUS
10
25.4527
20
-29.2339
11
25.5105
21
-28.869
0
LINE
8
BLACK
6
CONTINUOUS
10
25.5105
20
-28.869
11
25.5298
21
-28.5
0
LINE
8
BLACK
6
CONTINUOUS
10
25.5298
20
-28.5
11
25.5105
21
-28.131
0
LINE
8
BLACK
6
CONTINUOUS
10
25.5105
20
-28.131
11
25.4527
21
-27.7661
0
LINE
8
BLACK
6
CONTINUOUS
10
25.4527
20
-27.7661
11
25.3571
21
-27.4092
0
LINE
8
BLACK
6
CONTINUOUS
10
25.3571
20
-27.4092
11
25.2247
21
-27.0643
0
LINE
8
BLACK
6
CONTINUOUS
10
25.2247
20
-27.0643
11
25.0569
21
-26.7351
0
LINE
8
BLACK
6
CONTINUOUS
10
25.0569
20
-26.7351
11
24.8557
21
-26.4252
0
LINE
8
BLACK
6
CONTINUOUS
10
24.8557
20
-26.4252
11
24.6232
21
-26.1381
0
LINE
8
BLACK
6
CONTINUOUS
10
24.6232
20
-26.1381
11
24.3619
21
-25.8768
0
LINE
8
BLACK
6
CONTINUOUS
10
24.3619
20
-25.8768
11
24.0748
21
-25.6443
0
LINE
8
BLACK
6
CONTINUOUS
10
24.0748
20
-25.6443
11
23.7649
21
-25.4431
0
LINE
8
BLACK
6
CONTINUOUS
10
23.7649
20
-25.4431
11
23.4357
21
-25.2753
0
LINE
8
BLACK
6
CONTINUOUS
10
23.4357
20
-25.2753
11
23.0908
21
-25.1429
0
LINE
8
BLACK
6
CONTINUOUS
10
23.0908
20
-25.1429
11
22.7339
21
-25.0473
0
LINE
8
BLACK
6
CONTINUOUS
10
22.7339
20
-25.0473
11
22.369
21
-24.9895
0
LINE
8
BLACK
6
CONTINUOUS
10
22.369
20
-24.9895
11
22
21
-24.9702
0
LINE
8
BLACK
6
CONTINUOUS
10
22
20
-24.9702
11
21.631
21
-24.9895
0
LINE
8
BLACK
6
CONTINUOUS
10
21.631
20
-24.9895
11
21.2661
21
-25.0473
0
LINE
8
BLACK
6
CONTINUOUS
10
21.2661
20
-25.0473
11
20.9092
21
-25.1429
0
LINE
8
BLACK
6
CONTINUOUS
10
20.9092
20
-25.1429
11
20.5643
21
-25.2753
0
LINE
8
BLACK
6
CONTINUOUS
10
20.5643
20
-25.2753
11
20.2351
21
-25.4431
0
LINE
8
BLACK
6
CONTINUOUS
10
20.2351
20
-25.4431
11
19.9252
21
-25.6443
0
LINE
8
BLACK
6
CONTINUOUS
10
19.9252
20
-25.6443
11
19.6381
21
-25.8768
0
LINE
8
BLACK
6
CONTINUOUS
10
19.6381
20
-25.8768
11
19.3768
21
-26.1381
0
LINE
8
BLACK
6
CONTINUOUS
10
19.3768
20
-26.1381
11
19.1443
21
-26.4252
0
LINE
8
BLACK
6
CONTINUOUS
10
19.1443
20
-26.4252
11
18.9431
21
-26.7351
0
LINE
8
BLACK
6
CONTINUOUS
10
18.9431
20
-26.7351
11
18.7753
21
-27.0643
0
LINE
8
BLACK
6
CONTINUOUS
10
18.7753
20
-27.0643
11
18.6429
21
-27.4092
0
LINE
8
BLACK
6
CONTINUOUS
10
18.6429
20
-27.4092
11
18.5473
21
-27.7661
0
LINE
8
BLACK
6
CONTINUOUS
10
18.5473
20
-27.7661
11
18.4895
21
-28.131
0
LINE
8
BLACK
6
CONTINUOUS
10
18.4895
20
-28.131
11
18.4702
21
-28.5
0
LINE
8
BLACK
6
CONTINUOUS
10
18.4702
20
-28.5
11
18.4895
21
-28.869
0
LINE
8
BLACK
6
CONTINUOUS
10
18.4895
20
-28.869
11
18.5473
21
-29.2339
0
LINE
8
BLACK
6
CONTINUOUS
10
60.85
20
-28.1021
11
60.914
21
-27.7534
0
LINE
8
BLACK
6
CONTINUOUS
10
60.914
20
-27.7534
11
61.0165
21
-27.4141
0
LINE
8
BLACK
6
CONTINUOUS
10
61.0165
20
-27.4141
11
61.1561
21
-27.0883
0
LINE
8
BLACK
6
CONTINUOUS
10
61.1561
20
-27.0883
11
61.3312
21
-26.7801
0
LINE
8
BLACK
6
CONTINUOUS
10
61.3312
20
-26.7801
11
61.5396
21
-26.4933
0
LINE
8
BLACK
6
CONTINUOUS
10
61.5396
20
-26.4933
11
61.7786
21
-26.2315
0
LINE
8
BLACK
6
CONTINUOUS
10
61.7786
20
-26.2315
11
62.0453
21
-25.9981
0
LINE
8
BLACK
6
CONTINUOUS
10
62.0453
20
-25.9981
11
62.3363
21
-25.7958
0
LINE
8
BLACK
6
CONTINUOUS
10
62.3363
20
-25.7958
11
62.6482
21
-25.6272
0
LINE
8
BLACK
6
CONTINUOUS
10
62.6482
20
-25.6272
11
62.9768
21
-25.4944
0
LINE
8
BLACK
6
CONTINUOUS
10
62.9768
20
-25.4944
11
63.3182
21
-25.3991
0
LINE
8
BLACK
6
CONTINUOUS
10
63.3182
20
-25.3991
11
63.6681
21
-25.3424
0
LINE
8
BLACK
6
CONTINUOUS
10
63.6681
20
-25.3424
11
64.0222
21
-25.3251
0
LINE
8
BLACK
6
CONTINUOUS
10
64.0222
20
-25.3251
11
64.3759
21
-25.3473
0
LINE
8
BLACK
6
CONTINUOUS
10
64.3759
20
-25.3473
11
64.725
21
-25.4089
0
LINE
8
BLACK
6
CONTINUOUS
10
64.725
20
-25.4089
11
65.0651
21
-25.509
0
LINE
8
BLACK
6
CONTINUOUS
10
65.0651
20
-25.509
11
65.3918
21
-25.6463
0
LINE
8
BLACK
6
CONTINUOUS
10
65.3918
20
-25.6463
11
65.7013
21
-25.8193
0
LINE
8
BLACK
6
CONTINUOUS
10
65.7013
20
-25.8193
11
65.9895
21
-26.0256
0
LINE
8
BLACK
6
CONTINUOUS
10
65.9895
20
-26.0256
11
66.2529
21
-26.2628
0
LINE
8
BLACK
6
CONTINUOUS
10
66.2529
20
-26.2628
11
66.4882
21
-26.5279
0
LINE
8
BLACK
6
CONTINUOUS
10
66.4882
20
-26.5279
11
66.6926
21
-26.8175
0
LINE
8
BLACK
6
CONTINUOUS
10
66.6926
20
-26.8175
11
66.8633
21
-27.1281
0
LINE
8
BLACK
6
CONTINUOUS
10
66.8633
20
-27.1281
11
66.9984
21
-27.4558
0
LINE
8
BLACK
6
CONTINUOUS
10
66.9984
20
-27.4558
11
67.0961
21
-27.7966
0
LINE
8
BLACK
6
CONTINUOUS
10
67.0961
20
-27.7966
11
67.1552
21
-28.1461
0
LINE
8
BLACK
6
CONTINUOUS
10
67.1552
20
-28.1461
11
67.175
21
-28.5
0
LINE
8
BLACK
6
CONTINUOUS
10
67.175
20
-28.5
11
67.1738
21
-28.5887
0
LINE
8
BLACK
6
CONTINUOUS
10
67.1738
20
-28.5887
11
67.1441
21
-28.9419
0
LINE
8
BLACK
6
CONTINUOUS
10
67.1441
20
-28.9419
11
67.0753
21
-29.2896
0
LINE
8
BLACK
6
CONTINUOUS
10
67.0753
20
-29.2896
11
66.9681
21
-29.6275
0
LINE
8
BLACK
6
CONTINUOUS
10
66.9681
20
-29.6275
11
66.8239
21
-29.9513
0
LINE
8
BLACK
6
CONTINUOUS
10
66.8239
20
-29.9513
11
66.6445
21
-30.257
0
LINE
8
BLACK
6
CONTINUOUS
10
66.6445
20
-30.257
11
66.4322
21
-30.5409
0
LINE
8
BLACK
6
CONTINUOUS
10
66.4322
20
-30.5409
11
66.1895
21
-30.7992
0
LINE
8
BLACK
6
CONTINUOUS
10
66.1895
20
-30.7992
11
65.9196
21
-31.029
0
LINE
8
BLACK
6
CONTINUOUS
10
65.9196
20
-31.029
11
65.6257
21
-31.2272
0
LINE
8
BLACK
6
CONTINUOUS
10
65.6257
20
-31.2272
11
65.3116
21
-31.3914
0
LINE
8
BLACK
6
CONTINUOUS
10
65.3116
20
-31.3914
11
64.9811
21
-31.5196
0
LINE
8
BLACK
6
CONTINUOUS
10
64.9811
20
-31.5196
11
64.6384
21
-31.6102
0
LINE
8
BLACK
6
CONTINUOUS
10
64.6384
20
-31.6102
11
64.2878
21
-31.6619
0
LINE
8
BLACK
6
CONTINUOUS
10
64.2878
20
-31.6619
11
63.9335
21
-31.6743
0
LINE
8
BLACK
6
CONTINUOUS
10
63.9335
20
-31.6743
11
63.5801
21
-31.6471
0
LINE
8
BLACK
6
CONTINUOUS
10
63.5801
20
-31.6471
11
63.2319
21
-31.5807
0
LINE
8
BLACK
6
CONTINUOUS
10
63.2319
20
-31.5807
11
62.8933
21
-31.4759
0
LINE
8
BLACK
6
CONTINUOUS
10
62.8933
20
-31.4759
11
62.5685
21
-31.334
0
LINE
8
BLACK
6
CONTINUOUS
10
62.5685
20
-31.334
11
62.2615
21
-31.1567
0
LINE
8
BLACK
6
CONTINUOUS
10
62.2615
20
-31.1567
11
61.9762
21
-30.9464
0
LINE
8
BLACK
6
CONTINUOUS
10
61.9762
20
-30.9464
11
61.7161
21
-30.7055
0
LINE
8
BLACK
6
CONTINUOUS
10
61.7161
20
-30.7055
11
61.4845
21
-30.4372
0
LINE
8
BLACK
6
CONTINUOUS
10
61.4845
20
-30.4372
11
61.2842
21
-30.1447
0
LINE
8
BLACK
6
CONTINUOUS
10
61.2842
20
-30.1447
11
61.1178
21
-29.8318
0
LINE
8
BLACK
6
CONTINUOUS
10
61.1178
20
-29.8318
11
60.9873
21
-29.5022
0
LINE
8
BLACK
6
CONTINUOUS
10
60.9873
20
-29.5022
11
60.8944
21
-29.1601
0
LINE
8
BLACK
6
CONTINUOUS
10
60.8944
20
-29.1601
11
60.8402
21
-28.8098
0
LINE
8
BLACK
6
CONTINUOUS
10
60.8402
20
-28.8098
11
60.8254
21
-28.4577
0
LINE
8
BLACK
6
CONTINUOUS
10
60.8254
20
-28.4577
11
60.8253
21
-28.4557
0
LINE
8
BLACK
6
CONTINUOUS
10
60.8253
20
-28.4557
11
60.85
21
-28.1021
0
LINE
8
BLACK
6
CONTINUOUS
10
61.0364
20
-29.1299
11
61.1251
21
-29.4563
0
LINE
8
BLACK
6
CONTINUOUS
10
61.1251
20
-29.4563
11
61.2496
21
-29.7708
0
LINE
8
BLACK
6
CONTINUOUS
10
61.2496
20
-29.7708
11
61.4084
21
-30.0695
0
LINE
8
BLACK
6
CONTINUOUS
10
61.4084
20
-30.0695
11
61.5995
21
-30.3486
0
LINE
8
BLACK
6
CONTINUOUS
10
61.5995
20
-30.3486
11
61.8206
21
-30.6047
0
LINE
8
BLACK
6
CONTINUOUS
10
61.8206
20
-30.6047
11
62.0688
21
-30.8345
0
LINE
8
BLACK
6
CONTINUOUS
10
62.0688
20
-30.8345
11
62.341
21
-31.0352
0
LINE
8
BLACK
6
CONTINUOUS
10
62.341
20
-31.0352
11
62.6339
21
-31.2043
0
LINE
8
BLACK
6
CONTINUOUS
10
62.6339
20
-31.2043
11
62.9439
21
-31.3397
0
LINE
8
BLACK
6
CONTINUOUS
10
62.9439
20
-31.3397
11
63.267
21
-31.4398
0
LINE
8
BLACK
6
CONTINUOUS
10
63.267
20
-31.4398
11
63.5993
21
-31.5032
0
LINE
8
BLACK
6
CONTINUOUS
10
63.5993
20
-31.5032
11
63.9365
21
-31.5291
0
LINE
8
BLACK
6
CONTINUOUS
10
63.9365
20
-31.5291
11
64.2746
21
-31.5173
0
LINE
8
BLACK
6
CONTINUOUS
10
64.2746
20
-31.5173
11
64.6092
21
-31.4679
0
LINE
8
BLACK
6
CONTINUOUS
10
64.6092
20
-31.4679
11
64.9362
21
-31.3815
0
LINE
8
BLACK
6
CONTINUOUS
10
64.9362
20
-31.3815
11
65.2516
21
-31.2592
0
LINE
8
BLACK
6
CONTINUOUS
10
65.2516
20
-31.2592
11
65.5514
21
-31.1024
0
LINE
8
BLACK
6
CONTINUOUS
10
65.5514
20
-31.1024
11
65.8318
21
-30.9133
0
LINE
8
BLACK
6
CONTINUOUS
10
65.8318
20
-30.9133
11
66.0894
21
-30.6941
0
LINE
8
BLACK
6
CONTINUOUS
10
66.0894
20
-30.6941
11
66.3209
21
-30.4475
0
LINE
8
BLACK
6
CONTINUOUS
10
66.3209
20
-30.4475
11
66.5236
21
-30.1766
0
LINE
8
BLACK
6
CONTINUOUS
10
66.5236
20
-30.1766
11
66.6947
21
-29.8849
0
LINE
8
BLACK
6
CONTINUOUS
10
66.6947
20
-29.8849
11
66.8323
21
-29.5759
0
LINE
8
BLACK
6
CONTINUOUS
10
66.8323
20
-29.5759
11
66.9346
21
-29.2535
0
LINE
8
BLACK
6
CONTINUOUS
10
66.9346
20
-29.2535
11
67.0003
21
-28.9217
0
LINE
8
BLACK
6
CONTINUOUS
10
67.0003
20
-28.9217
11
67.0286
21
-28.5846
0
LINE
8
BLACK
6
CONTINUOUS
10
67.0286
20
-28.5846
11
67.0298
21
-28.5
0
LINE
8
BLACK
6
CONTINUOUS
10
67.0298
20
-28.5
11
67.0109
21
-28.1623
0
LINE
8
BLACK
6
CONTINUOUS
10
67.0109
20
-28.1623
11
66.9545
21
-27.8288
0
LINE
8
BLACK
6
CONTINUOUS
10
66.9545
20
-27.8288
11
66.8612
21
-27.5036
0
LINE
8
BLACK
6
CONTINUOUS
10
66.8612
20
-27.5036
11
66.7323
21
-27.1909
0
LINE
8
BLACK
6
CONTINUOUS
10
66.7323
20
-27.1909
11
66.5694
21
-26.8945
0
LINE
8
BLACK
6
CONTINUOUS
10
66.5694
20
-26.8945
11
66.3744
21
-26.6181
0
LINE
8
BLACK
6
CONTINUOUS
10
66.3744
20
-26.6181
11
66.1498
21
-26.3651
0
LINE
8
BLACK
6
CONTINUOUS
10
66.1498
20
-26.3651
11
65.8985
21
-26.1388
0
LINE
8
BLACK
6
CONTINUOUS
10
65.8985
20
-26.1388
11
65.6234
21
-25.9419
0
LINE
8
BLACK
6
CONTINUOUS
10
65.6234
20
-25.9419
11
65.3282
21
-25.7769
0
LINE
8
BLACK
6
CONTINUOUS
10
65.3282
20
-25.7769
11
65.0163
21
-25.6458
0
LINE
8
BLACK
6
CONTINUOUS
10
65.0163
20
-25.6458
11
64.6919
21
-25.5503
0
LINE
8
BLACK
6
CONTINUOUS
10
64.6919
20
-25.5503
11
64.3587
21
-25.4915
0
LINE
8
BLACK
6
CONTINUOUS
10
64.3587
20
-25.4915
11
64.0212
21
-25.4703
0
LINE
8
BLACK
6
CONTINUOUS
10
64.0212
20
-25.4703
11
63.6833
21
-25.4868
0
LINE
8
BLACK
6
CONTINUOUS
10
63.6833
20
-25.4868
11
63.3494
21
-25.5409
0
LINE
8
BLACK
6
CONTINUOUS
10
63.3494
20
-25.5409
11
63.0236
21
-25.6319
0
LINE
8
BLACK
6
CONTINUOUS
10
63.0236
20
-25.6319
11
62.71
21
-25.7586
0
LINE
8
BLACK
6
CONTINUOUS
10
62.71
20
-25.7586
11
62.4124
21
-25.9195
0
LINE
8
BLACK
6
CONTINUOUS
10
62.4124
20
-25.9195
11
62.1347
21
-26.1125
0
LINE
8
BLACK
6
CONTINUOUS
10
62.1347
20
-26.1125
11
61.8802
21
-26.3353
0
LINE
8
BLACK
6
CONTINUOUS
10
61.8802
20
-26.3353
11
61.6521
21
-26.5851
0
LINE
8
BLACK
6
CONTINUOUS
10
61.6521
20
-26.5851
11
61.4533
21
-26.8588
0
LINE
8
BLACK
6
CONTINUOUS
10
61.4533
20
-26.8588
11
61.2862
21
-27.1529
0
LINE
8
BLACK
6
CONTINUOUS
10
61.2862
20
-27.1529
11
61.153
21
-27.4638
0
LINE
8
BLACK
6
CONTINUOUS
10
61.153
20
-27.4638
11
61.0552
21
-27.7876
0
LINE
8
BLACK
6
CONTINUOUS
10
61.0552
20
-27.7876
11
60.9941
21
-28.1203
0
LINE
8
BLACK
6
CONTINUOUS
10
60.9941
20
-28.1203
11
60.9705
21
-28.4577
0
LINE
8
BLACK
6
CONTINUOUS
10
60.9705
20
-28.4577
11
60.9847
21
-28.7957
0
LINE
8
BLACK
6
CONTINUOUS
10
60.9847
20
-28.7957
11
61.0364
21
-29.1299
0
LINE
8
BLACK
6
CONTINUOUS
10
18.4053
20
-5.73592
11
18.5049
21
-5.36436
0
LINE
8
BLACK
6
CONTINUOUS
10
18.5049
20
-5.36436
11
18.6427
21
-5.00524
0
LINE
8
BLACK
6
CONTINUOUS
10
18.6427
20
-5.00524
11
18.8174
21
-4.6625
0
LINE
8
BLACK
6
CONTINUOUS
10
18.8174
20
-4.6625
11
19.0269
21
-4.33989
0
LINE
8
BLACK
6
CONTINUOUS
10
19.0269
20
-4.33989
11
19.2689
21
-4.04094
0
LINE
8
BLACK
6
CONTINUOUS
10
19.2689
20
-4.04094
11
19.5409
21
-3.76894
0
LINE
8
BLACK
6
CONTINUOUS
10
19.5409
20
-3.76894
11
19.8399
21
-3.52686
0
LINE
8
BLACK
6
CONTINUOUS
10
19.8399
20
-3.52686
11
20.1625
21
-3.31736
0
LINE
8
BLACK
6
CONTINUOUS
10
20.1625
20
-3.31736
11
20.5052
21
-3.14272
0
LINE
8
BLACK
6
CONTINUOUS
10
20.5052
20
-3.14272
11
20.8644
21
-3.00487
0
LINE
8
BLACK
6
CONTINUOUS
10
20.8644
20
-3.00487
11
21.2359
21
-2.90531
0
LINE
8
BLACK
6
CONTINUOUS
10
21.2359
20
-2.90531
11
21.6159
21
-2.84513
0
LINE
8
BLACK
6
CONTINUOUS
10
21.6159
20
-2.84513
11
22
21
-2.825
0
LINE
8
BLACK
6
CONTINUOUS
10
22
20
-2.825
11
22.3841
21
-2.84513
0
LINE
8
BLACK
6
CONTINUOUS
10
22.3841
20
-2.84513
11
22.7641
21
-2.90531
0
LINE
8
BLACK
6
CONTINUOUS
10
22.7641
20
-2.90531
11
23.1356
21
-3.00487
0
LINE
8
BLACK
6
CONTINUOUS
10
23.1356
20
-3.00487
11
23.4948
21
-3.14272
0
LINE
8
BLACK
6
CONTINUOUS
10
23.4948
20
-3.14272
11
23.8375
21
-3.31736
0
LINE
8
BLACK
6
CONTINUOUS
10
23.8375
20
-3.31736
11
24.1601
21
-3.52686
0
LINE
8
BLACK
6
CONTINUOUS
10
24.1601
20
-3.52686
11
24.4591
21
-3.76894
0
LINE
8
BLACK
6
CONTINUOUS
10
24.4591
20
-3.76894
11
24.7311
21
-4.04094
0
LINE
8
BLACK
6
CONTINUOUS
10
24.7311
20
-4.04094
11
24.9731
21
-4.33989
0
LINE
8
BLACK
6
CONTINUOUS
10
24.9731
20
-4.33989
11
25.1826
21
-4.6625
0
LINE
8
BLACK
6
CONTINUOUS
10
25.1826
20
-4.6625
11
25.3573
21
-5.00524
0
LINE
8
BLACK
6
CONTINUOUS
10
25.3573
20
-5.00524
11
25.4951
21
-5.36436
0
LINE
8
BLACK
6
CONTINUOUS
10
25.4951
20
-5.36436
11
25.5947
21
-5.73592
0
LINE
8
BLACK
6
CONTINUOUS
10
25.5947
20
-5.73592
11
25.6549
21
-6.11586
0
LINE
8
BLACK
6
CONTINUOUS
10
25.6549
20
-6.11586
11
25.675
21
-6.5
0
LINE
8
BLACK
6
CONTINUOUS
10
25.675
20
-6.5
11
25.6549
21
-6.88414
0
LINE
8
BLACK
6
CONTINUOUS
10
25.6549
20
-6.88414
11
25.5947
21
-7.26408
0
LINE
8
BLACK
6
CONTINUOUS
10
25.5947
20
-7.26408
11
25.4951
21
-7.63564
0
LINE
8
BLACK
6
CONTINUOUS
10
25.4951
20
-7.63564
11
25.3573
21
-7.99476
0
LINE
8
BLACK
6
CONTINUOUS
10
25.3573
20
-7.99476
11
25.1826
21
-8.3375
0
LINE
8
BLACK
6
CONTINUOUS
10
25.1826
20
-8.3375
11
24.9731
21
-8.66011
0
LINE
8
BLACK
6
CONTINUOUS
10
24.9731
20
-8.66011
11
24.7311
21
-8.95905
0
LINE
8
BLACK
6
CONTINUOUS
10
24.7311
20
-8.95905
11
24.4591
21
-9.23106
0
LINE
8
BLACK
6
CONTINUOUS
10
24.4591
20
-9.23106
11
24.1601
21
-9.47314
0
LINE
8
BLACK
6
CONTINUOUS
10
24.1601
20
-9.47314
11
23.8375
21
-9.68264
0
LINE
8
BLACK
6
CONTINUOUS
10
23.8375
20
-9.68264
11
23.4948
21
-9.85728
0
LINE
8
BLACK
6
CONTINUOUS
10
23.4948
20
-9.85728
11
23.1356
21
-9.99513
0
LINE
8
BLACK
6
CONTINUOUS
10
23.1356
20
-9.99513
11
22.7641
21
-10.0947
0
LINE
8
BLACK
6
CONTINUOUS
10
22.7641
20
-10.0947
11
22.3841
21
-10.1549
0
LINE
8
BLACK
6
CONTINUOUS
10
22.3841
20
-10.1549
11
22
21
-10.175
0
LINE
8
BLACK
6
CONTINUOUS
10
22
20
-10.175
11
21.6159
21
-10.1549
0
LINE
8
BLACK
6
CONTINUOUS
10
21.6159
20
-10.1549
11
21.2359
21
-10.0947
0
LINE
8
BLACK
6
CONTINUOUS
10
21.2359
20
-10.0947
11
20.8644
21
-9.99513
0
LINE
8
BLACK
6
CONTINUOUS
10
20.8644
20
-9.99513
11
20.5052
21
-9.85728
0
LINE
8
BLACK
6
CONTINUOUS
10
20.5052
20
-9.85728
11
20.1625
21
-9.68264
0
LINE
8
BLACK
6
CONTINUOUS
10
20.1625
20
-9.68264
11
19.8399
21
-9.47314
0
LINE
8
BLACK
6
CONTINUOUS
10
19.8399
20
-9.47314
11
19.5409
21
-9.23106
0
LINE
8
BLACK
6
CONTINUOUS
10
19.5409
20
-9.23106
11
19.2689
21
-8.95905
0
LINE
8
BLACK
6
CONTINUOUS
10
19.2689
20
-8.95905
11
19.0269
21
-8.66011
0
LINE
8
BLACK
6
CONTINUOUS
10
19.0269
20
-8.66011
11
18.8174
21
-8.3375
0
LINE
8
BLACK
6
CONTINUOUS
10
18.8174
20
-8.3375
11
18.6427
21
-7.99476
0
LINE
8
BLACK
6
CONTINUOUS
10
18.6427
20
-7.99476
11
18.5049
21
-7.63564
0
LINE
8
BLACK
6
CONTINUOUS
10
18.5049
20
-7.63564
11
18.4053
21
-7.26408
0
LINE
8
BLACK
6
CONTINUOUS
10
18.4053
20
-7.26408
11
18.3451
21
-6.88414
0
LINE
8
BLACK
6
CONTINUOUS
10
18.3451
20
-6.88414
11
18.325
21
-6.5
0
LINE
8
BLACK
6
CONTINUOUS
10
18.325
20
-6.5
11
18.3451
21
-6.11586
0
LINE
8
BLACK
6
CONTINUOUS
10
18.3451
20
-6.11586
11
18.4053
21
-5.73592
0
LINE
8
BLACK
6
CONTINUOUS
10
18.5473
20
-7.23389
11
18.6429
21
-7.59078
0
LINE
8
BLACK
6
CONTINUOUS
10
18.6429
20
-7.59078
11
18.7753
21
-7.93571
0
LINE
8
BLACK
6
CONTINUOUS
10
18.7753
20
-7.93571
11
18.9431
21
-8.26492
0
LINE
8
BLACK
6
CONTINUOUS
10
18.9431
20
-8.26492
11
19.1443
21
-8.57479
0
LINE
8
BLACK
6
CONTINUOUS
10
19.1443
20
-8.57479
11
19.3768
21
-8.86192
0
LINE
8
BLACK
6
CONTINUOUS
10
19.3768
20
-8.86192
11
19.6381
21
-9.12318
0
LINE
8
BLACK
6
CONTINUOUS
10
19.6381
20
-9.12318
11
19.9252
21
-9.3557
0
LINE
8
BLACK
6
CONTINUOUS
10
19.9252
20
-9.3557
11
20.2351
21
-9.55693
0
LINE
8
BLACK
6
CONTINUOUS
10
20.2351
20
-9.55693
11
20.5643
21
-9.72467
0
LINE
8
BLACK
6
CONTINUOUS
10
20.5643
20
-9.72467
11
20.9092
21
-9.85708
0
LINE
8
BLACK
6
CONTINUOUS
10
20.9092
20
-9.85708
11
21.2661
21
-9.9527
0
LINE
8
BLACK
6
CONTINUOUS
10
21.2661
20
-9.9527
11
21.631
21
-10.0105
0
LINE
8
BLACK
6
CONTINUOUS
10
21.631
20
-10.0105
11
22
21
-10.0298
0
LINE
8
BLACK
6
CONTINUOUS
10
22
20
-10.0298
11
22.369
21
-10.0105
0
LINE
8
BLACK
6
CONTINUOUS
10
22.369
20
-10.0105
11
22.7339
21
-9.9527
0
LINE
8
BLACK
6
CONTINUOUS
10
22.7339
20
-9.9527
11
23.0908
21
-9.85708
0
LINE
8
BLACK
6
CONTINUOUS
10
23.0908
20
-9.85708
11
23.4357
21
-9.72467
0
LINE
8
BLACK
6
CONTINUOUS
10
23.4357
20
-9.72467
11
23.7649
21
-9.55693
0
LINE
8
BLACK
6
CONTINUOUS
10
23.7649
20
-9.55693
11
24.0748
21
-9.3557
0
LINE
8
BLACK
6
CONTINUOUS
10
24.0748
20
-9.3557
11
24.3619
21
-9.12318
0
LINE
8
BLACK
6
CONTINUOUS
10
24.3619
20
-9.12318
11
24.6232
21
-8.86192
0
LINE
8
BLACK
6
CONTINUOUS
10
24.6232
20
-8.86192
11
24.8557
21
-8.57479
0
LINE
8
BLACK
6
CONTINUOUS
10
24.8557
20
-8.57479
11
25.0569
21
-8.26492
0
LINE
8
BLACK
6
CONTINUOUS
10
25.0569
20
-8.26492
11
25.2247
21
-7.93571
0
LINE
8
BLACK
6
CONTINUOUS
10
25.2247
20
-7.93571
11
25.3571
21
-7.59078
0
LINE
8
BLACK
6
CONTINUOUS
10
25.3571
20
-7.59078
11
25.4527
21
-7.23389
0
LINE
8
BLACK
6
CONTINUOUS
10
25.4527
20
-7.23389
11
25.5105
21
-6.86897
0
LINE
8
BLACK
6
CONTINUOUS
10
25.5105
20
-6.86897
11
25.5298
21
-6.5
0
LINE
8
BLACK
6
CONTINUOUS
10
25.5298
20
-6.5
11
25.5105
21
-6.13103
0
LINE
8
BLACK
6
CONTINUOUS
10
25.5105
20
-6.13103
11
25.4527
21
-5.7661
0
LINE
8
BLACK
6
CONTINUOUS
10
25.4527
20
-5.7661
11
25.3571
21
-5.40922
0
LINE
8
BLACK
6
CONTINUOUS
10
25.3571
20
-5.40922
11
25.2247
21
-5.06429
0
LINE
8
BLACK
6
CONTINUOUS
10
25.2247
20
-5.06429
11
25.0569
21
-4.73508
0
LINE
8
BLACK
6
CONTINUOUS
10
25.0569
20
-4.73508
11
24.8557
21
-4.42521
0
LINE
8
BLACK
6
CONTINUOUS
10
24.8557
20
-4.42521
11
24.6232
21
-4.13808
0
LINE
8
BLACK
6
CONTINUOUS
10
24.6232
20
-4.13808
11
24.3619
21
-3.87682
0
LINE
8
BLACK
6
CONTINUOUS
10
24.3619
20
-3.87682
11
24.0748
21
-3.6443
0
LINE
8
BLACK
6
CONTINUOUS
10
24.0748
20
-3.6443
11
23.7649
21
-3.44307
0
LINE
8
BLACK
6
CONTINUOUS
10
23.7649
20
-3.44307
11
23.4357
21
-3.27533
0
LINE
8
BLACK
6
CONTINUOUS
10
23.4357
20
-3.27533
11
23.0908
21
-3.14292
0
LINE
8
BLACK
6
CONTINUOUS
10
23.0908
20
-3.14292
11
22.7339
21
-3.0473
0
LINE
8
BLACK
6
CONTINUOUS
10
22.7339
20
-3.0473
11
22.369
21
-2.9895
0
LINE
8
BLACK
6
CONTINUOUS
10
22.369
20
-2.9895
11
22
21
-2.97016
0
LINE
8
BLACK
6
CONTINUOUS
10
22
20
-2.97016
11
21.631
21
-2.9895
0
LINE
8
BLACK
6
CONTINUOUS
10
21.631
20
-2.9895
11
21.2661
21
-3.0473
0
LINE
8
BLACK
6
CONTINUOUS
10
21.2661
20
-3.0473
11
20.9092
21
-3.14292
0
LINE
8
BLACK
6
CONTINUOUS
10
20.9092
20
-3.14292
11
20.5643
21
-3.27533
0
LINE
8
BLACK
6
CONTINUOUS
10
20.5643
20
-3.27533
11
20.2351
21
-3.44307
0
LINE
8
BLACK
6
CONTINUOUS
10
20.2351
20
-3.44307
11
19.9252
21
-3.6443
0
LINE
8
BLACK
6
CONTINUOUS
10
19.9252
20
-3.6443
11
19.6381
21
-3.87682
0
LINE
8
BLACK
6
CONTINUOUS
10
19.6381
20
-3.87682
11
19.3768
21
-4.13808
0
LINE
8
BLACK
6
CONTINUOUS
10
19.3768
20
-4.13808
11
19.1443
21
-4.42521
0
LINE
8
BLACK
6
CONTINUOUS
10
19.1443
20
-4.42521
11
18.9431
21
-4.73508
0
LINE
8
BLACK
6
CONTINUOUS
10
18.9431
20
-4.73508
11
18.7753
21
-5.06429
0
LINE
8
BLACK
6
CONTINUOUS
10
18.7753
20
-5.06429
11
18.6429
21
-5.40922
0
LINE
8
BLACK
6
CONTINUOUS
10
18.6429
20
-5.40922
11
18.5473
21
-5.7661
0
LINE
8
BLACK
6
CONTINUOUS
10
18.5473
20
-5.7661
11
18.4895
21
-6.13103
0
LINE
8
BLACK
6
CONTINUOUS
10
18.4895
20
-6.13103
11
18.4702
21
-6.5
0
LINE
8
BLACK
6
CONTINUOUS
10
18.4702
20
-6.5
11
18.4895
21
-6.86897
0
LINE
8
BLACK
6
CONTINUOUS
10
18.4895
20
-6.86897
11
18.5473
21
-7.23389
0
LINE
8
BLACK
6
CONTINUOUS
10
60.85
20
-6.10207
11
60.914
21
-5.75342
0
LINE
8
BLACK
6
CONTINUOUS
10
60.914
20
-5.75342
11
61.0165
21
-5.41409
0
LINE
8
BLACK
6
CONTINUOUS
10
61.0165
20
-5.41409
11
61.1561
21
-5.08828
0
LINE
8
BLACK
6
CONTINUOUS
10
61.1561
20
-5.08828
11
61.3312
21
-4.78008
0
LINE
8
BLACK
6
CONTINUOUS
10
61.3312
20
-4.78008
11
61.5396
21
-4.49331
0
LINE
8
BLACK
6
CONTINUOUS
10
61.5396
20
-4.49331
11
61.7786
21
-4.23155
0
LINE
8
BLACK
6
CONTINUOUS
10
61.7786
20
-4.23155
11
62.0453
21
-3.99807
0
LINE
8
BLACK
6
CONTINUOUS
10
62.0453
20
-3.99807
11
62.3363
21
-3.79577
0
LINE
8
BLACK
6
CONTINUOUS
10
62.3363
20
-3.79577
11
62.6482
21
-3.62717
0
LINE
8
BLACK
6
CONTINUOUS
10
62.6482
20
-3.62717
11
62.9768
21
-3.49439
0
LINE
8
BLACK
6
CONTINUOUS
10
62.9768
20
-3.49439
11
63.3182
21
-3.39907
0
LINE
8
BLACK
6
CONTINUOUS
10
63.3182
20
-3.39907
11
63.6681
21
-3.34239
0
LINE
8
BLACK
6
CONTINUOUS
10
63.6681
20
-3.34239
11
64.0222
21
-3.32508
0
LINE
8
BLACK
6
CONTINUOUS
10
64.0222
20
-3.32508
11
64.3759
21
-3.34733
0
LINE
8
BLACK
6
CONTINUOUS
10
64.3759
20
-3.34733
11
64.725
21
-3.40889
0
LINE
8
BLACK
6
CONTINUOUS
10
64.725
20
-3.40889
11
65.0651
21
-3.50897
0
LINE
8
BLACK
6
CONTINUOUS
10
65.0651
20
-3.50897
11
65.3918
21
-3.64633
0
LINE
8
BLACK
6
CONTINUOUS
10
65.3918
20
-3.64633
11
65.7013
21
-3.81926
0
LINE
8
BLACK
6
CONTINUOUS
10
65.7013
20
-3.81926
11
65.9895
21
-4.0256
0
LINE
8
BLACK
6
CONTINUOUS
10
65.9895
20
-4.0256
11
66.2529
21
-4.26279
0
LINE
8
BLACK
6
CONTINUOUS
10
66.2529
20
-4.26279
11
66.4882
21
-4.52786
0
LINE
8
BLACK
6
CONTINUOUS
10
66.4882
20
-4.52786
11
66.6926
21
-4.81751
0
LINE
8
BLACK
6
CONTINUOUS
10
66.6926
20
-4.81751
11
66.8633
21
-5.12813
0
LINE
8
BLACK
6
CONTINUOUS
10
66.8633
20
-5.12813
11
66.9984
21
-5.45585
0
LINE
8
BLACK
6
CONTINUOUS
10
66.9984
20
-5.45585
11
67.0961
21
-5.79658
0
LINE
8
BLACK
6
CONTINUOUS
10
67.0961
20
-5.79658
11
67.1552
21
-6.14609
0
LINE
8
BLACK
6
CONTINUOUS
10
67.1552
20
-6.14609
11
67.175
21
-6.5
0
LINE
8
BLACK
6
CONTINUOUS
10
67.175
20
-6.5
11
67.1738
21
-6.58865
0
LINE
8
BLACK
6
CONTINUOUS
10
67.1738
20
-6.58865
11
67.1441
21
-6.94187
0
LINE
8
BLACK
6
CONTINUOUS
10
67.1441
20
-6.94187
11
67.0753
21
-7.28959
0
LINE
8
BLACK
6
CONTINUOUS
10
67.0753
20
-7.28959
11
66.9681
21
-7.62746
0
LINE
8
BLACK
6
CONTINUOUS
10
66.9681
20
-7.62746
11
66.8239
21
-7.95129
0
LINE
8
BLACK
6
CONTINUOUS
10
66.8239
20
-7.95129
11
66.6445
21
-8.25702
0
LINE
8
BLACK
6
CONTINUOUS
10
66.6445
20
-8.25702
11
66.4322
21
-8.54085
0
LINE
8
BLACK
6
CONTINUOUS
10
66.4322
20
-8.54085
11
66.1895
21
-8.79925
0
LINE
8
BLACK
6
CONTINUOUS
10
66.1895
20
-8.79925
11
65.9196
21
-9.02898
0
LINE
8
BLACK
6
CONTINUOUS
10
65.9196
20
-9.02898
11
65.6257
21
-9.2272
0
LINE
8
BLACK
6
CONTINUOUS
10
65.6257
20
-9.2272
11
65.3116
21
-9.39142
0
LINE
8
BLACK
6
CONTINUOUS
10
65.3116
20
-9.39142
11
64.9811
21
-9.5196
0
LINE
8
BLACK
6
CONTINUOUS
10
64.9811
20
-9.5196
11
64.6384
21
-9.61015
0
LINE
8
BLACK
6
CONTINUOUS
10
64.6384
20
-9.61015
11
64.2878
21
-9.66193
0
LINE
8
BLACK
6
CONTINUOUS
10
64.2878
20
-9.66193
11
63.9335
21
-9.6743
0
LINE
8
BLACK
6
CONTINUOUS
10
63.9335
20
-9.6743
11
63.5801
21
-9.64711
0
LINE
8
BLACK
6
CONTINUOUS
10
63.5801
20
-9.64711
11
63.2319
21
-9.58069
0
LINE
8
BLACK
6
CONTINUOUS
10
63.2319
20
-9.58069
11
62.8933
21
-9.47587
0
LINE
8
BLACK
6
CONTINUOUS
10
62.8933
20
-9.47587
11
62.5685
21
-9.33396
0
LINE
8
BLACK
6
CONTINUOUS
10
62.5685
20
-9.33396
11
62.2615
21
-9.15673
0
LINE
8
BLACK
6
CONTINUOUS
10
62.2615
20
-9.15673
11
61.9762
21
-8.94638
0
LINE
8
BLACK
6
CONTINUOUS
10
61.9762
20
-8.94638
11
61.7161
21
-8.70554
0
LINE
8
BLACK
6
CONTINUOUS
10
61.7161
20
-8.70554
11
61.4845
21
-8.43721
0
LINE
8
BLACK
6
CONTINUOUS
10
61.4845
20
-8.43721
11
61.2842
21
-8.14474
0
LINE
8
BLACK
6
CONTINUOUS
10
61.2842
20
-8.14474
11
61.1178
21
-7.83176
0
LINE
8
BLACK
6
CONTINUOUS
10
61.1178
20
-7.83176
11
60.9873
21
-7.50219
0
LINE
8
BLACK
6
CONTINUOUS
10
60.9873
20
-7.50219
11
60.8944
21
-7.16012
0
LINE
8
BLACK
6
CONTINUOUS
10
60.8944
20
-7.16012
11
60.8402
21
-6.80983
0
LINE
8
BLACK
6
CONTINUOUS
10
60.8402
20
-6.80983
11
60.8254
21
-6.4577
0
LINE
8
BLACK
6
CONTINUOUS
10
60.8254
20
-6.4577
11
60.8253
21
-6.45567
0
LINE
8
BLACK
6
CONTINUOUS
10
60.8253
20
-6.45567
11
60.85
21
-6.10207
0
LINE
8
BLACK
6
CONTINUOUS
10
61.0364
20
-7.12992
11
61.1251
21
-7.45634
0
LINE
8
BLACK
6
CONTINUOUS
10
61.1251
20
-7.45634
11
61.2496
21
-7.77084
0
LINE
8
BLACK
6
CONTINUOUS
10
61.2496
20
-7.77084
11
61.4084
21
-8.0695
0
LINE
8
BLACK
6
CONTINUOUS
10
61.4084
20
-8.0695
11
61.5995
21
-8.3486
0
LINE
8
BLACK
6
CONTINUOUS
10
61.5995
20
-8.3486
11
61.8206
21
-8.60465
0
LINE
8
BLACK
6
CONTINUOUS
10
61.8206
20
-8.60465
11
62.0688
21
-8.83447
0
LINE
8
BLACK
6
CONTINUOUS
10
62.0688
20
-8.83447
11
62.341
21
-9.0352
0
LINE
8
BLACK
6
CONTINUOUS
10
62.341
20
-9.0352
11
62.6339
21
-9.20433
0
LINE
8
BLACK
6
CONTINUOUS
10
62.6339
20
-9.20433
11
62.9439
21
-9.33974
0
LINE
8
BLACK
6
CONTINUOUS
10
62.9439
20
-9.33974
11
63.267
21
-9.43977
0
LINE
8
BLACK
6
CONTINUOUS
10
63.267
20
-9.43977
11
63.5993
21
-9.50315
0
LINE
8
BLACK
6
CONTINUOUS
10
63.5993
20
-9.50315
11
63.9365
21
-9.5291
0
LINE
8
BLACK
6
CONTINUOUS
10
63.9365
20
-9.5291
11
64.2746
21
-9.5173
0
LINE
8
BLACK
6
CONTINUOUS
10
64.2746
20
-9.5173
11
64.6092
21
-9.46788
0
LINE
8
BLACK
6
CONTINUOUS
10
64.6092
20
-9.46788
11
64.9362
21
-9.38148
0
LINE
8
BLACK
6
CONTINUOUS
10
64.9362
20
-9.38148
11
65.2516
21
-9.25916
0
LINE
8
BLACK
6
CONTINUOUS
10
65.2516
20
-9.25916
11
65.5514
21
-9.10245
0
LINE
8
BLACK
6
CONTINUOUS
10
65.5514
20
-9.10245
11
65.8318
21
-8.9133
0
LINE
8
BLACK
6
CONTINUOUS
10
65.8318
20
-8.9133
11
66.0894
21
-8.69407
0
LINE
8
BLACK
6
CONTINUOUS
10
66.0894
20
-8.69407
11
66.3209
21
-8.4475
0
LINE
8
BLACK
6
CONTINUOUS
10
66.3209
20
-8.4475
11
66.5236
21
-8.17665
0
LINE
8
BLACK
6
CONTINUOUS
10
66.5236
20
-8.17665
11
66.6947
21
-7.8849
0
LINE
8
BLACK
6
CONTINUOUS
10
66.6947
20
-7.8849
11
66.8323
21
-7.57589
0
LINE
8
BLACK
6
CONTINUOUS
10
66.8323
20
-7.57589
11
66.9346
21
-7.25347
0
LINE
8
BLACK
6
CONTINUOUS
10
66.9346
20
-7.25347
11
67.0003
21
-6.92166
0
LINE
8
BLACK
6
CONTINUOUS
10
67.0003
20
-6.92166
11
67.0286
21
-6.5846
0
LINE
8
BLACK
6
CONTINUOUS
10
67.0286
20
-6.5846
11
67.0298
21
-6.5
0
LINE
8
BLACK
6
CONTINUOUS
10
67.0298
20
-6.5
11
67.0109
21
-6.16227
0
LINE
8
BLACK
6
CONTINUOUS
10
67.0109
20
-6.16227
11
66.9545
21
-5.82876
0
LINE
8
BLACK
6
CONTINUOUS
10
66.9545
20
-5.82876
11
66.8612
21
-5.50361
0
LINE
8
BLACK
6
CONTINUOUS
10
66.8612
20
-5.50361
11
66.7323
21
-5.19088
0
LINE
8
BLACK
6
CONTINUOUS
10
66.7323
20
-5.19088
11
66.5694
21
-4.89447
0
LINE
8
BLACK
6
CONTINUOUS
10
66.5694
20
-4.89447
11
66.3744
21
-4.61807
0
LINE
8
BLACK
6
CONTINUOUS
10
66.3744
20
-4.61807
11
66.1498
21
-4.36512
0
LINE
8
BLACK
6
CONTINUOUS
10
66.1498
20
-4.36512
11
65.8985
21
-4.13879
0
LINE
8
BLACK
6
CONTINUOUS
10
65.8985
20
-4.13879
11
65.6234
21
-3.94188
0
LINE
8
BLACK
6
CONTINUOUS
10
65.6234
20
-3.94188
11
65.3282
21
-3.77686
0
LINE
8
BLACK
6
CONTINUOUS
10
65.3282
20
-3.77686
11
65.0163
21
-3.64579
0
LINE
8
BLACK
6
CONTINUOUS
10
65.0163
20
-3.64579
11
64.6919
21
-3.55028
0
LINE
8
BLACK
6
CONTINUOUS
10
64.6919
20
-3.55028
11
64.3587
21
-3.49155
0
LINE
8
BLACK
6
CONTINUOUS
10
64.3587
20
-3.49155
11
64.0212
21
-3.47031
0
LINE
8
BLACK
6
CONTINUOUS
10
64.0212
20
-3.47031
11
63.6833
21
-3.48683
0
LINE
8
BLACK
6
CONTINUOUS
10
63.6833
20
-3.48683
11
63.3494
21
-3.54091
0
LINE
8
BLACK
6
CONTINUOUS
10
63.3494
20
-3.54091
11
63.0236
21
-3.63187
0
LINE
8
BLACK
6
CONTINUOUS
10
63.0236
20
-3.63187
11
62.71
21
-3.75859
0
LINE
8
BLACK
6
CONTINUOUS
10
62.71
20
-3.75859
11
62.4124
21
-3.91947
0
LINE
8
BLACK
6
CONTINUOUS
10
62.4124
20
-3.91947
11
62.1347
21
-4.11251
0
LINE
8
BLACK
6
CONTINUOUS
10
62.1347
20
-4.11251
11
61.8802
21
-4.33531
0
LINE
8
BLACK
6
CONTINUOUS
10
61.8802
20
-4.33531
11
61.6521
21
-4.5851
0
LINE
8
BLACK
6
CONTINUOUS
10
61.6521
20
-4.5851
11
61.4533
21
-4.85875
0
LINE
8
BLACK
6
CONTINUOUS
10
61.4533
20
-4.85875
11
61.2862
21
-5.15286
0
LINE
8
BLACK
6
CONTINUOUS
10
61.2862
20
-5.15286
11
61.153
21
-5.46376
0
LINE
8
BLACK
6
CONTINUOUS
10
61.153
20
-5.46376
11
61.0552
21
-5.78757
0
LINE
8
BLACK
6
CONTINUOUS
10
61.0552
20
-5.78757
11
60.9941
21
-6.12027
0
LINE
8
BLACK
6
CONTINUOUS
10
60.9941
20
-6.12027
11
60.9705
21
-6.4577
0
LINE
8
BLACK
6
CONTINUOUS
10
60.9705
20
-6.4577
11
60.9847
21
-6.79565
0
LINE
8
BLACK
6
CONTINUOUS
10
60.9847
20
-6.79565
11
61.0364
21
-7.12992
0
LINE
8
BLACK
6
CONTINUOUS
10
2.85004
20
-6.10207
11
2.91402
21
-5.75342
0
LINE
8
BLACK
6
CONTINUOUS
10
2.91402
20
-5.75342
11
3.01648
21
-5.41409
0
LINE
8
BLACK
6
CONTINUOUS
10
3.01648
20
-5.41409
11
3.15611
21
-5.08828
0
LINE
8
BLACK
6
CONTINUOUS
10
3.15611
20
-5.08828
11
3.3312
21
-4.78008
0
LINE
8
BLACK
6
CONTINUOUS
10
3.3312
20
-4.78008
11
3.53955
21
-4.49331
0
LINE
8
BLACK
6
CONTINUOUS
10
3.53955
20
-4.49331
11
3.77857
21
-4.23155
0
LINE
8
BLACK
6
CONTINUOUS
10
3.77857
20
-4.23155
11
4.04528
21
-3.99807
0
LINE
8
BLACK
6
CONTINUOUS
10
4.04528
20
-3.99807
11
4.33634
21
-3.79577
0
LINE
8
BLACK
6
CONTINUOUS
10
4.33634
20
-3.79577
11
4.64815
21
-3.62717
0
LINE
8
BLACK
6
CONTINUOUS
10
4.64815
20
-3.62717
11
4.97681
21
-3.49439
0
LINE
8
BLACK
6
CONTINUOUS
10
4.97681
20
-3.49439
11
5.31821
21
-3.39907
0
LINE
8
BLACK
6
CONTINUOUS
10
5.31821
20
-3.39907
11
5.66812
21
-3.34239
0
LINE
8
BLACK
6
CONTINUOUS
10
5.66812
20
-3.34239
11
6.02217
21
-3.32508
0
LINE
8
BLACK
6
CONTINUOUS
10
6.02217
20
-3.32508
11
6.37593
21
-3.34733
0
LINE
8
BLACK
6
CONTINUOUS
10
6.37593
20
-3.34733
11
6.72501
21
-3.40889
0
LINE
8
BLACK
6
CONTINUOUS
10
6.72501
20
-3.40889
11
7.06506
21
-3.50897
0
LINE
8
BLACK
6
CONTINUOUS
10
7.06506
20
-3.50897
11
7.39183
21
-3.64633
0
LINE
8
BLACK
6
CONTINUOUS
10
7.39183
20
-3.64633
11
7.70125
21
-3.81926
0
LINE
8
BLACK
6
CONTINUOUS
10
7.70125
20
-3.81926
11
7.98947
21
-4.0256
0
LINE
8
BLACK
6
CONTINUOUS
10
7.98947
20
-4.0256
11
8.25289
21
-4.26279
0
LINE
8
BLACK
6
CONTINUOUS
10
8.25289
20
-4.26279
11
8.48823
21
-4.52786
0
LINE
8
BLACK
6
CONTINUOUS
10
8.48823
20
-4.52786
11
8.69255
21
-4.81751
0
LINE
8
BLACK
6
CONTINUOUS
10
8.69255
20
-4.81751
11
8.86332
21
-5.12813
0
LINE
8
BLACK
6
CONTINUOUS
10
8.86332
20
-5.12813
11
8.9984
21
-5.45585
0
LINE
8
BLACK
6
CONTINUOUS
10
8.9984
20
-5.45585
11
9.0961
21
-5.79658
0
LINE
8
BLACK
6
CONTINUOUS
10
9.0961
20
-5.79658
11
9.15521
21
-6.14609
0
LINE
8
BLACK
6
CONTINUOUS
10
9.15521
20
-6.14609
11
9.175
21
-6.5
0
LINE
8
BLACK
6
CONTINUOUS
10
9.175
20
-6.5
11
9.17376
21
-6.58865
0
LINE
8
BLACK
6
CONTINUOUS
10
9.17376
20
-6.58865
11
9.1441
21
-6.94187
0
LINE
8
BLACK
6
CONTINUOUS
10
9.1441
20
-6.94187
11
9.07525
21
-7.28959
0
LINE
8
BLACK
6
CONTINUOUS
10
9.07525
20
-7.28959
11
8.96807
21
-7.62746
0
LINE
8
BLACK
6
CONTINUOUS
10
8.96807
20
-7.62746
11
8.8239
21
-7.95129
0
LINE
8
BLACK
6
CONTINUOUS
10
8.8239
20
-7.95129
11
8.64452
21
-8.25702
0
LINE
8
BLACK
6
CONTINUOUS
10
8.64452
20
-8.25702
11
8.43219
21
-8.54085
0
LINE
8
BLACK
6
CONTINUOUS
10
8.43219
20
-8.54085
11
8.18954
21
-8.79925
0
LINE
8
BLACK
6
CONTINUOUS
10
8.18954
20
-8.79925
11
7.9196
21
-9.02898
0
LINE
8
BLACK
6
CONTINUOUS
10
7.9196
20
-9.02898
11
7.62574
21
-9.2272
0
LINE
8
BLACK
6
CONTINUOUS
10
7.62574
20
-9.2272
11
7.31161
21
-9.39142
0
LINE
8
BLACK
6
CONTINUOUS
10
7.31161
20
-9.39142
11
6.98113
21
-9.5196
0
LINE
8
BLACK
6
CONTINUOUS
10
6.98113
20
-9.5196
11
6.63842
21
-9.61015
0
LINE
8
BLACK
6
CONTINUOUS
10
6.63842
20
-9.61015
11
6.28776
21
-9.66193
0
LINE
8
BLACK
6
CONTINUOUS
10
6.28776
20
-9.66193
11
5.93351
21
-9.6743
0
LINE
8
BLACK
6
CONTINUOUS
10
5.93351
20
-9.6743
11
5.58009
21
-9.64711
0
LINE
8
BLACK
6
CONTINUOUS
10
5.58009
20
-9.64711
11
5.2319
21
-9.58069
0
LINE
8
BLACK
6
CONTINUOUS
10
5.2319
20
-9.58069
11
4.89328
21
-9.47587
0
LINE
8
BLACK
6
CONTINUOUS
10
4.89328
20
-9.47587
11
4.56846
21
-9.33396
0
LINE
8
BLACK
6
CONTINUOUS
10
4.56846
20
-9.33396
11
4.26149
21
-9.15673
0
LINE
8
BLACK
6
CONTINUOUS
10
4.26149
20
-9.15673
11
3.97618
21
-8.94638
0
LINE
8
BLACK
6
CONTINUOUS
10
3.97618
20
-8.94638
11
3.7161
21
-8.70554
0
LINE
8
BLACK
6
CONTINUOUS
10
3.7161
20
-8.70554
11
3.48448
21
-8.43721
0
LINE
8
BLACK
6
CONTINUOUS
10
3.48448
20
-8.43721
11
3.28422
21
-8.14474
0
LINE
8
BLACK
6
CONTINUOUS
10
3.28422
20
-8.14474
11
3.11781
21
-7.83176
0
LINE
8
BLACK
6
CONTINUOUS
10
3.11781
20
-7.83176
11
2.98732
21
-7.50219
0
LINE
8
BLACK
6
CONTINUOUS
10
2.98732
20
-7.50219
11
2.89438
21
-7.16012
0
LINE
8
BLACK
6
CONTINUOUS
10
2.89438
20
-7.16012
11
2.84015
21
-6.80983
0
LINE
8
BLACK
6
CONTINUOUS
10
2.84015
20
-6.80983
11
2.82539
21
-6.4577
0
LINE
8
BLACK
6
CONTINUOUS
10
2.82539
20
-6.4577
11
2.82531
21
-6.45567
0
LINE
8
BLACK
6
CONTINUOUS
10
2.82531
20
-6.45567
11
2.85004
21
-6.10207
0
LINE
8
BLACK
6
CONTINUOUS
10
3.03644
20
-7.12992
11
3.12513
21
-7.45634
0
LINE
8
BLACK
6
CONTINUOUS
10
3.12513
20
-7.45634
11
3.24965
21
-7.77084
0
LINE
8
BLACK
6
CONTINUOUS
10
3.24965
20
-7.77084
11
3.40845
21
-8.0695
0
LINE
8
BLACK
6
CONTINUOUS
10
3.40845
20
-8.0695
11
3.59955
21
-8.3486
0
LINE
8
BLACK
6
CONTINUOUS
10
3.59955
20
-8.3486
11
3.82057
21
-8.60465
0
LINE
8
BLACK
6
CONTINUOUS
10
3.82057
20
-8.60465
11
4.06875
21
-8.83447
0
LINE
8
BLACK
6
CONTINUOUS
10
4.06875
20
-8.83447
11
4.34101
21
-9.0352
0
LINE
8
BLACK
6
CONTINUOUS
10
4.34101
20
-9.0352
11
4.63395
21
-9.20433
0
LINE
8
BLACK
6
CONTINUOUS
10
4.63395
20
-9.20433
11
4.94391
21
-9.33974
0
LINE
8
BLACK
6
CONTINUOUS
10
4.94391
20
-9.33974
11
5.26703
21
-9.43977
0
LINE
8
BLACK
6
CONTINUOUS
10
5.26703
20
-9.43977
11
5.59929
21
-9.50315
0
LINE
8
BLACK
6
CONTINUOUS
10
5.59929
20
-9.50315
11
5.93655
21
-9.5291
0
LINE
8
BLACK
6
CONTINUOUS
10
5.93655
20
-9.5291
11
6.2746
21
-9.5173
0
LINE
8
BLACK
6
CONTINUOUS
10
6.2746
20
-9.5173
11
6.60922
21
-9.46788
0
LINE
8
BLACK
6
CONTINUOUS
10
6.60922
20
-9.46788
11
6.93625
21
-9.38148
0
LINE
8
BLACK
6
CONTINUOUS
10
6.93625
20
-9.38148
11
7.25161
21
-9.25916
0
LINE
8
BLACK
6
CONTINUOUS
10
7.25161
20
-9.25916
11
7.55137
21
-9.10245
0
LINE
8
BLACK
6
CONTINUOUS
10
7.55137
20
-9.10245
11
7.83179
21
-8.9133
0
LINE
8
BLACK
6
CONTINUOUS
10
7.83179
20
-8.9133
11
8.08939
21
-8.69407
0
LINE
8
BLACK
6
CONTINUOUS
10
8.08939
20
-8.69407
11
8.32094
21
-8.4475
0
LINE
8
BLACK
6
CONTINUOUS
10
8.32094
20
-8.4475
11
8.52356
21
-8.17665
0
LINE
8
BLACK
6
CONTINUOUS
10
8.52356
20
-8.17665
11
8.69472
21
-7.8849
0
LINE
8
BLACK
6
CONTINUOUS
10
8.69472
20
-7.8849
11
8.8323
21
-7.57589
0
LINE
8
BLACK
6
CONTINUOUS
10
8.8323
20
-7.57589
11
8.93458
21
-7.25347
0
LINE
8
BLACK
6
CONTINUOUS
10
8.93458
20
-7.25347
11
9.00028
21
-6.92166
0
LINE
8
BLACK
6
CONTINUOUS
10
9.00028
20
-6.92166
11
9.02858
21
-6.5846
0
LINE
8
BLACK
6
CONTINUOUS
10
9.02858
20
-6.5846
11
9.02977
21
-6.5
0
LINE
8
BLACK
6
CONTINUOUS
10
9.02977
20
-6.5
11
9.01088
21
-6.16227
0
LINE
8
BLACK
6
CONTINUOUS
10
9.01088
20
-6.16227
11
8.95447
21
-5.82876
0
LINE
8
BLACK
6
CONTINUOUS
10
8.95447
20
-5.82876
11
8.86124
21
-5.50361
0
LINE
8
BLACK
6
CONTINUOUS
10
8.86124
20
-5.50361
11
8.73234
21
-5.19088
0
LINE
8
BLACK
6
CONTINUOUS
10
8.73234
20
-5.19088
11
8.56939
21
-4.89447
0
LINE
8
BLACK
6
CONTINUOUS
10
8.56939
20
-4.89447
11
8.37441
21
-4.61807
0
LINE
8
BLACK
6
CONTINUOUS
10
8.37441
20
-4.61807
11
8.14983
21
-4.36512
0
LINE
8
BLACK
6
CONTINUOUS
10
8.14983
20
-4.36512
11
7.89846
21
-4.13879
0
LINE
8
BLACK
6
CONTINUOUS
10
7.89846
20
-4.13879
11
7.62343
21
-3.94188
0
LINE
8
BLACK
6
CONTINUOUS
10
7.62343
20
-3.94188
11
7.32816
21
-3.77686
0
LINE
8
BLACK
6
CONTINUOUS
10
7.32816
20
-3.77686
11
7.01634
21
-3.64579
0
LINE
8
BLACK
6
CONTINUOUS
10
7.01634
20
-3.64579
11
6.69185
21
-3.55028
0
LINE
8
BLACK
6
CONTINUOUS
10
6.69185
20
-3.55028
11
6.35874
21
-3.49155
0
LINE
8
BLACK
6
CONTINUOUS
10
6.35874
20
-3.49155
11
6.02115
21
-3.47031
0
LINE
8
BLACK
6
CONTINUOUS
10
6.02115
20
-3.47031
11
5.6833
21
-3.48683
0
LINE
8
BLACK
6
CONTINUOUS
10
5.6833
20
-3.48683
11
5.3494
21
-3.54091
0
LINE
8
BLACK
6
CONTINUOUS
10
5.3494
20
-3.54091
11
5.02361
21
-3.63187
0
LINE
8
BLACK
6
CONTINUOUS
10
5.02361
20
-3.63187
11
4.70999
21
-3.75859
0
LINE
8
BLACK
6
CONTINUOUS
10
4.70999
20
-3.75859
11
4.41244
21
-3.91947
0
LINE
8
BLACK
6
CONTINUOUS
10
4.41244
20
-3.91947
11
4.13469
21
-4.11251
0
LINE
8
BLACK
6
CONTINUOUS
10
4.13469
20
-4.11251
11
3.88018
21
-4.33531
0
LINE
8
BLACK
6
CONTINUOUS
10
3.88018
20
-4.33531
11
3.6521
21
-4.5851
0
LINE
8
BLACK
6
CONTINUOUS
10
3.6521
20
-4.5851
11
3.45328
21
-4.85875
0
LINE
8
BLACK
6
CONTINUOUS
10
3.45328
20
-4.85875
11
3.2862
21
-5.15286
0
LINE
8
BLACK
6
CONTINUOUS
10
3.2862
20
-5.15286
11
3.15295
21
-5.46376
0
LINE
8
BLACK
6
CONTINUOUS
10
3.15295
20
-5.46376
11
3.05519
21
-5.78757
0
LINE
8
BLACK
6
CONTINUOUS
10
3.05519
20
-5.78757
11
2.99412
21
-6.12027
0
LINE
8
BLACK
6
CONTINUOUS
10
2.99412
20
-6.12027
11
2.97053
21
-6.4577
0
LINE
8
BLACK
6
CONTINUOUS
10
2.97053
20
-6.4577
11
2.98469
21
-6.79565
0
LINE
8
BLACK
6
CONTINUOUS
10
2.98469
20
-6.79565
11
3.03644
21
-7.12992
  0
ENDSEC
  0
EOF
